<svg xmlns="http://www.w3.org/2000/svg" xml:space="preserve" viewBox="0 0 520.45 189.87"><style>.st0{fill:#3070b3}.st1{fill:#3d3d3c}</style><path d="M132.23 60.73c-14.6-4.58-30.08-6.99-45.79-6.99-28.22 0-55.73 7.74-78.7 21.97v7.72c22.6-15 50.25-23.22 78.7-23.22 15.74 0 31.25 2.52 45.79 7.3zM132.41 102.45c-14.59 4.82-30.15 7.36-45.96 7.36-28.45 0-56.1-8.21-78.7-23.22v7.72c22.96 14.23 50.47 21.97 78.7 21.97 16.21 0 32.17-2.56 47.18-7.43-.61-2.01-1.01-4.15-1.22-6.4" class="st0"/><path d="M163.37 121c-3.41 0-6.5-.53-9.28-1.58s-5.16-2.54-7.12-4.46c-1.97-1.92-3.49-4.24-4.57-6.98-1.08-2.73-1.62-5.78-1.62-9.14V67.47h10.07v31.32c0 2.63.43 4.81 1.3 6.54.86 1.72 1.93 3.09 3.2 4.09 1.27 1.01 2.64 1.7 4.1 2.08s2.77.58 3.92.58 2.46-.19 3.92-.58c1.46-.38 2.83-1.08 4.1-2.08s2.34-2.37 3.2-4.09 1.3-3.9 1.3-6.54V67.47h10.07v31.37c0 3.36-.53 6.4-1.58 9.14-1.05 2.73-2.57 5.06-4.53 6.98-1.97 1.92-4.34 3.41-7.12 4.46-2.79 1.05-5.9 1.58-9.36 1.58M370.51 121.07c-3.41 0-6.5-.53-9.28-1.58s-5.16-2.54-7.12-4.46c-1.97-1.92-3.49-4.25-4.57-6.98s-1.62-5.78-1.62-9.14V67.54h10.07v31.32c0 2.63.43 4.81 1.3 6.54.86 1.72 1.93 3.09 3.2 4.09 1.27 1.01 2.64 1.7 4.1 2.08s2.77.57 3.92.57 2.46-.19 3.92-.57 2.83-1.08 4.1-2.08c1.27-1.01 2.34-2.37 3.2-4.09s1.3-3.9 1.3-6.54V67.54h10.07v31.37c0 3.36-.53 6.4-1.58 9.14-1.06 2.73-2.57 5.06-4.53 6.98-1.97 1.92-4.34 3.41-7.12 4.46s-5.91 1.58-9.36 1.58M187.16 120.1l27.08-52.71h1.04l26.85 52.64h-10.96l-16.43-32.92-16.48 32.96c.01 0-11.1-.1-11.1.03" class="st1"/><path d="M150.45 126.92c-.88-.33-1.72-.7-2.53-1.1-13.39 20.57-36.57 34.22-62.9 34.22-41.37 0-75.02-33.66-75.02-75.02S43.66 10 85.02 10c32.27 0 59.82 20.5 70.38 49.15h10.58C155 24.89 122.88 0 85.02 0 38.14 0 0 38.14 0 85.02s38.14 85.02 85.02 85.02c30.87 0 57.94-16.54 72.84-41.21-.31-.06-.61-.14-.91-.21-2.29-.36-4.46-.92-6.5-1.7M291.55 120.03h1.12V67.47H282.6v31.8l-34.61-31.8h-1.08v52.56h10.07V88.76zM315.9 76.39v43.64h10.07V76.39h15.04v-8.92h-40.22v8.92zM429.66 113.3l16.47-19.79v26.52h10.08V67.54h-.65l-25.9 30.36-25.83-30.36h-.65v52.49h10.07V93.51z" class="st1"/><path d="M185.96 152.37c-2.09.26-4.22.45-6.33.57-25.2 1.45-49.46-7.01-68.3-23.81S81.31 89.2 79.87 63.99c-1.08-18.91 3.44-37.47 13.09-53.68l-8.59-5.12C73.7 23.12 68.69 43.64 69.89 64.55c1.6 27.87 13.95 53.45 34.79 72.03 19.31 17.22 43.76 26.51 69.42 26.51 2.03 0 4.07-.06 6.11-.18 1.92-.11 3.84-.29 5.75-.5z" class="st1"/><path d="M234.83 145.08h-15.05v43.78H209.7v-43.78h-15.12v-8.93h40.25zM400.36 179.93v8.93h-37.94v-52.7h10.08v43.78h27.86zM440.32 188.86l-22.1-23.98v23.98h-10.08v-52.7h10.08v26.78l20.95-26.71h12.38l-21.67 27.22 23.76 25.42h-13.32zM472.57 188.86h-10.08v-52.63h10.08zM520.45 145.08H505.4v43.78h-10.08v-43.78H480.2v-8.93h40.25zM290.41 151.89c-1.44-3.33-3.4-6.24-5.87-8.71s-5.36-4.43-8.68-5.87c-3.31-1.44-6.87-2.16-10.66-2.16-2.61 0-5.12.36-7.52 1.06l4.26 8.71c1.06-.22 2.16-.34 3.29-.34 2.39 0 4.63.49 6.72 1.48 2.08.98 3.9 2.29 5.46 3.92s2.79 3.54 3.7 5.72 1.37 4.45 1.37 6.8c0 2.4-.46 4.68-1.37 6.84s-2.14 4.07-3.7 5.72q-2.34 2.49-5.46 3.96c-3.12 1.47-4.32 1.48-6.72 1.48s-4.63-.49-6.72-1.48q-3.12-1.47-5.46-3.96c-2.34-2.49-2.79-3.56-3.7-5.72s-1.37-4.44-1.37-6.84c0-2.35.46-4.62 1.37-6.8s2.14-4.09 3.7-5.72c.16-.17.33-.32.5-.48l-4.42-9.03c-1.13.83-2.2 1.71-3.2 2.7-2.47 2.47-4.43 5.38-5.87 8.71q-2.16 5.01-2.16 10.62c0 3.79.72 7.34 2.16 10.66 1.44 3.31 3.4 6.2 5.87 8.68 2.47 2.47 5.36 4.43 8.68 5.87 3.31 1.44 6.84 2.16 10.58 2.16 3.79 0 7.34-.72 10.66-2.16 3.31-1.44 6.2-3.4 8.68-5.87 2.47-2.47 4.43-5.36 5.87-8.68 1.44-3.31 2.16-6.86 2.16-10.66.01-3.74-.71-7.28-2.15-10.61M351.23 151.89c-1.44-3.33-3.4-6.24-5.87-8.71s-5.36-4.43-8.68-5.87c-3.31-1.44-6.87-2.16-10.66-2.16-2.61 0-5.12.36-7.52 1.06l4.26 8.71c1.06-.22 2.16-.34 3.29-.34 2.39 0 4.63.49 6.72 1.48 2.08.98 3.9 2.29 5.46 3.92s2.79 3.54 3.7 5.72 1.37 4.45 1.37 6.8c0 2.4-.46 4.68-1.37 6.84s-2.14 4.07-3.7 5.72q-2.34 2.49-5.46 3.96c-3.12 1.47-4.32 1.48-6.72 1.48s-4.63-.49-6.72-1.48q-3.12-1.47-5.46-3.96c-2.34-2.49-2.79-3.56-3.7-5.72s-1.37-4.44-1.37-6.84c0-2.35.46-4.62 1.37-6.8s2.14-4.09 3.7-5.72c.16-.17.33-.32.5-.48l-4.42-9.03c-1.13.83-2.2 1.71-3.2 2.7-2.47 2.47-4.43 5.38-5.87 8.71q-2.16 5.01-2.16 10.62c0 3.79.72 7.34 2.16 10.66 1.44 3.31 3.4 6.2 5.87 8.68 2.47 2.47 5.36 4.43 8.68 5.87 3.31 1.44 6.84 2.16 10.58 2.16 3.79 0 7.34-.72 10.66-2.16 3.31-1.44 6.2-3.4 8.68-5.87 2.47-2.47 4.43-5.36 5.87-8.68 1.44-3.31 2.16-6.86 2.16-10.66.01-3.74-.71-7.28-2.15-10.61M275.18 51.32l-20.726-18.705V51.32h-5.977V19.887h.645l20.683 19.006V19.887h6.02V51.32zM228.096 51.879q-3.053 0-5.547-.946t-4.257-2.666-2.752-4.171q-.946-2.451-.946-5.461V19.887h6.02v18.748q0 2.365.774 3.913t1.892 2.451q1.161.903 2.451 1.247 1.333.344 2.365.344t2.322-.344q1.333-.344 2.451-1.247 1.161-.903 1.935-2.451t.774-3.913V19.887h6.02v18.748q0 3.01-.946 5.461t-2.709 4.171-4.257 2.666-5.59.946M207.671 19.887V51.32h-6.02V35.41l-9.847 11.825L182 35.41v15.91h-6.02V19.887h.387l15.437 18.146 15.48-18.146zM289.59 51.32h-6.02V19.887h6.02zM357.44 19.844V51.32h-5.977V38.807h-15.566V51.32h-5.977V19.844h5.977v13.588h15.566V19.844zM325.28 43.58q-1.032 1.892-2.537 3.44-1.505 1.505-3.354 2.623-1.806 1.075-3.956 1.677-2.107.602-4.386.602-3.354 0-6.321-1.29t-5.203-3.483q-2.193-2.236-3.483-5.203t-1.29-6.321 1.29-6.321 3.483-5.16q2.236-2.236 5.203-3.526t6.321-1.29q2.279 0 4.386.602 2.15.602 3.956 1.72 1.849 1.075 3.354 2.623 1.505 1.505 2.537 3.354l-5.633 2.279q-.688-1.032-1.634-1.935-.903-.903-2.021-1.591t-2.365-1.075-2.58-.387q-2.15 0-4.042.903-1.849.86-3.225 2.322t-2.193 3.44q-.817 1.935-.817 4.042 0 2.15.817 4.085t2.193 3.397 3.225 2.365q1.892.86 4.042.86 1.333 0 2.58-.387t2.365-1.075 2.021-1.591q.946-.946 1.634-1.978z" class="st0"/></svg>
