<svg xmlns="http://www.w3.org/2000/svg" xml:space="preserve" viewBox="0 0 566.21 180.2"><g fill="#1a8ab9"><path d="M59.696.655h11.82l11.04 30.18h.18L93.654.655h11.88v42.48h-7.5V8.994h-.12l-12.9 34.14h-5.28l-12.72-34.14h-.12v34.14h-7.2zM140.818 43.134h-6.84v-4.62h-.12q-.96 2.16-3.33 3.811t-5.61 1.65q-2.82 0-4.83-.99t-3.299-2.61a10.5 10.5 0 0 1-1.89-3.72q-.6-2.1-.6-4.32v-18h7.2v15.96q0 1.26.18 2.64t.78 2.489q.598 1.11 1.649 1.83c1.05.72 1.629.72 2.79.72q1.68 0 2.97-.69t2.1-1.77q.81-1.08 1.23-2.49a10 10 0 0 0 .42-2.85V14.336h7.2zM149.458 14.335h6.84v4.62h.12q.958-2.16 3.329-3.81 2.37-1.65 5.61-1.65 2.82 0 4.83.99t3.3 2.61c1.29 1.62 1.49 2.321 1.89 3.72q.6 2.102.6 4.32v18h-7.2v-15.96q0-1.26-.18-2.64c-.18-1.38-.381-1.75-.78-2.49q-.6-1.11-1.65-1.83c-1.05-.72-1.63-.72-2.79-.72q-1.74 0-3 .69c-1.26.69-1.53 1.05-2.07 1.77s-.95 1.55-1.23 2.49q-.42 1.41-.42 2.85v15.84h-7.2zM184.497 14.335h7.2v28.8h-7.2zm-1.02-9.78q0-1.74 1.29-3.029c1.29-1.289 1.95-1.29 3.27-1.29s2.429.41 3.329 1.23 1.35 1.85 1.35 3.09-.45 2.27-1.35 3.089q-1.35 1.23-3.33 1.23c-1.98 0-2.41-.43-3.27-1.29s-1.29-1.868-1.29-3.03M220.136 22.322q-.84-1.2-2.52-2.01c-1.68-.81-2.26-.81-3.42-.81q-1.98 0-3.479.81a7.6 7.6 0 0 0-2.492 2.13q-.99 1.32-1.469 2.97c-.479 1.65-.48 2.21-.48 3.33q0 1.68.51 3.329a9.3 9.3 0 0 0 1.53 2.97q1.02 1.322 2.55 2.13c1.53.809 2.21.81 3.571.81a9.1 9.1 0 0 0 3.359-.66q1.68-.66 2.701-1.92l4.5 4.56q-1.8 1.92-4.59 2.97t-6.03 1.05q-3.182 0-6.03-1.02-2.852-1.02-4.98-3-2.131-1.978-3.361-4.8-1.23-2.818-1.23-6.42 0-3.479 1.23-6.3 1.23-2.819 3.33-4.8c2.1-1.98 3.03-2.34 4.89-3.06q2.79-1.08 5.97-1.08c3.18 0 4.17.402 6.15 1.2q2.968 1.201 4.71 3.3zM22.738 67.694q-3.06 0-5.73 1.14t-4.59 3.12q-1.92 1.98-3.03 4.74t-1.11 6q0 3.42 1.05 6.209 1.05 2.79 2.94 4.77c1.89 1.98 2.769 2.35 4.53 3.09q2.64 1.11 5.82 1.11 3.12 0 5.79-1.11t4.59-3.09q1.92-1.98 3-4.77t1.08-6.21q0-3.24-1.02-6-1.02-2.758-2.91-4.74c-1.89-1.981-2.771-2.36-4.53-3.12q-2.64-1.139-5.88-1.14m25.5 36.78h-25.62q-5.101 0-9.269-1.47-4.171-1.47-7.141-4.26c-2.97-2.79-3.51-4.14-4.59-6.84q-1.62-4.049-1.62-9.21 0-4.86 1.71-8.85t4.77-6.87c3.06-2.88 4.45-3.408 7.23-4.47q4.17-1.589 9.03-1.59c4.86 0 6.24.532 9 1.59q4.14 1.591 7.169 4.47c3.029 2.88 3.59 4.211 4.71 6.87q1.68 3.99 1.68 8.85 0 2.88-.66 5.28t-1.71 4.35c-1.05 1.95-1.5 2.44-2.4 3.42s-1.83 1.81-2.79 2.49v.121h10.5zM79.495 104.47h-6.84v-4.62h-.12q-.96 2.16-3.33 3.81t-5.61 1.65q-2.82 0-4.83-.99t-3.298-2.61a10.5 10.5 0 0 1-1.891-3.72q-.6-2.1-.6-4.32v-18h7.2v15.96q0 1.26.18 2.64c.18 1.38.38 1.75.78 2.49q.599 1.11 1.65 1.83 1.049.72 2.79.72 1.678 0 2.969-.69t2.1-1.77q.81-1.08 1.23-2.49t.42-2.85V75.67h7.2zM105.899 91.33h-1.62q-1.74 0-3.66.149-1.92.15-3.54.66t-2.7 1.44-1.08 2.55q0 1.02.45 1.71t1.17 1.11q.72.42 1.62.6c.9.18 1.2.18 1.8.18q3.72 0 5.64-1.98t1.92-5.4zm.12 9.479h-.18q-1.081 1.92-3.48 3.15t-5.46 1.231q-1.74 0-3.63-.45t-3.48-1.5c-1.59-1.05-1.94-1.62-2.64-2.762q-1.05-1.708-1.05-4.229 0-3.24 1.83-5.16c1.83-1.92 2.79-2.26 4.71-2.94s4.05-1.129 6.39-1.349q3.508-.33 6.87-.33v-.72q0-2.7-1.95-3.991t-4.65-1.29q-2.28 0-4.38.96t-3.48 2.34l-3.72-4.38q2.46-2.28 5.67-3.42a19.4 19.4 0 0 1 6.51-1.14q3.838 0 6.33 1.08 2.49 1.08 3.93 2.82c1.44 1.74 1.629 2.46 2.01 3.9q.57 2.16.57 4.32v17.52h-6.72zM121.138 75.667h6.84v4.62h.12q.96-2.16 3.33-3.81t5.61-1.65q2.82 0 4.83.99t3.299 2.61c1.289 1.62 1.49 2.321 1.89 3.72q.6 2.101.6 4.32v18h-7.2v-15.96q0-1.26-.18-2.64c-.18-1.38-.38-1.75-.78-2.49q-.6-1.11-1.65-1.83c-1.05-.72-1.63-.72-2.789-.72q-1.74 0-3 .69c-1.26.69-1.53 1.05-2.07 1.77s-.951 1.55-1.23 2.49q-.42 1.41-.42 2.85v15.84h-7.2zM202.736 104.47h-6.84v-4.62h-.12q-.96 2.16-3.33 3.81t-5.61 1.65q-2.82 0-4.83-.99t-3.298-2.61a10.5 10.5 0 0 1-1.891-3.72q-.6-2.1-.6-4.32v-18h7.2v15.96q0 1.26.18 2.64c.18 1.38.38 1.75.78 2.49q.598 1.11 1.649 1.83 1.05.72 2.79.72 1.68 0 2.97-.69t2.1-1.77q.81-1.08 1.23-2.49t.42-2.85V75.67h7.2zM245.749 74.827q2.818 0 4.829.99t3.301 2.61q1.29 1.62 1.89 3.72t.6 4.32v18h-7.202v-15.96q0-1.26-.179-2.64c-.179-1.38-.38-1.75-.78-2.49s-.95-1.35-1.65-1.83-1.63-.72-2.79-.72q-1.68 0-2.88.72t-1.98 1.86q-.78 1.14-1.14 2.55c-.36 1.41-.36 1.87-.36 2.79v15.72h-7.2v-17.4q0-2.7-1.29-4.47t-4.049-1.77q-1.62 0-2.82.69a5.9 5.9 0 0 0-1.95 1.77q-.75 1.08-1.14 2.489-.39 1.41-.39 2.85v15.84h-7.2v-28.8h6.84v4.62h.12q.48-1.08 1.29-2.04t1.92-1.74q1.11-.779 2.55-1.23c1.44-.45 2.02-.45 3.18-.45q3.36 0 5.58 1.5c2.22 1.5 2.618 2.32 3.42 3.96q1.437-2.639 3.84-4.048 2.4-1.41 5.64-1.411M92.819 123.322h8.46l11.7 32.699h.24l11.82-32.7h8.159l-17.04 42.48h-6.54zM152.15 152.661h-1.62q-1.74 0-3.659.15-1.92.151-3.54.66-1.62.51-2.7 1.44t-1.08 2.551q0 1.02.45 1.71t1.17 1.109q.72.42 1.62.6c.9.18 1.2.18 1.8.18q3.72 0 5.64-1.98t1.92-5.399zm.12 9.48h-.18q-1.08 1.92-3.479 3.15t-5.46 1.231q-1.74 0-3.63-.45t-3.48-1.5c-1.59-1.05-1.94-1.62-2.64-2.762q-1.05-1.71-1.05-4.23 0-3.24 1.83-5.159c1.83-1.919 2.79-2.259 4.71-2.94q2.88-1.02 6.39-1.35t6.87-.33v-.72q0-2.7-1.95-3.99t-4.65-1.29q-2.28.002-4.38.96-2.1.963-3.48 2.34l-3.72-4.38a16.3 16.3 0 0 1 5.67-3.42 19.4 19.4 0 0 1 6.51-1.14q3.84.001 6.33 1.082 2.49 1.08 3.93 2.818a10.1 10.1 0 0 1 2.01 3.902q.57 2.159.57 4.318v17.52h-6.72zM219.83 148.522q0-1.38-.39-2.64a6.1 6.1 0 0 0-1.23-2.22q-.842-.96-2.131-1.53-1.29-.57-3.03-.57-3.24 0-5.489 1.95-2.25 1.95-2.49 5.01zm7.199 3.24v.959q0 .483-.06.961h-21.9q.12 1.56.81 2.85c.69 1.29 1.07 1.6 1.83 2.22a9 9 0 0 0 2.58 1.469 8.4 8.4 0 0 0 3 .541q2.7 0 4.56-.99a8.57 8.57 0 0 0 3.06-2.73l4.8 3.84q-4.26 5.76-12.36 5.76-3.36 0-6.18-1.05c-2.82-1.05-3.51-1.69-4.89-2.97s-2.46-2.85-3.24-4.71q-1.17-2.79-1.17-6.33 0-3.478 1.17-6.33 1.17-2.85 3.21-4.86t4.83-3.12q2.79-1.11 6.03-1.11 3 0 5.55.991 2.55.99 4.41 2.939t2.91 4.86c1.05 2.91 1.05 4.21 1.05 6.81M229.669 137.001h7.978l8.042 20.94h.118l7.141-20.94h7.5l-13.62 34.98q-.78 1.98-1.68 3.51a9.8 9.8 0 0 1-2.16 2.58q-1.26 1.05-2.969 1.59-1.712.54-4.11.54-.901 0-1.83-.09-.93-.09-1.89-.33l.6-6.24q.72.238 1.41.33.689.09 1.29.09 1.138 0 1.92-.27a3.3 3.3 0 0 0 1.32-.84q.538-.57.96-1.41c.422-.84.578-1.22.898-1.98l1.442-3.659zM167.51 165.802h7.2v-42.514h-7.2zM183.59 165.802h7.2v-42.514h-7.2zM255.762 20.815q-.6-2.1-1.89-3.72t-3.3-2.61q-2.01-.99-4.83-.99-1.62 0-3 .42t-2.459 1.11c-1.079.69-1.35.98-1.89 1.56q-.812.87-1.23 1.77h-.12V.237h-7.2v42.897h7.2v-15.72q0-1.438.42-2.82a7.9 7.9 0 0 1 1.26-2.488 6.2 6.2 0 0 1 2.099-1.771q1.26-.66 3-.66c1.74 0 2.09.24 2.79.72a4.94 4.94 0 0 1 1.62 1.83q.57 1.11.75 2.46c.18 1.35.18 1.77.18 2.61v15.84h7.2v-18q0-2.218-.6-4.32M171.23 81.427v-5.76h-7.2v-8.34h-.009v-1.632h-7.074v2.564h.004v7.408h-5.04v5.76h5.04v13.44q0 2.1.39 3.929.39 1.83 1.44 3.24t2.85 2.22q1.8.81 4.68.81 1.2 0 2.52-.21 1.318-.21 2.28-.568l-.24-5.642q-.661.3-1.5.451c-.84.151-1.08.15-1.56.15q-2.4 0-3.09-1.26t-.69-3.18v-13.38zM525.222 126.415c-35.917 15.226-57.82-13.529-84.521-51.639 50.025-24.96 97.607-29.006 110.883 2.31 5.777 13.626-3.556 39.661-26.362 49.329m-93.213-64.026C400.95 17.967 350.5-15.247 297.493 7.223a175 175 0 0 0-14.637 7.048v43.63c8.107-5.282 15.743-9.54 22.59-12.443 33.702-14.286 70.631 12.48 94.537 34.829-34.612 23.418-76.966 56.25-117.127 85.378v.134h26.586c35.605-25.326 71.128-51.438 101.645-73.06 35.233 35.087 64.128 74.72 114.963 53.17 35.696-15.133 47.197-49.953 36.05-76.251-9.472-22.342-56.363-42.08-130.095-7.27"/></g></svg>
