<svg xmlns="http://www.w3.org/2000/svg" id="Layer_2" data-name="Layer 2" viewBox="0 0 367.82 136.8"><defs><style>.cls-1{opacity:.3}.cls-1,.cls-2,.cls-3,.cls-4{stroke-width:0}.cls-1,.cls-4{fill:#231f20}.cls-2,.cls-5{fill:#1a1a1a}.cls-5{stroke:#414042;stroke-miterlimit:10;stroke-width:.2px}.cls-3{fill:#333}.cls-4{opacity:.4}</style></defs><g data-name="Layer 1"><path d="m53.64 133.23-18.06-2.05-.1-17.8 18.32 1.79zM122.66 79.97H0V65.29h122.77z" class="cls-3"/><path d="M9.83 62.06h103.11l9.83 3.23H0zM63.4 85.31l13.02.95-22.62 28.91-18.32-1.79z" class="cls-1"/><path d="m26.6 19.61-13.4-.53L12.52.11 26.01 0z" class="cls-3"/><path d="m100.49 2.97-.39 13.11-73.5 3.53L26.02.04z" class="cls-4"/><path d="M95.1 56.7 27.9 40.65l-.32-13.22 68.16 10.24z" class="cls-3"/><path d="M95.74 37.67 27.58 27.43l11.63-.47 70.57 9.61z" class="cls-1"/><path d="m265.95 72.82-9.74.1 2.75-1.65 9.57.01z" class="cls-4"/><path d="M172.41 39.46h8.74l12.57 27.25 12.55-27.29h8.68l.05 40.72h-8.45l-.03-23.13-10.75 23.15h-4.08l-10.75-23.12.03 23.14h-8.51zM232.44 77.64c-3.46-1.65-6.14-4.01-8.02-7.1-1.89-3.09-2.84-6.71-2.84-10.87s.94-7.84 2.84-11.05q2.85-4.815 7.83-7.47t11.1-2.67c4.08 0 7.76.87 11.05 2.64 3.29 1.76 5.88 4.25 7.79 7.45s2.86 6.88 2.87 11.04c0 2.56-.59 5.05-1.77 7.46s-2.67 4.34-4.45 5.78h7.11v7.22l-21.45.03c-4.58 0-8.61-.81-12.07-2.46Zm17.47-6.79c1.9-.99 3.4-2.45 4.48-4.38s1.63-4.19 1.62-6.79c0-2.6-.56-4.89-1.67-6.85s-2.63-3.46-4.55-4.51-4.07-1.57-6.44-1.56c-2.41 0-4.57.53-6.5 1.58-1.92 1.05-3.44 2.56-4.57 4.52-1.12 1.96-1.68 4.25-1.68 6.85 0 3.96 1.18 7.06 3.54 9.29 2.35 2.23 5.43 3.34 9.24 3.34 2.45 0 4.62-.5 6.53-1.5ZM280.04 80.23c-2.45-.46-4.45-1.08-6.01-1.86v-7.81c2.05 1.01 4.19 1.76 6.4 2.26 2.22.5 4.33.75 6.35.75q3.375 0 5.13-1.17c1.16-.78 1.75-1.87 1.74-3.27 0-1.01-.29-1.86-.88-2.56-.58-.7-1.43-1.33-2.54-1.89s-2.81-1.31-5.1-2.24c-3.81-1.55-6.57-3.28-8.28-5.21s-2.57-4.3-2.57-7.14c0-2.29.61-4.32 1.86-6.09 1.24-1.77 2.99-3.14 5.24-4.12 2.25-.97 4.85-1.46 7.81-1.47 2.41 0 4.55.19 6.41.57 1.87.39 3.69.99 5.48 1.8v7.58c-3.41-1.7-6.83-2.55-10.25-2.55-2.18 0-3.88.38-5.13 1.14q-1.86 1.14-1.86 3.24c0 1.01.29 1.84.88 2.5.58.66 1.4 1.24 2.45 1.75 1.05.5 2.76 1.24 5.13 2.21 2.76 1.16 4.92 2.28 6.47 3.34 1.55 1.07 2.7 2.33 3.44 3.78.74 1.46 1.11 3.25 1.11 5.39 0 3.69-1.32 6.57-3.98 8.63s-6.63 3.1-11.91 3.1c-2.49 0-4.96-.23-7.4-.69ZM314.35 80.18c-2.45-.46-4.45-1.08-6.01-1.86v-7.81c2.05 1.01 4.19 1.76 6.4 2.26 2.22.5 4.33.75 6.35.75q3.375 0 5.13-1.17c1.16-.78 1.75-1.87 1.74-3.27 0-1.01-.29-1.87-.88-2.56-.58-.7-1.43-1.33-2.54-1.89s-2.81-1.31-5.1-2.24c-3.81-1.55-6.57-3.28-8.28-5.2s-2.57-4.3-2.57-7.14c0-2.29.61-4.32 1.86-6.09 1.24-1.77 2.99-3.14 5.24-4.12 2.25-.97 4.85-1.46 7.81-1.47 2.41 0 4.55.19 6.41.57s3.69.98 5.48 1.8v7.58c-3.41-1.7-6.83-2.55-10.25-2.55-2.18 0-3.88.38-5.13 1.14q-1.86 1.14-1.86 3.24c0 1.01.29 1.85.88 2.5.58.66 1.4 1.24 2.45 1.75 1.05.5 2.76 1.24 5.13 2.21 2.76 1.16 4.92 2.28 6.47 3.34 1.55 1.07 2.7 2.33 3.44 3.78.74 1.46 1.11 3.25 1.11 5.39 0 3.69-1.32 6.57-3.98 8.63s-6.63 3.1-11.91 3.1c-2.49 0-4.96-.23-7.4-.69Z" class="cls-2"/><path d="M172.6 93.89h2.46l6.01 13.16 6.01-13.16h2.46v16.88h-2.39v-12l-5.48 12h-1.21l-5.51-12v12h-2.37V93.89ZM193.76 109.88c-.8-.84-1.19-1.96-1.19-3.36v-7.34h2.44v7.24c0 1.85.93 2.78 2.78 2.78 1.63 0 2.9-.73 3.82-2.2v-7.82h2.44v11.59h-2.37v-1.64c-.55.69-1.2 1.2-1.94 1.52q-1.125.48-2.43.48-2.34 0-3.54-1.26ZM207.17 99.18h2.37v1.67c.55-.69 1.22-1.2 2.02-1.53s1.63-.5 2.5-.5q2.325 0 3.45 1.23c.76.82 1.13 1.92 1.13 3.31v7.41h-2.44v-7.17c0-1.88-.9-2.83-2.71-2.83q-1.155 0-2.16.54c-1.005.54-1.24.91-1.73 1.65v7.8h-2.44V99.17ZM222.07 96.5c-.27-.27-.41-.61-.41-1.01s.14-.74.41-1.01.61-.41 1.01-.41.77.14 1.05.41.42.61.42 1.01-.14.74-.42 1.01-.63.41-1.05.41-.74-.14-1.01-.41Zm-.22 2.68h2.49v11.59h-2.49zM230.38 110.41a5.36 5.36 0 0 1-2.33-2.11c-.56-.93-.83-2.02-.83-3.3s.28-2.37.83-3.3c.55-.92 1.34-1.64 2.34-2.14s2.16-.75 3.46-.75c1.77 0 3.19.35 4.25 1.04v2c-1.05-.72-2.38-1.09-4.01-1.09-1.32 0-2.39.36-3.2 1.08s-1.22 1.77-1.22 3.15.4 2.43 1.21 3.14 1.86 1.06 3.16 1.06c1.63 0 3.03-.39 4.2-1.16v1.98c-.56.39-1.2.67-1.92.85q-1.08.27-2.52.27c-1.29 0-2.43-.24-3.43-.72ZM240.9 92.93h2.44v7.85c1.11-1.3 2.59-1.96 4.44-1.96q2.325 0 3.45 1.23c.76.82 1.13 1.92 1.13 3.31v7.41h-2.44v-7.17c0-1.88-.9-2.83-2.71-2.83q-1.155 0-2.16.54c-1.005.54-1.24.91-1.73 1.65v7.8h-2.44V92.92ZM268.3 109.73c-1.41-.69-2.5-1.68-3.28-2.96s-1.17-2.77-1.17-4.48.39-3.25 1.16-4.58a7.97 7.97 0 0 1 3.19-3.09c1.35-.73 2.87-1.1 4.54-1.1s3.19.37 4.54 1.1 2.42 1.76 3.19 3.09 1.16 2.85 1.16 4.58q0 2.055-.93 3.75c-.62 1.13-1.44 2-2.45 2.6h3.65v2.12h-8.72c-1.83 0-3.46-.35-4.87-1.04Zm7.74-1.93c.97-.48 1.72-1.2 2.26-2.14s.81-2.06.81-3.37-.28-2.43-.84-3.42-1.33-1.75-2.29-2.28-2.04-.8-3.24-.8-2.27.27-3.25.8-1.74 1.29-2.31 2.27c-.56.98-.85 2.12-.85 3.43s.27 2.45.81 3.38a5.26 5.26 0 0 0 2.26 2.12q1.455.72 3.33.72c1.875 0 2.34-.24 3.31-.72ZM285.13 109.88c-.8-.84-1.19-1.96-1.19-3.36v-7.34h2.44v7.24c0 1.85.93 2.78 2.78 2.78 1.63 0 2.9-.73 3.82-2.2v-7.82h2.44v11.59h-2.37v-1.64c-.55.69-1.2 1.2-1.94 1.52q-1.125.48-2.43.48-2.34 0-3.54-1.26ZM298.96 110.06c-.85-.72-1.27-1.69-1.27-2.91 0-1.29.41-2.28 1.22-2.98s1.97-1.05 3.47-1.05c1.59 0 2.95.32 4.06.97v-.6c0-.92-.28-1.6-.83-2.04s-1.43-.66-2.62-.66c-.71 0-1.4.07-2.06.21q-1.005.21-1.8.57v-1.98c.48-.22 1.11-.41 1.88-.54s1.52-.21 2.25-.21c1.92 0 3.34.42 4.26 1.27.92.84 1.39 2.02 1.39 3.51v7.17h-2.29v-1.3c-.5.55-1.09.96-1.78 1.24s-1.52.42-2.5.42c-1.4 0-2.52-.36-3.37-1.07Zm6.08-1.24c.63-.31 1.09-.73 1.4-1.28v-1.57c-1.05-.68-2.21-1.01-3.5-1.01-.93 0-1.63.18-2.09.54q-.69.54-.69 1.65c0 1.42.92 2.12 2.78 2.12.77 0 1.47-.15 2.1-.46ZM311.92 99.18h2.37v1.67c.55-.69 1.22-1.2 2.02-1.53s1.63-.5 2.5-.5q2.325 0 3.45 1.23c.76.82 1.13 1.92 1.13 3.31v7.41h-2.44v-7.17c0-1.88-.9-2.83-2.71-2.83q-1.155 0-2.16.54c-1.005.54-1.24.91-1.73 1.65v7.8h-2.44V99.17ZM328.16 110.12c-.64-.68-.95-1.63-.95-2.87v-6.18h-1.76v-1.88h1.76v-3.48h2.46v3.48h2.85v1.88h-2.85v6.01c0 .77.15 1.32.45 1.64s.84.48 1.63.48c.47 0 .93-.1 1.4-.31v1.93c-.61.21-1.37.31-2.27.31-1.17 0-2.08-.34-2.72-1.01ZM336.39 109.88c-.8-.84-1.19-1.96-1.19-3.36v-7.34h2.44v7.24c0 1.85.93 2.78 2.78 2.78 1.63 0 2.9-.73 3.82-2.2v-7.82h2.44v11.59h-2.37v-1.64c-.55.69-1.2 1.2-1.94 1.52q-1.125.48-2.43.48-2.34 0-3.54-1.26ZM349.8 99.18h2.32v1.67c.55-.68 1.17-1.18 1.86-1.52s1.41-.51 2.15-.51c.93 0 1.67.16 2.22.47s.95.79 1.21 1.44c.52-.63 1.15-1.1 1.9-1.42s1.5-.48 2.26-.48c1.42 0 2.44.36 3.07 1.07.63.72.94 1.77.94 3.17v7.7h-2.37v-7.39c0-.95-.18-1.62-.53-2.02-.35-.39-.96-.59-1.81-.59-1.22 0-2.22.53-2.99 1.59.03.24.05.64.05 1.18v7.22h-2.37v-7.39c0-.95-.16-1.62-.48-2.02-.32-.39-.9-.59-1.74-.59-1.22 0-2.32.69-3.28 2.08v7.92h-2.39V99.17ZM174.9 136.45q-1.41-.255-2.31-.69v-2.22c1.54.72 3.21 1.09 5 1.09 2.51 0 3.77-.84 3.77-2.54 0-.58-.14-1.05-.41-1.4s-.67-.66-1.18-.93-1.35-.63-2.51-1.1c-1.59-.64-2.75-1.35-3.45-2.12-.71-.77-1.06-1.75-1.06-2.92 0-.88.24-1.67.72-2.35s1.16-1.22 2.03-1.59 1.87-.57 2.99-.57c.92 0 1.75.07 2.49.22s1.46.38 2.17.7v2.12c-1.4-.63-2.82-.94-4.25-.94-1.16 0-2.04.21-2.66.63-.61.42-.92 1.01-.92 1.79 0 .53.13.98.4 1.34s.66.68 1.18.97 1.3.63 2.33 1.05c1.14.47 2.04.91 2.71 1.33.66.42 1.16.93 1.51 1.53s.52 1.36.52 2.26c0 1.46-.52 2.6-1.57 3.41-1.05.8-2.59 1.21-4.64 1.21-.97 0-1.92-.08-2.86-.25ZM188.93 135.96c-.99-.49-1.76-1.2-2.32-2.12-.56-.93-.83-2.02-.83-3.27s.27-2.33.82-3.26a5.57 5.57 0 0 1 2.32-2.16c1-.51 2.15-.76 3.45-.76s2.45.25 3.45.76 1.77 1.23 2.33 2.16c.55.93.83 2.02.83 3.26s-.28 2.35-.83 3.27c-.56.93-1.33 1.63-2.33 2.12s-2.15.74-3.45.74-2.45-.25-3.44-.74Zm6.43-2.35c.74-.77 1.11-1.79 1.11-3.04s-.37-2.33-1.11-3.09-1.74-1.14-2.99-1.14-2.25.38-2.99 1.14q-1.11 1.14-1.11 3.09c0 1.95.37 2.27 1.11 3.04s1.74 1.16 2.99 1.16 2.25-.39 2.99-1.16ZM201.59 126.63h-1.76v-1.88h1.76v-2.27c0-1.34.38-2.35 1.13-3.05.76-.7 1.77-1.05 3.04-1.05.66 0 1.28.1 1.86.29v2.03a3.3 3.3 0 0 0-1.4-.31c-.76 0-1.31.18-1.67.54-.35.36-.53.93-.53 1.7v2.12h2.9v1.88h-2.9v9.71h-2.44v-9.71ZM210.23 135.69c-.64-.68-.95-1.63-.95-2.87v-6.18h-1.76v-1.88h1.76v-3.48h2.46v3.48h2.85v1.88h-2.85v6.01c0 .77.15 1.32.45 1.64s.84.48 1.63.48c.47 0 .93-.1 1.4-.31v1.93c-.61.21-1.37.31-2.27.31-1.17 0-2.08-.34-2.72-1.01ZM216.42 124.75h2.49l2.61 8.6 2.58-8.6h2.2l2.58 8.6 2.61-8.6H234l-3.77 11.59h-2.34l-2.68-8.64-2.68 8.64h-2.37zM236.11 135.63c-.85-.72-1.27-1.69-1.27-2.91 0-1.29.41-2.28 1.22-2.98s1.97-1.05 3.47-1.05c1.59 0 2.95.32 4.06.97v-.6c0-.92-.28-1.6-.83-2.04s-1.43-.66-2.62-.66c-.71 0-1.4.07-2.06.21q-1.005.21-1.8.57v-1.98c.48-.22 1.11-.41 1.88-.54s1.52-.21 2.25-.21c1.92 0 3.34.42 4.26 1.27.92.84 1.39 2.02 1.39 3.51v7.17h-2.29v-1.3c-.5.55-1.09.96-1.78 1.24s-1.52.42-2.5.42c-1.4 0-2.52-.36-3.37-1.07Zm6.08-1.25c.63-.31 1.09-.73 1.4-1.28v-1.57c-1.05-.68-2.21-1.01-3.5-1.01-.93 0-1.63.18-2.09.54q-.69.54-.69 1.65c0 1.42.92 2.12 2.78 2.12.77 0 1.47-.15 2.1-.46ZM249.07 124.75h2.37v2.08c.48-.71 1.16-1.23 2.04-1.57s1.9-.51 3.05-.51v1.91c-1.24 0-2.3.2-3.19.6s-1.5 1.04-1.83 1.91v7.17h-2.44zM259.32 135.1c-1.21-1.07-1.82-2.58-1.82-4.53s.54-3.4 1.63-4.51 2.64-1.67 4.65-1.67c1.34 0 2.47.25 3.41.76.93.51 1.64 1.21 2.11 2.1s.71 1.91.71 3.05v1.21h-10.19c.08 1.09.54 1.91 1.39 2.45s1.99.81 3.44.81q1.11 0 2.25-.21c1.14-.21 1.42-.32 2-.54v1.96c-.51.21-1.2.38-2.04.52s-1.68.21-2.5.21c-2.14 0-3.82-.54-5.04-1.61Zm8.39-5.31q-.045-1.635-1.08-2.55c-.68-.6-1.65-.91-2.91-.91s-2.17.31-2.85.94-1.03 1.46-1.06 2.51h7.9ZM283.41 136.45q-1.41-.255-2.31-.69v-2.22c1.54.72 3.21 1.09 5 1.09 2.51 0 3.77-.84 3.77-2.54 0-.58-.14-1.05-.41-1.4s-.67-.66-1.18-.93-1.35-.63-2.51-1.1c-1.59-.64-2.75-1.35-3.45-2.12-.71-.77-1.06-1.75-1.06-2.92 0-.88.24-1.67.72-2.35s1.16-1.22 2.03-1.59 1.87-.57 2.99-.57c.92 0 1.75.07 2.49.22s1.46.38 2.17.7v2.12c-1.4-.63-2.82-.94-4.25-.94-1.16 0-2.04.21-2.66.63-.61.42-.92 1.01-.92 1.79 0 .53.13.98.4 1.34s.66.68 1.18.97 1.3.63 2.33 1.05c1.14.47 2.04.91 2.71 1.33.66.42 1.16.93 1.51 1.53s.52 1.36.52 2.26c0 1.46-.52 2.6-1.57 3.41-1.05.8-2.59 1.21-4.64 1.21-.97 0-1.92-.08-2.86-.25ZM296.04 135.69c-.64-.68-.95-1.63-.95-2.87v-6.18h-1.76v-1.88h1.76v-3.48h2.46v3.48h2.85v1.88h-2.85v6.01c0 .77.15 1.32.45 1.64s.84.48 1.63.48c.47 0 .93-.1 1.4-.31v1.93c-.61.21-1.37.31-2.27.31-1.17 0-2.08-.34-2.72-1.01ZM303.75 135.63c-.85-.72-1.27-1.69-1.27-2.91 0-1.29.41-2.28 1.22-2.98s1.97-1.05 3.47-1.05c1.59 0 2.95.32 4.06.97v-.6c0-.92-.28-1.6-.83-2.04s-1.43-.66-2.62-.66c-.71 0-1.4.07-2.06.21q-1.005.21-1.8.57v-1.98c.48-.22 1.11-.41 1.88-.54s1.52-.21 2.25-.21c1.92 0 3.34.42 4.26 1.27.92.84 1.39 2.02 1.39 3.51v7.17h-2.29v-1.3c-.5.55-1.09.96-1.78 1.24s-1.52.42-2.5.42c-1.4 0-2.52-.36-3.37-1.07Zm6.07-1.25c.63-.31 1.09-.73 1.4-1.28v-1.57c-1.05-.68-2.21-1.01-3.5-1.01-.93 0-1.63.18-2.09.54q-.69.54-.69 1.65c0 1.42.92 2.12 2.78 2.12.77 0 1.47-.15 2.1-.46ZM318.9 135.98a5.36 5.36 0 0 1-2.33-2.11c-.56-.93-.83-2.02-.83-3.3s.28-2.37.83-3.3c.55-.92 1.34-1.64 2.34-2.14s2.16-.75 3.46-.75c1.77 0 3.19.35 4.25 1.04v2c-1.05-.72-2.38-1.09-4.01-1.09-1.32 0-2.39.36-3.2 1.08s-1.22 1.77-1.22 3.15.4 2.43 1.21 3.14 1.86 1.06 3.16 1.06c1.63 0 3.03-.39 4.2-1.16v1.98c-.56.39-1.2.67-1.92.85q-1.08.27-2.52.27c-1.29 0-2.43-.24-3.43-.72ZM329.42 118.5h2.44v17.84h-2.44zm2.47 11.97 5.34-5.72h2.97l-5.36 5.72 5.92 5.87h-2.97l-5.89-5.87Z" class="cls-5"/></g></svg>
