<svg xmlns="http://www.w3.org/2000/svg" xmlns:xlink="http://www.w3.org/1999/xlink" width="975.507" height="403.44" viewBox="0 0 731.63 302.58"><defs><path id="f" d="M44.109-10.594a20.7 20.7 0 0 1-3.469 4.688 23.3 23.3 0 0 1-4.562 3.578Q33.576-.828 30.67 0c-2.904.828-3.949.828-6.03.828Q20.06.827 16-.938 11.935-2.7 8.906-5.735q-3.034-3.03-4.797-7.078-1.751-4.062-1.75-8.656-.001-4.575 1.75-8.64c1.176-2.708 2.773-5.07 4.797-7.094q3.029-3.03 7.094-4.782 4.06-1.764 8.64-1.765 3.124 0 6.032.828a22 22 0 0 1 5.406 2.312q2.498 1.502 4.562 3.594a21 21 0 0 1 3.469 4.61l-7.703 3.125a16.2 16.2 0 0 0-2.203-2.657 16 16 0 0 0-2.797-2.171 14.5 14.5 0 0 0-3.234-1.47 11.9 11.9 0 0 0-3.532-.53q-2.94 0-5.5 1.203a14.5 14.5 0 0 0-4.437 3.203q-1.875 2.004-3 4.687a14.3 14.3 0 0 0-1.11 5.547q-.002 2.94 1.11 5.594 1.125 2.643 3 4.64A14.3 14.3 0 0 0 19.14-8.03q2.56 1.205 5.5 1.203 1.828 0 3.532-.516a14.4 14.4 0 0 0 3.234-1.469q1.53-.951 2.797-2.219c1.267-1.268 1.578-1.734 2.203-2.671z"/><path id="n" d="M21.703 0h-17v-43.047h17c6.156 0 11.211 1.805 15.172 5.406q3.17 2.878 4.781 6.969 1.624 4.095 1.625 9.14-.001 5.129-1.625 9.22c-1.074 2.718-2.668 5.039-4.781 6.953q-2.878 2.658-6.734 4.015C27.578-.445 24.766 0 21.703 0m-8.766-7.297h8.766a21.6 21.6 0 0 0 4.64-.516 10.16 10.16 0 0 0 4.266-2.093q1.905-1.562 3.14-4.328Q35-17 35-21.47q0-4.464-1.25-7.265-1.236-2.796-3.171-4.313a10.7 10.7 0 0 0-4.297-2.062 21 21 0 0 0-4.578-.532h-8.766z"/><path id="s" d="m.36 0 21.983-42.984h.829L45.172 0h-8.938l-3.36-6.766H12.579L9.296 0zm16.218-13.938h12.297l-6.109-13z"/><path id="a" d="M39.094-39.75V0h-7.547v-15.797H11.891V0H4.344v-39.75h7.547v17.156h19.656V-39.75z"/><path id="b" d="M.328 0 20.64-39.688h.75L41.702 0h-8.25l-3.094-6.25H11.624L8.577 0zm14.984-12.875h11.344l-5.64-12z"/><path id="c" d="M13.031 0H5.437v-39.688h7.594z"/><path id="d" d="M11.891 0H4.344v-39.75h18.031q3.029.001 5.547 1.016 2.53 1 4.328 2.828 1.794 1.814 2.797 4.343c.664 1.68 1 3.512 1 5.5q0 4.5-2.25 7.875-2.25 3.364-6 4.829A750 750 0 0 1 37.735 0h-9.063A259 259 0 0 1 24-6.235a427 427 0 0 1-4.562-6.422H11.89zm0-19.391h10.484c.688 0 1.398-.133 2.14-.406a5.5 5.5 0 0 0 1.97-1.235c.581-.562 1.062-1.257 1.437-2.093q.576-1.25.578-2.938 0-.874-.219-2.062a6.4 6.4 0 0 0-.86-2.282q-.657-1.091-1.859-1.843c-.792-.508-1.855-.766-3.187-.766H11.891z"/><path id="g" d="M11.891-33.016v9.938H31.11v6.89H11.891v9.344h21.672V0H4.344v-39.75h29.219v6.734z"/><path id="h" d="m2.766-5.219 4.125-6.078a43.4 43.4 0 0 0 6.156 3.563 15.55 15.55 0 0 0 6.656 1.484c1.238 0 2.328-.148 3.266-.453.937-.313 1.726-.711 2.375-1.203q.983-.734 1.468-1.672.499-.95.5-1.875-.001-1.2-.734-2.031c-.492-.563-1.14-1.024-1.953-1.39q-1.22-.547-2.875-.923a65 65 0 0 0-3.453-.703q-1.19-.216-2.766-.516a33 33 0 0 1-3.265-.828 21 21 0 0 1-3.313-1.343 12.2 12.2 0 0 1-2.937-2.125 9.8 9.8 0 0 1-2.078-3.032q-.784-1.764-.782-4.156c0-2.32.469-4.25 1.406-5.781q1.407-2.31 3.61-3.64 2.203-1.324 4.89-1.876a26 26 0 0 1 5.188-.547q2.483 0 4.437.329c1.313.218 2.524.539 3.641.953a20 20 0 0 1 3.281 1.578 46 46 0 0 1 3.453 2.25l-4.234 5.969q-2.814-1.952-5.422-2.985a14.8 14.8 0 0 0-5.484-1.031q-.986.002-2.235.25a9 9 0 0 0-2.36.781q-1.111.549-1.843 1.39-.736.832-.734 2.032-.001 1.19.86 2 .873.814 2.233 1.36c.907.367 1.899.68 2.985.937q1.64.375 3.156.75 1.139.268 2.688.547 1.544.268 3.203.765 1.652.488 3.28 1.297a11.2 11.2 0 0 1 2.907 2.094q1.278 1.266 2.063 3.14.78 1.876.78 4.532-.001 3.094-1.093 5.375a9.9 9.9 0 0 1-3.094 3.781Q28.716-.762 25.953 0c-2.763.762-3.891.766-6.141.766-2.062 0-3.883-.156-5.453-.469q-2.361-.449-4.313-1.234a25 25 0 0 1-3.703-1.875A74 74 0 0 1 2.765-5.22z"/><path id="i" d="M42.891-21.719a52 52 0 0 0-.047 2.125q-.063.86-.062 1.703c0 .843-.016.992-.047 1.281q-.33 3.738-2.047 6.938a18.9 18.9 0 0 1-4.39 5.515q-2.69 2.314-6.188 3.625A21 21 0 0 1 22.75.765Q18.515.764 14.766-.86c-2.5-1.094-4.684-2.57-6.547-4.437q-2.782-2.795-4.422-6.531c-1.086-2.5-1.625-5.16-1.625-7.985q-.001-4.231 1.625-8 1.64-3.778 4.422-6.578 2.796-2.794 6.547-4.422 3.749-1.64 7.984-1.64 5.374.002 9.844 2.5 4.482 2.5 7.266 6.672l-6.516 3.968c-1.168-1.695-2.683-3.125-4.547-4.28q-2.782-1.749-6.047-1.75-2.72 0-5.078 1.124a13.8 13.8 0 0 0-4.125 2.953q-1.768 1.845-2.797 4.313a13.2 13.2 0 0 0-1.03 5.14q0 2.708 1.03 5.156 1.03 2.44 2.797 4.282a14 14 0 0 0 4.125 2.969c1.57.742 3.266 1.109 5.078 1.109q2.062.001 3.953-.625a12.6 12.6 0 0 0 3.485-1.766 12.3 12.3 0 0 0 2.734-2.718 10.8 10.8 0 0 0 1.72-3.47H19.984v-6.843z"/><path id="p" d="M38.062 0 11.89-23.625V0H4.343v-39.688h.813l26.125 24v-24h7.593V0z"/><path id="t" d="M21.391.703Q17.529.701 14.375-.484 11.235-1.685 9-3.86 6.78-6.03 5.563-9.125c-1.217-3.096-1.219-4.36-1.219-6.89v-23.673h7.61v23.672q-.002 2.988.968 4.938.982 1.957 2.422 3.094 1.435 1.143 3.094 1.578 1.653.438 2.953.437 1.311.001 2.969-.437 1.652-.436 3.094-1.578 1.434-1.138 2.406-3.094.984-1.95.984-4.938v-23.672h7.594v23.672q0 3.798-1.203 6.891-1.19 3.096-3.422 5.266-2.221 2.173-5.375 3.375Q25.296.7 21.391.703z"/><path id="u" d="M32.906-33.016H21.562V0h-7.61v-33.016H2.548v-6.734h30.359z"/><path id="v" d="M22.906.766Q18.671.765 14.922-.86c-2.493-1.094-4.668-2.57-6.532-4.438-1.867-1.863-3.343-4.039-4.437-6.531-1.086-2.5-1.625-5.18-1.625-8.047q-.002-4.231 1.625-8c1.094-2.52 2.57-4.71 4.437-6.578q2.795-2.794 6.532-4.422 3.749-1.624 7.984-1.625 4.296.001 8.047 1.625 3.75 1.628 6.531 4.422 2.794 2.8 4.422 6.578 1.64 3.769 1.64 8 0 4.299-1.64 8.047-1.628 3.737-4.422 6.531-2.782 2.799-6.531 4.438Q27.202.765 22.906.766m0-34.156q-2.706 0-5.078 1.109a13.7 13.7 0 0 0-4.125 2.969A14.3 14.3 0 0 0 10.906-25a13.2 13.2 0 0 0-1.031 5.125c0 1.813.344 3.54 1.031 5.172a14.8 14.8 0 0 0 2.797 4.313 13.8 13.8 0 0 0 4.125 2.984q2.372 1.112 5.078 1.11 2.718.002 5.078-1.11a13.6 13.6 0 0 0 4.125-2.984 14.5 14.5 0 0 0 2.797-4.313 13.2 13.2 0 0 0 1.031-5.172q0-2.653-1.031-5.125a14 14 0 0 0-2.797-4.312 13.5 13.5 0 0 0-4.125-2.969q-2.36-1.108-5.078-1.11"/><path id="w" d="M44.359-39.688V0h-7.594v-20.094L24.327-5.156 11.952-20.094V0h-7.61v-39.688h.485l19.5 22.906 19.547-22.906z"/><path id="x" d="M4.984-13.734v4.078h7.985v2.906H4.984V0H1.813v-16.562h12.172v2.828z"/><path id="y" d="M9.547.313c-1.18 0-2.29-.227-3.328-.672a9 9 0 0 1-2.735-1.844 9 9 0 0 1-1.843-2.735A8.3 8.3 0 0 1 .969-8.28q-.002-1.764.672-3.328a8.8 8.8 0 0 1 1.843-2.735 8.7 8.7 0 0 1 2.735-1.844 8.2 8.2 0 0 1 3.328-.687q1.78 0 3.344.687a8.6 8.6 0 0 1 2.719 1.844 8.5 8.5 0 0 1 1.843 2.735 8.2 8.2 0 0 1 .688 3.328q0 1.782-.688 3.343a8.7 8.7 0 0 1-1.843 2.735A8.8 8.8 0 0 1 12.89-.36a8.4 8.4 0 0 1-3.343.671m0-14.234q-1.125 0-2.11.468c-.984.468-1.23.727-1.718 1.235a5.8 5.8 0 0 0-1.172 1.797 5.6 5.6 0 0 0-.422 2.14q0 1.125.422 2.156.434 1.02 1.172 1.797a5.6 5.6 0 0 0 1.719 1.25c.656.305 1.359.453 2.109.453s1.453-.148 2.11-.453a5.7 5.7 0 0 0 1.718-1.25q.75-.779 1.172-1.797.436-1.03.438-2.156c0-.738-.149-1.453-.438-2.14a5.55 5.55 0 0 0-1.172-1.797c-.492-.508-1.062-.922-1.719-1.235s-1.36-.469-2.11-.469"/><path id="z" d="M4.953 0h-3.14v-16.562h7.515q1.264 0 2.313.422a5.192 5.192 0 0 1 2.953 2.984 6.1 6.1 0 0 1 .422 2.297q0 1.875-.938 3.281c-.938 1.406-1.46 1.61-2.5 2.016A250 250 0 0 1 15.718 0h-3.765Q10.95-1.295 10-2.609a212 212 0 0 1-1.906-2.656h-3.14zm0-8.078h4.375c.281 0 .57-.055.875-.172.313-.113.586-.285.828-.516q.375-.357.61-.875c.235-.518.234-.75.234-1.218q0-.357-.094-.86a2.6 2.6 0 0 0-.36-.953q-.268-.45-.765-.766-.503-.311-1.328-.312H4.953z"/></defs><g transform="translate(-120.84 -67.122)"><use xlink:href="#a" x="495.307" y="251.302" fill="#3c3c3c"/><use xlink:href="#b" x="538.74" y="251.302" fill="#3c3c3c"/><use xlink:href="#c" x="580.762" y="251.302" fill="#3c3c3c"/><use xlink:href="#d" x="599.221" y="251.302" fill="#3c3c3c"/><use xlink:href="#f" x="449.548" y="251.302" fill="#3070b3"/></g><g transform="translate(-120.84 -67.122)"><use xlink:href="#g" x="499.948" y="310.118" fill="#3c3c3c"/><use xlink:href="#h" x="540.287" y="310.118" fill="#3c3c3c"/><use xlink:href="#c" x="580.462" y="310.118" fill="#3c3c3c"/><use xlink:href="#i" x="602.179" y="310.118" fill="#3c3c3c"/><use xlink:href="#n" x="452.543" y="310.118" fill="#3070b3"/><use xlink:href="#p" x="650.39" y="310.118" fill="#3c3c3c"/></g><g transform="translate(-120.84 -67.122)"><use xlink:href="#s" x="448.371" y="368.934" fill="#3070b3"/><use xlink:href="#t" x="496.247" y="368.934" fill="#3c3c3c"/><use xlink:href="#u" x="538.974" y="368.934" fill="#3c3c3c"/><use xlink:href="#b" x="672.374" y="368.934" fill="#3c3c3c"/><use xlink:href="#v" x="574.047" y="368.934" fill="#3c3c3c"/><use xlink:href="#w" x="622.149" y="368.934" fill="#3c3c3c"/><use xlink:href="#u" x="708.913" y="368.934" fill="#3c3c3c"/><use xlink:href="#c" x="744.854" y="368.934" fill="#3c3c3c"/><use xlink:href="#v" x="765.485" y="368.934" fill="#3c3c3c"/><use xlink:href="#p" x="813.587" y="368.934" fill="#3c3c3c"/></g><path fill="#3070b3" d="M149.39 144.3v129.2h-32.301V144.3H-.001v28.262h28.262v129.2h28.266v-129.2h32.297v129.2h88.824v-129.2h32.301v129.2h28.262v-129.2h32.301v129.2h28.262v-157.46z"/><g fill="none" stroke="#3070b3" stroke-miterlimit="10" stroke-width="3.5"><path d="M538.04 23.6c14.689-10.304 29.122-14.37 42.044-10.57-27.29-8.027-55.637-6.007-82.418 4.095M677.45 78.15c.007.004.011-.008.007-.012-24.215-30.09-57.504-53.379-97.367-65.105 27.293 8.031 50.031 25.074 67.078 48.07"/><path d="M497.67 17.124c26.78-10.102 55.124-12.12 82.417-4.094-39.773-11.699-80.285-10.176-116.88 1.938-.05.016-.039.09.012.09M647.161 61.1c-17.047-22.997-39.785-40.04-67.074-48.07 12.922 3.804 22.852 15.038 29.625 31.651"/><path d="M609.711 44.687c-6.773-16.617-16.703-27.848-29.629-31.652-12.922-3.8-27.355.266-42.043 10.57M392.79 118.6c14.833-30.281 35.087-55.668 58.353-74.45-5.582-6.042-10.262-12.226-13.95-18.456-27.644 13.785-52.015 34.008-70.671 59.398"/><path stroke-width="7" d="M721 189.229a196.5 196.5 0 0 1-3.083 47.07"/><path d="M693.369 101.046c-6.473 3.243-13.754 5.907-21.723 7.965 9.394 28.387 12.672 60.695 8.746 94.184M469.839 116.608c6.8-14.734 14.137-28.309 21.793-40.46-16.22-9.68-29.941-20.583-40.492-31.997-23.266 18.781-43.52 44.168-58.352 74.45"/><path d="M671.648 109.02c-15.05 3.882-32.488 5.617-51.367 4.972-.172 17.551-1.898 36.617-5.25 56.602"/><path d="M615.03 170.589c3.348-19.984 5.079-39.051 5.25-56.602-20.905-.715-43.554-4.32-66.62-11.105-23.066-6.79-44.06-16.02-62.023-26.738M647.161 61.1c10.367 13.983 18.613 30.175 24.48 47.913 7.969-2.058 15.25-4.723 21.723-7.965-4.742-7.98-10.195-15.805-16.031-23.062M463.22 15.058c-.094 0 .082-.09-.012-.09-8.836 2.937-17.71 6.582-26.02 10.723 3.688 6.23 8.367 12.414 13.95 18.457 14.538-11.734 30.237-20.88 46.526-27.023"/><path d="M609.711 44.687c7.223 17.73 10.84 41.605 10.563 69.305 18.88.645 36.316-1.09 51.367-4.972-5.867-17.738-14.113-33.93-24.48-47.914M497.67 17.124c-16.29 6.145-31.993 15.29-46.528 27.023 10.551 11.418 24.273 22.312 40.492 31.996 14.766-23.434 30.734-41.55 46.41-52.543"/><path stroke-width="7" d="M353.4 105.017c43.669-78.918 137.35-119.94 227.14-93.523 81.802 24.062 136.01 96.918 140.46 177.74"/><path d="M492.981 4.316c16.047 25.637 48.055 47.246 87.84 56.066 28.863 6.398 56.86 4.968 79.746-2.578M645.979 175.647c25.398-.379 49.762-3.383 72.46-8.742M378.3 69.827c13.97 15.25 30.523 29.473 49.25 42.238"/></g><g fill="#3c3c3c" transform="translate(-120.84 -67.122)"><use xlink:href="#x" x="643.503" y="251.821"/><use xlink:href="#y" x="658.253" y="251.821"/><use xlink:href="#z" x="677.39" y="251.821"/></g></svg>
