<svg xmlns="http://www.w3.org/2000/svg" width="605.268" height="286.179" viewBox="0 0 160.144 75.718"><path d="M-171.19 291.544c-12.165 0-22.998 5.75-29.927 14.68h3.347c6.46-7.405 15.97-12.08 26.58-12.08s20.12 4.675 26.58 12.08h3.346c-6.928-8.93-17.761-14.68-29.926-14.68m0 7.234a30.5 30.5 0 0 0-20.004 7.446h4.234a27.9 27.9 0 0 1 15.77-4.846c5.85 0 11.28 1.787 15.77 4.846h4.235a30.5 30.5 0 0 0-20.005-7.446m-51.144 10.045v.002a20.53 20.53 0 0 0-17.704 10.26 20.53 20.53 0 0 0 0 20.52 20.53 20.53 0 0 0 17.703 10.259h32.003a28.5 28.5 0 0 1-3.957-4.6h-27.978a15.91 15.91 0 0 1-13.787-7.959 15.91 15.91 0 0 1 0-15.92 15.91 15.91 0 0 1 13.787-7.96v-.002h28.027a28.4 28.4 0 0 1 3.988-4.6h-32.015zm70.148 0a28.4 28.4 0 0 1 4.06 4.6h44.965v.002a15.91 15.91 0 0 1 13.787 7.96 15.91 15.91 0 0 1 0 15.92 15.91 15.91 0 0 1-13.787 7.96h-42.474v4.599h42.542a20.53 20.53 0 0 0 17.703-10.26 20.53 20.53 0 0 0 0-20.52 20.53 20.53 0 0 0-17.703-10.259v-.002zm-20.41 11.893q-.87.03-1.739.095-.003.174-.003.349 0 1.171.11 2.314a41 41 0 0 1 3.081-.125c3.252.006 6.514.414 9.57 1.192a38.6 38.6 0 0 1 9.291 3.704 19 19 0 0 0-.477-3.254 41.5 41.5 0 0 0-19.832-4.275zm-6.341.712a41.6 41.6 0 0 0-10.592 3.565 19 19 0 0 0-.477 3.247 39 39 0 0 1 11.217-4.139q-.135-1.32-.148-2.673m-11.069 9.11q.1 1.674.479 3.257a41.6 41.6 0 0 0 16.081 4.23q-.984-1.351-1.81-2.813a38 38 0 0 1-2.929-.42 38.7 38.7 0 0 1-11.821-4.254m37.72.004a39 39 0 0 1-11.803 4.249c-1.842.338-3.724.54-5.61.608a24 24 0 0 0 2.14 2.54q1.488-.13 2.961-.37a41 41 0 0 0 11.836-3.783c.249-1.05.41-2.134.477-3.244m-48.922 21.922c6.924 8.996 17.8 14.798 30.018 14.798s23.093-5.802 30.018-14.798h-3.334c-6.463 7.473-16.017 12.199-26.684 12.199s-20.22-4.726-26.683-12.2zm9.877 0a30.5 30.5 0 0 0 20.141 7.564 30.5 30.5 0 0 0 20.14-7.564h-4.197a27.9 27.9 0 0 1-15.943 4.964 27.9 27.9 0 0 1-15.943-4.964z" style="baseline-shift:baseline;display:inline;overflow:visible;vector-effect:none;fill:#3070b3;fill-opacity:1;stroke-width:1.60009;stroke-miterlimit:10;paint-order:markers fill stroke;stop-color:#000" transform="translate(242.786 -291.544)"/><path d="M-171.146 305.896q-1.814.002-3.555.269c-11.27 1.72-19.94 11.485-19.94 23.225 0 12.949 10.547 23.496 23.495 23.496 4.891 0 9.44-1.504 13.206-4.075a28.6 28.6 0 0 0 7.704 1.05v-4.6q-1.728-.001-3.392-.235a23.4 23.4 0 0 0 5.977-15.636c0-12.222-9.4-22.292-21.344-23.384l.008-.011a24 24 0 0 0-2.158-.099zm0 4.6a18.86 18.86 0 0 1 18.895 18.894 18.84 18.84 0 0 1-6.54 14.316 24.07 24.07 0 0 1-15.546-22.546c0-3.827.885-7.442 2.464-10.65q.362-.014.727-.014m-6.12 1.007a28.6 28.6 0 0 0-1.672 9.657c0 11.074 6.306 20.705 15.516 25.489a18.9 18.9 0 0 1-7.724 1.636 18.86 18.86 0 0 1-18.894-18.895 18.86 18.86 0 0 1 12.773-17.887m68.045 5.023q-2.641 0-4.978 1.016a13.2 13.2 0 0 0-4.098 2.777 13 13 0 0 0-2.744 4.064 12.35 12.35 0 0 0-1.016 4.978q0 2.641 1.016 4.979a13.5 13.5 0 0 0 2.744 4.098 13.5 13.5 0 0 0 4.098 2.743 12.35 12.35 0 0 0 4.978 1.016q1.794 0 3.454-.474a12.8 12.8 0 0 0 3.116-1.321 14 14 0 0 0 2.642-2.066 12.4 12.4 0 0 0 1.998-2.71l-4.436-1.794a10.2 10.2 0 0 1-1.288 1.557 8.7 8.7 0 0 1-1.591 1.253 8.2 8.2 0 0 1-1.863.847 6.8 6.8 0 0 1-2.032.305 7.6 7.6 0 0 1-3.184-.677 8.7 8.7 0 0 1-2.54-1.863 8.9 8.9 0 0 1-1.727-2.675 8.2 8.2 0 0 1-.643-3.218q0-1.659.643-3.183a8.8 8.8 0 0 1 1.728-2.71 8.2 8.2 0 0 1 2.54-1.828 7.3 7.3 0 0 1 3.183-.711q1.05-.001 2.032.304a8.2 8.2 0 0 1 1.863.847 8.7 8.7 0 0 1 1.591 1.253q.745.711 1.288 1.524l4.436-1.795a12 12 0 0 0-1.998-2.642 12.3 12.3 0 0 0-2.642-2.065 12 12 0 0 0-3.116-1.355 12.5 12.5 0 0 0-3.454-.474m-114.52.033v25.638h4.742v-13.412l7.721 9.314 7.756-9.314v13.412h4.741v-25.638h-.305l-12.192 14.292-12.157-14.292zm88.68 0q-1.56 0-3.251.34a9.4 9.4 0 0 0-3.048 1.184q-1.355.813-2.236 2.27-.88 1.422-.88 3.59 0 1.49.474 2.608a6.7 6.7 0 0 0 1.32 1.896q.814.78 1.83 1.32 1.015.51 2.065.847 1.05.306 2.033.508.981.17 1.727.305 1.118.204 2.133.44 1.05.238 1.795.576.78.34 1.22.88.473.51.473 1.254 0 .576-.304 1.185-.305.576-.915 1.05-.61.44-1.49.745-.88.27-2.032.271a9.9 9.9 0 0 1-4.165-.914 28.6 28.6 0 0 1-3.828-2.236l-2.573 3.793a48 48 0 0 0 2.235 1.49q1.083.678 2.303 1.186 1.219.474 2.675.745 1.491.305 3.42.305 2.1 0 3.828-.474 1.727-.475 2.98-1.389a6.36 6.36 0 0 0 1.93-2.37q.678-1.423.678-3.353 0-1.66-.508-2.811-.474-1.185-1.287-1.964a6.5 6.5 0 0 0-1.795-1.321 12.3 12.3 0 0 0-2.066-.813 17 17 0 0 0-1.998-.474 30 30 0 0 1-1.66-.339 129 129 0 0 0-1.964-.474 13 13 0 0 1-1.863-.576q-.846-.339-1.388-.846a1.65 1.65 0 0 1-.542-1.254q0-.744.44-1.253.474-.542 1.152-.88.71-.339 1.49-.474a6.6 6.6 0 0 1 1.388-.17q1.795 0 3.42.644 1.627.644 3.388 1.863l2.641-3.726a26 26 0 0 0-2.167-1.388 10.5 10.5 0 0 0-2.032-.983q-1.05-.405-2.27-.609a17 17 0 0 0-2.777-.204" style="baseline-shift:baseline;display:inline;overflow:visible;vector-effect:none;fill:#3c3c3c;fill-opacity:1;stroke-width:1.60009;stroke-miterlimit:10;paint-order:markers fill stroke;stop-color:#000" transform="translate(242.786 -291.544)"/></svg>
