<?xml version="1.0" encoding="UTF-8" standalone="no"?>
<svg
   width="626.19049"
   height="306.58691"
   viewBox="0 0 165.67975 81.117584"
   version="1.1"
   id="svg2"
   sodipodi:docname="logo-mqsc-light.svg"
   inkscape:version="1.4.4 (dcaf3e7d9e, 2026-05-05)"
   xmlns:inkscape="http://www.inkscape.org/namespaces/inkscape"
   xmlns:sodipodi="http://sodipodi.sourceforge.net/DTD/sodipodi-0.dtd"
   xmlns="http://www.w3.org/2000/svg"
   xmlns:svg="http://www.w3.org/2000/svg">
  <defs
     id="defs2" />
  <sodipodi:namedview
     id="namedview2"
     pagecolor="#505050"
     bordercolor="#ffffff"
     borderopacity="1"
     inkscape:showpageshadow="0"
     inkscape:pageopacity="0"
     inkscape:pagecheckerboard="1"
     inkscape:deskcolor="#d1d1d1"
     inkscape:zoom="2.3758071"
     inkscape:cx="322.62721"
     inkscape:cy="240.12893"
     inkscape:window-width="1514"
     inkscape:window-height="1659"
     inkscape:window-x="20"
     inkscape:window-y="20"
     inkscape:window-maximized="0"
     inkscape:current-layer="svg2" />
  <path
     style="fill:#e3e3e3;stroke:none;stroke-width:0.1;stroke-miterlimit:10;stroke-dasharray:none;stroke-opacity:1;paint-order:markers fill stroke;fill-opacity:1"
     d="M 74.363371,0.049864 A 40.509147,40.509147 0 0 0 41.175184,17.330992 H 23.219154 A 23.16942,23.16942 0 0 0 0.05,40.500148 23.16942,23.16942 0 0 0 23.219154,63.669823 h 17.87438 A 40.509147,40.509147 0 0 0 74.363371,81.067742 40.509147,40.509147 0 0 0 107.63322,63.669823 h 34.82685 5.2e-4 A 23.16942,23.16942 0 0 0 165.62974,40.500148 23.16942,23.16942 0 0 0 142.46007,17.330992 h -34.9085 A 40.509147,40.509147 0 0 0 74.363371,0.049864 Z"
     id="circle18-2" />
  <path
     d="m 74.36387,2.6998034 c -12.165,0 -22.998,5.75 -29.927,14.6799996 h 3.347 c 6.46,-7.4049996 15.97,-12.0799996 26.58,-12.0799996 10.61,0 20.12,4.675 26.58,12.0799996 h 3.346 C 97.36187,8.4498034 86.52887,2.6998034 74.36387,2.6998034 m 0,7.234 a 30.5,30.5 0 0 0 -20.004,7.4459996 h 4.234 a 27.9,27.9 0 0 1 15.77,-4.846 c 5.85,0 11.28,1.787 15.77,4.846 h 4.235 a 30.5,30.5 0 0 0 -20.005,-7.4459996 m -51.144,10.0449996 v 0.002 a 20.53,20.53 0 0 0 -17.7039997,10.26 20.53,20.53 0 0 0 0,20.52 20.53,20.53 0 0 0 17.7029997,10.259 h 32.003 a 28.5,28.5 0 0 1 -3.957,-4.6 h -27.978 a 15.91,15.91 0 0 1 -13.7869997,-7.959 15.91,15.91 0 0 1 0,-15.92 15.91,15.91 0 0 1 13.7869997,-7.96 v -0.002 h 28.027 a 28.4,28.4 0 0 1 3.988,-4.6 h -32.015 z m 70.148,0 a 28.4,28.4 0 0 1 4.06,4.6 h 44.965 v 0.002 a 15.91,15.91 0 0 1 13.787,7.96 15.91,15.91 0 0 1 0,15.92 15.91,15.91 0 0 1 -13.787,7.96 h -42.474 v 4.599 h 42.542 a 20.53,20.53 0 0 0 17.703,-10.26 20.53,20.53 0 0 0 0,-20.52 20.53,20.53 0 0 0 -17.703,-10.259 v -0.002 z m -20.41,11.893 q -0.87,0.03 -1.739,0.095 -0.003,0.174 -0.003,0.349 0,1.171 0.11,2.314 a 41,41 0 0 1 3.081,-0.125 c 3.252,0.006 6.514,0.414 9.57,1.192 a 38.6,38.6 0 0 1 9.291,3.704 19,19 0 0 0 -0.477,-3.254 41.5,41.5 0 0 0 -19.832,-4.275 z m -6.341,0.712 a 41.6,41.6 0 0 0 -10.592,3.565 19,19 0 0 0 -0.477,3.247 39,39 0 0 1 11.217,-4.139 q -0.135,-1.32 -0.148,-2.673 m -11.069,9.11 q 0.1,1.674 0.479,3.257 a 41.6,41.6 0 0 0 16.081,4.23 q -0.984,-1.351 -1.81,-2.813 a 38,38 0 0 1 -2.929,-0.42 38.7,38.7 0 0 1 -11.821,-4.254 m 37.72,0.004 a 39,39 0 0 1 -11.803,4.249 c -1.842,0.338 -3.724,0.54 -5.61,0.608 a 24,24 0 0 0 2.14,2.54 q 1.488,-0.13 2.961,-0.37 a 41,41 0 0 0 11.836,-3.783 c 0.249,-1.05 0.41,-2.134 0.477,-3.244 m -48.922,21.922 c 6.924,8.996 17.8,14.798 30.018,14.798 12.218,0 23.093,-5.802 30.018,-14.798 h -3.334 c -6.463,7.473 -16.017,12.199 -26.684,12.199 -10.667,0 -20.22,-4.726 -26.683,-12.2 z m 9.877,0 a 30.5,30.5 0 0 0 20.141,7.564 30.5,30.5 0 0 0 20.14,-7.564 h -4.197 a 27.9,27.9 0 0 1 -15.943,4.964 27.9,27.9 0 0 1 -15.943,-4.964 z"
     fill="#3070b3"
     fill-opacity="1"
     stroke-width="1.60009"
     stroke-miterlimit="10"
     opacity="1"
     id="path1" />
  <path
     d="m 74.40787,17.051803 q -1.814,0.002 -3.555,0.269 c -11.27,1.72 -19.94,11.485 -19.94,23.225 0,12.949 10.547,23.496 23.495,23.496 4.891,0 9.44,-1.504 13.206,-4.075 a 28.6,28.6 0 0 0 7.704,1.05 v -4.6 q -1.728,-0.001 -3.392,-0.235 a 23.4,23.4 0 0 0 5.977,-15.636 c 0,-12.222 -9.4,-22.292 -21.344,-23.384 l 0.008,-0.011 a 24,24 0 0 0 -2.158,-0.099 z m 0,4.6 a 18.86,18.86 0 0 1 18.895,18.894 18.84,18.84 0 0 1 -6.54,14.316 24.07,24.07 0 0 1 -15.546,-22.546 c 0,-3.827 0.885,-7.442 2.464,-10.65 q 0.362,-0.014 0.727,-0.014 m -6.12,1.007 a 28.6,28.6 0 0 0 -1.672,9.657 c 0,11.074 6.306,20.705 15.516,25.489 a 18.9,18.9 0 0 1 -7.724,1.636 18.86,18.86 0 0 1 -18.894,-18.895 18.86,18.86 0 0 1 12.773,-17.887 m 68.045,5.023 q -2.641,0 -4.978,1.016 a 13.2,13.2 0 0 0 -4.098,2.777 13,13 0 0 0 -2.744,4.064 12.35,12.35 0 0 0 -1.016,4.978 q 0,2.641 1.016,4.979 a 13.5,13.5 0 0 0 2.744,4.098 13.5,13.5 0 0 0 4.098,2.743 12.35,12.35 0 0 0 4.978,1.016 q 1.794,0 3.454,-0.474 a 12.8,12.8 0 0 0 3.116,-1.321 14,14 0 0 0 2.642,-2.066 12.4,12.4 0 0 0 1.998,-2.71 l -4.436,-1.794 a 10.2,10.2 0 0 1 -1.288,1.557 8.7,8.7 0 0 1 -1.591,1.253 8.2,8.2 0 0 1 -1.863,0.847 6.8,6.8 0 0 1 -2.032,0.305 7.6,7.6 0 0 1 -3.184,-0.677 8.7,8.7 0 0 1 -2.54,-1.863 8.9,8.9 0 0 1 -1.727,-2.675 8.2,8.2 0 0 1 -0.643,-3.218 q 0,-1.659 0.643,-3.183 a 8.8,8.8 0 0 1 1.728,-2.71 8.2,8.2 0 0 1 2.54,-1.828 7.3,7.3 0 0 1 3.183,-0.711 q 1.05,-10e-4 2.032,0.304 a 8.2,8.2 0 0 1 1.863,0.847 8.7,8.7 0 0 1 1.591,1.253 q 0.745,0.711 1.288,1.524 l 4.436,-1.795 a 12,12 0 0 0 -1.998,-2.642 12.3,12.3 0 0 0 -2.642,-2.065 12,12 0 0 0 -3.116,-1.355 12.5,12.5 0 0 0 -3.454,-0.474 m -114.52,0.033 v 25.638 h 4.742 v -13.412 l 7.721,9.314 7.756,-9.314 v 13.412 h 4.741 v -25.638 h -0.305 l -12.192,14.292 -12.157,-14.292 z m 88.68,0 q -1.56,0 -3.251,0.34 a 9.4,9.4 0 0 0 -3.048,1.184 q -1.355,0.813 -2.236,2.27 -0.88,1.422 -0.88,3.59 0,1.49 0.474,2.608 a 6.7,6.7 0 0 0 1.32,1.896 q 0.814,0.78 1.83,1.32 1.015,0.51 2.065,0.847 1.05,0.306 2.033,0.508 0.981,0.17 1.727,0.305 1.118,0.204 2.133,0.44 1.05,0.238 1.795,0.576 0.78,0.34 1.22,0.88 0.473,0.51 0.473,1.254 0,0.576 -0.304,1.185 -0.305,0.576 -0.915,1.05 -0.61,0.44 -1.49,0.745 -0.88,0.27 -2.032,0.271 a 9.9,9.9 0 0 1 -4.165,-0.914 28.6,28.6 0 0 1 -3.828,-2.236 l -2.573,3.793 a 48,48 0 0 0 2.235,1.49 q 1.083,0.678 2.303,1.186 1.219,0.474 2.675,0.745 1.491,0.305 3.42,0.305 2.1,0 3.828,-0.474 1.727,-0.475 2.98,-1.389 a 6.36,6.36 0 0 0 1.93,-2.37 q 0.678,-1.423 0.678,-3.353 0,-1.66 -0.508,-2.811 -0.474,-1.185 -1.287,-1.964 a 6.5,6.5 0 0 0 -1.795,-1.321 12.3,12.3 0 0 0 -2.066,-0.813 17,17 0 0 0 -1.998,-0.474 30,30 0 0 1 -1.66,-0.339 129,129 0 0 0 -1.964,-0.474 13,13 0 0 1 -1.863,-0.576 q -0.846,-0.339 -1.388,-0.846 a 1.65,1.65 0 0 1 -0.542,-1.254 q 0,-0.744 0.44,-1.253 0.474,-0.542 1.152,-0.88 0.71,-0.339 1.49,-0.474 a 6.6,6.6 0 0 1 1.388,-0.17 q 1.795,0 3.42,0.644 1.627,0.644 3.388,1.863 l 2.641,-3.726 a 26,26 0 0 0 -2.167,-1.388 10.5,10.5 0 0 0 -2.032,-0.983 q -1.05,-0.405 -2.27,-0.609 a 17,17 0 0 0 -2.777,-0.204"
     fill="#3c3c3c"
     fill-opacity="1"
     stroke-width="1.60009"
     stroke-miterlimit="10"
     opacity="1"
     id="path2" />
</svg>
