<svg xmlns="http://www.w3.org/2000/svg" width="605.268" height="286.179" viewBox="0 0 160.144 75.718"><path d="M-191.33 464.148a30.5 30.5 0 0 0 20.14 7.565 30.5 30.5 0 0 0 20.14-7.565h-4.197a27.9 27.9 0 0 1-15.943 4.965 27.9 27.9 0 0 1-15.943-4.965z"  fill="#3070b3" fill-opacity="1" stroke-width="1.60009" stroke-miterlimit="10" opacity="1" transform="translate(242.786 -403.229)"/><path d="M-201.208 464.148c6.924 8.997 17.8 14.799 30.018 14.799s23.093-5.802 30.018-14.799h-3.334c-6.463 7.474-16.017 12.2-26.684 12.2s-20.22-4.726-26.683-12.2zM-152.285 442.227a39 39 0 0 1-11.804 4.248c-1.842.339-3.724.54-5.61.609a24 24 0 0 0 2.14 2.539q1.488-.13 2.961-.369a41 41 0 0 0 11.836-3.783q.375-1.577.477-3.244M-190.006 442.223c.066 1.114.228 2.203.479 3.257a41.6 41.6 0 0 0 16.081 4.23q-.985-1.351-1.81-2.814a38 38 0 0 1-2.929-.419 38.7 38.7 0 0 1-11.82-4.254M-178.937 433.113a41.6 41.6 0 0 0-10.592 3.564 19 19 0 0 0-.477 3.247 39 39 0 0 1 11.217-4.138q-.135-1.32-.148-2.673M-172.596 432.4q-.87.03-1.739.096l-.003.348q0 1.172.11 2.315a41 41 0 0 1 3.081-.125c3.252.006 6.514.413 9.57 1.192a38.6 38.6 0 0 1 9.291 3.703 19 19 0 0 0-.477-3.254 41.5 41.5 0 0 0-19.832-4.274zM-152.186 420.508a28.4 28.4 0 0 1 4.06 4.6h44.965v.001a15.91 15.91 0 0 1 13.787 7.961 15.91 15.91 0 0 1 0 15.92 15.91 15.91 0 0 1-13.787 7.96h-42.474v4.598h42.542A20.53 20.53 0 0 0-85.39 451.29a20.53 20.53 0 0 0 0-20.52 20.53 20.53 0 0 0-17.703-10.26v-.001zM-222.334 420.508v.002a20.53 20.53 0 0 0-17.704 10.26 20.53 20.53 0 0 0 0 20.52 20.53 20.53 0 0 0 17.703 10.258h32.003a28.5 28.5 0 0 1-3.957-4.599h-27.978a15.91 15.91 0 0 1-13.787-7.959 15.91 15.91 0 0 1 0-15.92 15.91 15.91 0 0 1 13.787-7.96v-.003h28.027a28.4 28.4 0 0 1 3.988-4.6h-32.015zM-171.19 410.463a30.5 30.5 0 0 0-20.004 7.445h4.234a27.9 27.9 0 0 1 15.77-4.845c5.85 0 11.28 1.787 15.77 4.845h4.235a30.5 30.5 0 0 0-20.005-7.445"  fill="#3070b3" fill-opacity="1" stroke-width="1.60009" stroke-miterlimit="10" opacity="1" transform="translate(242.786 -403.229)"/><path d="M-171.19 403.229c-12.165 0-22.998 5.75-29.927 14.68h3.347c6.46-7.406 15.97-12.081 26.58-12.081s20.12 4.675 26.58 12.08h3.346c-6.928-8.929-17.761-14.68-29.926-14.68"  fill="#3070b3" fill-opacity="1" stroke-width="1.60009" stroke-miterlimit="10" opacity="1" transform="translate(242.786 -403.229)"/><path d="M-171.146 417.58q-1.814.002-3.555.27c-11.27 1.72-19.94 11.485-19.94 23.225 0 12.948 10.547 23.496 23.495 23.496 4.891 0 9.44-1.505 13.206-4.076a28.6 28.6 0 0 0 7.704 1.05v-4.599q-1.728-.001-3.392-.235a23.4 23.4 0 0 0 5.977-15.636c0-12.223-9.4-22.293-21.344-23.385l.008-.01a24 24 0 0 0-2.158-.1zm0 4.6a18.86 18.86 0 0 1 18.895 18.895 18.84 18.84 0 0 1-6.54 14.316 24.07 24.07 0 0 1-15.546-22.547c0-3.826.885-7.44 2.464-10.65q.362-.014.727-.014m-6.12 1.008a28.6 28.6 0 0 0-1.672 9.656c0 11.075 6.306 20.705 15.516 25.49a18.9 18.9 0 0 1-7.724 1.635 18.86 18.86 0 0 1-18.894-18.894 18.86 18.86 0 0 1 12.773-17.887m68.045 5.023q-2.641 0-4.978 1.016a13.2 13.2 0 0 0-4.098 2.777 13 13 0 0 0-2.744 4.063 12.35 12.35 0 0 0-1.016 4.979q0 2.641 1.016 4.978a13.5 13.5 0 0 0 2.744 4.098 13.5 13.5 0 0 0 4.098 2.743 12.35 12.35 0 0 0 4.978 1.016q1.794 0 3.454-.474a12.8 12.8 0 0 0 3.116-1.32 14 14 0 0 0 2.642-2.066 12.4 12.4 0 0 0 1.998-2.71l-4.436-1.795a10.2 10.2 0 0 1-1.288 1.558 8.7 8.7 0 0 1-1.591 1.253 8.2 8.2 0 0 1-1.863.847 6.8 6.8 0 0 1-2.032.305 7.6 7.6 0 0 1-3.184-.677 8.7 8.7 0 0 1-2.54-1.863 8.9 8.9 0 0 1-1.727-2.676 8.2 8.2 0 0 1-.643-3.217q0-1.659.643-3.183a8.8 8.8 0 0 1 1.728-2.71 8.2 8.2 0 0 1 2.54-1.829 7.3 7.3 0 0 1 3.183-.71q1.05-.001 2.032.304a8.2 8.2 0 0 1 1.863.847 8.7 8.7 0 0 1 1.591 1.253q.745.711 1.288 1.524l4.436-1.795a12 12 0 0 0-1.998-2.642 12.3 12.3 0 0 0-2.642-2.066 12 12 0 0 0-3.116-1.355 12.5 12.5 0 0 0-3.454-.473m-114.52.033v25.637h4.742V440.47l7.721 9.313 7.756-9.313v13.411h4.741v-25.637h-.305l-12.192 14.292-12.157-14.292zm88.68 0q-1.56 0-3.251.34a9.4 9.4 0 0 0-3.048 1.184q-1.355.812-2.236 2.27-.88 1.42-.88 3.59 0 1.49.474 2.607a6.7 6.7 0 0 0 1.32 1.897q.814.78 1.83 1.32 1.015.508 2.065.847 1.05.305 2.033.508.981.17 1.727.305 1.118.203 2.133.44 1.05.237 1.795.576.78.34 1.22.88.473.51.473 1.254 0 .575-.304 1.185-.305.575-.915 1.05-.61.44-1.49.745-.88.27-2.032.27a9.9 9.9 0 0 1-4.165-.914 28.6 28.6 0 0 1-3.828-2.235l-2.573 3.793a48 48 0 0 0 2.235 1.49q1.083.678 2.303 1.186 1.219.474 2.675.744 1.491.306 3.42.305 2.1 0 3.828-.474t2.98-1.388a6.36 6.36 0 0 0 1.93-2.371q.678-1.422.678-3.353 0-1.66-.508-2.81-.474-1.185-1.287-1.965a6.5 6.5 0 0 0-1.795-1.32 12.3 12.3 0 0 0-2.066-.813 17 17 0 0 0-1.998-.475 30 30 0 0 1-1.66-.338 129 129 0 0 0-1.964-.475 13 13 0 0 1-1.863-.575q-.846-.339-1.388-.847a1.65 1.65 0 0 1-.542-1.253q0-.745.44-1.253.474-.542 1.152-.88.71-.339 1.49-.475a6.6 6.6 0 0 1 1.388-.169q1.795 0 3.42.643 1.627.644 3.388 1.863l2.641-3.725a26 26 0 0 0-2.167-1.389 10.5 10.5 0 0 0-2.032-.982q-1.05-.405-2.27-.61a17 17 0 0 0-2.777-.203"  fill="#e3e3e3" fill-opacity="1" stroke-width="1.60009" stroke-miterlimit="10" opacity="1" transform="translate(242.786 -403.229)"/></svg>
