<?xml version="1.0" encoding="UTF-8" standalone="no"?>
<!-- Created with Inkscape (http://www.inkscape.org/) -->

<svg
   width="160.14394mm"
   height="75.718246mm"
   viewBox="0 0 160.14394 75.718246"
   version="1.1"
   id="svg1"
   inkscape:version="1.4.3 (0d15f75, 2025-12-25)"
   sodipodi:docname="logo-mqsc-dark.svg"
   inkscape:export-filename="logo-mqsc-dark.png"
   inkscape:export-xdpi="96"
   inkscape:export-ydpi="96"
   xmlns:inkscape="http://www.inkscape.org/namespaces/inkscape"
   xmlns:sodipodi="http://sodipodi.sourceforge.net/DTD/sodipodi-0.dtd"
   xmlns="http://www.w3.org/2000/svg"
   xmlns:svg="http://www.w3.org/2000/svg">
  <sodipodi:namedview
     id="namedview1"
     pagecolor="#ffffff"
     bordercolor="#cccccc"
     borderopacity="1"
     inkscape:showpageshadow="0"
     inkscape:pageopacity="0"
     inkscape:pagecheckerboard="0"
     inkscape:deskcolor="#ffffff"
     inkscape:document-units="mm"
     showgrid="false"
     inkscape:zoom="1.1516159"
     inkscape:cx="-620.43255"
     inkscape:cy="1655.0657"
     inkscape:window-width="1512"
     inkscape:window-height="865"
     inkscape:window-x="0"
     inkscape:window-y="33"
     inkscape:window-maximized="0"
     inkscape:current-layer="layer1"
     showguides="true">
    <inkscape:grid
       id="grid2"
       units="mm"
       originx="242.7858"
       originy="-403.22852"
       spacingx="0.99999998"
       spacingy="1"
       empcolor="#0099e5"
       empopacity="0.30196078"
       color="#0099e5"
       opacity="0.14901961"
       empspacing="5"
       enabled="true"
       visible="false" />
    <inkscape:page
       x="0"
       y="0"
       width="160.14394"
       height="75.718246"
       id="page3"
       margin="0"
       bleed="0" />
  </sodipodi:namedview>
  <defs
     id="defs1" />
  <g
     inkscape:label="Ebene 1"
     inkscape:groupmode="layer"
     id="layer1"
     transform="translate(242.78579,-403.22854)">
    <g
       id="g40"
       inkscape:export-filename="logo-mqsc-dark.svg"
       inkscape:export-xdpi="300"
       inkscape:export-ydpi="300">
      <path
         style="baseline-shift:baseline;display:inline;overflow:visible;vector-effect:none;fill:#3070b3;fill-opacity:1;stroke-width:1.60009;stroke-miterlimit:10;paint-order:markers fill stroke;enable-background:accumulate;stop-color:#000000"
         d="m -191.33093,464.14821 c 5.38616,4.70915 12.43369,7.5644 20.14089,7.56439 7.70721,10e-6 14.75446,-2.85524 20.14089,-7.56439 h -4.1982 c -4.52391,3.13118 -10.01657,4.96456 -15.94269,4.96455 -5.92612,1e-5 -11.41916,-1.83337 -15.94322,-4.96455 z"
         id="path29" />
      <path
         style="baseline-shift:baseline;display:inline;overflow:visible;vector-effect:none;fill:#3070b3;fill-opacity:1;stroke-width:1.60009;stroke-miterlimit:10;paint-order:markers fill stroke;enable-background:accumulate;stop-color:#000000"
         d="m -201.20837,464.14821 c 6.92455,8.99659 17.79994,14.79858 30.01833,14.79858 12.21839,0 23.09332,-5.80199 30.0178,-14.79858 h -3.33416 c -6.46307,7.47377 -16.01631,12.19925 -26.68364,12.19925 -10.66733,0 -20.22054,-4.72548 -26.68313,-12.19925 z"
         id="path27" />
      <path
         style="baseline-shift:baseline;display:inline;overflow:visible;vector-effect:none;fill:#3070b3;fill-opacity:1;stroke-width:1.60009;stroke-miterlimit:10;paint-order:markers fill stroke;enable-background:accumulate;stop-color:#000000"
         d="m -152.28525,442.22655 c -3.68835,2.05561 -7.78619,3.51524 -11.80393,4.24883 -1.84228,0.33857 -3.72416,0.54023 -5.61052,0.60824 0.65539,0.89556 1.37118,1.74411 2.14148,2.53938 0.99074,-0.0864 1.97821,-0.20908 2.96054,-0.36897 4.11053,-0.64282 8.10956,-1.93745 11.83597,-3.78324 0.24857,-1.0498 0.41025,-2.13376 0.47646,-3.24424 z"
         id="path26" />
      <path
         style="baseline-shift:baseline;display:inline;overflow:visible;vector-effect:none;fill:#3070b3;fill-opacity:1;stroke-width:1.60009;stroke-miterlimit:10;paint-order:markers fill stroke;enable-background:accumulate;stop-color:#000000"
         d="m -190.00595,442.22255 c 0.0663,1.1149 0.22845,2.20345 0.47852,3.25717 5.00163,2.47874 10.51009,3.9157 16.08171,4.23075 -0.65601,-0.90014 -1.26105,-1.83958 -1.81074,-2.8143 -0.98665,-0.10286 -1.96478,-0.24253 -2.92851,-0.4191 -4.08874,-0.74659 -8.1372,-2.1994 -11.82098,-4.25452 z"
         id="path25" />
      <path
         style="baseline-shift:baseline;display:inline;overflow:visible;vector-effect:none;fill:#3070b3;fill-opacity:1;stroke-width:1.60009;stroke-miterlimit:10;paint-order:markers fill stroke;enable-background:accumulate;stop-color:#000000"
         d="m -178.93737,433.11252 c -3.66946,0.70426 -7.24266,1.9062 -10.59161,3.56464 -0.24893,1.05068 -0.41073,2.13586 -0.47697,3.24734 3.50845,-1.95671 7.3894,-3.3733 11.2174,-4.13876 -0.09,-0.88003 -0.14052,-1.77177 -0.14882,-2.67322 z"
         id="path23" />
      <path
         style="baseline-shift:baseline;display:inline;overflow:visible;vector-effect:none;fill:#3070b3;fill-opacity:1;stroke-width:1.60009;stroke-miterlimit:10;paint-order:markers fill stroke;enable-background:accumulate;stop-color:#000000"
         d="m -172.59564,432.40093 c -0.58046,0.0193 -1.16004,0.0508 -1.73891,0.0951 -0.002,0.11584 -0.003,0.23205 -0.003,0.34829 0,0.78096 0.0369,1.55292 0.10903,2.31459 1.02506,-0.0808 2.05312,-0.12206 3.08198,-0.12505 3.25163,0.006 6.51309,0.41362 9.56945,1.19165 3.23997,0.82497 6.3723,2.0734 9.29142,3.70365 -0.0661,-1.11375 -0.22797,-2.20133 -0.47749,-3.25406 -6.12327,-3.03557 -12.99374,-4.52088 -19.83187,-4.27416 z"
         id="path22" />
      <path
         style="baseline-shift:baseline;display:inline;overflow:visible;vector-effect:none;fill:#3070b3;fill-opacity:1;stroke-width:1.60009;stroke-miterlimit:10;paint-order:markers fill stroke;enable-background:accumulate;stop-color:#000000"
         d="m -152.18604,420.5076 c 1.51414,1.38128 2.87728,2.92356 4.06022,4.59972 h 44.9647 v 0.002 c 5.691286,0 10.941623,3.03194 13.787269,7.96075 2.845644,4.9288 2.845644,10.99116 0,15.91996 -2.845646,4.92881 -8.095983,7.9592 -13.787269,7.9592 h -42.47389 v 4.59921 h 42.47389 0.0682 c 7.301211,-0.0242 14.051,-3.93333 17.703309,-10.25933 3.663668,-6.34566 3.663668,-14.17401 0,-20.51967 -3.652384,-6.32613 -10.402436,-10.23583 -17.703829,-10.25984 v -0.002 z"
         id="path14" />
      <path
         style="baseline-shift:baseline;display:inline;overflow:visible;vector-effect:none;fill:#3070b3;fill-opacity:1;stroke-width:1.60009;stroke-miterlimit:10;paint-order:markers fill stroke;enable-background:accumulate;stop-color:#000000"
         d="m -222.33421,420.5076 v 0.002 c -7.30139,0.024 -14.05144,3.93371 -17.70383,10.25984 -3.66367,6.34566 -3.66367,14.17401 0,20.51967 3.65231,6.326 10.4021,10.23513 17.70331,10.25933 h 0.0682 31.935 c -1.47681,-1.38552 -2.80541,-2.9277 -3.9579,-4.59921 h -27.9771 c -5.69128,0 -10.94162,-3.03039 -13.78727,-7.9592 -2.84564,-4.9288 -2.84564,-10.99116 0,-15.91996 2.84565,-4.92881 8.09599,-7.96075 13.78727,-7.96075 v -0.002 h 28.02671 c 1.16135,-1.67337 2.49989,-3.21585 3.98787,-4.59972 h -32.0151 z"
         id="path13" />
      <path
         style="baseline-shift:baseline;display:inline;overflow:visible;vector-effect:none;fill:#3070b3;fill-opacity:1;stroke-width:1.60009;stroke-miterlimit:10;paint-order:markers fill stroke;enable-background:accumulate;stop-color:#000000"
         d="m -171.19004,410.46274 c -7.64223,-10e-6 -14.63553,2.80717 -20.00395,7.44554 h 4.23385 c 4.49076,-3.05873 9.91926,-4.84571 15.7701,-4.8457 5.85085,-1e-5 11.27936,1.78697 15.77009,4.8457 h 4.23489 c -5.3688,-4.63837 -12.36274,-7.44555 -20.00498,-7.44554 z"
         id="path12" />
      <path
         style="baseline-shift:baseline;display:inline;overflow:visible;vector-effect:none;fill:#3070b3;fill-opacity:1;stroke-width:1.60009;stroke-miterlimit:10;paint-order:markers fill stroke;enable-background:accumulate;stop-color:#000000"
         d="m -171.19004,403.22855 c -12.16456,0 -22.9982,5.75087 -29.92686,14.67973 h 3.34657 c 6.46093,-7.40504 15.96956,-12.0804 26.58029,-12.0804 10.61074,0 20.11947,4.67536 26.5808,12.0804 h 3.34554 c -6.92858,-8.92887 -17.76178,-14.67973 -29.92634,-14.67973 z"
         id="path2" />
      <path
         id="path11"
         style="baseline-shift:baseline;display:inline;overflow:visible;vector-effect:none;fill:#e3e3e3;fill-opacity:1;stroke-width:1.60009;stroke-miterlimit:10;paint-order:markers fill stroke;enable-background:accumulate;stop-color:#000000"
         d="m -171.14563,417.58071 c -1.20824,0 -2.39551,0.0917 -3.55533,0.26872 -11.26976,1.7201 -19.94091,11.48511 -19.94091,23.22546 0,12.9486 10.54763,23.49624 23.49624,23.49624 4.89113,0 9.4394,-1.50488 13.20592,-4.07572 2.45257,0.68428 5.03633,1.05006 7.70392,1.05006 v -4.5992 c -1.15168,0 -2.28404,-0.0804 -3.39204,-0.23565 3.71467,-4.15756 5.97638,-9.63911 5.97638,-15.63573 0,-12.22268 -9.3992,-22.29266 -21.3434,-23.38462 0.003,-0.004 0.005,-0.007 0.008,-0.0109 -0.71103,-0.0652 -1.43088,-0.0987 -2.15853,-0.0987 z m 0,4.59972 c 10.46258,0 18.89446,8.43188 18.89446,18.89446 0,5.73249 -2.53106,10.85551 -6.54069,14.31592 -9.09819,-3.44239 -15.5453,-12.22327 -15.5453,-22.54643 0,-3.82659 0.88563,-7.44126 2.46393,-10.65051 0.2413,-0.009 0.48401,-0.0134 0.7276,-0.0134 z m -6.12107,1.00718 c -1.08211,3.01917 -1.67173,6.27048 -1.67173,9.65677 0,11.07417 6.30686,20.70491 15.51688,25.48888 -2.35616,1.05202 -4.96963,1.63608 -7.72408,1.63608 -10.46259,0 -18.89445,-8.43187 -18.89445,-18.89445 0,-8.31865 5.33012,-15.35345 12.77338,-17.88728 z m 68.04546,5.02295 c -1.76106,0 -3.42012,0.33862 -4.97799,1.01595 -1.55786,0.67734 -2.92389,1.60306 -4.09794,2.7771 -1.15146,1.15147 -2.06616,2.50596 -2.7435,4.06383 -0.67733,1.55787 -1.01596,3.21744 -1.01596,4.97851 0,1.76106 0.33863,3.42063 1.01596,4.9785 0.67734,1.55787 1.59204,2.92391 2.7435,4.09795 1.17405,1.15147 2.54008,2.06565 4.09794,2.74298 1.55787,0.67734 3.21693,1.01596 4.97799,1.01596 1.19663,0 2.34826,-0.15778 3.45457,-0.47387 1.12889,-0.3161 2.1673,-0.75641 3.11557,-1.32085 0.97084,-0.58703 1.85148,-1.27581 2.6417,-2.06603 0.790224,-0.8128 1.456468,-1.71597 1.998328,-2.70939 l -4.436418,-1.79472 c -0.36124,0.54187 -0.79056,1.06082 -1.28726,1.55752 -0.47413,0.47414 -1.00462,0.89191 -1.59164,1.25316 -0.58702,0.36124 -1.20766,0.64377 -1.86242,0.84697 -0.65475,0.2032 -1.33251,0.30438 -2.03243,0.30438 -1.12888,0 -2.18985,-0.22541 -3.18327,-0.67696 -0.97085,-0.47414 -1.81741,-1.0953 -2.5399,-1.86294 -0.72249,-0.76765 -1.29856,-1.65929 -1.72754,-2.67529 -0.42898,-1.016 -0.64337,-2.08849 -0.64337,-3.21737 0,-1.10632 0.21439,-2.16727 0.64337,-3.18327 0.42898,-1.03859 1.00505,-1.94176 1.72754,-2.7094 0.72249,-0.76764 1.56905,-1.37727 2.5399,-1.82883 0.99342,-0.47413 2.05439,-0.71106 3.18327,-0.71106 0.69992,0 1.37768,0.10117 2.03243,0.30437 0.65476,0.2032 1.2754,0.48573 1.86242,0.84698 0.58702,0.36124 1.11751,0.77902 1.59164,1.25315 0.4967,0.47413 0.92602,0.98207 1.28726,1.52394 l 4.436418,-1.79524 c -0.54186,-0.97085 -1.208104,-1.85147 -1.998328,-2.6417 -0.79022,-0.8128 -1.67086,-1.50106 -2.6417,-2.06551 -0.94827,-0.58701 -1.98668,-1.03886 -3.11557,-1.35495 -1.10631,-0.3161 -2.25794,-0.47387 -3.45457,-0.47387 z m -114.51911,0.0336 v 25.6372 h 4.74131 v -13.41158 l 7.7215,9.31364 7.7556,-9.31364 v 13.41158 h 4.74131 v -25.6372 h -0.30489 l -12.19202,14.29164 -12.15792,-14.29164 z m 88.67883,0 c -1.03858,0 -2.12209,0.11322 -3.25097,0.339 -1.10632,0.22577 -2.12218,0.6205 -3.04787,1.18494 -0.90311,0.54187 -1.6485,1.29827 -2.23553,2.26911 -0.58702,0.94827 -0.88056,2.14499 -0.88056,3.58997 0,0.99342 0.15831,1.86303 0.47439,2.60811 0.33867,0.72248 0.77898,1.35465 1.32085,1.89652 0.54187,0.51929 1.15149,0.95909 1.82883,1.32033 0.67733,0.33868 1.36559,0.62121 2.0655,0.84698 0.69991,0.2032 1.37768,0.37251 2.03244,0.50798 0.65476,0.11289 1.2303,0.21458 1.72702,0.30489 0.74506,0.13547 1.45638,0.28224 2.13372,0.44028 0.69991,0.15805 1.29802,0.34991 1.79473,0.57568 0.51929,0.22578 0.92552,0.51932 1.21904,0.88057 0.31608,0.33866 0.47439,0.75644 0.47439,1.25315 0,0.38383 -0.10169,0.77854 -0.30489,1.18494 -0.2032,0.38382 -0.50775,0.73398 -0.91415,1.05007 -0.4064,0.29351 -0.90332,0.54197 -1.49035,0.74517 -0.58702,0.18063 -1.26427,0.27078 -2.03192,0.27078 -1.44498,0 -2.83356,-0.30455 -4.16564,-0.91415 -1.30952,-0.63218 -2.58537,-1.37756 -3.82715,-2.23552 l -2.57349,3.79305 c 0.76765,0.54187 1.51252,1.03878 2.23501,1.49034 0.72249,0.45156 1.4899,0.84679 2.3027,1.18546 0.8128,0.31609 1.70495,0.56404 2.6758,0.74466 0.99342,0.2032 2.13353,0.30489 3.42047,0.30489 1.39982,0 2.67568,-0.15779 3.82715,-0.47387 1.15146,-0.3161 2.1448,-0.77895 2.98018,-1.38855 0.83538,-0.63218 1.47857,-1.42265 1.93012,-2.37091 0.45156,-0.94827 0.67747,-2.06584 0.67747,-3.35277 0,-1.10632 -0.1693,-2.04304 -0.50797,-2.81068 -0.31609,-0.79022 -0.74489,-1.44494 -1.28675,-1.96422 -0.51929,-0.54188 -1.11791,-0.98219 -1.79524,-1.32085 -0.67734,-0.33867 -1.3661,-0.60967 -2.06602,-0.81287 -0.67733,-0.2032 -1.34305,-0.36151 -1.99781,-0.47439 -0.63217,-0.11289 -1.18519,-0.22559 -1.65933,-0.33848 -0.63218,-0.15804 -1.28741,-0.31635 -1.96474,-0.47439 -0.67734,-0.15805 -1.29798,-0.3499 -1.86242,-0.57568 -0.56445,-0.22577 -1.02729,-0.50779 -1.38854,-0.84646 -0.36124,-0.33866 -0.54209,-0.75643 -0.54209,-1.25315 0,-0.49672 0.14677,-0.91449 0.44028,-1.25316 0.31609,-0.36124 0.70031,-0.65479 1.15187,-0.88056 0.47413,-0.22578 0.97053,-0.38355 1.48983,-0.47387 0.51928,-0.11288 0.98215,-0.1695 1.38855,-0.1695 1.19663,0 2.33672,0.21439 3.42046,0.64337 1.08373,0.42897 2.21282,1.05013 3.38687,1.86293 l 2.6417,-3.72535 c -0.76765,-0.54187 -1.49048,-1.00472 -2.16782,-1.38855 -0.65475,-0.4064 -1.33201,-0.73401 -2.03192,-0.98237 -0.69992,-0.27093 -1.45631,-0.47379 -2.26911,-0.60926 -0.8128,-0.13547 -1.73851,-0.20361 -2.77709,-0.20361 z" />
    </g>
  </g>
</svg>
