<svg xmlns="http://www.w3.org/2000/svg" width="2602.731" height="909.691" viewBox="0 0 688.648 240.687"><g fill="#1a8ab9"><path d="M569.658 186.094h2.777l2.593 7.09h.043l2.565-7.09h2.79v9.98h-1.761v-8.02h-.028l-3.03 8.02h-1.241l-2.988-8.02h-.029v8.02h-1.691ZM588.716 196.073h-1.607v-1.085h-.028q-.226.507-.783.895-.555.388-1.318.388-.662 0-1.134-.233a2.2 2.2 0 0 1-.775-.613 2.5 2.5 0 0 1-.444-.874 3.7 3.7 0 0 1-.141-1.015v-4.228h1.691v3.749q0 .296.042.62.043.325.184.585.14.26.387.43.246.17.656.17a1.45 1.45 0 0 0 1.19-.579q.19-.254.29-.585.098-.33.098-.67v-3.72h1.692zM590.745 189.308h1.607v1.085h.029q.224-.508.782-.895.555-.388 1.318-.388.662 0 1.134.233t.776.613.444.874q.14.494.14 1.015v4.228h-1.69v-3.749a5 5 0 0 0-.043-.62 1.7 1.7 0 0 0-.183-.585 1.2 1.2 0 0 0-.388-.43q-.247-.17-.655-.17-.41 0-.705.163-.296.162-.487.416-.19.254-.288.585-.1.33-.1.67v3.72h-1.69zM598.977 189.308h1.692v6.765h-1.692zm-.24-2.298q0-.408.303-.712.303-.303.769-.303.464 0 .782.29a.94.94 0 0 1 .317.725.94.94 0 0 1-.317.726q-.317.29-.782.289-.466 0-.769-.303a.97.97 0 0 1-.302-.712M607.35 191.184q-.198-.282-.592-.472a1.8 1.8 0 0 0-.804-.19 1.7 1.7 0 0 0-1.402.69q-.232.31-.345.698-.114.388-.113.782 0 .395.12.782.12.389.359.698.24.31.6.5.358.19.838.19.394.001.79-.154.394-.156.634-.451l1.057 1.07a2.8 2.8 0 0 1-1.079.699q-.655.246-1.416.246-.747 0-1.417-.24a3.35 3.35 0 0 1-1.17-.704 3.3 3.3 0 0 1-.79-1.128q-.288-.662-.288-1.508 0-.817.289-1.48.288-.661.782-1.128.493-.465 1.149-.718.655-.254 1.402-.254t1.445.282 1.107.775zM560.975 201.843q-.719 0-1.346.268a3.3 3.3 0 0 0-1.078.733q-.45.465-.712 1.113-.26.649-.26 1.41 0 .804.246 1.459.247.655.69 1.12.445.466 1.065.726.62.261 1.367.261.733 0 1.36-.26a3.2 3.2 0 0 0 1.079-.727q.45-.465.705-1.12a4 4 0 0 0 .253-1.46q0-.76-.24-1.409a3.2 3.2 0 0 0-.683-1.113 3.2 3.2 0 0 0-1.064-.733 3.5 3.5 0 0 0-1.382-.268m5.991 8.64h-6.019q-1.199 0-2.177-.345a4.7 4.7 0 0 1-1.678-1 4.4 4.4 0 0 1-1.078-1.608q-.38-.951-.38-2.163 0-1.141.4-2.08a4.8 4.8 0 0 1 1.122-1.613q.718-.676 1.698-1.05a5.9 5.9 0 0 1 2.121-.374q1.142 0 2.115.374.973.373 1.684 1.05.712.677 1.107 1.614.394.938.394 2.079a4.7 4.7 0 0 1-.557 2.262 4 4 0 0 1-.563.804q-.317.345-.656.585v.028h2.467zM574.31 210.483h-1.607v-1.085h-.029q-.225.507-.782.895-.556.387-1.318.387-.663 0-1.135-.232a2.2 2.2 0 0 1-.775-.613 2.5 2.5 0 0 1-.444-.874 3.7 3.7 0 0 1-.14-1.016v-4.228h1.69v3.75q0 .296.043.62.043.323.183.585.14.26.388.43.246.168.655.169a1.46 1.46 0 0 0 1.191-.578q.19-.254.29-.585.098-.331.098-.67v-3.721h1.691zM580.512 207.396h-.38q-.41 0-.86.035t-.832.155q-.38.12-.634.338-.255.219-.254.6 0 .24.106.401.105.162.275.26.17.1.38.142.212.042.423.042.875 0 1.325-.465t.451-1.269zm.028 2.227h-.042q-.254.45-.817.74-.564.289-1.283.29-.41 0-.853-.107a2.5 2.5 0 0 1-.817-.352 2.05 2.05 0 0 1-.62-.649q-.247-.401-.247-.993 0-.762.43-1.213.43-.45 1.106-.69t1.502-.317q.824-.078 1.613-.078v-.17q0-.633-.458-.937-.458-.302-1.092-.303-.535 0-1.03.226-.492.226-.817.55l-.874-1.03q.579-.534 1.333-.803a4.6 4.6 0 0 1 1.529-.268q.901 0 1.487.254.585.254.923.663t.472.916.134 1.015v4.116h-1.579zM584.092 203.716h1.607v1.086h.029q.224-.508.782-.896.555-.387 1.318-.387.662 0 1.134.233.472.232.776.613.303.38.444.874.14.494.14 1.014v4.23h-1.69v-3.75a5 5 0 0 0-.043-.62 1.7 1.7 0 0 0-.183-.585 1.2 1.2 0 0 0-.388-.43q-.247-.17-.655-.17-.41 0-.705.163-.296.162-.487.415-.19.255-.288.585-.1.331-.1.67v3.721h-1.69zM603.262 210.483h-1.607v-1.085h-.028q-.225.507-.782.895-.557.387-1.318.387-.663 0-1.135-.232a2.2 2.2 0 0 1-.775-.613 2.5 2.5 0 0 1-.444-.874 3.7 3.7 0 0 1-.141-1.016v-4.228h1.691v3.75q0 .296.043.62.042.323.183.585.141.26.387.43.247.168.656.169a1.46 1.46 0 0 0 1.19-.578q.192-.254.29-.585.099-.331.099-.67v-3.721h1.691zM613.367 203.519q.662 0 1.134.233.473.231.776.613.303.38.444.874.14.494.14 1.014v4.229h-1.69v-3.75q0-.295-.043-.62a1.7 1.7 0 0 0-.183-.584 1.2 1.2 0 0 0-.388-.43q-.246-.17-.655-.17-.395 0-.677.17a1.5 1.5 0 0 0-.465.437 1.9 1.9 0 0 0-.268.599 2.6 2.6 0 0 0-.084.655v3.693h-1.692v-4.088q0-.634-.303-1.05t-.951-.416q-.381 0-.663.163-.282.162-.458.415-.175.255-.268.585-.09.33-.091.67v3.721h-1.692v-6.766h1.607v1.086h.028q.113-.255.303-.48t.452-.408q.26-.184.599-.29.337-.105.747-.105.79 0 1.31.352.522.353.804.93a2.4 2.4 0 0 1 .902-.95q.564-.332 1.325-.332M577.44 214.912h1.987l2.749 7.682h.056l2.777-7.682h1.917l-4.003 9.98h-1.537ZM591.378 221.804h-.38q-.41 0-.86.035a3.8 3.8 0 0 0-.832.155q-.38.12-.634.339-.255.218-.254.6 0 .239.106.4.105.163.275.261.17.099.38.141.212.043.423.043.874 0 1.325-.465t.451-1.269zm.028 2.227h-.042q-.254.452-.817.74-.564.29-1.283.29-.41 0-.853-.106a2.5 2.5 0 0 1-.818-.353 2.05 2.05 0 0 1-.62-.648q-.246-.403-.246-.994 0-.76.43-1.212.43-.45 1.106-.69t1.501-.318 1.614-.077v-.17q0-.633-.458-.937-.458-.303-1.092-.303-.535 0-1.03.226-.492.225-.817.55l-.874-1.03a3.8 3.8 0 0 1 1.332-.803 4.6 4.6 0 0 1 1.53-.268q.901 0 1.487.254.584.255.923.662.339.409.472.917.135.507.134 1.014v4.116h-1.579zM607.278 220.832q0-.324-.092-.62a1.4 1.4 0 0 0-.289-.522 1.4 1.4 0 0 0-.5-.36 1.8 1.8 0 0 0-.712-.133q-.76 0-1.29.458a1.67 1.67 0 0 0-.585 1.177zm1.691.761v.225q0 .114-.014.226h-5.145a1.67 1.67 0 0 0 .62 1.191q.268.219.607.345.338.127.704.127.634 0 1.072-.232.435-.233.718-.641l1.128.902q-1 1.352-2.904 1.353a4.1 4.1 0 0 1-1.451-.247 3.4 3.4 0 0 1-1.15-.698q-.485-.45-.76-1.106a3.8 3.8 0 0 1-.275-1.487q0-.817.275-1.487.274-.67.754-1.142a3.4 3.4 0 0 1 1.134-.733q.657-.26 1.417-.26.705 0 1.304.232t1.036.69q.436.459.683 1.142.247.684.247 1.6M609.59 218.125h1.874l1.889 4.92h.028l1.677-4.92h1.762l-3.2 8.218q-.183.465-.394.825-.21.36-.507.606t-.698.373q-.402.127-.966.127-.21 0-.43-.02a3 3 0 0 1-.444-.078l.141-1.467q.17.057.331.078.163.021.304.021.267 0 .45-.063a.8.8 0 0 0 .31-.197q.127-.135.226-.332a8 8 0 0 0 .211-.465l.339-.86zM594.987 224.891h1.691v-9.987h-1.691zM598.764 224.891h1.692v-9.987h-1.692zM615.72 190.83a2.5 2.5 0 0 0-.445-.874 2.24 2.24 0 0 0-.775-.613q-.472-.233-1.135-.233-.38 0-.704.099a2.28 2.28 0 0 0-1.022.627 1.6 1.6 0 0 0-.29.416h-.027v-4.256h-1.692v10.077h1.692v-3.693q0-.338.098-.662.099-.324.297-.585a1.5 1.5 0 0 1 .493-.416q.296-.155.704-.155.409 0 .656.17.245.168.38.43.134.26.177.577.042.318.042.613v3.721h1.691v-4.228a3.7 3.7 0 0 0-.14-1.015M595.86 205.07v-1.354h-1.69v-1.959h-.003v-.383h-1.662v2.342h-1.183v1.353h1.184v3.158q0 .493.092.923.09.43.338.761.246.332.67.521.422.19 1.099.19.282.001.592-.049.31-.048.535-.133l-.056-1.325q-.155.07-.352.106a2 2 0 0 1-.367.035q-.564 0-.726-.296-.162-.297-.162-.747v-3.144zM679.023 215.638c-8.438 3.577-13.583-3.178-19.856-12.131 11.752-5.864 22.93-6.814 26.05.542 1.357 3.202-.836 9.318-6.194 11.59m-21.898-15.042c-7.297-10.436-19.15-18.239-31.602-12.96a41 41 0 0 0-3.439 1.656v10.25c1.905-1.241 3.7-2.242 5.308-2.924 7.917-3.356 16.593 2.932 22.21 8.183-8.132 5.501-18.082 13.214-27.518 20.057v.032h6.246c8.365-5.95 16.71-12.085 23.88-17.164 8.277 8.243 15.065 17.554 27.008 12.491 8.386-3.555 11.088-11.735 8.469-17.914-2.225-5.248-13.241-9.885-30.563-1.707"/></g><path fill="#3070b3" d="M61.08 180.28h71.21v44.601H61.08zM0 180.28h56.773v44.601H0z" class="st0"/><path fill="#fff" d="M85.347 217.322h16.63v-24.19h6.048v24.19h5.292v-24.19h6.047v24.19h5.292V187.84h-27.97v24.19h-6.048v-24.19H68.716v5.292h5.291v24.19H79.3v-24.19h6.048zM9.898 188.593H7.66v-.755h5.375v.755h-2.237v5.973h-.892v-5.973zM16.79 193.016c-.107.537-.341.953-.711 1.232-.363.28-.824.424-1.376.424-.393 0-.726-.068-1.013-.197a1.96 1.96 0 0 1-.718-.529 2.3 2.3 0 0 1-.439-.809 4 4 0 0 1-.166-1.028q-.002-.546.166-1.013.17-.467.476-.809.306-.337.726-.529c.28-.128.582-.189.915-.189.43 0 .794.09 1.08.272q.43.273.689.68c.174.28.295.575.355.908.068.325.09.635.083.93h-3.644c-.007.211.015.415.076.604.053.19.151.363.272.507.129.151.287.264.484.355.196.09.423.129.688.129.332 0 .612-.076.831-.235.22-.158.363-.393.431-.718h.794zm-.787-1.353a1.6 1.6 0 0 0-.129-.537 1.4 1.4 0 0 0-.294-.438 1.5 1.5 0 0 0-.439-.295 1.3 1.3 0 0 0-.544-.106c-.204 0-.393.038-.56.106q-.25.114-.43.295a1.4 1.4 0 0 0-.28.438c-.068.167-.114.34-.121.53h2.797zM21.049 191.256a1.2 1.2 0 0 0-.4-.718c-.205-.167-.47-.257-.81-.257q-.43 0-.725.159c-.197.105-.348.249-.469.423a1.9 1.9 0 0 0-.25.605 3.2 3.2 0 0 0-.075.71q.002.34.083.658.08.317.25.567.168.251.438.4.272.15.658.152.58 0 .922-.318c.227-.211.363-.499.416-.87h.816q-.135.895-.68 1.392-.546.498-1.467.499-.553 0-.982-.182a2 2 0 0 1-.718-.514 2.3 2.3 0 0 1-.431-.786 3.2 3.2 0 0 1-.144-1.005c0-.363.045-.703.144-1.02.09-.318.234-.59.43-.832.19-.235.431-.424.719-.552.287-.136.62-.204 1.013-.204.28 0 .536.03.778.098s.454.166.643.302q.284.204.453.522c.114.211.19.461.22.748h-.832zM22.866 187.839h.801v2.57h.015a1 1 0 0 1 .272-.378c.114-.106.242-.197.378-.257.136-.068.287-.114.439-.144a2.3 2.3 0 0 1 .446-.045c.317 0 .59.045.801.128q.317.135.522.37c.128.16.226.34.28.56.052.22.082.454.082.718v3.206h-.8v-3.296c0-.303-.092-.537-.265-.718-.174-.174-.416-.265-.726-.265q-.363 0-.635.113a1.2 1.2 0 0 0-.446.318 1.4 1.4 0 0 0-.272.484 2 2 0 0 0-.091.605v2.751h-.801zM28.128 189.69h.756v.77h.015c.166-.302.386-.52.658-.664a1.9 1.9 0 0 1 .93-.22c.317 0 .59.046.8.129q.318.134.522.37c.129.16.227.34.28.56.053.219.083.453.083.718v3.205h-.801v-3.296c0-.302-.09-.536-.265-.718q-.26-.263-.725-.264-.363 0-.635.113a1.2 1.2 0 0 0-.446.318 1.4 1.4 0 0 0-.272.483 2 2 0 0 0-.091.605v2.752h-.801v-4.861zM34.267 188.822h-.801v-.983h.801zm-.801.87h.801v4.868h-.801zM38.84 191.256a1.2 1.2 0 0 0-.4-.718c-.204-.167-.469-.257-.809-.257q-.431 0-.726.159c-.196.105-.347.249-.468.423a1.9 1.9 0 0 0-.25.605 3.2 3.2 0 0 0-.075.71q.002.34.083.658.08.317.25.567c.113.166.256.302.438.4q.271.15.657.152.58 0 .923-.318.337-.315.415-.87h.817q-.137.895-.68 1.392c-.363.332-.855.499-1.467.499q-.554 0-.983-.182a2 2 0 0 1-.718-.514 2.3 2.3 0 0 1-.43-.786 3.2 3.2 0 0 1-.145-1.005q-.002-.544.144-1.02c.09-.318.234-.59.431-.832.189-.235.43-.424.718-.552.287-.136.62-.204 1.013-.204.28 0 .537.03.779.098s.453.166.642.302q.284.204.454.522c.113.211.189.461.219.748h-.831zM44.98 194.545c-.144.09-.333.128-.575.128a.67.67 0 0 1-.491-.181c-.121-.121-.181-.31-.181-.575-.22.265-.477.454-.772.575a2.45 2.45 0 0 1-.944.181c-.22 0-.431-.022-.628-.075a1.4 1.4 0 0 1-.514-.242 1.2 1.2 0 0 1-.34-.423 1.4 1.4 0 0 1-.129-.628c0-.28.046-.499.144-.68.09-.174.22-.318.37-.424a1.9 1.9 0 0 1 .53-.249q.296-.088.604-.144.331-.065.628-.098a4 4 0 0 0 .521-.09.75.75 0 0 0 .356-.182c.09-.076.128-.197.128-.34 0-.174-.03-.318-.098-.424a.66.66 0 0 0-.257-.241 1.3 1.3 0 0 0-.348-.114 3 3 0 0 0-.378-.03c-.34 0-.62.068-.846.196-.227.129-.348.37-.37.734h-.802c.015-.303.075-.56.189-.764.113-.204.264-.378.453-.506q.287-.192.65-.28.363-.081.772-.083.329 0 .657.045c.22.03.416.099.59.197q.262.147.423.408c.106.174.159.408.159.688v2.502c0 .19.007.325.03.416s.099.128.22.128a.7.7 0 0 0 .241-.045v.62zm-1.3-2.495a.9.9 0 0 1-.28.129 5 5 0 0 1-.355.083 6 6 0 0 1-.401.053c-.144.015-.28.038-.408.06a3 3 0 0 0-.378.091 1 1 0 0 0-.31.159.75.75 0 0 0-.212.25.8.8 0 0 0-.083.377q.002.195.083.333c.053.09.121.166.204.219a.9.9 0 0 0 .295.121 2.01 2.01 0 0 0 1.036-.068q.282-.113.46-.272c.122-.114.205-.227.265-.355a1 1 0 0 0 .084-.363zM45.794 187.839h.801v6.72h-.8zM13.594 203.494q-.002 1.28-.695 1.935-.692.658-1.95.658a4.2 4.2 0 0 1-1.165-.151 2.25 2.25 0 0 1-.87-.47 2.1 2.1 0 0 1-.543-.808q-.192-.487-.19-1.157v-4.293h.893v4.293c0 .598.158 1.051.483 1.369.325.317.787.468 1.376.468.575 0 1.006-.158 1.308-.468.295-.318.446-.771.446-1.369v-4.293h.892v4.286zM14.784 201.054h.756v.77h.023c.166-.302.385-.52.658-.664a1.9 1.9 0 0 1 .93-.22c.317 0 .59.046.8.129q.318.134.522.37c.129.16.227.34.28.56.053.219.083.453.083.718v3.205h-.801v-3.296c0-.302-.09-.536-.265-.718q-.26-.263-.725-.264-.363 0-.635.113a1.2 1.2 0 0 0-.446.318c-.121.136-.212.302-.273.483a2 2 0 0 0-.09.605v2.752h-.802v-4.861zM20.767 200.177h-.801v-.983h.801zm-.801.877h.801v4.868h-.801zM24.213 205.921h-.855l-1.806-4.868h.892l1.368 4.06h.015l1.33-4.06h.84zM30.884 204.377c-.105.537-.34.953-.71 1.232-.363.28-.824.424-1.376.424-.393 0-.726-.068-1.013-.197a1.96 1.96 0 0 1-.718-.53 2.3 2.3 0 0 1-.439-.808 4 4 0 0 1-.166-1.028q-.002-.546.166-1.013.171-.467.477-.809a2.154 2.154 0 0 1 1.64-.718q.649 0 1.081.272.429.272.688.68c.174.28.295.575.355.908.068.325.091.635.084.93h-3.644q-.014.319.076.604c.053.19.15.363.272.507.128.15.287.264.484.355.196.09.423.129.687.129.333 0 .613-.076.832-.235.22-.159.363-.393.43-.718h.795zm-.786-1.353a1.6 1.6 0 0 0-.128-.537 1.4 1.4 0 0 0-.295-.438 1.5 1.5 0 0 0-.438-.295 1.3 1.3 0 0 0-.545-.106c-.204 0-.393.038-.56.106q-.249.114-.43.295a1.4 1.4 0 0 0-.28.438c-.068.167-.113.34-.12.53h2.796zM31.855 201.054h.756v1.028h.015c.197-.393.431-.688.719-.877.28-.189.642-.28 1.073-.265v.847q-.476.001-.816.129a1.3 1.3 0 0 0-.545.385 1.6 1.6 0 0 0-.302.62c-.06.242-.09.522-.09.832v2.17h-.802v-4.87zM35.583 204.387a.9.9 0 0 0 .12.453.9.9 0 0 0 .296.287c.12.076.257.121.415.16q.227.044.477.044c.128 0 .257-.007.393-.03.136-.015.264-.053.378-.106a.75.75 0 0 0 .287-.219.6.6 0 0 0 .113-.37.52.52 0 0 0-.136-.378 1.1 1.1 0 0 0-.355-.242 4 4 0 0 0-.506-.159q-.284-.059-.59-.128a7 7 0 0 1-.582-.16 2 2 0 0 1-.507-.241 1.1 1.1 0 0 1-.362-.386 1.14 1.14 0 0 1-.137-.582c0-.242.053-.453.167-.627.113-.174.25-.318.423-.43.174-.114.37-.19.582-.243.22-.053.431-.083.643-.083.272 0 .521.023.756.068s.446.129.62.242q.272.171.43.469c.106.196.167.446.19.74h-.802a.78.78 0 0 0-.393-.642 1.3 1.3 0 0 0-.348-.136 1.96 1.96 0 0 0-.756-.015c-.12.022-.234.053-.332.098a.6.6 0 0 0-.242.197.5.5 0 0 0-.09.302c0 .144.044.264.143.348.098.09.219.166.37.219.151.06.318.113.507.151q.284.059.567.129.306.068.59.158c.188.06.362.144.506.25.15.106.264.234.355.393s.136.348.136.582q0 .431-.181.726a1.4 1.4 0 0 1-.484.476 2.1 2.1 0 0 1-.665.257 3.5 3.5 0 0 1-1.52-.015 2 2 0 0 1-.642-.28 1.4 1.4 0 0 1-.454-.506 1.8 1.8 0 0 1-.189-.771zM40.563 200.177h-.801v-.983h.801zm-.801.877h.801v4.868h-.801zM42.819 201.054h.967v.703h-.967v3.024q0 .136.022.226a.23.23 0 0 0 .09.129c.046.03.107.053.182.06.076.008.182.015.303.015h.37v.704h-.612c-.204 0-.386-.016-.53-.046a.8.8 0 0 1-.355-.159.7.7 0 0 1-.204-.317 1.8 1.8 0 0 1-.068-.544v-3.1h-.831v-.703h.831v-1.459h.801zM46.703 206.571c-.091.242-.19.438-.28.605s-.19.295-.295.4a.9.9 0 0 1-.37.227 1.5 1.5 0 0 1-.469.068c-.09 0-.189-.007-.28-.015a1.6 1.6 0 0 1-.272-.068v-.733c.076.022.151.053.234.075a.9.9 0 0 0 .242.038.62.62 0 0 0 .393-.113c.099-.076.19-.19.265-.333l.333-.831-1.928-4.838h.907l1.421 3.983h.015l1.369-3.983h.846zM8.27 214.856c0-.355.052-.696.15-1.005a2.18 2.18 0 0 1 1.195-1.354 2.5 2.5 0 0 1 1.02-.196c.386 0 .719.068 1.02.196q.445.193.742.545c.204.226.355.499.453.809s.151.642.151 1.005q-.002.533-.15.998c-.099.31-.25.574-.454.809a2.2 2.2 0 0 1-.741.544 2.5 2.5 0 0 1-1.02.196c-.386 0-.734-.068-1.021-.196a2.05 2.05 0 0 1-.741-.544 2.2 2.2 0 0 1-.454-.81 3.3 3.3 0 0 1-.15-.997m.853 0c0 .295.038.56.121.786.076.227.19.423.325.575a1.396 1.396 0 0 0 1.073.476q.308.002.59-.121c.182-.083.348-.197.484-.355a1.6 1.6 0 0 0 .325-.575c.076-.227.121-.491.121-.786s-.037-.56-.12-.786a1.7 1.7 0 0 0-.326-.582 1.3 1.3 0 0 0-.483-.356 1.4 1.4 0 0 0-.59-.12 1.41 1.41 0 0 0-1.073.476c-.137.158-.25.347-.326.582a2.3 2.3 0 0 0-.12.786M14.158 213.118h-.816v-.704h.816v-.725c0-.393.113-.696.34-.9s.567-.302 1.006-.302c.075 0 .158.007.257.015.098.015.181.03.257.053v.695a1 1 0 0 0-.227-.053c-.083-.007-.159-.015-.227-.015q-.295 0-.454.114-.158.113-.158.43v.68h.945v.704h-.945v4.165h-.802v-4.158zM19.201 210.562h1.225l2.116 5.647 2.132-5.647H25.9v6.72h-.847v-5.593h-.023l-2.101 5.594h-.764l-2.101-5.594h-.015v5.594H19.2zM31.198 217.283h-.756v-.772h-.015a1.6 1.6 0 0 1-.658.666 1.9 1.9 0 0 1-.93.219c-.317 0-.59-.045-.801-.129a1.4 1.4 0 0 1-.522-.37 1.4 1.4 0 0 1-.28-.56 3 3 0 0 1-.083-.718v-3.205h.802v3.296c0 .302.09.537.264.718q.261.263.726.265.363 0 .635-.114a1.2 1.2 0 0 0 .446-.317c.121-.136.212-.303.272-.484s.09-.386.09-.605v-2.751h.802v4.86zM32.294 212.414h.756v.771h.022q.25-.451.658-.665a1.9 1.9 0 0 1 .93-.22c.317 0 .59.046.801.13q.318.133.522.37c.128.159.227.34.28.56.053.218.083.453.083.717v3.206h-.802v-3.296c0-.302-.09-.537-.264-.718q-.261-.263-.726-.265-.362 0-.635.114a1.2 1.2 0 0 0-.446.317c-.12.136-.212.302-.272.484a2 2 0 0 0-.09.605v2.751h-.802v-4.86zM38.308 211.538h-.801v-.983h.801zm-.801.876h.801v4.869h-.801zM42.756 213.98a1.2 1.2 0 0 0-.4-.719c-.205-.166-.47-.257-.81-.257q-.43 0-.725.159c-.197.106-.348.25-.469.423a1.9 1.9 0 0 0-.25.605 3.2 3.2 0 0 0-.075.71q.002.34.083.658.08.317.25.567c.113.166.257.302.438.4q.271.15.658.152c.385 0 .695-.106.922-.318.227-.211.363-.498.416-.869h.816q-.135.893-.68 1.391-.546.5-1.467.499-.553 0-.983-.181a2 2 0 0 1-.718-.515 2.3 2.3 0 0 1-.43-.786 3.2 3.2 0 0 1-.144-1.005c0-.363.045-.703.143-1.02.091-.318.235-.59.431-.832.19-.235.431-.424.718-.552.288-.136.62-.204 1.013-.204.28 0 .537.03.78.098.241.068.453.166.642.303q.284.204.453.521c.114.212.19.461.22.749h-.832zM44.416 210.562h.801v2.57h.015a1 1 0 0 1 .272-.378c.114-.105.242-.196.378-.257.137-.068.288-.113.439-.143a2.3 2.3 0 0 1 .446-.046c.317 0 .59.046.801.129q.318.134.522.37c.128.16.227.34.28.56.052.219.083.453.083.718v3.205h-.802v-3.296c0-.302-.09-.536-.264-.718q-.261-.263-.726-.264-.363 0-.635.113a1.2 1.2 0 0 0-.446.318 1.4 1.4 0 0 0-.272.483 2 2 0 0 0-.09.605v2.752h-.802z" class="st1"/><g data-name="Layer 1"><g stroke-width="0"><path fill="#333" d="m413.537 218.316-.05 5.588-5.587-.634-.03-5.507zM434.876 202.884l-.034 4.542h-37.95v-4.542z" class="cls-3"/><path fill="#231f20" d="m396.892 202.884 3.041-1h31.902l3.04 1zM407.87 217.763l8.637-8.685 4.029.294-6.999 8.944z" class="cls-1" opacity=".3"/><path fill="#333" d="m404.94 182.684.182 6.067-4.146-.164-.21-5.869z" class="cls-3"/><path fill="#231f20" d="m404.942 182.696 23.04.907-.12 4.056-22.74 1.092z" class="cls-4" opacity=".4"/><path fill="#333" d="m426.513 194.339-.198 5.887-20.79-4.965-.1-4.09z" class="cls-3"/><path fill="#231f20" d="m430.857 193.998-4.344.34-21.088-3.167 3.598-.146z" class="cls-1" opacity=".3"/><path fill="#231f20" d="m479.973 204.753-.799.476-3.013.028.85-.507z" class="cls-4" opacity=".4"/><path fill="#1a1a1a" d="M450.234 194.908h2.704l3.89 8.43 3.882-8.442h2.686l.015 12.598h-2.614l-.01-7.156-3.326 7.162H456.2l-3.326-7.153.01 7.16h-2.633zM468.807 206.717c-1.07-.51-1.9-1.24-2.482-2.196q-.877-1.433-.878-3.363t.878-3.42a6.1 6.1 0 0 1 2.423-2.31q1.54-.822 3.434-.826c1.263 0 2.401.269 3.419.816a6.1 6.1 0 0 1 2.41 2.305q.885 1.486.888 3.416 0 1.19-.548 2.308-.55 1.12-1.376 1.788h2.2v2.234l-6.637.01c-1.417 0-2.664-.251-3.734-.762zm5.405-2.097a3.32 3.32 0 0 0 1.386-1.355c.334-.597.504-1.297.501-2.101q0-1.208-.517-2.12a3.55 3.55 0 0 0-1.407-1.395 4.05 4.05 0 0 0-1.993-.482q-1.117.001-2.01.488a3.6 3.6 0 0 0-1.415 1.399q-.52.91-.52 2.12 0 1.837 1.096 2.873 1.09 1.035 2.858 1.034 1.136 0 2.02-.464zM483.534 207.519q-1.136-.214-1.86-.576v-2.416a9 9 0 0 0 1.98.7q1.029.231 1.965.231 1.044 0 1.587-.362t.539-1.011q0-.468-.273-.793-.27-.324-.786-.584-.515-.262-1.577-.693-1.77-.718-2.562-1.612c-.53-.597-.795-1.33-.795-2.21 0-.708.188-1.336.575-1.883q.577-.821 1.621-1.275 1.043-.45 2.417-.455 1.118 0 1.983.176.865.182 1.695.557v2.345q-1.583-.788-3.171-.788c-.674 0-1.2.117-1.587.352q-.576.353-.576 1.003 0 .468.273.773.27.305.758.542.487.232 1.587.683 1.281.541 2.002 1.034.72.495 1.064 1.17.343.674.343 1.667.002 1.712-1.231 2.67-1.234.957-3.685.959-1.155 0-2.29-.214zM494.149 207.506q-1.136-.213-1.86-.575v-2.416a9 9 0 0 0 1.98.699q1.029.231 1.965.232 1.044 0 1.587-.362t.539-1.012q0-.47-.273-.792-.27-.324-.785-.585-.516-.26-1.578-.693-1.77-.718-2.562-1.609-.795-.89-.795-2.209c0-.708.189-1.336.575-1.884q.577-.82 1.621-1.274 1.044-.45 2.417-.455 1.119 0 1.983.176a7.8 7.8 0 0 1 1.695.557v2.345q-1.584-.789-3.17-.789c-.675 0-1.201.118-1.588.353q-.575.353-.575 1.002 0 .471.272.774.27.306.758.541.488.233 1.587.684 1.281.54 2.002 1.033.72.496 1.064 1.17c.229.452.343 1.005.343 1.668q.001 1.712-1.23 2.67-1.236.957-3.686.959-1.155 0-2.29-.214z" class="cls-2"/></g><g fill="#1a1a1a" stroke="#414042" stroke-miterlimit="10" stroke-width=".2"><path stroke-width=".061878" d="M450.293 211.733h.76l1.86 4.071 1.86-4.071h.76v5.222h-.739v-3.713l-1.695 3.713h-.374l-1.705-3.713v3.713h-.733v-5.222ZM456.84 216.68q-.37-.39-.369-1.04v-2.27h.755v2.24q.001.859.86.86.757 0 1.182-.681v-2.42h.755v3.586h-.733v-.507q-.256.32-.6.47a1.9 1.9 0 0 1-.752.149q-.725 0-1.095-.39zM460.988 213.37h.734v.516q.254-.32.625-.473.37-.154.773-.155.72 0 1.068.38.351.38.35 1.025v2.292h-.756v-2.218q.001-.874-.838-.876a1.4 1.4 0 0 0-.668.167 1.5 1.5 0 0 0-.536.51v2.414h-.755v-3.586ZM465.598 212.54a.43.43 0 0 1-.126-.312q0-.187.126-.313a.43.43 0 0 1 .313-.127c.124 0 .238.044.325.127q.13.126.13.313a.42.42 0 0 1-.13.312.45.45 0 0 1-.325.127.42.42 0 0 1-.313-.127zm-.068.83h.77v3.585h-.77zM468.17 216.844a1.66 1.66 0 0 1-.721-.653c-.174-.288-.257-.625-.257-1.021s.086-.733.257-1.021c.17-.285.414-.507.723-.662a2.4 2.4 0 0 1 1.071-.232q.822 0 1.315.322v.618c-.325-.222-.736-.337-1.24-.337q-.615 0-.99.334-.377.335-.378.975-.001.642.374.971t.978.328q.756 0 1.3-.359v.613q-.26.18-.595.263a3.2 3.2 0 0 1-.78.084q-.597 0-1.06-.223zM471.424 211.436h.755v2.428q.515-.604 1.374-.606.72 0 1.067.38.351.38.35 1.025v2.292h-.755v-2.218q0-.875-.839-.876a1.4 1.4 0 0 0-.668.167 1.5 1.5 0 0 0-.535.51v2.414h-.755v-5.52ZM479.901 216.633a2.4 2.4 0 0 1-1.014-.915q-.363-.593-.362-1.386c0-.53.12-1.006.359-1.417q.356-.617.987-.957.627-.339 1.404-.34.777.001 1.405.34c.417.226.749.545.987.957q.358.615.359 1.417 0 .635-.288 1.16a2.07 2.07 0 0 1-.758.804h1.13v.656h-2.699q-.85 0-1.506-.322zm2.395-.597q.449-.224.7-.662.25-.435.25-1.042c0-.406-.087-.752-.26-1.059a1.8 1.8 0 0 0-.708-.705 2.04 2.04 0 0 0-1.003-.248c-.371 0-.702.084-1.005.248-.304.164-.539.4-.715.702a2.1 2.1 0 0 0-.263 1.062c0 .405.084.758.25 1.045q.251.433.7.656.45.223 1.03.223c.387 0 .724-.074 1.024-.223zM485.109 216.68q-.37-.39-.369-1.04v-2.27h.755v2.24q.001.859.86.86.757 0 1.182-.681v-2.42h.755v3.586h-.733v-.507q-.256.32-.6.47a1.9 1.9 0 0 1-.752.149q-.724 0-1.095-.39zM489.387 216.735q-.394-.333-.393-.9 0-.598.378-.922.377-.325 1.073-.325.74 0 1.257.3v-.185q-.001-.427-.257-.631c-.17-.137-.443-.205-.81-.205q-.331 0-.638.065a2.7 2.7 0 0 0-.557.177v-.613c.148-.068.343-.127.582-.167s.47-.065.696-.065q.89 0 1.318.393c.284.26.43.625.43 1.086v2.218h-.709v-.402a1.5 1.5 0 0 1-.55.384q-.32.13-.774.13-.649-.001-1.043-.331zm1.881-.383a.97.97 0 0 0 .434-.396v-.486a1.94 1.94 0 0 0-1.083-.312q-.433 0-.647.167-.213.166-.213.51c0 .44.284.656.86.656q.357.001.65-.142zM493.397 213.37h.733v.516q.255-.32.625-.473.371-.154.774-.155.72 0 1.067.38.351.38.35 1.025v2.292h-.755v-2.218q0-.874-.839-.876a1.4 1.4 0 0 0-.668.167 1.5 1.5 0 0 0-.535.51v2.414h-.755v-3.586ZM498.422 216.754q-.296-.314-.294-.888v-1.912h-.545v-.582h.545v-1.076h.76v1.076h.882v.582h-.881v1.86q0 .358.139.507.139.148.504.148.217.002.433-.096v.598a2.2 2.2 0 0 1-.702.096q-.543-.001-.841-.313zM500.968 216.68q-.37-.39-.368-1.04v-2.27h.755v2.24q0 .859.86.86.755 0 1.182-.681v-2.42h.754v3.586h-.733v-.507q-.256.32-.6.47a1.9 1.9 0 0 1-.752.149q-.724 0-1.095-.39zM505.117 213.37h.718v.516q.255-.314.575-.47a1.5 1.5 0 0 1 .665-.158q.432.001.687.145.254.144.374.446.24-.291.588-.44.347-.147.7-.148.657 0 .95.331.29.333.29.98v2.383h-.733v-2.286q-.001-.44-.164-.625-.164-.182-.56-.183-.567 0-.925.492.015.113.015.365v2.234h-.733v-2.286q0-.44-.148-.625-.15-.182-.539-.183c-.377 0-.718.214-1.015.644v2.45h-.74v-3.586ZM451.004 224.9a2.8 2.8 0 0 1-.714-.213V224q.715.336 1.547.337 1.165.002 1.166-.786a.7.7 0 0 0-.127-.433 1.1 1.1 0 0 0-.365-.288 10 10 0 0 0-.776-.34c-.492-.198-.851-.418-1.068-.656q-.329-.358-.328-.903 0-.41.223-.727c.149-.21.359-.378.628-.492.27-.115.579-.177.925-.177a4 4 0 0 1 .77.069q.344.068.672.216v.656a3.2 3.2 0 0 0-1.315-.29q-.537 0-.823.194a.63.63 0 0 0-.285.554q-.001.247.124.414t.365.3c.161.09.402.195.721.325q.528.218.839.412.305.195.467.473.161.28.16.7.001.677-.485 1.055c-.325.247-.801.374-1.436.374q-.45 0-.885-.077zM455.345 224.749a1.7 1.7 0 0 1-.718-.656q-.258-.432-.256-1.012c0-.387.083-.72.253-1.009q.255-.43.718-.668.464-.236 1.067-.235.604-.001 1.068.235.463.236.72.668t.258 1.01c0 .383-.087.726-.257 1.01a1.7 1.7 0 0 1-.721.657q-.464.228-1.068.229-.604-.001-1.064-.23zm1.99-.727q.343-.36.343-.94c0-.388-.114-.722-.343-.957q-.345-.353-.926-.353-.58 0-.925.353-.343.353-.343.956c0 .402.114.702.343.94q.345.36.925.36.582 0 .926-.36zM459.262 221.862h-.544v-.582h.544v-.702q.001-.62.35-.944.352-.324.94-.324.306 0 .576.09v.627a1 1 0 0 0-.433-.096q-.352 0-.517.168-.163.166-.164.526v.655h.897v.582h-.897v3.004h-.755v-3.004zM461.935 224.665q-.296-.314-.294-.888v-1.912h-.544v-.581h.544v-1.077h.761v1.077h.882v.581h-.882v1.86q0 .358.14.507.138.148.504.148.216.001.433-.095v.597a2.2 2.2 0 0 1-.702.096q-.544-.001-.842-.313zM463.85 221.28h.77l.808 2.661.798-2.66h.681l.798 2.66.808-2.66h.776l-1.166 3.585h-.724l-.83-2.673-.828 2.673h-.734zM469.942 224.647q-.394-.335-.393-.9 0-.599.378-.923.377-.325 1.073-.325.74 0 1.256.3v-.185q0-.427-.256-.631-.257-.204-.811-.204-.33 0-.637.064a2.7 2.7 0 0 0-.557.177v-.613c.148-.068.343-.127.581-.167.239-.04.47-.065.697-.065q.89 0 1.318.393c.284.26.43.625.43 1.086v2.218h-.709v-.402a1.5 1.5 0 0 1-.55.384q-.32.13-.774.13-.649-.001-1.043-.331zm1.881-.387a.97.97 0 0 0 .433-.396v-.486a1.94 1.94 0 0 0-1.082-.312q-.433 0-.647.167-.213.166-.214.51c0 .44.285.656.86.656q.358.001.65-.142zM473.952 221.28h.733v.644q.223-.329.631-.486.41-.158.944-.158v.591q-.575 0-.987.186a1.03 1.03 0 0 0-.566.59v2.22h-.755zM477.123 224.483q-.562-.497-.563-1.402c0-.603.167-1.052.504-1.395q.507-.517 1.439-.517.62-.001 1.055.235.433.237.653.65.219.413.22.944v.374h-3.153q.036.506.43.758.393.25 1.064.25.344 0 .696-.064.351-.066.62-.168v.607a3 3 0 0 1-.632.16q-.391.066-.774.066-.993 0-1.559-.498zm2.596-1.643q-.014-.506-.334-.79-.315-.279-.9-.28c-.39 0-.672.095-.882.29q-.315.291-.328.777h2.444zM484.576 224.9a2.8 2.8 0 0 1-.714-.213V224q.715.336 1.547.337 1.165.002 1.166-.786a.7.7 0 0 0-.127-.433 1.1 1.1 0 0 0-.365-.288 10 10 0 0 0-.776-.34c-.492-.198-.851-.418-1.068-.656q-.329-.358-.328-.903 0-.41.223-.727c.148-.21.359-.378.628-.492.27-.115.579-.177.925-.177a4 4 0 0 1 .77.069q.344.068.672.216v.656a3.2 3.2 0 0 0-1.315-.29q-.537 0-.823.194a.63.63 0 0 0-.285.554q-.001.247.124.414t.365.3c.161.09.402.195.721.325q.529.218.838.412.307.195.468.473.161.28.16.7.001.677-.485 1.055-.486.372-1.436.374-.45 0-.885-.077zM488.484 224.665q-.295-.314-.294-.888v-1.912h-.544v-.581h.544v-1.077h.761v1.077h.882v.581h-.882v1.86q0 .358.14.507.138.148.504.148.216.001.433-.095v.597a2.2 2.2 0 0 1-.703.096q-.543-.001-.841-.313zM490.87 224.647q-.395-.335-.394-.9 0-.599.378-.923.377-.325 1.073-.325.74 0 1.257.3v-.185q-.001-.427-.257-.631c-.17-.136-.443-.204-.81-.204q-.331 0-.638.064a2.7 2.7 0 0 0-.557.177v-.613c.148-.068.343-.127.582-.167s.47-.065.696-.065q.89 0 1.318.393c.284.26.43.625.43 1.086v2.218h-.709v-.402a1.5 1.5 0 0 1-.55.384q-.32.13-.774.13-.649-.001-1.043-.331zm1.877-.387a.97.97 0 0 0 .433-.396v-.486a1.94 1.94 0 0 0-1.082-.312q-.433 0-.647.167-.213.166-.213.51c0 .44.284.656.86.656q.356.001.65-.142zM495.557 224.755a1.66 1.66 0 0 1-.721-.653c-.174-.288-.257-.625-.257-1.02 0-.397.087-.734.257-1.022q.257-.428.724-.662a2.4 2.4 0 0 1 1.07-.232q.823 0 1.315.322v.618q-.486-.335-1.24-.337-.614 0-.99.334-.377.335-.378.975 0 .642.374.971.375.329.978.328.756 0 1.3-.358v.612q-.26.18-.595.263a3.2 3.2 0 0 1-.78.084q-.597 0-1.06-.223zM498.811 219.347h.755v5.52h-.755zm.765 3.703 1.652-1.77h.919l-1.659 1.77 1.832 1.816h-.919l-1.822-1.816z" class="cls-5"/></g></g><path fill="#3070b3" d="M239.862 49.391a124.6 124.6 0 0 0-37.246-5.686c-22.954 0-45.33 6.296-64.014 17.87v6.28c18.383-12.201 40.873-18.887 64.014-18.887 12.803 0 25.42 2.05 37.246 5.938zM240.002 83.326c-11.867 3.92-24.524 5.987-37.384 5.987-23.14 0-45.632-6.678-64.014-18.887v6.279c18.676 11.575 41.052 17.87 64.014 17.87 13.185 0 26.167-2.082 38.376-6.044-.496-1.634-.821-3.375-.992-5.205z" class="st0"/><path fill="#3c3c3c" d="M265.192 98.414c-2.774 0-5.287-.431-7.548-1.285s-4.197-2.066-5.792-3.628c-1.602-1.562-2.838-3.449-3.717-5.677q-1.317-3.334-1.317-7.435V54.873h8.19v25.476c0 2.14.35 3.912 1.058 5.32.7 1.399 1.57 2.513 2.603 3.326 1.033.822 2.147 1.383 3.335 1.692 1.187.31 2.253.472 3.188.472.936 0 2.001-.154 3.189-.472 1.187-.309 2.302-.878 3.335-1.692 1.033-.813 1.903-1.927 2.602-3.326.7-1.4 1.058-3.173 1.058-5.32V54.873h8.19v25.516c0 2.733-.43 5.206-1.284 7.435-.855 2.22-2.09 4.115-3.685 5.677-1.603 1.562-3.53 2.774-5.792 3.628-2.269.854-4.799 1.285-7.613 1.285zM433.672 98.474c-2.774 0-5.287-.431-7.548-1.285s-4.197-2.066-5.792-3.628c-1.602-1.562-2.838-3.457-3.717-5.677q-1.317-3.334-1.317-7.435V54.933h8.19v25.476q-.002 3.209 1.058 5.32c.7 1.399 1.57 2.513 2.603 3.326 1.033.822 2.147 1.383 3.335 1.692 1.187.31 2.253.464 3.188.464q1.405 0 3.189-.464c1.187-.309 2.302-.878 3.335-1.692q1.551-1.23 2.603-3.326c.7-1.4 1.057-3.173 1.057-5.32V54.933h8.19v25.516c0 2.733-.43 5.206-1.284 7.435q-1.293 3.332-3.685 5.677-2.401 2.345-5.791 3.628c-2.262.854-4.808 1.285-7.614 1.285M284.542 97.684 306.57 54.81h.846l21.84 42.817h-8.915L306.976 70.85l-13.405 26.81c.01 0-9.028-.081-9.028.024z" class="st1"/><path fill="#3c3c3c" d="M254.682 103.234a22 22 0 0 1-2.058-.895c-10.89 16.732-29.746 27.834-51.163 27.834-33.65 0-61.02-27.379-61.02-61.02 0-33.643 27.378-61.022 61.02-61.022 26.248 0 48.657 16.675 57.247 39.98h8.606C258.383 20.242 232.257-.004 201.461-.004c-38.132 0-69.155 31.023-69.155 69.155s31.023 69.155 69.155 69.155c25.11 0 47.128-13.454 59.248-33.52-.252-.049-.496-.114-.74-.17-1.863-.293-3.628-.749-5.287-1.383zM341.332 97.626V72.19l28.119 25.435h.91V54.873h-8.19V80.74l-28.152-25.866h-.878v42.753zM376.967 54.873v7.256h12.29v35.497h8.191V62.129h12.234v-7.256zM481.79 79.625 460.78 54.93h-.53v42.696h8.192V76.054l13.347 16.097 13.397-16.097v21.572h8.2V54.93h-.53z" class="st1"/><path fill="#3c3c3c" d="M283.562 123.934c-1.7.211-3.432.366-5.149.464-20.498 1.179-40.23-5.702-55.555-19.367-15.324-13.665-24.418-32.48-25.59-52.985-.878-15.381 2.798-30.478 10.647-43.663l-6.987-4.165c-8.679 14.584-12.754 31.275-11.778 48.284 1.302 22.669 11.347 43.476 28.298 58.589 15.707 14.007 35.594 21.563 56.466 21.563q2.478 0 4.97-.146a90 90 0 0 0 4.677-.407z" class="st1"/><path fill="#3070b3" d="M323.312 118.004H311.07v35.611h-8.199v-35.611h-12.299v-7.264h32.739zM457.952 146.344v7.264h-30.86v-42.866h8.2v35.61h22.66zM490.462 153.614l-17.976-19.505v19.505h-8.199v-42.866h8.2v21.783l17.04-21.726h10.07l-17.626 22.141 19.326 20.677h-10.834zM516.692 153.614h-8.199v-42.809h8.2zM555.642 118.004H543.4v35.611h-8.199v-35.611h-12.299v-7.264h32.739zM368.522 123.544c-1.171-2.709-2.765-5.076-4.775-7.085q-3.012-3.016-7.06-4.774c-2.692-1.172-5.588-1.757-8.67-1.757-2.124 0-4.165.293-6.117.862l3.465 7.085a13 13 0 0 1 2.676-.277q2.916-.002 5.466 1.204a14.9 14.9 0 0 1 4.44 3.188c1.27 1.326 2.27 2.88 3.01 4.653a14.2 14.2 0 0 1 1.115 5.531c0 1.952-.374 3.807-1.114 5.564a15.4 15.4 0 0 1-3.01 4.652 14.6 14.6 0 0 1-4.441 3.221c-1.692.798-3.514 1.204-5.466 1.204s-3.766-.398-5.466-1.204a14.5 14.5 0 0 1-4.441-3.22 15.5 15.5 0 0 1-3.01-4.653 14.2 14.2 0 0 1-1.114-5.564c0-1.911.374-3.758 1.114-5.53.74-1.774 1.74-3.328 3.01-4.654.13-.138.268-.26.406-.39l-3.595-7.345c-.919.675-1.79 1.39-2.603 2.196-2.009 2.01-3.603 4.376-4.774 7.085q-1.758 4.075-1.757 8.638c0 3.083.585 5.97 1.757 8.671q1.759 4.036 4.774 7.06c2.01 2.01 4.36 3.604 7.06 4.775q4.041 1.757 8.606 1.757c3.083 0 5.97-.586 8.671-1.757 2.693-1.171 5.043-2.766 7.06-4.775q3.017-3.012 4.775-7.06 1.757-4.037 1.757-8.67c.009-3.043-.578-5.922-1.749-8.631M417.992 123.544c-1.171-2.709-2.765-5.076-4.775-7.085q-3.012-3.016-7.06-4.774c-2.692-1.172-5.588-1.757-8.67-1.757-2.124 0-4.165.293-6.117.862l3.465 7.085a13 13 0 0 1 2.676-.277q2.916-.002 5.466 1.204a14.9 14.9 0 0 1 4.44 3.188c1.27 1.326 2.27 2.88 3.01 4.653a14.2 14.2 0 0 1 1.115 5.531q-.002 2.928-1.115 5.564a15.4 15.4 0 0 1-3.01 4.652 14.6 14.6 0 0 1-4.44 3.221c-1.692.798-3.514 1.204-5.466 1.204s-3.766-.398-5.466-1.204a14.5 14.5 0 0 1-4.441-3.22 15.5 15.5 0 0 1-3.01-4.653 14.2 14.2 0 0 1-1.114-5.564c0-1.911.374-3.758 1.114-5.53.74-1.774 1.74-3.328 3.01-4.654.13-.138.268-.26.406-.39l-3.595-7.345c-.92.675-1.79 1.39-2.603 2.196-2.009 2.01-3.603 4.376-4.774 7.085q-1.757 4.075-1.757 8.638c0 3.083.585 5.97 1.757 8.671 1.17 2.692 2.765 5.043 4.774 7.06 2.01 2.01 4.36 3.604 7.06 4.775q4.041 1.757 8.606 1.757c3.083 0 5.97-.586 8.671-1.757 2.692-1.171 5.043-2.766 7.06-4.775q3.017-3.012 4.775-7.06 1.757-4.037 1.757-8.67c.009-3.043-.578-5.922-1.749-8.631z" class="st0"/><g fill="#3070b3"><path d="M356.14 41.733 339.28 26.518v15.215h-4.862V16.165h.525l16.823 15.46v-15.46h4.897v25.568ZM317.841 42.188q-2.483 0-4.512-.77t-3.462-2.168-2.239-3.393q-.77-1.994-.77-4.442v-15.25h4.898v15.25q0 1.924.63 3.183.629 1.259 1.538 1.994.944.734 1.994 1.014 1.084.28 1.923.28.84 0 1.89-.28 1.083-.28 1.993-1.014.944-.735 1.574-1.994.63-1.26.63-3.183v-15.25h4.896v15.25q0 2.448-.77 4.442-.769 1.994-2.203 3.393t-3.463 2.168-4.547.77M301.228 16.165v25.568h-4.897V28.792l-8.01 9.618-7.974-9.618v12.941h-4.897V16.165h.315l12.556 14.76 12.592-14.76zM367.86 41.733h-4.896V16.165h4.897zM423.05 16.13v25.603h-4.862V31.555h-12.661v10.178h-4.862V16.13h4.862v11.053h12.661V16.13zM396.89 35.437q-.839 1.54-2.063 2.798-1.224 1.225-2.728 2.134-1.469.874-3.218 1.364-1.714.49-3.567.49-2.728 0-5.142-1.05-2.413-1.049-4.232-2.833-1.784-1.818-2.833-4.232-1.05-2.413-1.05-5.141t1.05-5.142q1.05-2.413 2.833-4.197 1.819-1.819 4.232-2.868 2.414-1.05 5.142-1.05 1.853 0 3.567.49 1.75.49 3.218 1.4 1.504.874 2.728 2.133 1.224 1.224 2.064 2.728l-4.582 1.854q-.56-.84-1.33-1.574-.734-.735-1.643-1.294-.91-.56-1.924-.875t-2.098-.314q-1.75 0-3.288.734-1.504.7-2.623 1.889t-1.784 2.798q-.665 1.574-.665 3.288 0 1.749.665 3.322.665 1.574 1.784 2.764t2.623 1.923q1.539.7 3.288.7 1.084 0 2.098-.315 1.015-.315 1.924-.874.91-.56 1.644-1.295.77-.769 1.329-1.608z" class="st0"/></g><path d="M-171.19 291.544c-12.165 0-22.998 5.75-29.927 14.68h3.347c6.46-7.405 15.97-12.08 26.58-12.08s20.12 4.675 26.58 12.08h3.346c-6.928-8.93-17.761-14.68-29.926-14.68m0 7.234a30.5 30.5 0 0 0-20.004 7.446h4.234a27.9 27.9 0 0 1 15.77-4.846c5.85 0 11.28 1.787 15.77 4.846h4.235a30.5 30.5 0 0 0-20.005-7.446m-51.144 10.045v.002a20.53 20.53 0 0 0-17.704 10.26 20.53 20.53 0 0 0 0 20.52 20.53 20.53 0 0 0 17.703 10.259h32.003a28.5 28.5 0 0 1-3.957-4.6h-27.978a15.91 15.91 0 0 1-13.787-7.959 15.91 15.91 0 0 1 0-15.92 15.91 15.91 0 0 1 13.787-7.96v-.002h28.027a28.4 28.4 0 0 1 3.988-4.6h-32.015zm70.148 0a28.4 28.4 0 0 1 4.06 4.6h44.965v.002a15.91 15.91 0 0 1 13.787 7.96 15.91 15.91 0 0 1 0 15.92 15.91 15.91 0 0 1-13.787 7.96h-42.474v4.599h42.542a20.53 20.53 0 0 0 17.703-10.26 20.53 20.53 0 0 0 0-20.52 20.53 20.53 0 0 0-17.703-10.259v-.002zm-20.41 11.893q-.87.03-1.739.095-.003.174-.003.349 0 1.171.11 2.314a41 41 0 0 1 3.081-.125c3.252.006 6.514.414 9.57 1.192a38.6 38.6 0 0 1 9.291 3.704 19 19 0 0 0-.477-3.254 41.5 41.5 0 0 0-19.832-4.275zm-6.341.712a41.6 41.6 0 0 0-10.592 3.565 19 19 0 0 0-.477 3.247 39 39 0 0 1 11.217-4.139q-.135-1.32-.148-2.673m-11.069 9.11q.1 1.674.479 3.257a41.6 41.6 0 0 0 16.081 4.23q-.984-1.351-1.81-2.813a38 38 0 0 1-2.929-.42 38.7 38.7 0 0 1-11.821-4.254m37.72.004a39 39 0 0 1-11.803 4.249c-1.842.338-3.724.54-5.61.608a24 24 0 0 0 2.14 2.54q1.488-.13 2.961-.37a41 41 0 0 0 11.836-3.783c.249-1.05.41-2.134.477-3.244m-48.922 21.922c6.924 8.996 17.8 14.798 30.018 14.798s23.093-5.802 30.018-14.798h-3.334c-6.463 7.473-16.017 12.199-26.684 12.199s-20.22-4.726-26.683-12.2zm9.877 0a30.5 30.5 0 0 0 20.141 7.564 30.5 30.5 0 0 0 20.14-7.564h-4.197a27.9 27.9 0 0 1-15.943 4.964 27.9 27.9 0 0 1-15.943-4.964z" style="baseline-shift:baseline;display:inline;overflow:visible;vector-effect:none;fill:#3070b3;fill-opacity:1;stroke-width:1.60009;stroke-miterlimit:10;paint-order:markers fill stroke;stop-color:#000" transform="translate(430.242 -120.049)scale(.98224)"/><path d="M-171.146 305.896q-1.814.002-3.555.269c-11.27 1.72-19.94 11.485-19.94 23.225 0 12.949 10.547 23.496 23.495 23.496 4.891 0 9.44-1.504 13.206-4.075a28.6 28.6 0 0 0 7.704 1.05v-4.6q-1.728-.001-3.392-.235a23.4 23.4 0 0 0 5.977-15.636c0-12.222-9.4-22.292-21.344-23.384l.008-.011a24 24 0 0 0-2.158-.099zm0 4.6a18.86 18.86 0 0 1 18.895 18.894 18.84 18.84 0 0 1-6.54 14.316 24.07 24.07 0 0 1-15.546-22.546c0-3.827.885-7.442 2.464-10.65q.362-.014.727-.014m-6.12 1.007a28.6 28.6 0 0 0-1.672 9.657c0 11.074 6.306 20.705 15.516 25.489a18.9 18.9 0 0 1-7.724 1.636 18.86 18.86 0 0 1-18.894-18.895 18.86 18.86 0 0 1 12.773-17.887m68.045 5.023q-2.641 0-4.978 1.016a13.2 13.2 0 0 0-4.098 2.777 13 13 0 0 0-2.744 4.064 12.35 12.35 0 0 0-1.016 4.978q0 2.641 1.016 4.979a13.5 13.5 0 0 0 2.744 4.098 13.5 13.5 0 0 0 4.098 2.743 12.35 12.35 0 0 0 4.978 1.016q1.794 0 3.454-.474a12.8 12.8 0 0 0 3.116-1.321 14 14 0 0 0 2.642-2.066 12.4 12.4 0 0 0 1.998-2.71l-4.436-1.794a10.2 10.2 0 0 1-1.288 1.557 8.7 8.7 0 0 1-1.591 1.253 8.2 8.2 0 0 1-1.863.847 6.8 6.8 0 0 1-2.032.305 7.6 7.6 0 0 1-3.184-.677 8.7 8.7 0 0 1-2.54-1.863 8.9 8.9 0 0 1-1.727-2.675 8.2 8.2 0 0 1-.643-3.218q0-1.659.643-3.183a8.8 8.8 0 0 1 1.728-2.71 8.2 8.2 0 0 1 2.54-1.828 7.3 7.3 0 0 1 3.183-.711q1.05-.001 2.032.304a8.2 8.2 0 0 1 1.863.847 8.7 8.7 0 0 1 1.591 1.253q.745.711 1.288 1.524l4.436-1.795a12 12 0 0 0-1.998-2.642 12.3 12.3 0 0 0-2.642-2.065 12 12 0 0 0-3.116-1.355 12.5 12.5 0 0 0-3.454-.474m-114.52.033v25.638h4.742v-13.412l7.721 9.314 7.756-9.314v13.412h4.741v-25.638h-.305l-12.192 14.292-12.157-14.292zm88.68 0q-1.56 0-3.251.34a9.4 9.4 0 0 0-3.048 1.184q-1.355.813-2.236 2.27-.88 1.422-.88 3.59 0 1.49.474 2.608a6.7 6.7 0 0 0 1.32 1.896q.814.78 1.83 1.32 1.015.51 2.065.847 1.05.306 2.033.508.981.17 1.727.305 1.118.204 2.133.44 1.05.238 1.795.576.78.34 1.22.88.473.51.473 1.254 0 .576-.304 1.185-.305.576-.915 1.05-.61.44-1.49.745-.88.27-2.032.271a9.9 9.9 0 0 1-4.165-.914 28.6 28.6 0 0 1-3.828-2.236l-2.573 3.793a48 48 0 0 0 2.235 1.49q1.083.678 2.303 1.186 1.219.474 2.675.745 1.491.305 3.42.305 2.1 0 3.828-.474 1.727-.475 2.98-1.389a6.36 6.36 0 0 0 1.93-2.37q.678-1.423.678-3.353 0-1.66-.508-2.811-.474-1.185-1.287-1.964a6.5 6.5 0 0 0-1.795-1.321 12.3 12.3 0 0 0-2.066-.813 17 17 0 0 0-1.998-.474 30 30 0 0 1-1.66-.339 129 129 0 0 0-1.964-.474 13 13 0 0 1-1.863-.576q-.846-.339-1.388-.846a1.65 1.65 0 0 1-.542-1.254q0-.744.44-1.253.474-.542 1.152-.88.71-.339 1.49-.474a6.6 6.6 0 0 1 1.388-.17q1.795 0 3.42.644 1.627.644 3.388 1.863l2.641-3.726a26 26 0 0 0-2.167-1.388 10.5 10.5 0 0 0-2.032-.983q-1.05-.405-2.27-.609a17 17 0 0 0-2.777-.204" style="baseline-shift:baseline;display:inline;overflow:visible;vector-effect:none;fill:#3c3c3c;fill-opacity:1;stroke-width:1.60009;stroke-miterlimit:10;paint-order:markers fill stroke;stop-color:#000" transform="translate(430.242 -120.049)scale(.98224)"/></svg>
