<?xml version="1.0" encoding="UTF-8" standalone="no"?>
<svg
   width="2602.7307"
   height="909.69135"
   version="1.1"
   viewBox="0 0 688.64814 240.68654"
   id="svg139"
   sodipodi:docname="mqt-banner-light.svg"
   inkscape:version="1.4.4 (dcaf3e7d9e, 2026-05-05)"
   inkscape:export-filename="mqt-banner-light.png"
   inkscape:export-xdpi="96"
   inkscape:export-ydpi="96"
   xmlns:inkscape="http://www.inkscape.org/namespaces/inkscape"
   xmlns:sodipodi="http://sodipodi.sourceforge.net/DTD/sodipodi-0.dtd"
   xmlns="http://www.w3.org/2000/svg"
   xmlns:svg="http://www.w3.org/2000/svg">
  <sodipodi:namedview
     id="namedview139"
     pagecolor="#505050"
     bordercolor="#ffffff"
     borderopacity="1"
     inkscape:showpageshadow="0"
     inkscape:pageopacity="0"
     inkscape:pagecheckerboard="1"
     inkscape:deskcolor="#d1d1d1"
     inkscape:zoom="0.77755394"
     inkscape:cx="1129.1821"
     inkscape:cy="284.8677"
     inkscape:window-width="3015"
     inkscape:window-height="1659"
     inkscape:window-x="0"
     inkscape:window-y="0"
     inkscape:window-maximized="1"
     inkscape:current-layer="g79" />
  <defs
     id="defs2">
    <clipPath
       id="d">
      <path
         transform="translate(-690.12,-252.86)"
         d="M 0,821.859 H 1461.753 V 0 H 0 Z"
         id="path1" />
    </clipPath>
    <clipPath
       id="c">
      <path
         transform="translate(-690.12,-252.86)"
         d="M 0,821.859 H 1461.753 V 0 H 0 Z"
         id="path2" />
    </clipPath>
  </defs>
  <g
     transform="translate(0.01213535,-13.235995)"
     id="g139">
    <g
       transform="matrix(0.31323,0,0,-0.31323,543.16,250.59)"
       id="g79">
      <g
         transform="translate(-6.2251e-5,9.4681e-5)"
         fill="#1a8ab9"
         id="g22">
        <path
           transform="translate(84.557,163.65)"
           d="m 0,0 h 8.865 l 8.28,-22.635 H 17.28 L 25.47,0 h 8.91 v -31.86 h -5.625 v 25.605 h -0.09 L 18.99,-31.86 H 15.03 L 5.49,-6.255 H 5.4 V -31.86 H 0 Z"
           id="path3" />
        <path
           d="m 145.4,131.79 h -5.13 v 3.465 h -0.09 c -0.48,-1.08 -1.313,-2.033 -2.498,-2.858 -1.185,-0.824 -2.587,-1.237 -4.207,-1.237 -1.41,0 -2.618,0.248 -3.623,0.742 -1.005,0.495 -1.83,1.148 -2.474,1.958 -0.646,0.81 -1.119,1.74 -1.418,2.79 -0.3,1.05 -0.45,2.13 -0.45,3.24 v 13.5 h 5.4 v -11.97 c 0,-0.63 0.045,-1.29 0.135,-1.98 0.09,-0.691 0.285,-1.313 0.585,-1.867 0.299,-0.556 0.712,-1.013 1.237,-1.373 0.525,-0.36 1.222,-0.54 2.093,-0.54 0.839,0 1.582,0.172 2.227,0.518 0.645,0.344 1.171,0.787 1.575,1.327 0.405,0.54 0.713,1.162 0.923,1.868 0.209,0.704 0.315,1.417 0.315,2.137 v 11.88 h 5.4 z"
           id="path4" />
        <path
           d="m 151.88,153.39 h 5.13 v -3.465 h 0.09 c 0.479,1.08 1.312,2.032 2.497,2.858 1.185,0.824 2.588,1.237 4.208,1.237 1.409,0 2.617,-0.248 3.622,-0.743 1.005,-0.494 1.83,-1.147 2.475,-1.957 0.645,-0.81 1.118,-1.741 1.418,-2.79 0.299,-1.051 0.45,-2.131 0.45,-3.24 v -13.5 h -5.4 v 11.97 c 0,0.63 -0.045,1.29 -0.135,1.98 -0.09,0.69 -0.286,1.312 -0.585,1.867 -0.3,0.555 -0.713,1.013 -1.238,1.373 -0.525,0.36 -1.222,0.54 -2.092,0.54 -0.871,0 -1.62,-0.173 -2.25,-0.518 -0.63,-0.345 -1.148,-0.787 -1.553,-1.327 -0.405,-0.54 -0.713,-1.163 -0.922,-1.868 -0.211,-0.705 -0.315,-1.417 -0.315,-2.137 v -11.88 h -5.4 z"
           id="path5" />
        <path
           d="m 178.16,153.39 h 5.4 v -21.6 h -5.4 z m -0.765,7.335 c 0,0.87 0.322,1.627 0.967,2.272 0.645,0.645 1.463,0.968 2.453,0.968 0.99,0 1.822,-0.308 2.497,-0.923 0.675,-0.615 1.013,-1.387 1.013,-2.317 0,-0.93 -0.338,-1.703 -1.013,-2.317 -0.675,-0.616 -1.507,-0.923 -2.497,-0.923 -0.99,0 -1.808,0.322 -2.453,0.967 -0.645,0.645 -0.967,1.402 -0.967,2.273"
           id="path6" />
        <path
           d="m 204.89,147.4 c -0.42,0.6 -1.05,1.102 -1.89,1.507 -0.84,0.405 -1.695,0.608 -2.565,0.608 -0.989,0 -1.86,-0.203 -2.609,-0.608 -0.751,-0.405 -1.374,-0.938 -1.869,-1.597 -0.495,-0.66 -0.862,-1.403 -1.102,-2.228 -0.24,-0.825 -0.36,-1.658 -0.36,-2.497 0,-0.84 0.127,-1.673 0.382,-2.497 0.255,-0.826 0.638,-1.569 1.148,-2.228 0.51,-0.661 1.148,-1.193 1.913,-1.598 0.765,-0.405 1.657,-0.607 2.678,-0.607 0.838,0 1.679,0.164 2.519,0.495 0.84,0.33 1.515,0.81 2.026,1.44 l 3.375,-3.42 c -0.901,-0.961 -2.048,-1.703 -3.443,-2.228 -1.395,-0.524 -2.903,-0.787 -4.522,-0.787 -1.591,0 -3.099,0.255 -4.523,0.765 -1.426,0.509 -2.671,1.26 -3.735,2.25 -1.066,0.99 -1.906,2.189 -2.521,3.6 -0.615,1.409 -0.922,3.015 -0.922,4.815 0,1.739 0.307,3.315 0.922,4.725 0.615,1.409 1.448,2.61 2.498,3.6 1.05,0.99 2.273,1.755 3.667,2.295 1.396,0.54 2.888,0.81 4.478,0.81 1.59,0 3.128,-0.301 4.613,-0.9 1.485,-0.601 2.661,-1.425 3.532,-2.475 z"
           id="path7" />
        <path
           d="m 56.838,113.37 c -1.53,0 -2.963,-0.286 -4.298,-0.855 -1.335,-0.57 -2.482,-1.35 -3.442,-2.34 -0.961,-0.99 -1.718,-2.176 -2.273,-3.555 -0.555,-1.38 -0.832,-2.88 -0.832,-4.5 0,-1.71 0.262,-3.263 0.787,-4.657 0.525,-1.395 1.26,-2.588 2.205,-3.578 0.945,-0.99 2.077,-1.763 3.398,-2.317 1.32,-0.556 2.774,-0.833 4.365,-0.833 1.559,0 3.007,0.277 4.342,0.833 1.335,0.554 2.482,1.327 3.443,2.317 0.96,0.99 1.71,2.183 2.25,3.578 0.54,1.394 0.81,2.947 0.81,4.657 0,1.62 -0.255,3.12 -0.765,4.5 -0.51,1.379 -1.238,2.565 -2.183,3.555 -0.945,0.99 -2.078,1.77 -3.397,2.34 -1.321,0.569 -2.79,0.855 -4.41,0.855 M 75.963,85.785 H 56.748 c -2.551,0 -4.868,0.367 -6.952,1.102 -2.086,0.735 -3.871,1.8 -5.356,3.195 -1.485,1.395 -2.632,3.105 -3.442,5.131 -0.81,2.025 -1.215,4.326 -1.215,6.907 0,2.43 0.427,4.642 1.282,6.638 0.856,1.994 2.048,3.712 3.578,5.152 1.53,1.44 3.337,2.557 5.422,3.353 2.085,0.794 4.343,1.192 6.773,1.192 2.43,0 4.68,-0.398 6.75,-1.192 2.07,-0.796 3.862,-1.913 5.377,-3.353 1.515,-1.44 2.692,-3.158 3.533,-5.152 0.84,-1.996 1.26,-4.208 1.26,-6.638 0,-1.44 -0.166,-2.76 -0.495,-3.96 -0.331,-1.2 -0.758,-2.288 -1.283,-3.263 -0.525,-0.975 -1.125,-1.83 -1.8,-2.565 -0.675,-0.735 -1.372,-1.357 -2.092,-1.867 v -0.091 h 7.875 z"
           id="path8" />
        <path
           d="m 99.407,85.787 h -5.13 v 3.465 h -0.09 c -0.48,-1.08 -1.313,-2.032 -2.498,-2.858 -1.185,-0.824 -2.587,-1.237 -4.207,-1.237 -1.41,0 -2.618,0.248 -3.623,0.742 -1.005,0.495 -1.83,1.148 -2.474,1.958 -0.646,0.81 -1.119,1.74 -1.418,2.79 -0.3,1.05 -0.45,2.13 -0.45,3.241 v 13.5 h 5.4 V 95.417 c 0,-0.63 0.045,-1.29 0.135,-1.98 0.09,-0.69 0.285,-1.312 0.585,-1.867 0.299,-0.555 0.712,-1.012 1.237,-1.373 0.525,-0.36 1.222,-0.54 2.093,-0.54 0.839,0 1.582,0.173 2.227,0.518 0.645,0.344 1.171,0.787 1.575,1.327 0.405,0.54 0.713,1.163 0.923,1.868 0.209,0.705 0.315,1.417 0.315,2.138 v 11.88 h 5.4 z"
           id="path9" />
        <path
           d="m 119.21,95.643 h -1.215 c -0.87,0 -1.785,-0.038 -2.745,-0.112 -0.96,-0.075 -1.845,-0.241 -2.655,-0.495 -0.81,-0.256 -1.485,-0.616 -2.025,-1.08 -0.54,-0.466 -0.81,-1.103 -0.81,-1.913 0,-0.51 0.113,-0.938 0.337,-1.283 0.225,-0.345 0.518,-0.623 0.878,-0.832 0.36,-0.211 0.765,-0.36 1.215,-0.45 0.45,-0.09 0.9,-0.135 1.35,-0.135 1.86,0 3.27,0.494 4.23,1.485 0.96,0.99 1.44,2.34 1.44,4.05 z m 0.09,-7.11 h -0.135 c -0.54,-0.96 -1.411,-1.748 -2.61,-2.363 -1.2,-0.614 -2.565,-0.923 -4.095,-0.923 -0.871,0 -1.777,0.113 -2.723,0.338 -0.944,0.225 -1.815,0.6 -2.61,1.125 -0.795,0.525 -1.455,1.215 -1.98,2.071 -0.525,0.854 -0.787,1.912 -0.787,3.172 0,1.62 0.457,2.91 1.372,3.87 0.915,0.96 2.093,1.695 3.533,2.205 1.44,0.51 3.037,0.847 4.793,1.012 1.755,0.165 3.471,0.248 5.152,0.248 v 0.54 c 0,1.35 -0.488,2.347 -1.462,2.993 -0.976,0.644 -2.138,0.967 -3.488,0.967 -1.14,0 -2.235,-0.24 -3.285,-0.72 -1.051,-0.48 -1.92,-1.065 -2.61,-1.755 l -2.79,3.285 c 1.23,1.14 2.647,1.995 4.253,2.565 1.604,0.569 3.232,0.855 4.882,0.855 1.919,0 3.502,-0.27 4.748,-0.81 1.244,-0.54 2.227,-1.245 2.947,-2.115 0.72,-0.87 1.222,-1.845 1.508,-2.925 0.284,-1.08 0.427,-2.16 0.427,-3.24 v -13.14 h -5.04 z"
           id="path10" />
        <path
           d="m 130.64,107.39 h 5.13 v -3.465 h 0.09 c 0.479,1.08 1.312,2.032 2.497,2.858 1.185,0.824 2.588,1.237 4.208,1.237 1.409,0 2.617,-0.248 3.622,-0.743 1.005,-0.494 1.83,-1.147 2.475,-1.957 0.645,-0.81 1.118,-1.741 1.418,-2.79 0.299,-1.051 0.45,-2.131 0.45,-3.24 V 85.789 h -5.4 V 97.76 c 0,0.63 -0.045,1.29 -0.135,1.98 -0.09,0.69 -0.286,1.312 -0.585,1.867 -0.3,0.555 -0.713,1.013 -1.238,1.373 -0.525,0.36 -1.222,0.54 -2.092,0.54 -0.871,0 -1.62,-0.173 -2.25,-0.518 -0.63,-0.345 -1.148,-0.787 -1.553,-1.327 -0.405,-0.54 -0.713,-1.163 -0.922,-1.868 -0.211,-0.705 -0.315,-1.417 -0.315,-2.137 V 85.789 h -5.4 z"
           id="path11" />
        <path
           d="m 191.84,85.787 h -5.13 v 3.465 h -0.09 c -0.48,-1.08 -1.313,-2.032 -2.498,-2.858 -1.185,-0.824 -2.587,-1.237 -4.207,-1.237 -1.41,0 -2.618,0.248 -3.623,0.742 -1.005,0.495 -1.83,1.148 -2.474,1.958 -0.646,0.81 -1.119,1.74 -1.418,2.79 -0.3,1.05 -0.45,2.13 -0.45,3.241 v 13.5 h 5.4 V 95.417 c 0,-0.63 0.045,-1.29 0.135,-1.98 0.09,-0.69 0.285,-1.312 0.585,-1.867 0.299,-0.555 0.712,-1.012 1.237,-1.373 0.525,-0.36 1.222,-0.54 2.093,-0.54 0.839,0 1.582,0.173 2.227,0.518 0.645,0.344 1.171,0.787 1.575,1.327 0.405,0.54 0.713,1.163 0.923,1.868 0.209,0.705 0.315,1.417 0.315,2.138 v 11.88 h 5.4 z"
           id="path12" />
        <path
           d="m 224.1,108.02 c 1.409,0 2.617,-0.248 3.622,-0.743 1.005,-0.494 1.83,-1.147 2.476,-1.957 0.644,-0.81 1.117,-1.74 1.417,-2.79 0.299,-1.051 0.45,-2.131 0.45,-3.24 v -13.5 h -5.401 v 11.97 c 0,0.63 -0.044,1.29 -0.134,1.98 -0.09,0.69 -0.285,1.312 -0.585,1.867 -0.3,0.555 -0.713,1.013 -1.238,1.373 -0.525,0.36 -1.222,0.54 -2.092,0.54 -0.84,0 -1.56,-0.18 -2.161,-0.54 -0.6,-0.36 -1.094,-0.825 -1.484,-1.395 -0.391,-0.57 -0.675,-1.208 -0.855,-1.913 -0.18,-0.705 -0.27,-1.402 -0.27,-2.092 V 85.79 h -5.4 v 13.05 c 0,1.35 -0.323,2.467 -0.968,3.352 -0.646,0.885 -1.657,1.328 -3.037,1.328 -0.81,0 -1.516,-0.173 -2.115,-0.518 -0.601,-0.345 -1.088,-0.787 -1.462,-1.327 -0.376,-0.54 -0.66,-1.163 -0.856,-1.867 -0.195,-0.705 -0.292,-1.418 -0.292,-2.138 V 85.79 h -5.4 v 21.6 h 5.13 v -3.465 h 0.09 c 0.24,0.54 0.562,1.05 0.967,1.53 0.406,0.48 0.885,0.915 1.441,1.305 0.554,0.389 1.192,0.698 1.912,0.923 0.72,0.225 1.515,0.337 2.385,0.337 1.679,0 3.075,-0.375 4.185,-1.125 1.11,-0.75 1.964,-1.74 2.565,-2.97 0.719,1.32 1.679,2.332 2.88,3.037 1.2,0.705 2.61,1.058 4.23,1.058"
           id="path13" />
        <path
           d="m 109.4,71.648 h 6.345 l 8.775,-24.525 h 0.18 l 8.865,24.525 h 6.12 l -12.78,-31.86 H 122 Z"
           id="path14" />
        <path
           d="m 153.9,49.643 h -1.215 c -0.87,0 -1.785,-0.038 -2.745,-0.112 -0.96,-0.075 -1.845,-0.242 -2.655,-0.495 -0.81,-0.256 -1.485,-0.616 -2.025,-1.08 -0.54,-0.466 -0.81,-1.103 -0.81,-1.914 0,-0.509 0.113,-0.937 0.337,-1.282 0.225,-0.345 0.518,-0.623 0.878,-0.832 0.36,-0.211 0.765,-0.36 1.215,-0.45 0.45,-0.09 0.9,-0.135 1.35,-0.135 1.86,0 3.27,0.494 4.23,1.485 0.96,0.99 1.44,2.339 1.44,4.049 z m 0.09,-7.11 h -0.135 c -0.54,-0.96 -1.411,-1.748 -2.61,-2.363 -1.2,-0.614 -2.565,-0.923 -4.095,-0.923 -0.871,0 -1.777,0.113 -2.723,0.338 -0.944,0.225 -1.815,0.6 -2.61,1.125 -0.795,0.525 -1.455,1.215 -1.98,2.071 -0.525,0.854 -0.787,1.912 -0.787,3.172 0,1.62 0.457,2.91 1.372,3.87 0.915,0.96 2.093,1.694 3.533,2.205 1.44,0.51 3.037,0.847 4.793,1.012 1.755,0.165 3.471,0.248 5.152,0.248 v 0.54 c 0,1.35 -0.488,2.347 -1.462,2.993 -0.976,0.644 -2.138,0.967 -3.488,0.967 -1.14,0 -2.235,-0.241 -3.285,-0.72 -1.051,-0.481 -1.92,-1.066 -2.61,-1.755 l -2.79,3.285 c 1.23,1.14 2.647,1.994 4.253,2.565 1.604,0.569 3.232,0.855 4.882,0.855 1.919,0 3.502,-0.271 4.748,-0.811 1.244,-0.54 2.227,-1.245 2.947,-2.114 0.72,-0.871 1.222,-1.846 1.508,-2.926 0.284,-1.08 0.427,-2.159 0.427,-3.239 v -13.14 h -5.04 z"
           id="path15" />
        <path
           d="m 204.66,52.747 c 0,0.69 -0.098,1.351 -0.292,1.98 -0.196,0.63 -0.503,1.185 -0.923,1.666 -0.421,0.479 -0.953,0.861 -1.598,1.147 -0.645,0.284 -1.402,0.428 -2.272,0.428 -1.62,0 -2.992,-0.489 -4.117,-1.463 -1.125,-0.976 -1.748,-2.228 -1.868,-3.758 z m 5.4,-2.43 v -0.719 c 0,-0.242 -0.015,-0.481 -0.045,-0.721 H 193.59 c 0.06,-0.78 0.262,-1.492 0.607,-2.137 0.345,-0.645 0.803,-1.2 1.373,-1.665 0.569,-0.466 1.215,-0.833 1.935,-1.102 0.72,-0.271 1.469,-0.406 2.25,-0.406 1.35,0 2.49,0.247 3.42,0.742 0.929,0.496 1.695,1.178 2.295,2.048 l 3.6,-2.88 c -2.131,-2.879 -5.22,-4.32 -9.27,-4.32 -1.68,0 -3.225,0.263 -4.635,0.788 -1.41,0.525 -2.633,1.267 -3.668,2.227 -1.035,0.96 -1.845,2.137 -2.43,3.533 -0.585,1.395 -0.877,2.977 -0.877,4.747 0,1.739 0.292,3.322 0.877,4.748 0.585,1.424 1.387,2.64 2.408,3.645 1.02,1.005 2.228,1.784 3.622,2.34 1.396,0.554 2.903,0.833 4.523,0.833 1.5,0 2.887,-0.249 4.162,-0.744 1.275,-0.494 2.378,-1.23 3.308,-2.204 0.929,-0.975 1.657,-2.19 2.182,-3.645 0.525,-1.455 0.788,-3.157 0.788,-5.108"
           id="path16" />
        <path
           d="m 212.04,61.388 h 5.984 l 6.031,-15.705 h 0.089 l 5.356,15.705 h 5.625 L 224.91,35.153 c -0.391,-0.991 -0.81,-1.868 -1.261,-2.633 -0.449,-0.765 -0.989,-1.409 -1.619,-1.935 -0.631,-0.524 -1.373,-0.923 -2.227,-1.192 -0.856,-0.271 -1.884,-0.405 -3.083,-0.405 -0.451,0 -0.908,0.022 -1.372,0.067 -0.466,0.045 -0.939,0.128 -1.418,0.247 l 0.45,4.681 c 0.36,-0.119 0.712,-0.202 1.057,-0.248 0.345,-0.045 0.667,-0.068 0.968,-0.068 0.57,0 1.049,0.068 1.44,0.203 0.389,0.135 0.719,0.345 0.99,0.63 0.269,0.285 0.51,0.638 0.72,1.058 0.21,0.42 0.434,0.915 0.674,1.484 l 1.081,2.745 z"
           id="path17" />
        <path
           d="m 165.42,39.787 h 5.4 v 31.886 h -5.4 z"
           id="path18" />
        <path
           d="m 177.48,39.787 h 5.4 v 31.886 h -5.4 z"
           id="path19" />
        <path
           d="m 231.61,148.53 c -0.3,1.049 -0.772,1.98 -1.417,2.79 -0.646,0.81 -1.471,1.462 -2.476,1.957 -1.004,0.495 -2.212,0.743 -3.622,0.743 -0.81,0 -1.56,-0.106 -2.25,-0.315 -0.69,-0.211 -1.304,-0.488 -1.844,-0.833 -0.54,-0.345 -1.013,-0.735 -1.418,-1.17 -0.406,-0.435 -0.713,-0.877 -0.923,-1.327 h -0.09 v 13.589 h -5.399 V 131.79 h 5.399 v 11.79 c 0,0.72 0.105,1.424 0.315,2.115 0.209,0.689 0.525,1.312 0.946,1.867 0.419,0.555 0.944,0.997 1.574,1.328 0.63,0.329 1.38,0.495 2.25,0.495 0.87,0 1.567,-0.18 2.093,-0.54 0.524,-0.36 0.929,-0.818 1.215,-1.373 0.285,-0.555 0.472,-1.17 0.562,-1.845 0.09,-0.675 0.135,-1.327 0.135,-1.957 v -11.88 h 5.4 v 13.5 c 0,1.109 -0.15,2.189 -0.45,3.24"
           id="path20" />
        <path
           d="m 168.21,103.07 v 4.32 h -5.4 v 6.255 h -0.007 v 1.224 h -5.306 v -1.923 h 0.003 v -5.556 h -3.78 v -4.32 h 3.78 V 92.99 c 0,-1.05 0.097,-2.032 0.293,-2.947 0.194,-0.916 0.554,-1.726 1.08,-2.431 0.524,-0.705 1.237,-1.26 2.137,-1.664 0.9,-0.405 2.07,-0.608 3.51,-0.608 0.6,0 1.23,0.052 1.89,0.158 0.659,0.105 1.23,0.247 1.71,0.426 l -0.18,4.231 c -0.331,-0.15 -0.705,-0.263 -1.125,-0.338 -0.42,-0.075 -0.81,-0.112 -1.17,-0.112 -1.2,0 -1.973,0.315 -2.317,0.945 -0.346,0.63 -0.518,1.425 -0.518,2.385 v 10.035 z"
           id="path21" />
        <path
           d="m 433.71,69.328 c -26.938,-11.42 -43.366,10.147 -63.392,38.73 37.52,18.72 73.207,21.755 83.164,-1.732 4.333,-10.22 -2.667,-29.747 -19.772,-36.998 m -69.911,48.021 c -23.295,33.317 -61.134,58.228 -100.89,41.375 -3.695,-1.566 -7.357,-3.336 -10.978,-5.286 v -32.723 c 6.081,3.961 11.808,7.155 16.943,9.332 25.277,10.715 52.975,-9.36 70.905,-26.122 C 313.819,86.361 282.053,61.737 251.931,39.89 v -0.101 h 19.94 c 26.705,18.995 53.348,38.58 76.236,54.797 26.425,-26.316 48.097,-56.042 86.224,-39.879 26.773,11.35 35.399,37.466 27.038,57.19 -7.104,16.757 -42.273,31.56 -97.573,5.452"
           id="path22" />
      </g>
      <rect
         class="st0"
         transform="scale(1,-1)"
         x="-1539.1"
         y="-182.21001"
         width="227.34"
         height="142.39"
         fill="#3070b3"
         stroke-width="0.24134"
         id="rect22" />
      <rect
         class="st0"
         transform="scale(1,-1)"
         x="-1734.1"
         y="-182.21001"
         width="181.25"
         height="142.39"
         fill="#3070b3"
         stroke-width="0.24134"
         id="rect23" />
      <polygon
         class="st1"
         transform="matrix(0.24134,0,0,-0.24134,-1734.1,182.21)"
         points="1129,490 1349,490 1349,170 1429,170 1429,490 1499,490 1499,170 1579,170 1579,490 1649,490 1649,100 1279,100 1279,420 1199,420 1199,100 909,100 909,170 979,170 979,490 1049,490 1049,170 1129,170 "
         fill="#ffffff"
         id="polygon23" />
      <path
         class="st1"
         d="m -1702.5,155.67 h -7.1437 v 2.4134 h 17.159 V 155.67 h -7.1436 v -19.066 h -2.8478 v 19.066 z"
         fill="#ffffff"
         stroke-width="0.24134"
         id="path23" />
      <path
         class="st1"
         d="m -1680.5,141.55 c -0.3379,-1.7135 -1.0861,-3.0409 -2.2686,-3.9338 -1.1584,-0.89296 -2.6306,-1.3515 -4.3924,-1.3515 -1.255,0 -2.3168,0.21721 -3.2339,0.62748 -0.9171,0.41028 -1.6894,0.96536 -2.2927,1.6894 -0.6275,0.72402 -1.0861,1.5928 -1.3998,2.5823 -0.3138,1.0136 -0.4827,2.0996 -0.531,3.2822 0,1.1584 0.169,2.2444 0.531,3.2339 0.362,0.98949 0.8688,1.8583 1.5204,2.5823 0.6516,0.724 1.4239,1.2791 2.3169,1.6894 0.8929,0.41028 1.8583,0.60335 2.9202,0.60335 1.3756,0 2.534,-0.28961 3.4511,-0.86882 0.9171,-0.57921 1.6411,-1.3032 2.1962,-2.172 0.5551,-0.89295 0.9412,-1.8342 1.1343,-2.8961 0.2172,-1.0378 0.2896,-2.0272 0.2655,-2.9685 h -11.633 c -0.024,-0.67575 0.048,-1.3274 0.2414,-1.9307 0.1689,-0.60335 0.4826,-1.1584 0.8688,-1.617 0.4103,-0.48268 0.9171,-0.84469 1.5446,-1.1343 0.6274,-0.28961 1.3515,-0.41028 2.1962,-0.41028 1.0618,0 1.9548,0.24134 2.6547,0.74815 0.6999,0.50681 1.1584,1.255 1.3756,2.2927 h 2.5341 z m -2.51,4.32 c -0.048,0.60335 -0.1689,1.1826 -0.4102,1.7135 -0.2414,0.53094 -0.531,1.0136 -0.9413,1.3998 -0.3861,0.38615 -0.8688,0.69989 -1.3997,0.94123 -0.531,0.24133 -1.1343,0.33787 -1.7377,0.33787 -0.6516,0 -1.2549,-0.12067 -1.7859,-0.33787 -0.5309,-0.24134 -0.9895,-0.55508 -1.3756,-0.94123 -0.3862,-0.41027 -0.6758,-0.86882 -0.893,-1.3998 -0.2172,-0.53095 -0.362,-1.086 -0.3861,-1.6894 h 8.9295 z"
         fill="#ffffff"
         stroke-width="0.24134"
         id="path24" />
      <path
         class="st1"
         d="m -1666.9,147.17 c -0.1931,0.98949 -0.6275,1.7376 -1.2791,2.2927 -0.6516,0.53095 -1.4963,0.82055 -2.5823,0.82055 -0.9171,0 -1.6894,-0.16893 -2.3169,-0.50681 -0.6275,-0.33787 -1.1101,-0.79642 -1.4963,-1.3515 -0.362,-0.55508 -0.6274,-1.2067 -0.7964,-1.9307 -0.1689,-0.72401 -0.2413,-1.4963 -0.2413,-2.2686 0,-0.72402 0.097,-1.4239 0.2655,-2.0996 0.1689,-0.67575 0.4344,-1.2791 0.7964,-1.81 0.362,-0.53094 0.8205,-0.96535 1.3997,-1.2791 0.5792,-0.31375 1.2791,-0.48268 2.0997,-0.48268 1.2308,0 2.2203,0.33787 2.9443,1.0136 0.724,0.67573 1.1584,1.5928 1.3274,2.7754 h 2.6064 c -0.2896,-1.9066 -1.0136,-3.3787 -2.172,-4.4406 -1.1585,-1.0619 -2.7271,-1.5928 -4.682,-1.5928 -1.1825,0 -2.2203,0.19307 -3.1374,0.57921 -0.9171,0.38614 -1.6652,0.94122 -2.2927,1.6411 -0.6034,0.69988 -1.0619,1.5446 -1.3756,2.5099 -0.3138,0.96535 -0.4586,2.0272 -0.4586,3.2098 0,1.1584 0.1448,2.2444 0.4586,3.2581 0.2896,1.0136 0.7481,1.8824 1.3756,2.6547 0.6033,0.74815 1.3756,1.3515 2.2927,1.7618 0.9171,0.43441 1.979,0.65161 3.2339,0.65161 0.893,0 1.7136,-0.0965 2.4858,-0.31374 0.7723,-0.2172 1.4481,-0.53094 2.0514,-0.96535 0.6034,-0.43441 1.086,-0.98949 1.448,-1.6652 0.362,-0.67571 0.6034,-1.4722 0.6999,-2.3892 h -2.6547 z"
         fill="#ffffff"
         stroke-width="0.24134"
         id="path25" />
      <path
         class="st1"
         d="m -1661.1,158.08 h 2.5581 v -8.2055 h 0.048 c 0.1931,0.45854 0.4827,0.86882 0.8689,1.2067 0.362,0.33788 0.7722,0.62748 1.2066,0.82055 0.4344,0.21721 0.9171,0.36201 1.3998,0.45855 0.4827,0.0965 0.9654,0.1448 1.4239,0.1448 1.0136,0 1.8825,-0.1448 2.5582,-0.41028 0.6757,-0.2896 1.2308,-0.67574 1.6652,-1.1826 0.4103,-0.50681 0.7241,-1.086 0.893,-1.7859 0.1689,-0.6999 0.2655,-1.448 0.2655,-2.2927 v -10.233 h -2.5582 v 10.522 c 0,0.96535 -0.2896,1.7135 -0.8447,2.2927 -0.5551,0.55508 -1.3274,0.84469 -2.3169,0.84469 -0.7722,0 -1.448,-0.12067 -2.0272,-0.36201 -0.5792,-0.24134 -1.0378,-0.57921 -1.4239,-1.0136 -0.3862,-0.43441 -0.6758,-0.96536 -0.8688,-1.5446 -0.1931,-0.60335 -0.2897,-1.2308 -0.2897,-1.9307 v -8.7847 h -2.5581 z"
         fill="#ffffff"
         stroke-width="0.24134"
         id="path26" />
      <path
         class="st1"
         d="m -1644.3,152.17 h 2.4134 v -2.4617 h 0.048 c 0.5309,0.96536 1.2308,1.6652 2.0996,2.1238 0.8447,0.45855 1.8342,0.69988 2.9685,0.69988 1.0136,0 1.8824,-0.1448 2.5582,-0.41027 0.6757,-0.28961 1.2308,-0.67575 1.6652,-1.1826 0.4103,-0.50681 0.724,-1.086 0.893,-1.7859 0.1689,-0.69988 0.2654,-1.448 0.2654,-2.2927 v -10.233 h -2.5581 v 10.522 c 0,0.96535 -0.2897,1.7135 -0.8447,2.2927 -0.5551,0.55508 -1.3274,0.84468 -2.3169,0.84468 -0.7723,0 -1.448,-0.12067 -2.0272,-0.362 -0.5792,-0.24134 -1.0378,-0.57922 -1.4239,-1.0136 -0.3862,-0.43441 -0.6758,-0.96535 -0.8689,-1.5446 -0.193,-0.60334 -0.2896,-1.2308 -0.2896,-1.9307 v -8.7847 h -2.5582 v 15.518 z"
         fill="#ffffff"
         stroke-width="0.24134"
         id="path27" />
      <path
         class="st1"
         d="m -1624.7,154.94 h -2.5582 v 3.1374 h 2.5582 z m -2.5582,-2.7754 h 2.5582 v -15.542 h -2.5582 z"
         fill="#ffffff"
         stroke-width="0.24134"
         id="path28" />
      <path
         class="st1"
         d="m -1610.1,147.17 c -0.1931,0.98949 -0.6275,1.7376 -1.2791,2.2927 -0.6516,0.53095 -1.4963,0.82055 -2.5823,0.82055 -0.9171,0 -1.6894,-0.16893 -2.3169,-0.50681 -0.6275,-0.33787 -1.1102,-0.79642 -1.4963,-1.3515 -0.362,-0.55508 -0.6275,-1.2067 -0.7964,-1.9307 -0.1689,-0.72401 -0.2413,-1.4963 -0.2413,-2.2686 0,-0.72402 0.097,-1.4239 0.2654,-2.0996 0.169,-0.67575 0.4344,-1.2791 0.7964,-1.81 0.362,-0.53094 0.8206,-0.96535 1.3998,-1.2791 0.5792,-0.31375 1.2791,-0.48268 2.0997,-0.48268 1.2308,0 2.2203,0.33787 2.9443,1.0136 0.724,0.67573 1.1584,1.5928 1.3274,2.7754 h 2.6064 c -0.2896,-1.9066 -1.0136,-3.3787 -2.172,-4.4406 -1.1585,-1.0619 -2.7272,-1.5928 -4.682,-1.5928 -1.1826,0 -2.2203,0.19307 -3.1374,0.57921 -0.9171,0.38614 -1.6652,0.94122 -2.2927,1.6411 -0.6034,0.69988 -1.0619,1.5446 -1.3757,2.5099 -0.3137,0.96535 -0.4585,2.0272 -0.4585,3.2098 0,1.1584 0.1448,2.2444 0.4585,3.2581 0.2896,1.0136 0.7482,1.8824 1.3757,2.6547 0.6033,0.74815 1.3756,1.3515 2.2927,1.7618 0.9171,0.43441 1.979,0.65161 3.2339,0.65161 0.893,0 1.7135,-0.0965 2.4858,-0.31374 0.7723,-0.2172 1.4481,-0.53094 2.0514,-0.96535 0.6033,-0.43441 1.086,-0.98949 1.448,-1.6652 0.362,-0.67571 0.6034,-1.4722 0.6999,-2.3892 h -2.6547 z"
         fill="#ffffff"
         stroke-width="0.24134"
         id="path29" />
      <path
         class="st1"
         d="m -1590.5,136.67 c -0.4586,-0.28961 -1.0619,-0.41028 -1.8342,-0.41028 -0.6516,0 -1.1825,0.19307 -1.5687,0.57921 -0.3861,0.38615 -0.5792,0.98949 -0.5792,1.8342 -0.6999,-0.84469 -1.5204,-1.448 -2.4617,-1.8342 -0.9412,-0.38614 -1.9307,-0.57921 -3.0167,-0.57921 -0.6999,0 -1.3756,0.0724 -2.0031,0.24134 -0.6275,0.16894 -1.1826,0.41028 -1.6411,0.77228 -0.4585,0.36201 -0.8205,0.79642 -1.086,1.3515 -0.2655,0.55508 -0.4103,1.2067 -0.4103,2.0031 0,0.89296 0.1448,1.5928 0.4586,2.172 0.2896,0.55508 0.6998,1.0136 1.1825,1.3515 0.4827,0.33787 1.0619,0.60335 1.6894,0.79642 0.6275,0.19307 1.2791,0.33787 1.9307,0.45854 0.6999,0.1448 1.3756,0.24134 2.0031,0.31374 0.6275,0.0724 1.1826,0.16894 1.6652,0.28961 0.4827,0.12067 0.8689,0.31374 1.1343,0.57921 0.2896,0.24134 0.4103,0.62748 0.4103,1.086 0,0.55508 -0.097,1.0136 -0.3137,1.3515 -0.2172,0.33788 -0.4827,0.60335 -0.8206,0.77229 -0.3379,0.16893 -0.6999,0.2896 -1.1102,0.362 -0.4102,0.0483 -0.8205,0.0965 -1.2066,0.0965 -1.0861,0 -1.979,-0.21721 -2.703,-0.62748 -0.724,-0.41028 -1.1102,-1.1826 -1.1826,-2.341 h -2.5582 c 0.048,0.96536 0.2414,1.7859 0.6034,2.4375 0.362,0.65162 0.8446,1.2067 1.448,1.617 0.6033,0.41028 1.3032,0.69989 2.0755,0.89296 0.7723,0.16894 1.5928,0.26547 2.4617,0.26547 0.6998,0 1.3997,-0.0483 2.0996,-0.1448 0.6999,-0.0965 1.3274,-0.31374 1.8824,-0.62748 0.5551,-0.31374 1.0137,-0.74815 1.3516,-1.3032 0.3378,-0.55508 0.5068,-1.3032 0.5068,-2.1962 v -7.9883 c 0,-0.60335 0.024,-1.0378 0.097,-1.3274 0.072,-0.28961 0.3137,-0.41028 0.6999,-0.41028 0.2413,0 0.5068,0.0483 0.7723,0.1448 v -1.979 z m -4.151,7.9642 c -0.2414,-0.16894 -0.531,-0.31374 -0.893,-0.41028 -0.362,-0.0965 -0.7481,-0.19307 -1.1343,-0.26547 -0.4103,-0.0724 -0.8205,-0.12067 -1.2791,-0.16894 -0.4585,-0.0483 -0.8929,-0.12067 -1.3032,-0.19307 -0.4103,-0.0724 -0.8206,-0.16894 -1.2067,-0.28961 -0.3861,-0.12067 -0.6999,-0.2896 -0.9895,-0.50681 -0.2896,-0.2172 -0.5068,-0.48268 -0.6757,-0.79642 -0.169,-0.31374 -0.2655,-0.72401 -0.2655,-1.2067 0,-0.41028 0.097,-0.77228 0.2655,-1.0619 0.1689,-0.28961 0.3861,-0.53095 0.6516,-0.69988 0.2655,-0.16894 0.5792,-0.31374 0.9412,-0.38615 0.362,-0.0724 0.7481,-0.12066 1.1343,-0.12066 0.8447,0 1.5687,0.12066 2.172,0.33787 0.6034,0.24134 1.0861,0.53095 1.4722,0.86882 0.3862,0.36201 0.6516,0.72402 0.8447,1.1343 0.1689,0.41028 0.2655,0.79642 0.2655,1.1584 z"
         fill="#ffffff"
         stroke-width="0.24134"
         id="path30" />
      <path
         class="st1"
         d="m -1587.9,158.08 h 2.5581 v -21.455 h -2.5581 z"
         fill="#ffffff"
         stroke-width="0.24134"
         id="path31" />
      <path
         class="st1"
         d="m -1690.7,108.1 c 0,-2.7271 -0.7481,-4.7785 -2.2203,-6.1783 -1.4722,-1.3998 -3.5477,-2.0996 -6.2265,-2.0996 -1.3757,0 -2.6306,0.16894 -3.7167,0.48268 -1.086,0.31374 -2.0031,0.82055 -2.7754,1.4963 -0.7481,0.67575 -1.3273,1.5446 -1.7376,2.5823 -0.4103,1.0378 -0.6033,2.2686 -0.6033,3.6925 v 13.708 h 2.8478 v -13.708 c 0,-1.9066 0.5068,-3.3546 1.5445,-4.3682 1.0378,-1.0136 2.51,-1.4963 4.3924,-1.4963 1.8342,0 3.2098,0.50682 4.1752,1.4963 0.9412,1.0136 1.4239,2.4617 1.4239,4.3682 v 13.708 h 2.8478 v -13.684 z"
         fill="#ffffff"
         stroke-width="0.24134"
         id="path32" />
      <path
         class="st1"
         d="m -1686.9,115.89 h 2.4134 v -2.4617 h 0.072 c 0.531,0.96536 1.2308,1.6652 2.0996,2.1238 0.8447,0.45855 1.8342,0.69989 2.9685,0.69989 1.0136,0 1.8825,-0.14481 2.5582,-0.41028 0.6758,-0.28961 1.2308,-0.67575 1.6653,-1.1826 0.4102,-0.50681 0.724,-1.086 0.8929,-1.7859 0.1689,-0.69988 0.2655,-1.448 0.2655,-2.2927 v -10.233 h -2.5582 v 10.522 c 0,0.96536 -0.2896,1.7135 -0.8447,2.2927 -0.5551,0.55508 -1.3274,0.84469 -2.3169,0.84469 -0.7722,0 -1.448,-0.12067 -2.0272,-0.36201 -0.5792,-0.24134 -1.0378,-0.57922 -1.4239,-1.0136 -0.3861,-0.43438 -0.6757,-0.96535 -0.8688,-1.5446 -0.1931,-0.60335 -0.2896,-1.2308 -0.2896,-1.9307 v -8.7847 h -2.5582 v 15.518 z"
         fill="#ffffff"
         stroke-width="0.24134"
         id="path33" />
      <path
         class="st1"
         d="m -1667.8,118.69 h -2.5582 v 3.1374 h 2.5582 z m -2.5582,-2.7995 h 2.5582 v -15.542 h -2.5582 z"
         fill="#ffffff"
         stroke-width="0.24134"
         id="path34" />
      <path
         class="st1"
         d="m -1656.8,100.35 h -2.7272 l -5.768,15.542 h 2.8478 l 4.3683,-12.96 h 0.048 l 4.2476,12.96 h 2.6789 z"
         fill="#ffffff"
         stroke-width="0.24134"
         id="path35" />
      <path
         class="st1"
         d="m -1635.5,105.28 c -0.3379,-1.7135 -1.086,-3.0409 -2.2686,-3.9338 -1.1584,-0.89295 -2.6306,-1.3515 -4.3923,-1.3515 -1.255,0 -2.3169,0.2172 -3.234,0.62748 -0.9171,0.41027 -1.6894,0.96535 -2.2927,1.6894 -0.6275,0.72402 -1.086,1.5928 -1.3998,2.5823 -0.3137,1.0136 -0.4826,2.0996 -0.5309,3.2822 0,1.1584 0.1689,2.2444 0.5309,3.2339 0.3621,0.98949 0.8689,1.8583 1.5205,2.5823 0.6516,0.72402 1.4239,1.2791 2.3168,1.6894 0.893,0.41028 1.8583,0.60335 2.9202,0.60335 1.3756,0 2.5341,-0.28961 3.4512,-0.86882 0.9171,-0.57921 1.6411,-1.3032 2.1962,-2.172 0.555,-0.89295 0.9412,-1.8342 1.1342,-2.8961 0.2172,-1.0378 0.2896,-2.0272 0.2655,-2.9685 h -11.632 c -0.024,-0.67575 0.048,-1.3274 0.2413,-1.9307 0.169,-0.60335 0.4827,-1.1584 0.8689,-1.617 0.4102,-0.48267 0.917,-0.84468 1.5445,-1.1343 0.6275,-0.2896 1.3515,-0.41027 2.1962,-0.41027 1.0619,0 1.9548,0.24133 2.6547,0.74815 0.6999,0.50681 1.1584,1.255 1.3756,2.2927 h 2.5341 z m -2.5099,4.32 c -0.048,0.60334 -0.169,1.1826 -0.4103,1.7135 -0.2413,0.53095 -0.5309,1.0136 -0.9412,1.3998 -0.3861,0.38614 -0.8688,0.69988 -1.3998,0.94122 -0.5309,0.24134 -1.1343,0.33787 -1.7376,0.33787 -0.6516,0 -1.255,-0.12067 -1.7859,-0.33787 -0.531,-0.24134 -0.9895,-0.55508 -1.3756,-0.94122 -0.3862,-0.41028 -0.6758,-0.86882 -0.893,-1.3998 -0.2172,-0.53094 -0.362,-1.086 -0.3862,-1.6894 h 8.9296 z"
         fill="#ffffff"
         stroke-width="0.24134"
         id="path36" />
      <path
         class="st1"
         d="m -1632.4,115.89 h 2.4134 v -3.2822 h 0.048 c 0.6274,1.255 1.3756,2.1962 2.2927,2.7995 0.8929,0.60335 2.0514,0.89295 3.427,0.84469 v -2.703 c -1.0136,0 -1.8824,-0.1448 -2.6065,-0.41027 -0.724,-0.28961 -1.3032,-0.69989 -1.7376,-1.2308 -0.4344,-0.53095 -0.7723,-1.2067 -0.9654,-1.979 -0.193,-0.77228 -0.2896,-1.6652 -0.2896,-2.6547 v -6.9264 h -2.5582 v 15.542 z"
         fill="#ffffff"
         stroke-width="0.24134"
         id="path37" />
      <path
         class="st1"
         d="m -1620.5,105.25 c 0.024,-0.57921 0.1448,-1.0619 0.3861,-1.448 0.2414,-0.38614 0.5551,-0.67575 0.9413,-0.91709 0.3861,-0.24133 0.8205,-0.38614 1.3273,-0.50681 0.4827,-0.0965 0.9895,-0.1448 1.5205,-0.1448 0.4102,0 0.8205,0.0241 1.2549,0.0965 0.4344,0.0483 0.8447,0.16894 1.2067,0.33787 0.362,0.16894 0.6758,0.38615 0.9171,0.69989 0.2413,0.31374 0.362,0.69988 0.362,1.1826 0,0.50681 -0.1448,0.91708 -0.4344,1.2067 -0.2896,0.31374 -0.6758,0.55508 -1.1343,0.77228 -0.4827,0.19307 -1.0136,0.36201 -1.617,0.50681 -0.6033,0.12067 -1.2308,0.26548 -1.8824,0.41028 -0.6516,0.1448 -1.255,0.31374 -1.8583,0.50681 -0.6034,0.19307 -1.1343,0.45855 -1.617,0.77229 -0.4827,0.31374 -0.8688,0.72401 -1.1584,1.2308 -0.2896,0.50682 -0.4344,1.1102 -0.4344,1.8583 0,0.77229 0.1689,1.448 0.5309,2.0031 0.362,0.55508 0.7964,1.0136 1.3515,1.3756 0.5551,0.362 1.1826,0.60334 1.8583,0.77228 0.6999,0.16894 1.3756,0.26547 2.0514,0.26547 0.8688,0 1.6652,-0.0724 2.4134,-0.2172 0.7481,-0.14481 1.4239,-0.41028 1.979,-0.77229 0.5792,-0.362 1.0377,-0.86882 1.3756,-1.4963 0.3379,-0.62748 0.531,-1.4239 0.6034,-2.3651 h -2.5582 c -0.048,0.50681 -0.169,0.91709 -0.4103,1.255 -0.2414,0.33788 -0.5068,0.60335 -0.8447,0.79642 -0.3379,0.19307 -0.6999,0.33788 -1.1102,0.43441 -0.4102,0.0965 -0.8205,0.14481 -1.2549,0.14481 -0.3862,0 -0.7723,-0.0241 -1.1585,-0.0965 -0.3861,-0.0724 -0.7481,-0.16894 -1.0618,-0.31374 -0.3138,-0.1448 -0.5793,-0.36201 -0.7723,-0.62748 -0.1931,-0.26547 -0.2896,-0.57921 -0.2896,-0.96536 0,-0.45854 0.1448,-0.84468 0.4585,-1.1102 0.3138,-0.28961 0.6999,-0.53095 1.1826,-0.69989 0.4826,-0.19307 1.0136,-0.36201 1.6169,-0.48267 0.6034,-0.12067 1.2067,-0.26548 1.8101,-0.41028 0.6516,-0.1448 1.2791,-0.31374 1.8824,-0.50681 0.6034,-0.19307 1.1584,-0.45855 1.617,-0.79642 0.4827,-0.33787 0.8447,-0.74815 1.1343,-1.255 0.2896,-0.50685 0.4344,-1.1102 0.4344,-1.8583 0,-0.91709 -0.1931,-1.6894 -0.5792,-2.3168 -0.3862,-0.62748 -0.893,-1.1343 -1.5446,-1.5204 -0.6275,-0.38614 -1.3515,-0.65161 -2.1238,-0.82055 -0.7964,-0.16893 -1.5687,-0.24134 -2.3651,-0.24134 -0.893,0 -1.7135,0.09654 -2.4858,0.28961 -0.7723,0.19307 -1.448,0.48268 -2.0514,0.89295 -0.6033,0.41028 -1.086,0.94123 -1.448,1.617 -0.362,0.67575 -0.5551,1.4963 -0.6033,2.4617 z"
         fill="#ffffff"
         stroke-width="0.24134"
         id="path38" />
      <path
         class="st1"
         d="m -1604.6,118.69 h -2.5582 v 3.1374 h 2.5582 z m -2.5582,-2.7995 h 2.5582 v -15.542 h -2.5582 z"
         fill="#ffffff"
         stroke-width="0.24134"
         id="path39" />
      <path
         class="st1"
         d="m -1597.4,115.89 h 3.0891 v -2.2444 h -3.0891 v -9.6536 c 0,-0.28961 0.024,-0.53094 0.072,-0.72402 0.048,-0.16893 0.1448,-0.31374 0.2896,-0.41027 0.1448,-0.0965 0.3379,-0.16894 0.5792,-0.19307 0.2414,-0.0241 0.5793,-0.0483 0.9654,-0.0483 h 1.1825 v -2.2444 h -1.9548 c -0.6516,0 -1.2308,0.0483 -1.6894,0.1448 -0.4826,0.0965 -0.8446,0.26547 -1.1343,0.50681 -0.2896,0.24134 -0.5068,0.57921 -0.6516,1.0136 -0.1448,0.43439 -0.2172,1.0136 -0.2172,1.7376 v 9.8949 h -2.6547 v 2.2444 h 2.6547 v 4.6578 h 2.5582 z"
         fill="#ffffff"
         stroke-width="0.24134"
         id="path40" />
      <path
         class="st1"
         d="m -1585,98.276 c -0.2896,-0.77228 -0.6033,-1.3998 -0.8929,-1.9307 -0.2896,-0.53094 -0.6034,-0.94122 -0.9412,-1.2791 -0.3379,-0.33787 -0.7241,-0.57921 -1.1826,-0.72402 -0.4344,-0.1448 -0.9412,-0.2172 -1.4963,-0.2172 -0.2896,0 -0.6034,0.02414 -0.893,0.04827 -0.2896,0.04827 -0.6033,0.12067 -0.8688,0.21721 v 2.341 c 0.2413,-0.0724 0.4827,-0.16894 0.7482,-0.24134 0.2413,-0.0724 0.5068,-0.12067 0.7723,-0.12067 0.5309,0 0.9412,0.12067 1.2549,0.36201 0.3137,0.24134 0.6033,0.60335 0.8447,1.0619 l 1.0619,2.6547 -6.1541,15.446 h 2.896 l 4.5372,-12.719 h 0.048 l 4.3683,12.719 h 2.703 z"
         fill="#ffffff"
         stroke-width="0.24134"
         id="path41" />
      <path
         class="st1"
         d="m -1707.7,71.826 c 0,1.1343 0.1689,2.2203 0.4827,3.2098 0.3137,0.98949 0.7964,1.8583 1.448,2.5823 0.6516,0.724 1.4239,1.3032 2.3651,1.7376 0.9412,0.41028 2.0273,0.62748 3.2581,0.62748 1.2308,0 2.2927,-0.2172 3.258,-0.62748 0.9413,-0.41028 1.7377,-0.98949 2.3652,-1.7376 0.6516,-0.72402 1.1343,-1.5928 1.448,-2.5823 0.3138,-0.98949 0.4827,-2.0514 0.4827,-3.2098 0,-1.1343 -0.1689,-2.1962 -0.4827,-3.1857 -0.3137,-0.98949 -0.7964,-1.8342 -1.448,-2.5823 -0.6516,-0.72402 -1.4239,-1.3032 -2.3652,-1.7376 -0.9412,-0.41027 -2.0272,-0.62748 -3.258,-0.62748 -1.2308,0 -2.341,0.21721 -3.2581,0.62748 -0.9412,0.41028 -1.7135,0.98949 -2.3651,1.7376 -0.6516,0.72402 -1.1343,1.5928 -1.448,2.5823 -0.3138,0.98949 -0.4827,2.0514 -0.4827,3.1857 z m 2.7271,0 c 0,-0.94122 0.1207,-1.7859 0.3862,-2.5099 0.2413,-0.72402 0.6033,-1.3515 1.0377,-1.8342 0.4344,-0.48268 0.9654,-0.86882 1.5446,-1.1343 0.5792,-0.26547 1.2067,-0.38614 1.8824,-0.38614 0.6516,0 1.2791,0.12067 1.8825,0.38614 0.5792,0.26547 1.1101,0.62748 1.5445,1.1343 0.4344,0.48268 0.7965,1.1102 1.0378,1.8342 0.2413,0.72401 0.3861,1.5687 0.3861,2.5099 0,0.9412 -0.1206,1.7859 -0.3861,2.5099 -0.2413,0.72402 -0.6034,1.3515 -1.0378,1.8583 -0.4344,0.50681 -0.9653,0.89295 -1.5445,1.1343 -0.6034,0.26547 -1.2067,0.38614 -1.8825,0.38614 -0.6516,0 -1.2791,-0.12067 -1.8824,-0.38614 -0.6034,-0.26547 -1.1102,-0.65162 -1.5446,-1.1343 -0.4344,-0.50681 -0.7964,-1.1102 -1.0377,-1.8583 -0.2655,-0.72402 -0.3862,-1.5687 -0.3862,-2.5099 z"
         fill="#ffffff"
         stroke-width="0.24134"
         id="path42" />
      <path
         class="st1"
         d="m -1688.9,77.376 h -2.6065 v 2.2445 h 2.6065 v 2.3169 c 0,1.255 0.362,2.2203 1.086,2.8719 0.724,0.65161 1.81,0.96535 3.2098,0.96535 0.2413,0 0.5068,-0.02414 0.8206,-0.04827 0.3137,-0.04827 0.5792,-0.09653 0.8205,-0.16894 v -2.2203 c -0.2172,0.0724 -0.4585,0.1448 -0.724,0.16894 -0.2655,0.02414 -0.5068,0.04827 -0.724,0.04827 -0.6275,0 -1.1102,-0.12067 -1.4481,-0.36201 -0.3378,-0.24134 -0.5068,-0.69988 -0.5068,-1.3756 v -2.172 h 3.0168 v -2.2445 h -3.0168 v -13.298 h -2.5582 v 13.274 z"
         fill="#ffffff"
         stroke-width="0.24134"
         id="path43" />
      <path
         class="st1"
         d="m -1672.8,85.534 h 3.9097 l 6.7575,-18.028 6.8058,18.028 h 3.9097 V 64.079 h -2.703 v 17.859 h -0.072 l -6.7093,-17.859 h -2.4375 l -6.7092,17.859 h -0.048 V 64.079 h -2.703 z"
         fill="#ffffff"
         stroke-width="0.24134"
         id="path44" />
      <path
         class="st1"
         d="m -1634.5,64.079 h -2.4134 v 2.4617 h -0.048 c -0.5309,-0.96535 -1.2308,-1.6652 -2.0996,-2.1238 -0.8447,-0.45854 -1.8342,-0.69988 -2.9685,-0.69988 -1.0136,0 -1.8825,0.1448 -2.5582,0.41027 -0.6757,0.28961 -1.2308,0.67575 -1.6652,1.1826 -0.4103,0.50681 -0.7241,1.086 -0.893,1.7859 -0.1689,0.6999 -0.2655,1.448 -0.2655,2.2927 v 10.233 h 2.5582 v -10.522 c 0,-0.96535 0.2896,-1.7135 0.8447,-2.2927 0.5551,-0.55508 1.3274,-0.84469 2.3169,-0.84469 0.7722,0 1.448,0.12067 2.0272,0.36201 0.5792,0.24134 1.0378,0.57922 1.4239,1.0136 0.3862,0.43441 0.6758,0.96536 0.8688,1.5446 0.1931,0.57921 0.2897,1.2308 0.2897,1.9307 v 8.7847 h 2.5581 v -15.518 z"
         fill="#ffffff"
         stroke-width="0.24134"
         id="path45" />
      <path
         class="st1"
         d="m -1631,79.621 h 2.4133 v -2.4617 h 0.072 c 0.531,0.96535 1.2309,1.6652 2.0997,2.1238 0.8447,0.45854 1.8342,0.69988 2.9684,0.69988 1.0137,0 1.8825,-0.1448 2.5582,-0.41028 0.6758,-0.2896 1.2309,-0.67575 1.6653,-1.1826 0.4103,-0.50681 0.724,-1.086 0.8929,-1.7859 0.169,-0.69988 0.2655,-1.448 0.2655,-2.2927 v -10.233 h -2.5582 v 10.522 c 0,0.96535 -0.2896,1.7135 -0.8447,2.2927 -0.555,0.55508 -1.3273,0.84468 -2.3168,0.84468 -0.7723,0 -1.448,-0.12067 -2.0273,-0.36201 -0.5792,-0.24134 -1.0377,-0.57921 -1.4239,-1.0136 -0.3861,-0.43441 -0.6757,-0.96535 -0.8688,-1.5446 -0.193,-0.60334 -0.2896,-1.2308 -0.2896,-1.9307 v -8.7847 h -2.5582 v 15.518 z"
         fill="#ffffff"
         stroke-width="0.24134"
         id="path46" />
      <path
         class="st1"
         d="m -1611.8,82.42 h -2.5582 v 3.1374 h 2.5582 z m -2.5582,-2.7995 h 2.5582 v -15.542 h -2.5582 z"
         fill="#ffffff"
         stroke-width="0.24134"
         id="path47" />
      <path
         class="st1"
         d="m -1597.6,74.625 c -0.193,0.98949 -0.6274,1.7376 -1.2791,2.2927 -0.6516,0.53095 -1.4963,0.82055 -2.5823,0.82055 -0.9171,0 -1.6894,-0.16894 -2.3168,-0.50681 -0.6275,-0.33787 -1.1102,-0.79642 -1.4963,-1.3515 -0.3621,-0.55508 -0.6275,-1.2067 -0.7965,-1.9307 -0.1689,-0.72402 -0.2413,-1.4963 -0.2413,-2.2686 0,-0.72402 0.097,-1.4239 0.2655,-2.0996 0.1689,-0.67575 0.4344,-1.2791 0.7964,-1.81 0.362,-0.53095 0.8206,-0.96536 1.3998,-1.2791 0.5792,-0.31374 1.279,-0.48268 2.0996,-0.48268 1.2308,0 2.2203,0.33788 2.9443,1.0136 0.7241,0.67575 1.1585,1.5928 1.3274,2.7754 h 2.6065 c -0.2896,-1.9066 -1.0137,-3.3787 -2.1721,-4.4406 -1.1584,-1.0619 -2.7271,-1.5928 -4.6819,-1.5928 -1.1826,0 -2.2204,0.19307 -3.1375,0.57921 -0.9171,0.38614 -1.6652,0.94122 -2.2927,1.6411 -0.6033,0.69988 -1.0619,1.5446 -1.3756,2.5099 -0.3138,0.96535 -0.4586,2.0272 -0.4586,3.2098 0,1.1584 0.1448,2.2444 0.4586,3.2581 0.2896,1.0136 0.7481,1.8824 1.3756,2.6547 0.6034,0.74815 1.3756,1.3515 2.2927,1.7618 0.9171,0.43441 1.979,0.65162 3.234,0.65162 0.8929,0 1.7135,-0.09654 2.4858,-0.31374 0.7723,-0.2172 1.448,-0.53094 2.0513,-0.96535 0.6034,-0.43441 1.0861,-0.98949 1.4481,-1.6652 0.362,-0.67575 0.6033,-1.4722 0.6999,-2.3893 h -2.6548 z"
         fill="#ffffff"
         stroke-width="0.24134"
         id="path48" />
      <path
         class="st1"
         d="m -1592.3,85.534 h 2.5582 v -8.2055 h 0.048 c 0.1931,0.45854 0.4827,0.86882 0.8688,1.2067 0.362,0.33788 0.7723,0.62748 1.2067,0.82055 0.4344,0.2172 0.9171,0.36201 1.3998,0.45854 0.4827,0.09654 0.9653,0.1448 1.4239,0.1448 1.0136,0 1.8824,-0.1448 2.5582,-0.41028 0.6757,-0.28961 1.2308,-0.67575 1.6652,-1.1826 0.4103,-0.50681 0.724,-1.086 0.893,-1.7859 0.1689,-0.69988 0.2654,-1.448 0.2654,-2.2927 v -10.233 h -2.5582 v 10.522 c 0,0.96536 -0.2896,1.7135 -0.8446,2.2927 -0.5551,0.55508 -1.3274,0.84469 -2.3169,0.84469 -0.7723,0 -1.448,-0.12067 -2.0272,-0.36201 -0.5792,-0.24134 -1.0378,-0.57921 -1.4239,-1.0136 -0.3862,-0.43441 -0.6758,-0.96536 -0.8688,-1.5446 -0.1931,-0.60334 -0.2896,-1.2308 -0.2896,-1.9307 v -8.7847 h -2.5582 z"
         fill="#ffffff"
         stroke-width="0.24134"
         id="path49" />
    </g>
    <g
       transform="matrix(0.30939,0,0,0.30939,396.88,195.92)"
       data-name="Layer 1"
       id="g118">
      <g
         id="g117">
        <g
           stroke-width="0px"
           id="g90">
          <polygon
             class="cls-3"
             points="53.8,115.17 53.64,133.23 35.58,131.18 35.48,113.38 "
             fill="#333333"
             id="polygon79" />
          <polygon
             class="cls-3"
             points="122.77,65.29 122.66,79.97 0,79.97 0,65.29 "
             fill="#333333"
             id="polygon80" />
          <polygon
             class="cls-1"
             points="0,65.29 9.83,62.06 112.94,62.06 122.77,65.29 "
             fill="#231f20"
             opacity="0.3"
             id="polygon81" />
          <polygon
             class="cls-1"
             points="35.48,113.38 63.4,85.31 76.42,86.26 53.8,115.17 "
             fill="#231f20"
             opacity="0.3"
             id="polygon82" />
          <polygon
             class="cls-3"
             points="26.01,0 26.6,19.61 13.2,19.08 12.52,0.11 "
             fill="#333333"
             id="polygon83" />
          <polygon
             class="cls-4"
             points="26.02,0.04 100.49,2.97 100.1,16.08 26.6,19.61 "
             fill="#231f20"
             opacity="0.4"
             id="polygon84" />
          <polygon
             class="cls-3"
             points="95.74,37.67 95.1,56.7 27.9,40.65 27.58,27.43 "
             fill="#333333"
             id="polygon85" />
          <polygon
             class="cls-1"
             points="109.78,36.57 95.74,37.67 27.58,27.43 39.21,26.96 "
             fill="#231f20"
             opacity="0.3"
             id="polygon86" />
          <polygon
             class="cls-4"
             points="268.53,71.33 265.95,72.87 256.21,72.96 258.96,71.32 "
             fill="#231f20"
             opacity="0.4"
             id="polygon87" />
          <path
             class="cls-2"
             d="m 172.41,39.51 h 8.74 c 0,0 12.57,27.25 12.57,27.25 l 12.55,-27.29 h 8.68 L 215,80.19 h -8.45 l -0.03,-23.13 -10.75,23.15 h -4.08 l -10.75,-23.12 0.03,23.14 h -8.51 z"
             fill="#1a1a1a"
             id="path87" />
          <path
             class="cls-2"
             d="m 232.44,77.68 c -3.46,-1.65 -6.14,-4.01 -8.02,-7.1 -1.89,-3.09 -2.84,-6.71 -2.84,-10.87 0,-4.16 0.94,-7.84 2.84,-11.05 1.9,-3.21 4.51,-5.7 7.83,-7.47 3.32,-1.77 7.02,-2.66 11.1,-2.67 4.08,0 7.76,0.87 11.05,2.64 3.29,1.76 5.88,4.25 7.79,7.45 1.91,3.2 2.86,6.88 2.87,11.04 0,2.56 -0.59,5.05 -1.77,7.46 -1.18,2.41 -2.67,4.34 -4.45,5.78 h 7.11 v 7.22 l -21.45,0.03 c -4.58,0 -8.61,-0.81 -12.07,-2.46 z m 17.47,-6.78 c 1.9,-0.99 3.4,-2.45 4.48,-4.38 1.08,-1.93 1.63,-4.19 1.62,-6.79 0,-2.6 -0.56,-4.89 -1.67,-6.85 -1.11,-1.96 -2.63,-3.46 -4.55,-4.51 -1.92,-1.05 -4.07,-1.57 -6.44,-1.56 -2.41,0 -4.57,0.53 -6.5,1.58 -1.92,1.05 -3.44,2.56 -4.57,4.52 -1.12,1.96 -1.68,4.25 -1.68,6.85 0,3.96 1.18,7.06 3.54,9.29 2.35,2.23 5.43,3.34 9.24,3.34 2.45,0 4.62,-0.5 6.53,-1.5 z"
             fill="#1a1a1a"
             id="path88" />
          <path
             class="cls-2"
             d="m 280.04,80.27 c -2.45,-0.46 -4.45,-1.08 -6.01,-1.86 V 70.6 c 2.05,1.01 4.19,1.76 6.4,2.26 2.22,0.5 4.33,0.75 6.35,0.75 2.25,0 3.96,-0.39 5.13,-1.17 1.16,-0.78 1.75,-1.87 1.74,-3.27 0,-1.01 -0.29,-1.86 -0.88,-2.56 -0.58,-0.7 -1.43,-1.33 -2.54,-1.89 -1.11,-0.56 -2.81,-1.31 -5.1,-2.24 -3.81,-1.55 -6.57,-3.28 -8.28,-5.21 -1.71,-1.93 -2.57,-4.3 -2.57,-7.14 0,-2.29 0.61,-4.32 1.86,-6.09 1.24,-1.77 2.99,-3.14 5.24,-4.12 2.25,-0.97 4.85,-1.46 7.81,-1.47 2.41,0 4.55,0.19 6.41,0.57 1.87,0.39 3.69,0.99 5.48,1.8 v 7.58 c -3.41,-1.7 -6.83,-2.55 -10.25,-2.55 -2.18,0 -3.88,0.38 -5.13,1.14 -1.24,0.76 -1.86,1.84 -1.86,3.24 0,1.01 0.29,1.84 0.88,2.5 0.58,0.66 1.4,1.24 2.45,1.75 1.05,0.5 2.76,1.24 5.13,2.21 2.76,1.16 4.92,2.28 6.47,3.34 1.55,1.07 2.7,2.33 3.44,3.78 0.74,1.46 1.11,3.25 1.11,5.39 0,3.69 -1.32,6.57 -3.98,8.63 -2.66,2.06 -6.63,3.1 -11.91,3.1 -2.49,0 -4.96,-0.23 -7.4,-0.69 z"
             fill="#1a1a1a"
             id="path89" />
          <path
             class="cls-2"
             d="m 314.35,80.23 c -2.45,-0.46 -4.45,-1.08 -6.01,-1.86 v -7.81 c 2.05,1.01 4.19,1.76 6.4,2.26 2.22,0.5 4.33,0.75 6.35,0.75 2.25,0 3.96,-0.39 5.13,-1.17 1.16,-0.78 1.75,-1.87 1.74,-3.27 0,-1.01 -0.29,-1.87 -0.88,-2.56 -0.58,-0.7 -1.43,-1.33 -2.54,-1.89 -1.11,-0.56 -2.81,-1.31 -5.1,-2.24 -3.81,-1.55 -6.57,-3.28 -8.28,-5.2 -1.71,-1.92 -2.57,-4.3 -2.57,-7.14 0,-2.29 0.61,-4.32 1.86,-6.09 1.24,-1.77 2.99,-3.14 5.24,-4.12 2.25,-0.97 4.85,-1.46 7.81,-1.47 2.41,0 4.55,0.19 6.41,0.57 1.86,0.38 3.69,0.98 5.48,1.8 v 7.58 c -3.41,-1.7 -6.83,-2.55 -10.25,-2.55 -2.18,0 -3.88,0.38 -5.13,1.14 -1.24,0.76 -1.86,1.84 -1.86,3.24 0,1.01 0.29,1.85 0.88,2.5 0.58,0.66 1.4,1.24 2.45,1.75 1.05,0.5 2.76,1.24 5.13,2.21 2.76,1.16 4.92,2.28 6.47,3.34 1.55,1.07 2.7,2.33 3.44,3.78 0.74,1.46 1.11,3.25 1.11,5.39 0,3.69 -1.32,6.57 -3.98,8.63 -2.66,2.06 -6.63,3.1 -11.91,3.1 -2.49,0 -4.96,-0.23 -7.4,-0.69 z"
             fill="#1a1a1a"
             id="path90" />
        </g>
        <g
           fill="#1a1a1a"
           stroke="#414042"
           stroke-miterlimit="10"
           stroke-width="0.2px"
           id="g116">
          <path
             class="cls-5"
             d="m 172.6,93.89 h 2.46 l 6.01,13.16 6.01,-13.16 h 2.46 v 16.88 h -2.39 v -12 l -5.48,12 h -1.21 l -5.51,-12 v 12 h -2.37 V 93.89 Z"
             id="path91" />
          <path
             class="cls-5"
             d="m 193.76,109.88 c -0.8,-0.84 -1.19,-1.96 -1.19,-3.36 v -7.34 h 2.44 v 7.24 c 0,1.85 0.93,2.78 2.78,2.78 1.63,0 2.9,-0.73 3.82,-2.2 v -7.82 h 2.44 v 11.59 h -2.37 v -1.64 c -0.55,0.69 -1.2,1.2 -1.94,1.52 -0.75,0.32 -1.56,0.48 -2.43,0.48 -1.56,0 -2.74,-0.42 -3.54,-1.26 z"
             id="path92" />
          <path
             class="cls-5"
             d="m 207.17,99.18 h 2.37 v 1.67 c 0.55,-0.69 1.22,-1.2 2.02,-1.53 0.8,-0.33 1.63,-0.5 2.5,-0.5 1.55,0 2.7,0.41 3.45,1.23 0.76,0.82 1.13,1.92 1.13,3.31 v 7.41 h -2.44 v -7.17 c 0,-1.88 -0.9,-2.83 -2.71,-2.83 -0.77,0 -1.49,0.18 -2.16,0.54 -0.67,0.36 -1.24,0.91 -1.73,1.65 v 7.8 h -2.44 V 99.17 Z"
             id="path93" />
          <path
             class="cls-5"
             d="m 222.07,96.5 c -0.27,-0.27 -0.41,-0.61 -0.41,-1.01 0,-0.4 0.14,-0.74 0.41,-1.01 0.27,-0.27 0.61,-0.41 1.01,-0.41 0.4,0 0.77,0.14 1.05,0.41 0.28,0.27 0.42,0.61 0.42,1.01 0,0.4 -0.14,0.74 -0.42,1.01 -0.28,0.27 -0.63,0.41 -1.05,0.41 -0.42,0 -0.74,-0.14 -1.01,-0.41 z m -0.22,2.68 h 2.49 v 11.59 h -2.49 z"
             id="path94" />
          <path
             class="cls-5"
             d="m 230.38,110.41 c -1,-0.48 -1.78,-1.19 -2.33,-2.11 -0.56,-0.93 -0.83,-2.02 -0.83,-3.3 0,-1.28 0.28,-2.37 0.83,-3.3 0.55,-0.92 1.34,-1.64 2.34,-2.14 1,-0.5 2.16,-0.75 3.46,-0.75 1.77,0 3.19,0.35 4.25,1.04 v 2 c -1.05,-0.72 -2.38,-1.09 -4.01,-1.09 -1.32,0 -2.39,0.36 -3.2,1.08 -0.81,0.72 -1.22,1.77 -1.22,3.15 0,1.38 0.4,2.43 1.21,3.14 0.81,0.71 1.86,1.06 3.16,1.06 1.63,0 3.03,-0.39 4.2,-1.16 v 1.98 c -0.56,0.39 -1.2,0.67 -1.92,0.85 -0.72,0.18 -1.56,0.27 -2.52,0.27 -1.29,0 -2.43,-0.24 -3.43,-0.72 z"
             id="path95" />
          <path
             class="cls-5"
             d="m 240.9,92.93 h 2.44 v 7.85 c 1.11,-1.3 2.59,-1.96 4.44,-1.96 1.55,0 2.7,0.41 3.45,1.23 0.76,0.82 1.13,1.92 1.13,3.31 v 7.41 h -2.44 v -7.17 c 0,-1.88 -0.9,-2.83 -2.71,-2.83 -0.77,0 -1.49,0.18 -2.16,0.54 -0.67,0.36 -1.24,0.91 -1.73,1.65 v 7.8 h -2.44 V 92.92 Z"
             id="path96" />
          <path
             class="cls-5"
             d="m 268.3,109.73 c -1.41,-0.69 -2.5,-1.68 -3.28,-2.96 -0.78,-1.28 -1.17,-2.77 -1.17,-4.48 0,-1.71 0.39,-3.25 1.16,-4.58 0.77,-1.33 1.83,-2.36 3.19,-3.09 1.35,-0.73 2.87,-1.1 4.54,-1.1 1.67,0 3.19,0.37 4.54,1.1 1.35,0.73 2.42,1.76 3.19,3.09 0.77,1.33 1.16,2.85 1.16,4.58 0,1.37 -0.31,2.62 -0.93,3.75 -0.62,1.13 -1.44,2 -2.45,2.6 h 3.65 v 2.12 h -8.72 c -1.83,0 -3.46,-0.35 -4.87,-1.04 z m 7.74,-1.93 c 0.97,-0.48 1.72,-1.2 2.26,-2.14 0.54,-0.94 0.81,-2.06 0.81,-3.37 0,-1.31 -0.28,-2.43 -0.84,-3.42 -0.56,-0.99 -1.33,-1.75 -2.29,-2.28 -0.96,-0.53 -2.04,-0.8 -3.24,-0.8 -1.2,0 -2.27,0.27 -3.25,0.8 -0.98,0.53 -1.74,1.29 -2.31,2.27 -0.56,0.98 -0.85,2.12 -0.85,3.43 0,1.31 0.27,2.45 0.81,3.38 0.54,0.93 1.29,1.64 2.26,2.12 0.97,0.48 2.08,0.72 3.33,0.72 1.25,0 2.34,-0.24 3.31,-0.72 z"
             id="path97" />
          <path
             class="cls-5"
             d="m 285.13,109.88 c -0.8,-0.84 -1.19,-1.96 -1.19,-3.36 v -7.34 h 2.44 v 7.24 c 0,1.85 0.93,2.78 2.78,2.78 1.63,0 2.9,-0.73 3.82,-2.2 v -7.82 h 2.44 v 11.59 h -2.37 v -1.64 c -0.55,0.69 -1.2,1.2 -1.94,1.52 -0.75,0.32 -1.56,0.48 -2.43,0.48 -1.56,0 -2.74,-0.42 -3.54,-1.26 z"
             id="path98" />
          <path
             class="cls-5"
             d="m 298.96,110.06 c -0.85,-0.72 -1.27,-1.69 -1.27,-2.91 0,-1.29 0.41,-2.28 1.22,-2.98 0.81,-0.7 1.97,-1.05 3.47,-1.05 1.59,0 2.95,0.32 4.06,0.97 v -0.6 c 0,-0.92 -0.28,-1.6 -0.83,-2.04 -0.55,-0.44 -1.43,-0.66 -2.62,-0.66 -0.71,0 -1.4,0.07 -2.06,0.21 -0.67,0.14 -1.27,0.33 -1.8,0.57 v -1.98 c 0.48,-0.22 1.11,-0.41 1.88,-0.54 0.77,-0.13 1.52,-0.21 2.25,-0.21 1.92,0 3.34,0.42 4.26,1.27 0.92,0.84 1.39,2.02 1.39,3.51 v 7.17 h -2.29 v -1.3 c -0.5,0.55 -1.09,0.96 -1.78,1.24 -0.69,0.28 -1.52,0.42 -2.5,0.42 -1.4,0 -2.52,-0.36 -3.37,-1.07 z m 6.08,-1.24 c 0.63,-0.31 1.09,-0.73 1.4,-1.28 v -1.57 c -1.05,-0.68 -2.21,-1.01 -3.5,-1.01 -0.93,0 -1.63,0.18 -2.09,0.54 -0.46,0.36 -0.69,0.91 -0.69,1.65 0,1.42 0.92,2.12 2.78,2.12 0.77,0 1.47,-0.15 2.1,-0.46 z"
             id="path99" />
          <path
             class="cls-5"
             d="m 311.92,99.18 h 2.37 v 1.67 c 0.55,-0.69 1.22,-1.2 2.02,-1.53 0.8,-0.33 1.63,-0.5 2.5,-0.5 1.55,0 2.7,0.41 3.45,1.23 0.76,0.82 1.13,1.92 1.13,3.31 v 7.41 h -2.44 v -7.17 c 0,-1.88 -0.9,-2.83 -2.71,-2.83 -0.77,0 -1.49,0.18 -2.16,0.54 -0.67,0.36 -1.24,0.91 -1.73,1.65 v 7.8 h -2.44 V 99.17 Z"
             id="path100" />
          <path
             class="cls-5"
             d="m 328.16,110.12 c -0.64,-0.68 -0.95,-1.63 -0.95,-2.87 v -6.18 h -1.76 v -1.88 h 1.76 v -3.48 h 2.46 v 3.48 h 2.85 v 1.88 h -2.85 v 6.01 c 0,0.77 0.15,1.32 0.45,1.64 0.3,0.32 0.84,0.48 1.63,0.48 0.47,0 0.93,-0.1 1.4,-0.31 v 1.93 c -0.61,0.21 -1.37,0.31 -2.27,0.31 -1.17,0 -2.08,-0.34 -2.72,-1.01 z"
             id="path101" />
          <path
             class="cls-5"
             d="m 336.39,109.88 c -0.8,-0.84 -1.19,-1.96 -1.19,-3.36 v -7.34 h 2.44 v 7.24 c 0,1.85 0.93,2.78 2.78,2.78 1.63,0 2.9,-0.73 3.82,-2.2 v -7.82 h 2.44 v 11.59 h -2.37 v -1.64 c -0.55,0.69 -1.2,1.2 -1.94,1.52 -0.75,0.32 -1.56,0.48 -2.43,0.48 -1.56,0 -2.74,-0.42 -3.54,-1.26 z"
             id="path102" />
          <path
             class="cls-5"
             d="m 349.8,99.18 h 2.32 v 1.67 c 0.55,-0.68 1.17,-1.18 1.86,-1.52 0.69,-0.34 1.41,-0.51 2.15,-0.51 0.93,0 1.67,0.16 2.22,0.47 0.55,0.31 0.95,0.79 1.21,1.44 0.52,-0.63 1.15,-1.1 1.9,-1.42 0.75,-0.32 1.5,-0.48 2.26,-0.48 1.42,0 2.44,0.36 3.07,1.07 0.63,0.72 0.94,1.77 0.94,3.17 v 7.7 h -2.37 v -7.39 c 0,-0.95 -0.18,-1.62 -0.53,-2.02 -0.35,-0.39 -0.96,-0.59 -1.81,-0.59 -1.22,0 -2.22,0.53 -2.99,1.59 0.03,0.24 0.05,0.64 0.05,1.18 v 7.22 h -2.37 v -7.39 c 0,-0.95 -0.16,-1.62 -0.48,-2.02 -0.32,-0.39 -0.9,-0.59 -1.74,-0.59 -1.22,0 -2.32,0.69 -3.28,2.08 v 7.92 h -2.39 V 99.17 Z"
             id="path103" />
          <path
             class="cls-5"
             d="m 174.9,136.45 c -0.94,-0.17 -1.71,-0.4 -2.31,-0.69 v -2.22 c 1.54,0.72 3.21,1.09 5,1.09 2.51,0 3.77,-0.84 3.77,-2.54 0,-0.58 -0.14,-1.05 -0.41,-1.4 -0.27,-0.35 -0.67,-0.66 -1.18,-0.93 -0.51,-0.27 -1.35,-0.63 -2.51,-1.1 -1.59,-0.64 -2.75,-1.35 -3.45,-2.12 -0.71,-0.77 -1.06,-1.75 -1.06,-2.92 0,-0.88 0.24,-1.67 0.72,-2.35 0.48,-0.68 1.16,-1.22 2.03,-1.59 0.87,-0.37 1.87,-0.57 2.99,-0.57 0.92,0 1.75,0.07 2.49,0.22 0.74,0.15 1.46,0.38 2.17,0.7 v 2.12 c -1.4,-0.63 -2.82,-0.94 -4.25,-0.94 -1.16,0 -2.04,0.21 -2.66,0.63 -0.61,0.42 -0.92,1.01 -0.92,1.79 0,0.53 0.13,0.98 0.4,1.34 0.27,0.36 0.66,0.68 1.18,0.97 0.52,0.29 1.3,0.63 2.33,1.05 1.14,0.47 2.04,0.91 2.71,1.33 0.66,0.42 1.16,0.93 1.51,1.53 0.35,0.6 0.52,1.36 0.52,2.26 0,1.46 -0.52,2.6 -1.57,3.41 -1.05,0.8 -2.59,1.21 -4.64,1.21 -0.97,0 -1.92,-0.08 -2.86,-0.25 z"
             id="path104" />
          <path
             class="cls-5"
             d="m 188.93,135.96 c -0.99,-0.49 -1.76,-1.2 -2.32,-2.12 -0.56,-0.93 -0.83,-2.02 -0.83,-3.27 0,-1.25 0.27,-2.33 0.82,-3.26 0.55,-0.93 1.32,-1.65 2.32,-2.16 1,-0.51 2.15,-0.76 3.45,-0.76 1.3,0 2.45,0.25 3.45,0.76 1,0.51 1.77,1.23 2.33,2.16 0.55,0.93 0.83,2.02 0.83,3.26 0,1.24 -0.28,2.35 -0.83,3.27 -0.56,0.93 -1.33,1.63 -2.33,2.12 -1,0.49 -2.15,0.74 -3.45,0.74 -1.3,0 -2.45,-0.25 -3.44,-0.74 z m 6.43,-2.35 c 0.74,-0.77 1.11,-1.79 1.11,-3.04 0,-1.25 -0.37,-2.33 -1.11,-3.09 -0.74,-0.76 -1.74,-1.14 -2.99,-1.14 -1.25,0 -2.25,0.38 -2.99,1.14 -0.74,0.76 -1.11,1.79 -1.11,3.09 0,1.3 0.37,2.27 1.11,3.04 0.74,0.77 1.74,1.16 2.99,1.16 1.25,0 2.25,-0.39 2.99,-1.16 z"
             id="path105" />
          <path
             class="cls-5"
             d="m 201.59,126.63 h -1.76 v -1.88 h 1.76 v -2.27 c 0,-1.34 0.38,-2.35 1.13,-3.05 0.76,-0.7 1.77,-1.05 3.04,-1.05 0.66,0 1.28,0.1 1.86,0.29 v 2.03 c -0.45,-0.21 -0.92,-0.31 -1.4,-0.31 -0.76,0 -1.31,0.18 -1.67,0.54 -0.35,0.36 -0.53,0.93 -0.53,1.7 v 2.12 h 2.9 v 1.88 h -2.9 v 9.71 h -2.44 v -9.71 z"
             id="path106" />
          <path
             class="cls-5"
             d="m 210.23,135.69 c -0.64,-0.68 -0.95,-1.63 -0.95,-2.87 v -6.18 h -1.76 v -1.88 h 1.76 v -3.48 h 2.46 v 3.48 h 2.85 v 1.88 h -2.85 v 6.01 c 0,0.77 0.15,1.32 0.45,1.64 0.3,0.32 0.84,0.48 1.63,0.48 0.47,0 0.93,-0.1 1.4,-0.31 v 1.93 c -0.61,0.21 -1.37,0.31 -2.27,0.31 -1.17,0 -2.08,-0.34 -2.72,-1.01 z"
             id="path107" />
          <path
             class="cls-5"
             d="m 216.42,124.75 h 2.49 l 2.61,8.6 2.58,-8.6 h 2.2 l 2.58,8.6 2.61,-8.6 H 234 l -3.77,11.59 h -2.34 l -2.68,-8.64 -2.68,8.64 h -2.37 z"
             id="path108" />
          <path
             class="cls-5"
             d="m 236.11,135.63 c -0.85,-0.72 -1.27,-1.69 -1.27,-2.91 0,-1.29 0.41,-2.28 1.22,-2.98 0.81,-0.7 1.97,-1.05 3.47,-1.05 1.59,0 2.95,0.32 4.06,0.97 v -0.6 c 0,-0.92 -0.28,-1.6 -0.83,-2.04 -0.55,-0.44 -1.43,-0.66 -2.62,-0.66 -0.71,0 -1.4,0.07 -2.06,0.21 -0.67,0.14 -1.27,0.33 -1.8,0.57 v -1.98 c 0.48,-0.22 1.11,-0.41 1.88,-0.54 0.77,-0.13 1.52,-0.21 2.25,-0.21 1.92,0 3.34,0.42 4.26,1.27 0.92,0.84 1.39,2.02 1.39,3.51 v 7.17 h -2.29 v -1.3 c -0.5,0.55 -1.09,0.96 -1.78,1.24 -0.69,0.28 -1.52,0.42 -2.5,0.42 -1.4,0 -2.52,-0.36 -3.37,-1.07 z m 6.08,-1.25 c 0.63,-0.31 1.09,-0.73 1.4,-1.28 v -1.57 c -1.05,-0.68 -2.21,-1.01 -3.5,-1.01 -0.93,0 -1.63,0.18 -2.09,0.54 -0.46,0.36 -0.69,0.91 -0.69,1.65 0,1.42 0.92,2.12 2.78,2.12 0.77,0 1.47,-0.15 2.1,-0.46 z"
             id="path109" />
          <path
             class="cls-5"
             d="m 249.07,124.75 h 2.37 v 2.08 c 0.48,-0.71 1.16,-1.23 2.04,-1.57 0.88,-0.34 1.9,-0.51 3.05,-0.51 v 1.91 c -1.24,0 -2.3,0.2 -3.19,0.6 -0.89,0.4 -1.5,1.04 -1.83,1.91 v 7.17 h -2.44 z"
             id="path110" />
          <path
             class="cls-5"
             d="m 259.32,135.1 c -1.21,-1.07 -1.82,-2.58 -1.82,-4.53 0,-1.95 0.54,-3.4 1.63,-4.51 1.09,-1.11 2.64,-1.67 4.65,-1.67 1.34,0 2.47,0.25 3.41,0.76 0.93,0.51 1.64,1.21 2.11,2.1 0.47,0.89 0.71,1.91 0.71,3.05 v 1.21 h -10.19 c 0.08,1.09 0.54,1.91 1.39,2.45 0.85,0.54 1.99,0.81 3.44,0.81 0.74,0 1.49,-0.07 2.25,-0.21 0.76,-0.14 1.42,-0.32 2,-0.54 v 1.96 c -0.51,0.21 -1.2,0.38 -2.04,0.52 -0.84,0.14 -1.68,0.21 -2.5,0.21 -2.14,0 -3.82,-0.54 -5.04,-1.61 z m 8.39,-5.31 c -0.03,-1.09 -0.39,-1.94 -1.08,-2.55 -0.68,-0.6 -1.65,-0.91 -2.91,-0.91 -1.26,0 -2.17,0.31 -2.85,0.94 -0.68,0.63 -1.03,1.46 -1.06,2.51 h 7.9 z"
             id="path111" />
          <path
             class="cls-5"
             d="m 283.41,136.45 c -0.94,-0.17 -1.71,-0.4 -2.31,-0.69 v -2.22 c 1.54,0.72 3.21,1.09 5,1.09 2.51,0 3.77,-0.84 3.77,-2.54 0,-0.58 -0.14,-1.05 -0.41,-1.4 -0.27,-0.35 -0.67,-0.66 -1.18,-0.93 -0.51,-0.27 -1.35,-0.63 -2.51,-1.1 -1.59,-0.64 -2.75,-1.35 -3.45,-2.12 -0.71,-0.77 -1.06,-1.75 -1.06,-2.92 0,-0.88 0.24,-1.67 0.72,-2.35 0.48,-0.68 1.16,-1.22 2.03,-1.59 0.87,-0.37 1.87,-0.57 2.99,-0.57 0.92,0 1.75,0.07 2.49,0.22 0.74,0.15 1.46,0.38 2.17,0.7 v 2.12 c -1.4,-0.63 -2.82,-0.94 -4.25,-0.94 -1.16,0 -2.04,0.21 -2.66,0.63 -0.61,0.42 -0.92,1.01 -0.92,1.79 0,0.53 0.13,0.98 0.4,1.34 0.27,0.36 0.66,0.68 1.18,0.97 0.52,0.29 1.3,0.63 2.33,1.05 1.14,0.47 2.04,0.91 2.71,1.33 0.66,0.42 1.16,0.93 1.51,1.53 0.35,0.6 0.52,1.36 0.52,2.26 0,1.46 -0.52,2.6 -1.57,3.41 -1.05,0.8 -2.59,1.21 -4.64,1.21 -0.97,0 -1.92,-0.08 -2.86,-0.25 z"
             id="path112" />
          <path
             class="cls-5"
             d="m 296.04,135.69 c -0.64,-0.68 -0.95,-1.63 -0.95,-2.87 v -6.18 h -1.76 v -1.88 h 1.76 v -3.48 h 2.46 v 3.48 h 2.85 v 1.88 h -2.85 v 6.01 c 0,0.77 0.15,1.32 0.45,1.64 0.3,0.32 0.84,0.48 1.63,0.48 0.47,0 0.93,-0.1 1.4,-0.31 v 1.93 c -0.61,0.21 -1.37,0.31 -2.27,0.31 -1.17,0 -2.08,-0.34 -2.72,-1.01 z"
             id="path113" />
          <path
             class="cls-5"
             d="m 303.75,135.63 c -0.85,-0.72 -1.27,-1.69 -1.27,-2.91 0,-1.29 0.41,-2.28 1.22,-2.98 0.81,-0.7 1.97,-1.05 3.47,-1.05 1.59,0 2.95,0.32 4.06,0.97 v -0.6 c 0,-0.92 -0.28,-1.6 -0.83,-2.04 -0.55,-0.44 -1.43,-0.66 -2.62,-0.66 -0.71,0 -1.4,0.07 -2.06,0.21 -0.67,0.14 -1.27,0.33 -1.8,0.57 v -1.98 c 0.48,-0.22 1.11,-0.41 1.88,-0.54 0.77,-0.13 1.52,-0.21 2.25,-0.21 1.92,0 3.34,0.42 4.26,1.27 0.92,0.84 1.39,2.02 1.39,3.51 v 7.17 h -2.29 v -1.3 c -0.5,0.55 -1.09,0.96 -1.78,1.24 -0.69,0.28 -1.52,0.42 -2.5,0.42 -1.4,0 -2.52,-0.36 -3.37,-1.07 z m 6.07,-1.25 c 0.63,-0.31 1.09,-0.73 1.4,-1.28 v -1.57 c -1.05,-0.68 -2.21,-1.01 -3.5,-1.01 -0.93,0 -1.63,0.18 -2.09,0.54 -0.46,0.36 -0.69,0.91 -0.69,1.65 0,1.42 0.92,2.12 2.78,2.12 0.77,0 1.47,-0.15 2.1,-0.46 z"
             id="path114" />
          <path
             class="cls-5"
             d="m 318.9,135.98 c -1,-0.48 -1.78,-1.19 -2.33,-2.11 -0.56,-0.93 -0.83,-2.02 -0.83,-3.3 0,-1.28 0.28,-2.37 0.83,-3.3 0.55,-0.92 1.34,-1.64 2.34,-2.14 1,-0.5 2.16,-0.75 3.46,-0.75 1.77,0 3.19,0.35 4.25,1.04 v 2 c -1.05,-0.72 -2.38,-1.09 -4.01,-1.09 -1.32,0 -2.39,0.36 -3.2,1.08 -0.81,0.72 -1.22,1.77 -1.22,3.15 0,1.38 0.4,2.43 1.21,3.14 0.81,0.71 1.86,1.06 3.16,1.06 1.63,0 3.03,-0.39 4.2,-1.16 v 1.98 c -0.56,0.39 -1.2,0.67 -1.92,0.85 -0.72,0.18 -1.56,0.27 -2.52,0.27 -1.29,0 -2.43,-0.24 -3.43,-0.72 z"
             id="path115" />
          <path
             class="cls-5"
             d="m 329.42,118.5 h 2.44 v 17.84 h -2.44 z m 2.47,11.97 5.34,-5.72 h 2.97 l -5.36,5.72 5.92,5.87 h -2.97 l -5.89,-5.87 z"
             id="path116" />
        </g>
      </g>
    </g>
    <path
       class="st0"
       d="m 239.85,62.627 c -11.876,-3.7254 -24.467,-5.6857 -37.246,-5.6857 -22.954,0 -45.331,6.2957 -64.014,17.87 v 6.2794 c 18.383,-12.201 40.873,-18.887 64.014,-18.887 12.803,0 25.419,2.0498 37.246,5.9378 z"
       fill="#3070b3"
       stroke-width="0.8134"
       id="path118" />
    <path
       class="st0"
       d="m 239.99,96.562 c -11.867,3.9206 -24.524,5.9866 -37.384,5.9866 -23.141,0 -45.632,-6.678 -64.014,-18.887 v 6.2794 c 18.676,11.575 41.052,17.87 64.014,17.87 13.185,0 26.167,-2.0823 38.376,-6.0436 -0.49616,-1.6349 -0.82154,-3.3756 -0.99234,-5.2058 z"
       fill="#3070b3"
       stroke-width="0.8134"
       id="path119" />
    <path
       class="st1"
       d="m 265.18,111.65 c -2.7737,0 -5.2871,-0.4311 -7.5483,-1.2852 -2.2612,-0.8541 -4.1971,-2.066 -5.7914,-3.6278 -1.6024,-1.5617 -2.8387,-3.4488 -3.7172,-5.6775 -0.87847,-2.2206 -1.3177,-4.7014 -1.3177,-7.4345 V 68.109 h 8.1909 v 25.476 c 0,2.1392 0.34976,3.9124 1.0574,5.3196 0.69952,1.399 1.5698,2.5134 2.6029,3.3268 1.033,0.82153 2.1474,1.3828 3.3349,1.6919 1.1876,0.30909 2.2531,0.47177 3.1885,0.47177 0.9354,0 2.001,-0.15454 3.1885,-0.47177 1.1876,-0.30909 2.3019,-0.87847 3.3349,-1.6919 1.033,-0.8134 1.9033,-1.9278 2.6029,-3.3268 0.69952,-1.399 1.0574,-3.1723 1.0574,-5.3196 V 68.109 h 8.1909 v 25.516 c 0,2.733 -0.4311,5.2058 -1.2852,7.4345 -0.85409,2.2206 -2.0904,4.1158 -3.6847,5.6775 -1.6024,1.5617 -3.5302,2.7737 -5.7914,3.6278 -2.2694,0.85407 -4.799,1.2852 -7.6134,1.2852 z"
       fill="#3c3c3c"
       stroke-width="0.8134"
       id="path120" />
    <path
       class="st1"
       d="m 433.66,111.71 c -2.7737,0 -5.2871,-0.4311 -7.5483,-1.2852 -2.2612,-0.8541 -4.1971,-2.066 -5.7914,-3.6278 -1.6024,-1.5617 -2.8388,-3.457 -3.7172,-5.6775 -0.87847,-2.2206 -1.3177,-4.7014 -1.3177,-7.4345 V 68.169 h 8.1909 v 25.476 c 0,2.1392 0.34976,3.9124 1.0574,5.3196 0.69952,1.399 1.5698,2.5134 2.6029,3.3268 1.033,0.82153 2.1474,1.3828 3.335,1.6919 1.1876,0.30909 2.2531,0.46364 3.1885,0.46364 0.9354,0 2.001,-0.15455 3.1885,-0.46364 1.1876,-0.30909 2.3019,-0.87847 3.3349,-1.6919 1.033,-0.82153 1.9034,-1.9278 2.6029,-3.3268 0.69952,-1.399 1.0574,-3.1723 1.0574,-5.3196 V 68.169 h 8.1909 v 25.516 c 0,2.733 -0.4311,5.2058 -1.2852,7.4345 -0.86221,2.2206 -2.0904,4.1158 -3.6847,5.6775 -1.6024,1.5617 -3.5301,2.7737 -5.7914,3.6278 -2.2612,0.85407 -4.8072,1.2852 -7.6134,1.2852 z"
       fill="#3c3c3c"
       stroke-width="0.8134"
       id="path121" />
    <path
       class="st1"
       d="m 284.53,110.92 22.027,-42.874 h 0.84594 l 21.84,42.817 h -8.9148 l -13.364,-26.777 -13.405,26.81 c 0.009,0 -9.0287,-0.0813 -9.0287,0.0243 z"
       fill="#3c3c3c"
       stroke-width="0.8134"
       id="path122" />
    <path
       class="st1"
       d="m 254.67,116.47 c -0.71578,-0.26841 -1.399,-0.56938 -2.0579,-0.89474 -10.891,16.732 -29.746,27.834 -51.163,27.834 -33.65,0 -61.021,-27.379 -61.021,-61.021 0,-33.642 27.379,-61.021 61.021,-61.021 26.248,0 48.657,16.675 57.247,39.979 h 8.6058 c -8.9311,-27.867 -35.057,-48.113 -65.853,-48.113 -38.132,0 -69.155,31.023 -69.155,69.155 0,38.132 31.023,69.155 69.155,69.155 25.11,0 47.128,-13.454 59.248,-33.52 -0.25209,-0.0488 -0.49619,-0.11387 -0.74019,-0.1708 -1.8627,-0.29283 -3.6278,-0.74833 -5.2871,-1.3828 z"
       fill="#3c3c3c"
       stroke-width="0.8134"
       id="path123" />
    <polygon
       class="st1"
       transform="matrix(0.8134,0,0,0.8134,81.43,-73.219)"
       points="319.51,226.31 319.51,195.04 354.08,226.31 355.2,226.31 355.2,173.75 345.13,173.75 345.13,205.55 310.52,173.75 309.44,173.75 309.44,226.31 "
       fill="#3c3c3c"
       id="polygon123" />
    <polygon
       class="st1"
       transform="matrix(0.8134,0,0,0.8134,81.43,-73.219)"
       points="363.32,173.75 363.32,182.67 378.43,182.67 378.43,226.31 388.5,226.31 388.5,182.67 403.54,182.67 403.54,173.75 "
       fill="#3c3c3c"
       id="polygon124" />
    <polygon
       class="st1"
       transform="matrix(0.8134,0,0,0.8134,81.43,-73.219)"
       points="492.19,204.18 466.36,173.82 465.71,173.82 465.71,226.31 475.78,226.31 475.78,199.79 492.19,219.58 508.66,199.79 508.66,226.31 518.74,226.31 518.74,173.82 518.09,173.82 "
       fill="#3c3c3c"
       id="polygon125" />
    <path
       class="st1"
       d="m 283.55,137.17 c -1.7,0.21148 -3.4325,0.36602 -5.1488,0.46363 -20.498,1.1794 -40.231,-5.7019 -55.555,-19.367 -15.324,-13.6651 -24.418,-32.479 -25.59,-52.985 -0.87847,-15.381 2.7981,-30.478 10.647,-43.663 l -6.9871,-4.1646 c -8.679,14.584 -12.754,31.275 -11.778,48.284 1.3014,22.669 11.347,43.476 28.298,58.589 15.707,14.007 35.594,21.563 56.466,21.563 1.6512,0 3.3105,-0.0488 4.9698,-0.14643 1.5617,-0.0895 3.1234,-0.23588 4.6771,-0.4067 z"
       fill="#3c3c3c"
       stroke-width="0.8134"
       id="path125" />
    <path
       class="st0"
       d="m 323.3,131.24 h -12.242 v 35.611 h -8.1991 V 131.24 h -12.299 v -7.2636 h 32.739 z"
       fill="#3070b3"
       stroke-width="0.8134"
       id="path126" />
    <path
       class="st0"
       d="m 457.94,159.58 v 7.2636 h -30.86 v -42.866 h 8.1991 v 35.611 h 22.661 z"
       fill="#3070b3"
       stroke-width="0.8134"
       id="path127" />
    <path
       class="st0"
       d="m 490.45,166.85 -17.976,-19.505 v 19.505 h -8.1991 v -42.866 h 8.1991 v 21.783 l 17.041,-21.726 h 10.07 l -17.626,22.141 19.326,20.677 h -10.834 z"
       fill="#3070b3"
       stroke-width="0.8134"
       id="path128" />
    <path
       class="st0"
       d="m 516.68,166.85 h -8.1991 v -42.809 h 8.1991 z"
       fill="#3070b3"
       stroke-width="0.8134"
       id="path129" />
    <path
       class="st0"
       d="m 555.63,131.24 h -12.242 v 35.611 h -8.1991 V 131.24 h -12.299 v -7.2636 h 32.739 z"
       fill="#3070b3"
       stroke-width="0.8134"
       id="path130" />
    <path
       class="st0"
       d="m 368.51,136.78 c -1.1713,-2.7086 -2.7656,-5.0756 -4.7747,-7.0847 -2.0091,-2.0091 -4.3598,-3.6034 -7.0603,-4.7746 -2.6924,-1.1713 -5.5881,-1.7569 -8.6708,-1.7569 -2.123,0 -4.1646,0.29282 -6.1167,0.86221 l 3.4651,7.0847 c 0.8622,-0.17896 1.7569,-0.27656 2.6761,-0.27656 1.944,0 3.766,0.39856 5.466,1.2038 1.6919,0.79713 3.1722,1.8627 4.4411,3.1885 1.2689,1.3258 2.2694,2.8794 3.0096,4.6526 0.7402,1.7732 1.1144,3.6196 1.1144,5.5311 0,1.9522 -0.37417,3.8067 -1.1144,5.5636 -0.74023,1.7569 -1.7407,3.3105 -3.0096,4.6526 -1.2689,1.3502 -2.7493,2.4239 -4.4411,3.2211 -1.6918,0.7972 -3.5139,1.2038 -5.466,1.2038 -1.9521,0 -3.766,-0.39857 -5.466,-1.2038 -1.6919,-0.79713 -3.1723,-1.8708 -4.4412,-3.2211 -1.2689,-1.3503 -2.2694,-2.8957 -3.0096,-4.6526 -0.74022,-1.7569 -1.1144,-3.6115 -1.1144,-5.5636 0,-1.9115 0.37414,-3.7579 1.1144,-5.5311 0.74019,-1.7732 1.7406,-3.3268 3.0096,-4.6526 0.13004,-0.13828 0.26838,-0.2603 0.40672,-0.39043 l -3.5952,-7.345 c -0.91915,0.67512 -1.7895,1.3909 -2.6029,2.1962 -2.0091,2.0091 -3.6033,4.3761 -4.7746,7.0847 -1.1713,2.7168 -1.7569,5.5962 -1.7569,8.6383 0,3.0828 0.58565,5.9704 1.7569,8.6708 1.1713,2.6924 2.7656,5.0431 4.7746,7.0603 2.0091,2.0091 4.3598,3.6034 7.0603,4.7746 2.6924,1.1713 5.5636,1.7569 8.6058,1.7569 3.0828,0 5.9703,-0.58564 8.6708,-1.7569 2.6924,-1.1713 5.0431,-2.7656 7.0603,-4.7746 2.0091,-2.0091 3.6033,-4.3598 4.7746,-7.0603 1.1713,-2.6924 1.7569,-5.5799 1.7569,-8.6708 0.009,-3.0421 -0.5775,-5.9215 -1.7488,-8.6302 z"
       fill="#3070b3"
       stroke-width="0.8134"
       id="path131" />
    <path
       class="st0"
       d="m 417.98,136.78 c -1.1713,-2.7086 -2.7656,-5.0756 -4.7747,-7.0847 -2.0091,-2.0091 -4.3598,-3.6034 -7.0603,-4.7746 -2.6924,-1.1713 -5.5881,-1.7569 -8.6708,-1.7569 -2.123,0 -4.1646,0.29282 -6.1168,0.86221 l 3.4651,7.0847 c 0.86221,-0.17896 1.7569,-0.27656 2.6761,-0.27656 1.944,0 3.766,0.39856 5.466,1.2038 1.6919,0.79713 3.1722,1.8627 4.4411,3.1885 1.2689,1.3258 2.2694,2.8794 3.0096,4.6526 0.7402,1.7732 1.1144,3.6196 1.1144,5.5311 0,1.9522 -0.37417,3.8067 -1.1144,5.5636 -0.74023,1.7569 -1.7407,3.3105 -3.0096,4.6526 -1.2689,1.3502 -2.7493,2.4239 -4.4411,3.2211 -1.6919,0.79713 -3.5139,1.2038 -5.466,1.2038 -1.9521,0 -3.766,-0.39857 -5.466,-1.2038 -1.6919,-0.79713 -3.1723,-1.8708 -4.4412,-3.2211 -1.2689,-1.3503 -2.2694,-2.8957 -3.0096,-4.6526 -0.74019,-1.7569 -1.1143,-3.6115 -1.1143,-5.5636 0,-1.9115 0.37414,-3.7579 1.1143,-5.5311 0.74022,-1.7732 1.7407,-3.3268 3.0096,-4.6526 0.13004,-0.13828 0.26838,-0.2603 0.40669,-0.39043 l -3.5952,-7.345 c -0.91914,0.67512 -1.7895,1.3909 -2.6029,2.1962 -2.0091,2.0091 -3.6033,4.3761 -4.7746,7.0847 -1.1713,2.7168 -1.757,5.5962 -1.757,8.6383 0,3.0828 0.58565,5.9704 1.757,8.6708 1.1713,2.6924 2.7655,5.0431 4.7746,7.0603 2.0091,2.0091 4.3598,3.6034 7.0603,4.7746 2.6924,1.1713 5.5636,1.7569 8.6058,1.7569 3.0828,0 5.9704,-0.58564 8.6708,-1.7569 2.6924,-1.1713 5.0431,-2.7656 7.0603,-4.7746 2.0091,-2.0091 3.6033,-4.3598 4.7746,-7.0603 1.1713,-2.6924 1.7569,-5.5799 1.7569,-8.6708 0.009,-3.0421 -0.5775,-5.9215 -1.7488,-8.6302 z"
       fill="#3070b3"
       stroke-width="0.8134"
       id="path132" />
    <g
       transform="matrix(0.8134,0,0,0.8134,272.64,54.969)"
       fill="#3070b3"
       id="g138">
      <path
         class="st0"
         d="M 102.64,0 81.914,-18.705 V 0 h -5.977 v -31.433 h 0.645 l 20.683,19.006 v -19.006 h 6.02 V 0 Z"
         id="path133" />
      <path
         class="st0"
         d="m 55.556,0.559 q -3.053,0 -5.547,-0.946 -2.494,-0.946 -4.257,-2.666 -1.763,-1.72 -2.752,-4.171 -0.946,-2.451 -0.946,-5.461 v -18.748 h 6.02 v 18.748 q 0,2.365 0.774,3.913 0.774,1.548 1.892,2.451 1.161,0.903 2.451,1.247 1.333,0.344 2.365,0.344 1.032,0 2.322,-0.344 1.333,-0.344 2.451,-1.247 1.161,-0.903 1.935,-2.451 0.774,-1.548 0.774,-3.913 v -18.748 h 6.02 v 18.748 q 0,3.01 -0.946,5.461 -0.946,2.451 -2.709,4.171 -1.763,1.72 -4.257,2.666 -2.494,0.946 -5.59,0.946 z"
         id="path134" />
      <path
         class="st0"
         d="M 35.131,-31.433 V 0 h -6.02 V -15.91 L 19.264,-4.085 9.46,-15.91 V 0 H 3.44 v -31.433 h 0.387 l 15.437,18.146 15.48,-18.146 z"
         id="path135" />
      <path
         class="st0"
         d="m 117.05,0 h -6.02 v -31.433 h 6.02 z"
         id="path136" />
      <path
         class="st0"
         d="M 184.9,-31.476 V 0 h -5.977 V -12.513 H 163.357 V 0 h -5.977 v -31.476 h 5.977 v 13.588 h 15.566 v -13.588 z"
         id="path137" />
      <path
         class="st0"
         d="m 152.74,-7.74 q -1.032,1.892 -2.537,3.44 -1.505,1.505 -3.354,2.623 -1.806,1.075 -3.956,1.677 -2.107,0.602 -4.386,0.602 -3.354,0 -6.321,-1.29 -2.967,-1.29 -5.203,-3.483 -2.193,-2.236 -3.483,-5.203 -1.29,-2.967 -1.29,-6.321 0,-3.354 1.29,-6.321 1.29,-2.967 3.483,-5.16 2.236,-2.236 5.203,-3.526 2.967,-1.29 6.321,-1.29 2.279,0 4.386,0.602 2.15,0.602 3.956,1.72 1.849,1.075 3.354,2.623 1.505,1.505 2.537,3.354 l -5.633,2.279 q -0.688,-1.032 -1.634,-1.935 -0.903,-0.903 -2.021,-1.591 -1.118,-0.688 -2.365,-1.075 -1.247,-0.387 -2.58,-0.387 -2.15,0 -4.042,0.903 -1.849,0.86 -3.225,2.322 -1.376,1.462 -2.193,3.44 -0.817,1.935 -0.817,4.042 0,2.15 0.817,4.085 0.817,1.935 2.193,3.397 1.376,1.462 3.225,2.365 1.892,0.86 4.042,0.86 1.333,0 2.58,-0.387 1.247,-0.387 2.365,-1.075 1.118,-0.688 2.021,-1.591 0.946,-0.946 1.634,-1.978 z"
         id="path138" />
    </g>
  </g>
  <g
     id="g41"
     inkscape:export-filename="logo-mqsc-light.svg"
     inkscape:export-xdpi="300"
     inkscape:export-ydpi="300"
     transform="matrix(0.98223653,0,0,0.98223653,430.24247,-120.04878)">
    <path
       id="path68-3"
       style="baseline-shift:baseline;display:inline;overflow:visible;vector-effect:none;fill:#3070b3;fill-opacity:1;stroke-width:1.60009;stroke-miterlimit:10;paint-order:markers fill stroke;enable-background:accumulate;stop-color:#000000"
       d="m -171.19004,291.54396 c -12.16456,0 -22.9982,5.75087 -29.92686,14.67973 h 3.34657 c 6.46093,-7.40504 15.96956,-12.0804 26.58029,-12.0804 10.61074,0 20.11947,4.67536 26.5808,12.0804 h 3.34554 c -6.92858,-8.92887 -17.76178,-14.67973 -29.92634,-14.67973 z m 0,7.23419 c -7.64223,-10e-6 -14.63553,2.80717 -20.00395,7.44554 h 4.23385 c 4.49076,-3.05873 9.91926,-4.84571 15.7701,-4.8457 5.85085,-1e-5 11.27936,1.78697 15.77009,4.8457 h 4.23489 c -5.3688,-4.63837 -12.36274,-7.44555 -20.00498,-7.44554 z m -51.14417,10.04486 v 0.002 c -7.30139,0.024 -14.05144,3.93371 -17.70383,10.25984 -3.66367,6.34566 -3.66367,14.17401 0,20.51967 3.65231,6.326 10.4021,10.23513 17.70331,10.25933 h 0.0682 31.935 c -1.47681,-1.38552 -2.80541,-2.9277 -3.9579,-4.59921 h -27.9771 c -5.69128,0 -10.94162,-3.03039 -13.78727,-7.9592 -2.84564,-4.9288 -2.84564,-10.99116 0,-15.91996 2.84565,-4.92881 8.09599,-7.96075 13.78727,-7.96075 v -0.002 h 28.02671 c 1.16135,-1.67337 2.49989,-3.21585 3.98787,-4.59972 h -32.0151 z m 70.14817,0 c 1.51414,1.38128 2.87728,2.92356 4.06022,4.59972 h 44.9647 v 0.002 c 5.691286,0 10.941623,3.03194 13.787269,7.96075 2.845644,4.9288 2.845644,10.99116 0,15.91996 -2.845646,4.92881 -8.095983,7.9592 -13.787269,7.9592 h -42.47389 v 4.59921 h 42.47389 0.0682 c 7.301211,-0.0242 14.051,-3.93333 17.703309,-10.25933 3.663668,-6.34566 3.663668,-14.17401 0,-20.51967 -3.652384,-6.32613 -10.402436,-10.23583 -17.703829,-10.25984 v -0.002 z m -20.4096,11.89333 c -0.58046,0.0193 -1.16004,0.0508 -1.73891,0.0951 -0.002,0.11584 -0.003,0.23205 -0.003,0.34829 0,0.78096 0.0369,1.55292 0.10903,2.31459 1.02506,-0.0808 2.05312,-0.12206 3.08198,-0.12505 3.25163,0.006 6.51309,0.41362 9.56945,1.19165 3.23997,0.82497 6.3723,2.0734 9.29142,3.70365 -0.0661,-1.11375 -0.22797,-2.20133 -0.47749,-3.25406 -6.12327,-3.03557 -12.99374,-4.52088 -19.83187,-4.27416 z m -6.34173,0.71159 c -3.66946,0.70426 -7.24266,1.9062 -10.59161,3.56464 -0.24893,1.05068 -0.41073,2.13586 -0.47697,3.24734 3.50845,-1.95671 7.3894,-3.3733 11.2174,-4.13876 -0.09,-0.88003 -0.14052,-1.77177 -0.14882,-2.67322 z m -11.06858,9.11003 c 0.0663,1.1149 0.22845,2.20345 0.47852,3.25717 5.00163,2.47874 10.51009,3.9157 16.08171,4.23075 -0.65601,-0.90014 -1.26105,-1.83958 -1.81074,-2.8143 -0.98665,-0.10286 -1.96478,-0.24253 -2.92851,-0.4191 -4.08874,-0.74659 -8.1372,-2.1994 -11.82098,-4.25452 z m 37.7207,0.004 c -3.68835,2.05561 -7.78619,3.51524 -11.80393,4.24883 -1.84228,0.33857 -3.72416,0.54023 -5.61052,0.60824 0.65539,0.89556 1.37118,1.74411 2.14148,2.53938 0.99074,-0.0864 1.97821,-0.20908 2.96054,-0.36897 4.11053,-0.64282 8.10956,-1.93745 11.83597,-3.78324 0.24857,-1.0498 0.41025,-2.13376 0.47646,-3.24424 z m -48.92312,21.92166 c 6.92455,8.99659 17.79994,14.79858 30.01833,14.79858 12.21839,0 23.09332,-5.80199 30.0178,-14.79858 h -3.33416 c -6.46307,7.47377 -16.01631,12.19925 -26.68364,12.19925 -10.66733,0 -20.22054,-4.72548 -26.68313,-12.19925 z m 9.87744,0 c 5.38616,4.70915 12.43369,7.5644 20.14089,7.56439 7.70721,1e-5 14.75446,-2.85524 20.14089,-7.56439 h -4.1982 c -4.52391,3.13118 -10.01657,4.96456 -15.94269,4.96455 -5.92612,10e-6 -11.41916,-1.83337 -15.94322,-4.96455 z" />
    <path
       id="path38-0"
       style="baseline-shift:baseline;display:inline;overflow:visible;vector-effect:none;fill:#3c3c3c;fill-opacity:1;stroke-width:1.60009;stroke-miterlimit:10;paint-order:markers fill stroke;enable-background:accumulate;stop-color:#000000"
       d="m -171.14563,305.89606 c -1.20824,0 -2.39551,0.0917 -3.55533,0.26871 -11.26976,1.7201 -19.94091,11.48511 -19.94091,23.22546 0,12.9486 10.54763,23.49624 23.49624,23.49624 4.89113,0 9.4394,-1.50488 13.20592,-4.07572 2.45257,0.68428 5.03633,1.05007 7.70392,1.05007 v -4.59921 c -1.15168,0 -2.28404,-0.0804 -3.39204,-0.23564 3.71467,-4.15756 5.97638,-9.63912 5.97638,-15.63574 0,-12.22268 -9.3992,-22.29266 -21.3434,-23.38462 0.003,-0.004 0.005,-0.007 0.008,-0.0109 -0.71103,-0.0652 -1.43088,-0.0987 -2.15853,-0.0987 z m 0,4.59972 c 10.46258,0 18.89446,8.43187 18.89446,18.89445 0,5.73249 -2.53106,10.85551 -6.54069,14.31592 -9.09819,-3.44239 -15.5453,-12.22327 -15.5453,-22.54643 0,-3.82659 0.88563,-7.44126 2.46393,-10.65051 0.2413,-0.009 0.48401,-0.0134 0.7276,-0.0134 z m -6.12107,1.00717 c -1.08211,3.01917 -1.67173,6.27048 -1.67173,9.65677 0,11.07417 6.30686,20.70492 15.51688,25.48889 -2.35616,1.05202 -4.96963,1.63607 -7.72408,1.63607 -10.46259,0 -18.89445,-8.43187 -18.89445,-18.89445 0,-8.31865 5.33012,-15.35345 12.77338,-17.88728 z m 68.04546,5.02295 c -1.76106,0 -3.42012,0.33863 -4.97799,1.01596 -1.55786,0.67734 -2.92389,1.60305 -4.09794,2.77709 -1.15146,1.15147 -2.06616,2.50596 -2.7435,4.06383 -0.67733,1.55787 -1.01596,3.21744 -1.01596,4.97851 0,1.76106 0.33863,3.42064 1.01596,4.97851 0.67734,1.55787 1.59204,2.9239 2.7435,4.09794 1.17405,1.15147 2.54008,2.06566 4.09794,2.74299 1.55787,0.67734 3.21693,1.01595 4.97799,1.01595 1.19663,0 2.34826,-0.15778 3.45457,-0.47387 1.12889,-0.3161 2.1673,-0.75641 3.11557,-1.32085 0.97084,-0.58703 1.85148,-1.2758 2.6417,-2.06602 0.790224,-0.8128 1.456468,-1.71598 1.998328,-2.7094 l -4.436418,-1.79472 c -0.36124,0.54187 -0.79056,1.06083 -1.28726,1.55753 -0.47413,0.47414 -1.00462,0.8919 -1.59164,1.25315 -0.58702,0.36124 -1.20766,0.64378 -1.86242,0.84698 -0.65475,0.2032 -1.33251,0.30437 -2.03243,0.30437 -1.12888,0 -2.18985,-0.22541 -3.18327,-0.67696 -0.97085,-0.47414 -1.81741,-1.09529 -2.5399,-1.86293 -0.72249,-0.76765 -1.29856,-1.65929 -1.72754,-2.67529 -0.42898,-1.016 -0.64337,-2.0885 -0.64337,-3.21738 0,-1.10632 0.21439,-2.16727 0.64337,-3.18327 0.42898,-1.03859 1.00505,-1.94175 1.72754,-2.70939 0.72249,-0.76764 1.56905,-1.37727 2.5399,-1.82883 0.99342,-0.47413 2.05439,-0.71107 3.18327,-0.71107 0.69992,0 1.37768,0.10118 2.03243,0.30438 0.65476,0.2032 1.2754,0.48572 1.86242,0.84697 0.58702,0.36124 1.11751,0.77903 1.59164,1.25316 0.4967,0.47413 0.92602,0.98206 1.28726,1.52393 l 4.436418,-1.79524 c -0.54186,-0.97085 -1.208104,-1.85146 -1.998328,-2.64169 -0.79022,-0.8128 -1.67086,-1.50106 -2.6417,-2.06551 -0.94827,-0.58701 -1.98668,-1.03887 -3.11557,-1.35496 -1.10631,-0.3161 -2.25794,-0.47387 -3.45457,-0.47387 z m -114.51911,0.0336 v 25.63719 h 4.74131 V 328.7851 l 7.7215,9.31364 7.7556,-9.31364 v 13.41158 h 4.74131 v -25.63719 h -0.30489 l -12.19202,14.29163 -12.15792,-14.29163 z m 88.67883,0 c -1.03858,0 -2.12209,0.11322 -3.25097,0.339 -1.10632,0.22577 -2.12218,0.6205 -3.04787,1.18494 -0.90311,0.54187 -1.6485,1.29827 -2.23553,2.26911 -0.58702,0.94827 -0.88056,2.14498 -0.88056,3.58996 0,0.99342 0.15831,1.86303 0.47439,2.60811 0.33867,0.72248 0.77898,1.35466 1.32085,1.89653 0.54187,0.51929 1.15149,0.95909 1.82883,1.32033 0.67733,0.33868 1.36559,0.6212 2.0655,0.84697 0.69991,0.2032 1.37768,0.37251 2.03244,0.50798 0.65476,0.11289 1.2303,0.21459 1.72702,0.3049 0.74506,0.13547 1.45638,0.28224 2.13372,0.44028 0.69991,0.15805 1.29802,0.3499 1.79473,0.57567 0.51929,0.22578 0.92552,0.51932 1.21904,0.88057 0.31608,0.33866 0.47439,0.75644 0.47439,1.25315 0,0.38383 -0.10169,0.77854 -0.30489,1.18494 -0.2032,0.38382 -0.50775,0.73398 -0.91415,1.05007 -0.4064,0.29351 -0.90332,0.54197 -1.49035,0.74517 -0.58702,0.18063 -1.26427,0.27079 -2.03192,0.27079 -1.44498,0 -2.83356,-0.30456 -4.16564,-0.91416 -1.30952,-0.63218 -2.58537,-1.37756 -3.82715,-2.23552 l -2.57349,3.79305 c 0.76765,0.54187 1.51252,1.03879 2.23501,1.49035 0.72249,0.45156 1.4899,0.84679 2.3027,1.18546 0.8128,0.31609 1.70495,0.56403 2.6758,0.74465 0.99342,0.2032 2.13353,0.30489 3.42047,0.30489 1.39982,0 2.67568,-0.15779 3.82715,-0.47387 1.15146,-0.3161 2.1448,-0.77894 2.98018,-1.38854 0.83538,-0.63218 1.47857,-1.42266 1.93012,-2.37092 0.45156,-0.94827 0.67747,-2.06584 0.67747,-3.35277 0,-1.10632 -0.1693,-2.04304 -0.50797,-2.81068 -0.31609,-0.79022 -0.74489,-1.44494 -1.28675,-1.96422 -0.51929,-0.54188 -1.11791,-0.98219 -1.79524,-1.32085 -0.67734,-0.33867 -1.3661,-0.60967 -2.06602,-0.81287 -0.67733,-0.2032 -1.34305,-0.36151 -1.99781,-0.47439 -0.63217,-0.11289 -1.18519,-0.22559 -1.65933,-0.33848 -0.63218,-0.15804 -1.28741,-0.31635 -1.96474,-0.47439 -0.67734,-0.15805 -1.29798,-0.34989 -1.86242,-0.57567 -0.56445,-0.22577 -1.02729,-0.50779 -1.38854,-0.84646 -0.36124,-0.33866 -0.54209,-0.75644 -0.54209,-1.25316 0,-0.49672 0.14677,-0.91448 0.44028,-1.25315 0.31609,-0.36124 0.70031,-0.6548 1.15187,-0.88057 0.47413,-0.22578 0.97053,-0.38355 1.48983,-0.47387 0.51928,-0.11288 0.98215,-0.1695 1.38855,-0.1695 1.19663,0 2.33672,0.21439 3.42046,0.64337 1.08373,0.42897 2.21282,1.05014 3.38687,1.86294 l 2.6417,-3.72536 c -0.76765,-0.54187 -1.49048,-1.00471 -2.16782,-1.38854 -0.65475,-0.4064 -1.33201,-0.73401 -2.03192,-0.98237 -0.69992,-0.27093 -1.45631,-0.4738 -2.26911,-0.60927 -0.8128,-0.13547 -1.73851,-0.2036 -2.77709,-0.2036 z" />
  </g>
</svg>
