<?xml version="1.0" encoding="UTF-8" standalone="no"?>
<svg
   width="2602.7327"
   height="922.52002"
   viewBox="0 0 688.64845 244.08132"
   version="1.1"
   id="svg20"
   xmlns="http://www.w3.org/2000/svg">
  <g
     fill="#1a8ab9"
     id="g1"
     transform="translate(0,0.00143203)">
    <path
       d="m 569.658,186.094 h 2.777 l 2.593,7.09 h 0.043 l 2.565,-7.09 h 2.79 v 9.98 h -1.761 v -8.02 h -0.028 l -3.03,8.02 h -1.241 l -2.988,-8.02 h -0.029 v 8.02 h -1.691 z m 19.058,9.979 h -1.607 v -1.085 h -0.028 q -0.226,0.507 -0.783,0.895 -0.555,0.388 -1.318,0.388 -0.662,0 -1.134,-0.233 a 2.2,2.2 0 0 1 -0.775,-0.613 2.5,2.5 0 0 1 -0.444,-0.874 3.7,3.7 0 0 1 -0.141,-1.015 v -4.228 h 1.691 v 3.749 q 0,0.296 0.042,0.62 0.043,0.325 0.184,0.585 0.14,0.26 0.387,0.43 0.246,0.17 0.656,0.17 a 1.45,1.45 0 0 0 1.19,-0.579 q 0.19,-0.254 0.29,-0.585 0.098,-0.33 0.098,-0.67 v -3.72 h 1.692 z m 2.029,-6.765 h 1.607 v 1.085 h 0.029 q 0.224,-0.508 0.782,-0.895 0.555,-0.388 1.318,-0.388 0.662,0 1.134,0.233 0.472,0.233 0.776,0.613 0.304,0.38 0.444,0.874 0.14,0.494 0.14,1.015 v 4.228 h -1.69 v -3.749 a 5,5 0 0 0 -0.043,-0.62 1.7,1.7 0 0 0 -0.183,-0.585 1.2,1.2 0 0 0 -0.388,-0.43 q -0.247,-0.17 -0.655,-0.17 -0.41,0 -0.705,0.163 -0.296,0.162 -0.487,0.416 -0.19,0.254 -0.288,0.585 -0.1,0.33 -0.1,0.67 v 3.72 h -1.69 z m 8.232,0 h 1.692 v 6.765 h -1.692 z m -0.24,-2.298 q 0,-0.408 0.303,-0.712 0.303,-0.303 0.769,-0.303 0.464,0 0.782,0.29 a 0.94,0.94 0 0 1 0.317,0.725 0.94,0.94 0 0 1 -0.317,0.726 q -0.317,0.29 -0.782,0.289 -0.466,0 -0.769,-0.303 a 0.97,0.97 0 0 1 -0.302,-0.712 m 8.612,4.174 q -0.198,-0.282 -0.592,-0.472 a 1.8,1.8 0 0 0 -0.804,-0.19 1.7,1.7 0 0 0 -1.402,0.69 q -0.232,0.31 -0.345,0.698 -0.114,0.388 -0.113,0.782 0,0.395 0.12,0.782 0.12,0.389 0.359,0.698 0.24,0.31 0.6,0.5 0.358,0.19 0.838,0.19 0.394,0.001 0.79,-0.154 0.394,-0.156 0.634,-0.451 l 1.057,1.07 a 2.8,2.8 0 0 1 -1.079,0.699 q -0.655,0.246 -1.416,0.246 -0.747,0 -1.417,-0.24 a 3.35,3.35 0 0 1 -1.17,-0.704 3.3,3.3 0 0 1 -0.79,-1.128 q -0.288,-0.662 -0.288,-1.508 0,-0.817 0.289,-1.48 0.288,-0.661 0.782,-1.128 0.493,-0.465 1.149,-0.718 0.655,-0.254 1.402,-0.254 0.747,0 1.445,0.282 0.698,0.282 1.107,0.775 z m -46.375,10.659 q -0.719,0 -1.346,0.268 a 3.3,3.3 0 0 0 -1.078,0.733 q -0.45,0.465 -0.712,1.113 -0.26,0.649 -0.26,1.41 0,0.804 0.246,1.459 0.247,0.655 0.69,1.12 0.445,0.466 1.065,0.726 0.62,0.261 1.367,0.261 0.733,0 1.36,-0.26 a 3.2,3.2 0 0 0 1.079,-0.727 q 0.45,-0.465 0.705,-1.12 a 4,4 0 0 0 0.253,-1.46 q 0,-0.76 -0.24,-1.409 a 3.2,3.2 0 0 0 -0.683,-1.113 3.2,3.2 0 0 0 -1.064,-0.733 3.5,3.5 0 0 0 -1.382,-0.268 m 5.991,8.64 h -6.019 q -1.199,0 -2.177,-0.345 a 4.7,4.7 0 0 1 -1.678,-1 4.4,4.4 0 0 1 -1.078,-1.608 q -0.38,-0.951 -0.38,-2.163 0,-1.141 0.4,-2.08 a 4.8,4.8 0 0 1 1.122,-1.613 q 0.718,-0.676 1.698,-1.05 a 5.9,5.9 0 0 1 2.121,-0.374 q 1.142,0 2.115,0.374 0.973,0.373 1.684,1.05 0.712,0.677 1.107,1.614 0.394,0.938 0.394,2.079 a 4.7,4.7 0 0 1 -0.557,2.262 4,4 0 0 1 -0.563,0.804 q -0.317,0.345 -0.656,0.585 v 0.028 h 2.467 z m 7.344,0 h -1.607 v -1.085 h -0.029 q -0.225,0.507 -0.782,0.895 -0.556,0.387 -1.318,0.387 -0.663,0 -1.135,-0.232 a 2.2,2.2 0 0 1 -0.775,-0.613 2.5,2.5 0 0 1 -0.444,-0.874 3.7,3.7 0 0 1 -0.14,-1.016 v -4.228 h 1.69 v 3.75 q 0,0.296 0.043,0.62 0.043,0.323 0.183,0.585 0.14,0.26 0.388,0.43 0.246,0.168 0.655,0.169 a 1.46,1.46 0 0 0 1.191,-0.578 q 0.19,-0.254 0.29,-0.585 0.098,-0.331 0.098,-0.67 v -3.721 h 1.691 z m 6.202,-3.087 h -0.38 q -0.41,0 -0.86,0.035 -0.45,0.035 -0.832,0.155 -0.38,0.12 -0.634,0.338 -0.255,0.219 -0.254,0.6 0,0.24 0.106,0.401 0.105,0.162 0.275,0.26 0.17,0.1 0.38,0.142 0.212,0.042 0.423,0.042 0.875,0 1.325,-0.465 0.45,-0.465 0.451,-1.269 z m 0.028,2.227 h -0.042 q -0.254,0.45 -0.817,0.74 -0.564,0.289 -1.283,0.29 -0.41,0 -0.853,-0.107 a 2.5,2.5 0 0 1 -0.817,-0.352 2.05,2.05 0 0 1 -0.62,-0.649 q -0.247,-0.401 -0.247,-0.993 0,-0.762 0.43,-1.213 0.43,-0.45 1.106,-0.69 0.676,-0.24 1.502,-0.317 0.824,-0.078 1.613,-0.078 v -0.17 q 0,-0.633 -0.458,-0.937 -0.458,-0.302 -1.092,-0.303 -0.535,0 -1.03,0.226 -0.492,0.226 -0.817,0.55 l -0.874,-1.03 q 0.579,-0.534 1.333,-0.803 a 4.6,4.6 0 0 1 1.529,-0.268 q 0.901,0 1.487,0.254 0.585,0.254 0.923,0.663 0.338,0.409 0.472,0.916 0.134,0.507 0.134,1.015 v 4.116 h -1.579 z m 3.552,-5.907 h 1.607 v 1.086 h 0.029 q 0.224,-0.508 0.782,-0.896 0.555,-0.387 1.318,-0.387 0.662,0 1.134,0.233 0.472,0.232 0.776,0.613 0.303,0.38 0.444,0.874 0.14,0.494 0.14,1.014 v 4.23 h -1.69 v -3.75 a 5,5 0 0 0 -0.043,-0.62 1.7,1.7 0 0 0 -0.183,-0.585 1.2,1.2 0 0 0 -0.388,-0.43 q -0.247,-0.17 -0.655,-0.17 -0.41,0 -0.705,0.163 -0.296,0.162 -0.487,0.415 -0.19,0.255 -0.288,0.585 -0.1,0.331 -0.1,0.67 v 3.721 h -1.69 z m 19.17,6.767 h -1.607 v -1.085 h -0.028 q -0.225,0.507 -0.782,0.895 -0.557,0.387 -1.318,0.387 -0.663,0 -1.135,-0.232 a 2.2,2.2 0 0 1 -0.775,-0.613 2.5,2.5 0 0 1 -0.444,-0.874 3.7,3.7 0 0 1 -0.141,-1.016 v -4.228 h 1.691 v 3.75 q 0,0.296 0.043,0.62 0.042,0.323 0.183,0.585 0.141,0.26 0.387,0.43 0.247,0.168 0.656,0.169 a 1.46,1.46 0 0 0 1.19,-0.578 q 0.192,-0.254 0.29,-0.585 0.099,-0.331 0.099,-0.67 v -3.721 h 1.691 z m 10.105,-6.964 q 0.662,0 1.134,0.233 0.473,0.231 0.776,0.613 0.303,0.38 0.444,0.874 0.14,0.494 0.14,1.014 v 4.229 h -1.69 v -3.75 q 0,-0.295 -0.043,-0.62 a 1.7,1.7 0 0 0 -0.183,-0.584 1.2,1.2 0 0 0 -0.388,-0.43 q -0.246,-0.17 -0.655,-0.17 -0.395,0 -0.677,0.17 a 1.5,1.5 0 0 0 -0.465,0.437 1.9,1.9 0 0 0 -0.268,0.599 2.6,2.6 0 0 0 -0.084,0.655 v 3.693 h -1.692 v -4.088 q 0,-0.634 -0.303,-1.05 -0.303,-0.416 -0.951,-0.416 -0.381,0 -0.663,0.163 -0.282,0.162 -0.458,0.415 -0.175,0.255 -0.268,0.585 -0.09,0.33 -0.091,0.67 v 3.721 h -1.692 v -6.766 h 1.607 v 1.086 h 0.028 q 0.113,-0.255 0.303,-0.48 0.19,-0.225 0.452,-0.408 0.26,-0.184 0.599,-0.29 0.337,-0.105 0.747,-0.105 0.79,0 1.31,0.352 0.522,0.353 0.804,0.93 a 2.4,2.4 0 0 1 0.902,-0.95 q 0.564,-0.332 1.325,-0.332 m -35.927,11.393 h 1.987 l 2.749,7.682 h 0.056 l 2.777,-7.682 h 1.917 l -4.003,9.98 h -1.537 z m 13.938,6.892 h -0.38 q -0.41,0 -0.86,0.035 a 3.8,3.8 0 0 0 -0.832,0.155 q -0.38,0.12 -0.634,0.339 -0.255,0.218 -0.254,0.6 0,0.239 0.106,0.4 0.105,0.163 0.275,0.261 0.17,0.099 0.38,0.141 0.212,0.043 0.423,0.043 0.874,0 1.325,-0.465 0.451,-0.465 0.451,-1.269 z m 0.028,2.227 h -0.042 q -0.254,0.452 -0.817,0.74 -0.564,0.29 -1.283,0.29 -0.41,0 -0.853,-0.106 a 2.5,2.5 0 0 1 -0.818,-0.353 2.05,2.05 0 0 1 -0.62,-0.648 q -0.246,-0.403 -0.246,-0.994 0,-0.76 0.43,-1.212 0.43,-0.45 1.106,-0.69 0.676,-0.24 1.501,-0.318 0.825,-0.078 1.614,-0.077 v -0.17 q 0,-0.633 -0.458,-0.937 -0.458,-0.303 -1.092,-0.303 -0.535,0 -1.03,0.226 -0.492,0.225 -0.817,0.55 l -0.874,-1.03 a 3.8,3.8 0 0 1 1.332,-0.803 4.6,4.6 0 0 1 1.53,-0.268 q 0.901,0 1.487,0.254 0.584,0.255 0.923,0.662 0.339,0.409 0.472,0.917 0.135,0.507 0.134,1.014 v 4.116 h -1.579 z m 15.872,-3.199 q 0,-0.324 -0.092,-0.62 a 1.4,1.4 0 0 0 -0.289,-0.522 1.4,1.4 0 0 0 -0.5,-0.36 1.8,1.8 0 0 0 -0.712,-0.133 q -0.76,0 -1.29,0.458 a 1.67,1.67 0 0 0 -0.585,1.177 z m 1.691,0.761 v 0.225 q 0,0.114 -0.014,0.226 h -5.145 a 1.67,1.67 0 0 0 0.62,1.191 q 0.268,0.219 0.607,0.345 0.338,0.127 0.704,0.127 0.634,0 1.072,-0.232 0.435,-0.233 0.718,-0.641 l 1.128,0.902 q -1,1.352 -2.904,1.353 a 4.1,4.1 0 0 1 -1.451,-0.247 3.4,3.4 0 0 1 -1.15,-0.698 q -0.485,-0.45 -0.76,-1.106 a 3.8,3.8 0 0 1 -0.275,-1.487 q 0,-0.817 0.275,-1.487 0.274,-0.67 0.754,-1.142 a 3.4,3.4 0 0 1 1.134,-0.733 q 0.657,-0.26 1.417,-0.26 0.705,0 1.304,0.232 0.599,0.232 1.036,0.69 0.436,0.459 0.683,1.142 0.247,0.684 0.247,1.6 m 0.621,-3.468 h 1.874 l 1.889,4.92 h 0.028 l 1.677,-4.92 h 1.762 l -3.2,8.218 q -0.183,0.465 -0.394,0.825 -0.21,0.36 -0.507,0.606 -0.297,0.246 -0.698,0.373 -0.402,0.127 -0.966,0.127 -0.21,0 -0.43,-0.02 a 3,3 0 0 1 -0.444,-0.078 l 0.141,-1.467 q 0.17,0.057 0.331,0.078 0.163,0.021 0.304,0.021 0.267,0 0.45,-0.063 a 0.8,0.8 0 0 0 0.31,-0.197 q 0.127,-0.135 0.226,-0.332 a 8,8 0 0 0 0.211,-0.465 l 0.339,-0.86 z m -14.603,6.766 h 1.691 v -9.987 h -1.691 z m 3.777,0 h 1.692 v -9.987 h -1.692 z M 615.72,190.83 a 2.5,2.5 0 0 0 -0.445,-0.874 2.24,2.24 0 0 0 -0.775,-0.613 q -0.472,-0.233 -1.135,-0.233 -0.38,0 -0.704,0.099 a 2.28,2.28 0 0 0 -1.022,0.627 1.6,1.6 0 0 0 -0.29,0.416 h -0.027 v -4.256 h -1.692 v 10.077 h 1.692 v -3.693 q 0,-0.338 0.098,-0.662 0.099,-0.324 0.297,-0.585 a 1.5,1.5 0 0 1 0.493,-0.416 q 0.296,-0.155 0.704,-0.155 0.409,0 0.656,0.17 0.245,0.168 0.38,0.43 0.134,0.26 0.177,0.577 0.042,0.318 0.042,0.613 v 3.721 h 1.691 v -4.228 a 3.7,3.7 0 0 0 -0.14,-1.015 m -19.86,14.24 v -1.354 h -1.69 v -1.959 h -0.003 v -0.383 h -1.662 v 2.342 h -1.183 v 1.353 h 1.184 v 3.158 q 0,0.493 0.092,0.923 0.09,0.43 0.338,0.761 0.246,0.332 0.67,0.521 0.422,0.19 1.099,0.19 0.282,10e-4 0.592,-0.049 0.31,-0.048 0.535,-0.133 l -0.056,-1.325 q -0.155,0.07 -0.352,0.106 a 2,2 0 0 1 -0.367,0.035 q -0.564,0 -0.726,-0.296 -0.162,-0.297 -0.162,-0.747 v -3.144 z m 83.163,10.568 c -8.438,3.577 -13.583,-3.178 -19.856,-12.131 11.752,-5.864 22.93,-6.814 26.05,0.542 1.357,3.202 -0.836,9.318 -6.194,11.59 m -21.898,-15.042 c -7.297,-10.436 -19.15,-18.239 -31.602,-12.96 a 41,41 0 0 0 -3.439,1.656 v 10.25 c 1.905,-1.241 3.7,-2.242 5.308,-2.924 7.917,-3.356 16.593,2.932 22.21,8.183 -8.132,5.501 -18.082,13.214 -27.518,20.057 v 0.032 h 6.246 c 8.365,-5.95 16.71,-12.085 23.88,-17.164 8.277,8.243 15.065,17.554 27.008,12.491 8.386,-3.555 11.088,-11.735 8.469,-17.914 -2.225,-5.248 -13.241,-9.885 -30.563,-1.707"
       id="path1" />
  </g>
  <path
     fill="#3070b3"
     d="m 61.08,180.28143 h 71.21 v 44.601 H 61.08 Z m -61.08,0 h 56.773 v 44.601 H 0 Z"
     class="st0"
     id="path2" />
  <path
     fill="#ffffff"
     d="m 85.347,217.32343 h 16.63 v -24.19 h 6.048 v 24.19 h 5.292 v -24.19 h 6.047 v 24.19 h 5.292 v -29.482 h -27.97 v 24.19 h -6.048 v -24.19 H 68.716 v 5.292 h 5.291 v 24.19 H 79.3 v -24.19 h 6.048 z M 9.898,188.59443 H 7.66 v -0.755 h 5.375 v 0.755 h -2.237 v 5.973 H 9.906 v -5.973 z m 6.892,4.423 c -0.107,0.537 -0.341,0.953 -0.711,1.232 -0.363,0.28 -0.824,0.424 -1.376,0.424 -0.393,0 -0.726,-0.068 -1.013,-0.197 a 1.96,1.96 0 0 1 -0.718,-0.529 2.3,2.3 0 0 1 -0.439,-0.809 4,4 0 0 1 -0.166,-1.028 q -0.002,-0.546 0.166,-1.013 0.17,-0.467 0.476,-0.809 0.306,-0.337 0.726,-0.529 c 0.28,-0.128 0.582,-0.189 0.915,-0.189 0.43,0 0.794,0.09 1.08,0.272 q 0.43,0.273 0.689,0.68 c 0.174,0.28 0.295,0.575 0.355,0.908 0.068,0.325 0.09,0.635 0.083,0.93 h -3.644 c -0.007,0.211 0.015,0.415 0.076,0.604 0.053,0.19 0.151,0.363 0.272,0.507 0.129,0.151 0.287,0.264 0.484,0.355 0.196,0.09 0.423,0.129 0.688,0.129 0.332,0 0.612,-0.076 0.831,-0.235 0.22,-0.158 0.363,-0.393 0.431,-0.718 h 0.794 z m -0.787,-1.353 a 1.6,1.6 0 0 0 -0.129,-0.537 1.4,1.4 0 0 0 -0.294,-0.438 1.5,1.5 0 0 0 -0.439,-0.295 1.3,1.3 0 0 0 -0.544,-0.106 c -0.204,0 -0.393,0.038 -0.56,0.106 q -0.25,0.114 -0.43,0.295 a 1.4,1.4 0 0 0 -0.28,0.438 c -0.068,0.167 -0.114,0.34 -0.121,0.53 h 2.797 z m 5.046,-0.407 a 1.2,1.2 0 0 0 -0.4,-0.718 c -0.205,-0.167 -0.47,-0.257 -0.81,-0.257 q -0.43,0 -0.725,0.159 c -0.197,0.105 -0.348,0.249 -0.469,0.423 a 1.9,1.9 0 0 0 -0.25,0.605 3.2,3.2 0 0 0 -0.075,0.71 q 0.002,0.34 0.083,0.658 0.08,0.317 0.25,0.567 0.168,0.251 0.438,0.4 0.272,0.15 0.658,0.152 0.58,0 0.922,-0.318 c 0.227,-0.211 0.363,-0.499 0.416,-0.87 h 0.816 q -0.135,0.895 -0.68,1.392 -0.546,0.498 -1.467,0.499 -0.553,0 -0.982,-0.182 a 2,2 0 0 1 -0.718,-0.514 2.3,2.3 0 0 1 -0.431,-0.786 3.2,3.2 0 0 1 -0.144,-1.005 c 0,-0.363 0.045,-0.703 0.144,-1.02 0.09,-0.318 0.234,-0.59 0.43,-0.832 0.19,-0.235 0.431,-0.424 0.719,-0.552 0.287,-0.136 0.62,-0.204 1.013,-0.204 0.28,0 0.536,0.03 0.778,0.098 0.242,0.068 0.454,0.166 0.643,0.302 q 0.284,0.204 0.453,0.522 c 0.114,0.211 0.19,0.461 0.22,0.748 h -0.832 z m 1.817,-3.417 h 0.801 v 2.57 h 0.015 a 1,1 0 0 1 0.272,-0.378 c 0.114,-0.106 0.242,-0.197 0.378,-0.257 0.136,-0.068 0.287,-0.114 0.439,-0.144 a 2.3,2.3 0 0 1 0.446,-0.045 c 0.317,0 0.59,0.045 0.801,0.128 q 0.317,0.135 0.522,0.37 c 0.128,0.16 0.226,0.34 0.28,0.56 0.052,0.22 0.082,0.454 0.082,0.718 v 3.206 h -0.8 v -3.296 c 0,-0.303 -0.092,-0.537 -0.265,-0.718 -0.174,-0.174 -0.416,-0.265 -0.726,-0.265 q -0.363,0 -0.635,0.113 a 1.2,1.2 0 0 0 -0.446,0.318 1.4,1.4 0 0 0 -0.272,0.484 2,2 0 0 0 -0.091,0.605 v 2.751 h -0.801 z m 5.262,1.851 h 0.756 v 0.77 h 0.015 c 0.166,-0.302 0.386,-0.52 0.658,-0.664 a 1.9,1.9 0 0 1 0.93,-0.22 c 0.317,0 0.59,0.046 0.8,0.129 q 0.318,0.134 0.522,0.37 c 0.129,0.16 0.227,0.34 0.28,0.56 0.053,0.219 0.083,0.453 0.083,0.718 v 3.205 h -0.801 v -3.296 c 0,-0.302 -0.09,-0.536 -0.265,-0.718 q -0.26,-0.263 -0.725,-0.264 -0.363,0 -0.635,0.113 a 1.2,1.2 0 0 0 -0.446,0.318 1.4,1.4 0 0 0 -0.272,0.483 2,2 0 0 0 -0.091,0.605 v 2.752 h -0.801 v -4.861 z m 6.139,-0.868 h -0.801 v -0.983 h 0.801 z m -0.801,0.87 h 0.801 v 4.868 h -0.801 z m 5.374,1.564 a 1.2,1.2 0 0 0 -0.4,-0.718 c -0.204,-0.167 -0.469,-0.257 -0.809,-0.257 q -0.431,0 -0.726,0.159 c -0.196,0.105 -0.347,0.249 -0.468,0.423 a 1.9,1.9 0 0 0 -0.25,0.605 3.2,3.2 0 0 0 -0.075,0.71 q 0.002,0.34 0.083,0.658 0.08,0.317 0.25,0.567 c 0.113,0.166 0.256,0.302 0.438,0.4 q 0.271,0.15 0.657,0.152 0.58,0 0.923,-0.318 0.337,-0.315 0.415,-0.87 h 0.817 q -0.137,0.895 -0.68,1.392 c -0.363,0.332 -0.855,0.499 -1.467,0.499 q -0.554,0 -0.983,-0.182 a 2,2 0 0 1 -0.718,-0.514 2.3,2.3 0 0 1 -0.43,-0.786 3.2,3.2 0 0 1 -0.145,-1.005 q -0.002,-0.544 0.144,-1.02 c 0.09,-0.318 0.234,-0.59 0.431,-0.832 0.189,-0.235 0.43,-0.424 0.718,-0.552 0.287,-0.136 0.62,-0.204 1.013,-0.204 0.28,0 0.537,0.03 0.779,0.098 0.242,0.068 0.453,0.166 0.642,0.302 q 0.284,0.204 0.454,0.522 c 0.113,0.211 0.189,0.461 0.219,0.748 h -0.831 z m 6.14,3.289 c -0.144,0.09 -0.333,0.128 -0.575,0.128 a 0.67,0.67 0 0 1 -0.491,-0.181 c -0.121,-0.121 -0.181,-0.31 -0.181,-0.575 -0.22,0.265 -0.477,0.454 -0.772,0.575 a 2.45,2.45 0 0 1 -0.944,0.181 c -0.22,0 -0.431,-0.022 -0.628,-0.075 a 1.4,1.4 0 0 1 -0.514,-0.242 1.2,1.2 0 0 1 -0.34,-0.423 1.4,1.4 0 0 1 -0.129,-0.628 c 0,-0.28 0.046,-0.499 0.144,-0.68 0.09,-0.174 0.22,-0.318 0.37,-0.424 a 1.9,1.9 0 0 1 0.53,-0.249 q 0.296,-0.088 0.604,-0.144 0.331,-0.065 0.628,-0.098 a 4,4 0 0 0 0.521,-0.09 0.75,0.75 0 0 0 0.356,-0.182 c 0.09,-0.076 0.128,-0.197 0.128,-0.34 0,-0.174 -0.03,-0.318 -0.098,-0.424 a 0.66,0.66 0 0 0 -0.257,-0.241 1.3,1.3 0 0 0 -0.348,-0.114 3,3 0 0 0 -0.378,-0.03 c -0.34,0 -0.62,0.068 -0.846,0.196 -0.227,0.129 -0.348,0.37 -0.37,0.734 h -0.802 c 0.015,-0.303 0.075,-0.56 0.189,-0.764 0.113,-0.204 0.264,-0.378 0.453,-0.506 q 0.287,-0.192 0.65,-0.28 0.363,-0.081 0.772,-0.083 0.329,0 0.657,0.045 c 0.22,0.03 0.416,0.099 0.59,0.197 q 0.262,0.147 0.423,0.408 c 0.106,0.174 0.159,0.408 0.159,0.688 v 2.502 c 0,0.19 0.007,0.325 0.03,0.416 0.023,0.091 0.099,0.128 0.22,0.128 a 0.7,0.7 0 0 0 0.241,-0.045 v 0.62 z m -1.3,-2.495 a 0.9,0.9 0 0 1 -0.28,0.129 5,5 0 0 1 -0.355,0.083 6,6 0 0 1 -0.401,0.053 c -0.144,0.015 -0.28,0.038 -0.408,0.06 a 3,3 0 0 0 -0.378,0.091 1,1 0 0 0 -0.31,0.159 0.75,0.75 0 0 0 -0.212,0.25 0.8,0.8 0 0 0 -0.083,0.377 q 0.002,0.195 0.083,0.333 c 0.053,0.09 0.121,0.166 0.204,0.219 a 0.9,0.9 0 0 0 0.295,0.121 2.01,2.01 0 0 0 1.036,-0.068 q 0.282,-0.113 0.46,-0.272 c 0.122,-0.114 0.205,-0.227 0.265,-0.355 a 1,1 0 0 0 0.084,-0.363 z m 2.114,-4.211 h 0.801 v 6.72 h -0.8 z m -32.2,15.655 q -0.002,1.28 -0.695,1.935 -0.692,0.658 -1.95,0.658 a 4.2,4.2 0 0 1 -1.165,-0.151 2.25,2.25 0 0 1 -0.87,-0.47 2.1,2.1 0 0 1 -0.543,-0.808 q -0.192,-0.487 -0.19,-1.157 v -4.293 h 0.893 v 4.293 c 0,0.598 0.158,1.051 0.483,1.369 0.325,0.317 0.787,0.468 1.376,0.468 0.575,0 1.006,-0.158 1.308,-0.468 0.295,-0.318 0.446,-0.771 0.446,-1.369 v -4.293 h 0.892 v 4.286 z m 1.19,-2.44 h 0.756 v 0.77 h 0.023 c 0.166,-0.302 0.385,-0.52 0.658,-0.664 a 1.9,1.9 0 0 1 0.93,-0.22 c 0.317,0 0.59,0.046 0.8,0.129 q 0.318,0.134 0.522,0.37 c 0.129,0.16 0.227,0.34 0.28,0.56 0.053,0.219 0.083,0.453 0.083,0.718 v 3.205 h -0.801 v -3.296 c 0,-0.302 -0.09,-0.536 -0.265,-0.718 q -0.26,-0.263 -0.725,-0.264 -0.363,0 -0.635,0.113 a 1.2,1.2 0 0 0 -0.446,0.318 c -0.121,0.136 -0.212,0.302 -0.273,0.483 a 2,2 0 0 0 -0.09,0.605 v 2.752 h -0.802 v -4.861 z m 5.983,-0.877 h -0.801 v -0.983 h 0.801 z m -0.801,0.877 h 0.801 v 4.868 h -0.801 z m 4.247,4.867 h -0.855 l -1.806,-4.868 h 0.892 l 1.368,4.06 h 0.015 l 1.33,-4.06 h 0.84 z m 6.671,-1.544 c -0.105,0.537 -0.34,0.953 -0.71,1.232 -0.363,0.28 -0.824,0.424 -1.376,0.424 -0.393,0 -0.726,-0.068 -1.013,-0.197 a 1.96,1.96 0 0 1 -0.718,-0.53 2.3,2.3 0 0 1 -0.439,-0.808 4,4 0 0 1 -0.166,-1.028 q -0.002,-0.546 0.166,-1.013 0.171,-0.467 0.477,-0.809 a 2.154,2.154 0 0 1 1.64,-0.718 q 0.649,0 1.081,0.272 0.429,0.272 0.688,0.68 c 0.174,0.28 0.295,0.575 0.355,0.908 0.068,0.325 0.091,0.635 0.084,0.93 h -3.644 q -0.014,0.319 0.076,0.604 c 0.053,0.19 0.15,0.363 0.272,0.507 0.128,0.15 0.287,0.264 0.484,0.355 0.196,0.09 0.423,0.129 0.687,0.129 0.333,0 0.613,-0.076 0.832,-0.235 0.22,-0.159 0.363,-0.393 0.43,-0.718 h 0.795 z m -0.786,-1.353 a 1.6,1.6 0 0 0 -0.128,-0.537 1.4,1.4 0 0 0 -0.295,-0.438 1.5,1.5 0 0 0 -0.438,-0.295 1.3,1.3 0 0 0 -0.545,-0.106 c -0.204,0 -0.393,0.038 -0.56,0.106 q -0.249,0.114 -0.43,0.295 a 1.4,1.4 0 0 0 -0.28,0.438 c -0.068,0.167 -0.113,0.34 -0.12,0.53 h 2.796 z m 1.757,-1.97 h 0.756 v 1.028 h 0.015 c 0.197,-0.393 0.431,-0.688 0.719,-0.877 0.28,-0.189 0.642,-0.28 1.073,-0.265 v 0.847 q -0.476,0.001 -0.816,0.129 a 1.3,1.3 0 0 0 -0.545,0.385 1.6,1.6 0 0 0 -0.302,0.62 c -0.06,0.242 -0.09,0.522 -0.09,0.832 v 2.17 h -0.802 v -4.87 z m 3.728,3.333 a 0.9,0.9 0 0 0 0.12,0.453 0.9,0.9 0 0 0 0.296,0.287 c 0.12,0.076 0.257,0.121 0.415,0.16 q 0.227,0.044 0.477,0.044 c 0.128,0 0.257,-0.007 0.393,-0.03 0.136,-0.015 0.264,-0.053 0.378,-0.106 a 0.75,0.75 0 0 0 0.287,-0.219 0.6,0.6 0 0 0 0.113,-0.37 0.52,0.52 0 0 0 -0.136,-0.378 1.1,1.1 0 0 0 -0.355,-0.242 4,4 0 0 0 -0.506,-0.159 q -0.284,-0.059 -0.59,-0.128 a 7,7 0 0 1 -0.582,-0.16 2,2 0 0 1 -0.507,-0.241 1.1,1.1 0 0 1 -0.362,-0.386 1.14,1.14 0 0 1 -0.137,-0.582 c 0,-0.242 0.053,-0.453 0.167,-0.627 0.113,-0.174 0.25,-0.318 0.423,-0.43 0.174,-0.114 0.37,-0.19 0.582,-0.243 0.22,-0.053 0.431,-0.083 0.643,-0.083 0.272,0 0.521,0.023 0.756,0.068 0.235,0.045 0.446,0.129 0.62,0.242 q 0.272,0.171 0.43,0.469 c 0.106,0.196 0.167,0.446 0.19,0.74 h -0.802 a 0.78,0.78 0 0 0 -0.393,-0.642 1.3,1.3 0 0 0 -0.348,-0.136 1.96,1.96 0 0 0 -0.756,-0.015 c -0.12,0.022 -0.234,0.053 -0.332,0.098 a 0.6,0.6 0 0 0 -0.242,0.197 0.5,0.5 0 0 0 -0.09,0.302 c 0,0.144 0.044,0.264 0.143,0.348 0.098,0.09 0.219,0.166 0.37,0.219 0.151,0.06 0.318,0.113 0.507,0.151 q 0.284,0.059 0.567,0.129 0.306,0.068 0.59,0.158 c 0.188,0.06 0.362,0.144 0.506,0.25 0.15,0.106 0.264,0.234 0.355,0.393 0.091,0.159 0.136,0.348 0.136,0.582 q 0,0.431 -0.181,0.726 a 1.4,1.4 0 0 1 -0.484,0.476 2.1,2.1 0 0 1 -0.665,0.257 3.5,3.5 0 0 1 -1.52,-0.015 2,2 0 0 1 -0.642,-0.28 1.4,1.4 0 0 1 -0.454,-0.506 1.8,1.8 0 0 1 -0.189,-0.771 z m 4.98,-4.21 h -0.801 v -0.983 h 0.801 z m -0.801,0.877 h 0.801 v 4.868 h -0.801 z m 3.057,0 h 0.967 v 0.703 h -0.967 v 3.024 q 0,0.136 0.022,0.226 a 0.23,0.23 0 0 0 0.09,0.129 c 0.046,0.03 0.107,0.053 0.182,0.06 0.076,0.008 0.182,0.015 0.303,0.015 h 0.37 v 0.704 h -0.612 c -0.204,0 -0.386,-0.016 -0.53,-0.046 a 0.8,0.8 0 0 1 -0.355,-0.159 0.7,0.7 0 0 1 -0.204,-0.317 1.8,1.8 0 0 1 -0.068,-0.544 v -3.1 h -0.831 v -0.703 h 0.831 v -1.459 h 0.801 z m 3.884,5.517 c -0.091,0.242 -0.19,0.438 -0.28,0.605 -0.09,0.167 -0.19,0.295 -0.295,0.4 a 0.9,0.9 0 0 1 -0.37,0.227 1.5,1.5 0 0 1 -0.469,0.068 c -0.09,0 -0.189,-0.007 -0.28,-0.015 a 1.6,1.6 0 0 1 -0.272,-0.068 v -0.733 c 0.076,0.022 0.151,0.053 0.234,0.075 a 0.9,0.9 0 0 0 0.242,0.038 0.62,0.62 0 0 0 0.393,-0.113 c 0.099,-0.076 0.19,-0.19 0.265,-0.333 l 0.333,-0.831 -1.928,-4.838 h 0.907 l 1.421,3.983 h 0.015 l 1.369,-3.983 h 0.846 z m -38.433,8.285 c 0,-0.355 0.052,-0.696 0.15,-1.005 a 2.18,2.18 0 0 1 1.195,-1.354 2.5,2.5 0 0 1 1.02,-0.196 c 0.386,0 0.719,0.068 1.02,0.196 q 0.445,0.193 0.742,0.545 c 0.204,0.226 0.355,0.499 0.453,0.809 0.098,0.31 0.151,0.642 0.151,1.005 q -0.002,0.533 -0.15,0.998 c -0.099,0.31 -0.25,0.574 -0.454,0.809 a 2.2,2.2 0 0 1 -0.741,0.544 2.5,2.5 0 0 1 -1.02,0.196 c -0.386,0 -0.734,-0.068 -1.021,-0.196 a 2.05,2.05 0 0 1 -0.741,-0.544 2.2,2.2 0 0 1 -0.454,-0.81 3.3,3.3 0 0 1 -0.15,-0.997 m 0.853,0 c 0,0.295 0.038,0.56 0.121,0.786 0.076,0.227 0.19,0.423 0.325,0.575 a 1.396,1.396 0 0 0 1.073,0.476 q 0.308,0.002 0.59,-0.121 c 0.182,-0.083 0.348,-0.197 0.484,-0.355 a 1.6,1.6 0 0 0 0.325,-0.575 c 0.076,-0.227 0.121,-0.491 0.121,-0.786 0,-0.295 -0.037,-0.56 -0.12,-0.786 a 1.7,1.7 0 0 0 -0.326,-0.582 1.3,1.3 0 0 0 -0.483,-0.356 1.4,1.4 0 0 0 -0.59,-0.12 1.41,1.41 0 0 0 -1.073,0.476 c -0.137,0.158 -0.25,0.347 -0.326,0.582 a 2.3,2.3 0 0 0 -0.12,0.786 m 5.034,-1.738 h -0.816 v -0.704 h 0.816 v -0.725 c 0,-0.393 0.113,-0.696 0.34,-0.9 0.227,-0.204 0.567,-0.302 1.006,-0.302 0.075,0 0.158,0.007 0.257,0.015 0.098,0.015 0.181,0.03 0.257,0.053 v 0.695 a 1,1 0 0 0 -0.227,-0.053 c -0.083,-0.007 -0.159,-0.015 -0.227,-0.015 q -0.295,0 -0.454,0.114 -0.158,0.113 -0.158,0.43 v 0.68 h 0.945 v 0.704 h -0.945 v 4.165 H 14.15 v -4.158 z m 5.043,-2.556 h 1.225 l 2.116,5.647 2.132,-5.647 H 25.9 v 6.72 h -0.847 v -5.593 H 25.03 l -2.101,5.594 h -0.764 l -2.101,-5.594 h -0.015 v 5.594 H 19.2 Z m 11.997,6.721 h -0.756 v -0.772 h -0.015 a 1.6,1.6 0 0 1 -0.658,0.666 1.9,1.9 0 0 1 -0.93,0.219 c -0.317,0 -0.59,-0.045 -0.801,-0.129 a 1.4,1.4 0 0 1 -0.522,-0.37 1.4,1.4 0 0 1 -0.28,-0.56 3,3 0 0 1 -0.083,-0.718 v -3.205 h 0.802 v 3.296 c 0,0.302 0.09,0.537 0.264,0.718 q 0.261,0.263 0.726,0.265 0.363,0 0.635,-0.114 a 1.2,1.2 0 0 0 0.446,-0.317 c 0.121,-0.136 0.212,-0.303 0.272,-0.484 0.06,-0.181 0.09,-0.386 0.09,-0.605 v -2.751 h 0.802 v 4.86 z m 1.096,-4.869 h 0.756 v 0.771 h 0.022 q 0.25,-0.451 0.658,-0.665 a 1.9,1.9 0 0 1 0.93,-0.22 c 0.317,0 0.59,0.046 0.801,0.13 q 0.318,0.133 0.522,0.37 c 0.128,0.159 0.227,0.34 0.28,0.56 0.053,0.218 0.083,0.453 0.083,0.717 v 3.206 h -0.802 v -3.296 c 0,-0.302 -0.09,-0.537 -0.264,-0.718 q -0.261,-0.263 -0.726,-0.265 -0.362,0 -0.635,0.114 a 1.2,1.2 0 0 0 -0.446,0.317 c -0.12,0.136 -0.212,0.302 -0.272,0.484 a 2,2 0 0 0 -0.09,0.605 v 2.751 h -0.802 v -4.86 z m 6.014,-0.876 h -0.801 v -0.983 h 0.801 z m -0.801,0.876 h 0.801 v 4.869 h -0.801 z m 5.249,1.566 a 1.2,1.2 0 0 0 -0.4,-0.719 c -0.205,-0.166 -0.47,-0.257 -0.81,-0.257 q -0.43,0 -0.725,0.159 c -0.197,0.106 -0.348,0.25 -0.469,0.423 a 1.9,1.9 0 0 0 -0.25,0.605 3.2,3.2 0 0 0 -0.075,0.71 q 0.002,0.34 0.083,0.658 0.08,0.317 0.25,0.567 c 0.113,0.166 0.257,0.302 0.438,0.4 q 0.271,0.15 0.658,0.152 c 0.385,0 0.695,-0.106 0.922,-0.318 0.227,-0.211 0.363,-0.498 0.416,-0.869 h 0.816 q -0.135,0.893 -0.68,1.391 -0.546,0.5 -1.467,0.499 -0.553,0 -0.983,-0.181 a 2,2 0 0 1 -0.718,-0.515 2.3,2.3 0 0 1 -0.43,-0.786 3.2,3.2 0 0 1 -0.144,-1.005 c 0,-0.363 0.045,-0.703 0.143,-1.02 0.091,-0.318 0.235,-0.59 0.431,-0.832 0.19,-0.235 0.431,-0.424 0.718,-0.552 0.288,-0.136 0.62,-0.204 1.013,-0.204 0.28,0 0.537,0.03 0.78,0.098 0.241,0.068 0.453,0.166 0.642,0.303 q 0.284,0.204 0.453,0.521 c 0.114,0.212 0.19,0.461 0.22,0.749 h -0.832 z m 1.66,-3.418 h 0.801 v 2.57 h 0.015 a 1,1 0 0 1 0.272,-0.378 c 0.114,-0.105 0.242,-0.196 0.378,-0.257 0.137,-0.068 0.288,-0.113 0.439,-0.143 a 2.3,2.3 0 0 1 0.446,-0.046 c 0.317,0 0.59,0.046 0.801,0.129 q 0.318,0.134 0.522,0.37 c 0.128,0.16 0.227,0.34 0.28,0.56 0.052,0.219 0.083,0.453 0.083,0.718 v 3.205 h -0.802 v -3.296 c 0,-0.302 -0.09,-0.536 -0.264,-0.718 q -0.261,-0.263 -0.726,-0.264 -0.363,0 -0.635,0.113 a 1.2,1.2 0 0 0 -0.446,0.318 1.4,1.4 0 0 0 -0.272,0.483 2,2 0 0 0 -0.09,0.605 v 2.752 h -0.802 z"
     class="st1"
     id="path3" />
  <g
     id="g13"
     transform="translate(0,0.00143203)">
    <g
       stroke-width="0"
       id="g11">
      <path
         fill="#333333"
         d="m 413.537,218.316 -0.05,5.588 -5.587,-0.634 -0.03,-5.507 z m 21.339,-15.432 -0.034,4.542 h -37.95 v -4.542 z"
         class="cls-3"
         id="path4" />
      <path
         fill="#231f20"
         d="m 396.892,202.884 3.041,-1 h 31.902 l 3.04,1 z m 10.978,14.879 8.637,-8.685 4.029,0.294 -6.999,8.944 z"
         class="cls-1"
         opacity="0.3"
         id="path5" />
      <path
         fill="#333333"
         d="m 404.94,182.684 0.182,6.067 -4.146,-0.164 -0.21,-5.869 z"
         class="cls-3"
         id="path6" />
      <path
         fill="#231f20"
         d="m 404.942,182.696 23.04,0.907 -0.12,4.056 -22.74,1.092 z"
         class="cls-4"
         opacity="0.4"
         id="path7" />
      <path
         fill="#333333"
         d="m 426.513,194.339 -0.198,5.887 -20.79,-4.965 -0.1,-4.09 z"
         class="cls-3"
         id="path8" />
      <path
         fill="#231f20"
         d="m 430.857,193.998 -4.344,0.34 -21.088,-3.167 3.598,-0.146 z"
         class="cls-1"
         opacity="0.3"
         id="path9" />
      <path
         fill="#231f20"
         d="m 479.973,204.753 -0.799,0.476 -3.013,0.028 0.85,-0.507 z"
         class="cls-4"
         opacity="0.4"
         id="path10" />
      <path
         fill="#1a1a1a"
         d="m 450.234,194.908 h 2.704 l 3.89,8.43 3.882,-8.442 h 2.686 l 0.015,12.598 h -2.614 l -0.01,-7.156 -3.326,7.162 H 456.2 l -3.326,-7.153 0.01,7.16 h -2.633 z m 18.573,11.809 c -1.07,-0.51 -1.9,-1.24 -2.482,-2.196 q -0.877,-1.433 -0.878,-3.363 -10e-4,-1.93 0.878,-3.42 a 6.1,6.1 0 0 1 2.423,-2.31 q 1.54,-0.822 3.434,-0.826 c 1.263,0 2.401,0.269 3.419,0.816 a 6.1,6.1 0 0 1 2.41,2.305 q 0.885,1.486 0.888,3.416 0,1.19 -0.548,2.308 -0.55,1.12 -1.376,1.788 h 2.2 v 2.234 l -6.637,0.01 c -1.417,0 -2.664,-0.251 -3.734,-0.762 z m 5.405,-2.097 a 3.32,3.32 0 0 0 1.386,-1.355 c 0.334,-0.597 0.504,-1.297 0.501,-2.101 q 0,-1.208 -0.517,-2.12 a 3.55,3.55 0 0 0 -1.407,-1.395 4.05,4.05 0 0 0 -1.993,-0.482 q -1.117,0.001 -2.01,0.488 a 3.6,3.6 0 0 0 -1.415,1.399 q -0.52,0.91 -0.52,2.12 0,1.837 1.096,2.873 1.09,1.035 2.858,1.034 1.136,0 2.02,-0.464 z m 9.322,2.899 q -1.136,-0.214 -1.86,-0.576 v -2.416 a 9,9 0 0 0 1.98,0.7 q 1.029,0.231 1.965,0.231 1.044,0 1.587,-0.362 0.543,-0.362 0.539,-1.011 0,-0.468 -0.273,-0.793 -0.27,-0.324 -0.786,-0.584 -0.515,-0.262 -1.577,-0.693 -1.77,-0.718 -2.562,-1.612 c -0.53,-0.597 -0.795,-1.33 -0.795,-2.21 0,-0.708 0.188,-1.336 0.575,-1.883 q 0.577,-0.821 1.621,-1.275 1.043,-0.45 2.417,-0.455 1.118,0 1.983,0.176 0.865,0.182 1.695,0.557 v 2.345 q -1.583,-0.788 -3.171,-0.788 c -0.674,0 -1.2,0.117 -1.587,0.352 q -0.576,0.353 -0.576,1.003 0,0.468 0.273,0.773 0.27,0.305 0.758,0.542 0.487,0.232 1.587,0.683 1.281,0.541 2.002,1.034 0.72,0.495 1.064,1.17 0.343,0.674 0.343,1.667 0.002,1.712 -1.231,2.67 -1.234,0.957 -3.685,0.959 -1.155,0 -2.29,-0.214 z m 10.615,-0.013 q -1.136,-0.213 -1.86,-0.575 v -2.416 a 9,9 0 0 0 1.98,0.699 q 1.029,0.231 1.965,0.232 1.044,0 1.587,-0.362 0.543,-0.362 0.539,-1.012 0,-0.47 -0.273,-0.792 -0.27,-0.324 -0.785,-0.585 -0.516,-0.26 -1.578,-0.693 -1.77,-0.718 -2.562,-1.609 -0.795,-0.89 -0.795,-2.209 c 0,-0.708 0.189,-1.336 0.575,-1.884 q 0.577,-0.82 1.621,-1.274 1.044,-0.45 2.417,-0.455 1.119,0 1.983,0.176 a 7.8,7.8 0 0 1 1.695,0.557 v 2.345 q -1.584,-0.789 -3.17,-0.789 c -0.675,0 -1.201,0.118 -1.588,0.353 q -0.575,0.353 -0.575,1.002 0,0.471 0.272,0.774 0.27,0.306 0.758,0.541 0.488,0.233 1.587,0.684 1.281,0.54 2.002,1.033 0.72,0.496 1.064,1.17 c 0.229,0.452 0.343,1.005 0.343,1.668 q 10e-4,1.712 -1.23,2.67 -1.236,0.957 -3.686,0.959 -1.155,0 -2.29,-0.214 z"
         class="cls-2"
         id="path11" />
    </g>
    <g
       fill="#1a1a1a"
       stroke="#414042"
       stroke-miterlimit="10"
       stroke-width="0.2"
       id="g12">
      <path
         stroke-width="0.061878"
         d="m 450.293,211.733 h 0.76 l 1.86,4.071 1.86,-4.071 h 0.76 v 5.222 h -0.739 v -3.713 l -1.695,3.713 h -0.374 l -1.705,-3.713 v 3.713 h -0.733 v -5.222 z m 6.547,4.947 q -0.37,-0.39 -0.369,-1.04 v -2.27 h 0.755 v 2.24 q 10e-4,0.859 0.86,0.86 0.757,0 1.182,-0.681 v -2.42 h 0.755 v 3.586 h -0.733 v -0.507 q -0.256,0.32 -0.6,0.47 a 1.9,1.9 0 0 1 -0.752,0.149 q -0.725,0 -1.095,-0.39 z m 4.148,-3.31 h 0.734 v 0.516 q 0.254,-0.32 0.625,-0.473 0.37,-0.154 0.773,-0.155 0.72,0 1.068,0.38 0.351,0.38 0.35,1.025 v 2.292 h -0.756 v -2.218 q 0.001,-0.874 -0.838,-0.876 a 1.4,1.4 0 0 0 -0.668,0.167 1.5,1.5 0 0 0 -0.536,0.51 v 2.414 h -0.755 v -3.586 z m 4.61,-0.83 a 0.43,0.43 0 0 1 -0.126,-0.312 q 0,-0.187 0.126,-0.313 a 0.43,0.43 0 0 1 0.313,-0.127 c 0.124,0 0.238,0.044 0.325,0.127 q 0.13,0.126 0.13,0.313 a 0.42,0.42 0 0 1 -0.13,0.312 0.45,0.45 0 0 1 -0.325,0.127 0.42,0.42 0 0 1 -0.313,-0.127 z m -0.068,0.83 h 0.77 v 3.585 h -0.77 z m 2.64,3.474 a 1.66,1.66 0 0 1 -0.721,-0.653 c -0.174,-0.288 -0.257,-0.625 -0.257,-1.021 0,-0.396 0.086,-0.733 0.257,-1.021 0.17,-0.285 0.414,-0.507 0.723,-0.662 a 2.4,2.4 0 0 1 1.071,-0.232 q 0.822,0 1.315,0.322 v 0.618 c -0.325,-0.222 -0.736,-0.337 -1.24,-0.337 q -0.615,0 -0.99,0.334 -0.377,0.335 -0.378,0.975 -10e-4,0.642 0.374,0.971 0.375,0.329 0.978,0.328 0.756,0 1.3,-0.359 v 0.613 q -0.26,0.18 -0.595,0.263 a 3.2,3.2 0 0 1 -0.78,0.084 q -0.597,0 -1.06,-0.223 z m 3.254,-5.408 h 0.755 v 2.428 q 0.515,-0.604 1.374,-0.606 0.72,0 1.067,0.38 0.351,0.38 0.35,1.025 v 2.292 h -0.755 v -2.218 q 0,-0.875 -0.839,-0.876 a 1.4,1.4 0 0 0 -0.668,0.167 1.5,1.5 0 0 0 -0.535,0.51 v 2.414 h -0.755 v -5.52 z m 8.477,5.197 a 2.4,2.4 0 0 1 -1.014,-0.915 q -0.363,-0.593 -0.362,-1.386 c 0,-0.53 0.12,-1.006 0.359,-1.417 q 0.356,-0.617 0.987,-0.957 0.627,-0.339 1.404,-0.34 0.777,0.001 1.405,0.34 c 0.417,0.226 0.749,0.545 0.987,0.957 q 0.358,0.615 0.359,1.417 0,0.635 -0.288,1.16 a 2.07,2.07 0 0 1 -0.758,0.804 h 1.13 v 0.656 h -2.699 q -0.85,0 -1.506,-0.322 z m 2.395,-0.597 q 0.449,-0.224 0.7,-0.662 0.25,-0.435 0.25,-1.042 c 0,-0.406 -0.087,-0.752 -0.26,-1.059 a 1.8,1.8 0 0 0 -0.708,-0.705 2.04,2.04 0 0 0 -1.003,-0.248 c -0.371,0 -0.702,0.084 -1.005,0.248 -0.304,0.164 -0.539,0.4 -0.715,0.702 a 2.1,2.1 0 0 0 -0.263,1.062 c 0,0.405 0.084,0.758 0.25,1.045 q 0.251,0.433 0.7,0.656 0.45,0.223 1.03,0.223 c 0.387,0 0.724,-0.074 1.024,-0.223 z m 2.813,0.644 q -0.37,-0.39 -0.369,-1.04 v -2.27 h 0.755 v 2.24 q 10e-4,0.859 0.86,0.86 0.757,0 1.182,-0.681 v -2.42 h 0.755 v 3.586 h -0.733 v -0.507 q -0.256,0.32 -0.6,0.47 a 1.9,1.9 0 0 1 -0.752,0.149 q -0.724,0 -1.095,-0.39 z m 4.278,0.055 q -0.394,-0.333 -0.393,-0.9 0,-0.598 0.378,-0.922 0.377,-0.325 1.073,-0.325 0.74,0 1.257,0.3 v -0.185 q -10e-4,-0.427 -0.257,-0.631 c -0.17,-0.137 -0.443,-0.205 -0.81,-0.205 q -0.331,0 -0.638,0.065 a 2.7,2.7 0 0 0 -0.557,0.177 v -0.613 c 0.148,-0.068 0.343,-0.127 0.582,-0.167 0.239,-0.04 0.47,-0.065 0.696,-0.065 q 0.89,0 1.318,0.393 c 0.284,0.26 0.43,0.625 0.43,1.086 v 2.218 h -0.709 v -0.402 a 1.5,1.5 0 0 1 -0.55,0.384 q -0.32,0.13 -0.774,0.13 -0.649,-0.001 -1.043,-0.331 z m 1.881,-0.383 a 0.97,0.97 0 0 0 0.434,-0.396 v -0.486 a 1.94,1.94 0 0 0 -1.083,-0.312 q -0.433,0 -0.647,0.167 -0.213,0.166 -0.213,0.51 c 0,0.44 0.284,0.656 0.86,0.656 q 0.357,10e-4 0.65,-0.142 z m 2.129,-2.982 h 0.733 v 0.516 q 0.255,-0.32 0.625,-0.473 0.371,-0.154 0.774,-0.155 0.72,0 1.067,0.38 0.351,0.38 0.35,1.025 v 2.292 h -0.755 v -2.218 q 0,-0.874 -0.839,-0.876 a 1.4,1.4 0 0 0 -0.668,0.167 1.5,1.5 0 0 0 -0.535,0.51 v 2.414 h -0.755 v -3.586 z m 5.025,3.384 q -0.296,-0.314 -0.294,-0.888 v -1.912 h -0.545 v -0.582 h 0.545 v -1.076 h 0.76 v 1.076 h 0.882 v 0.582 h -0.881 v 1.86 q 0,0.358 0.139,0.507 0.139,0.148 0.504,0.148 0.217,0.002 0.433,-0.096 v 0.598 a 2.2,2.2 0 0 1 -0.702,0.096 q -0.543,-0.001 -0.841,-0.313 z m 2.546,-0.074 q -0.37,-0.39 -0.368,-1.04 v -2.27 h 0.755 v 2.24 q 0,0.859 0.86,0.86 0.755,0 1.182,-0.681 v -2.42 h 0.754 v 3.586 h -0.733 v -0.507 q -0.256,0.32 -0.6,0.47 a 1.9,1.9 0 0 1 -0.752,0.149 q -0.724,0 -1.095,-0.39 z m 4.149,-3.31 h 0.718 v 0.516 q 0.255,-0.314 0.575,-0.47 a 1.5,1.5 0 0 1 0.665,-0.158 q 0.432,10e-4 0.687,0.145 0.254,0.144 0.374,0.446 0.24,-0.291 0.588,-0.44 0.347,-0.147 0.7,-0.148 0.657,0 0.95,0.331 0.29,0.333 0.29,0.98 v 2.383 h -0.733 v -2.286 q -10e-4,-0.44 -0.164,-0.625 -0.164,-0.182 -0.56,-0.183 -0.567,0 -0.925,0.492 0.015,0.113 0.015,0.365 v 2.234 h -0.733 v -2.286 q 0,-0.44 -0.148,-0.625 -0.15,-0.182 -0.539,-0.183 c -0.377,0 -0.718,0.214 -1.015,0.644 v 2.45 h -0.74 v -3.586 z m -54.113,11.53 a 2.8,2.8 0 0 1 -0.714,-0.213 V 224 q 0.715,0.336 1.547,0.337 1.165,0.002 1.166,-0.786 a 0.7,0.7 0 0 0 -0.127,-0.433 1.1,1.1 0 0 0 -0.365,-0.288 10,10 0 0 0 -0.776,-0.34 c -0.492,-0.198 -0.851,-0.418 -1.068,-0.656 q -0.329,-0.358 -0.328,-0.903 0,-0.41 0.223,-0.727 c 0.149,-0.21 0.359,-0.378 0.628,-0.492 0.27,-0.115 0.579,-0.177 0.925,-0.177 a 4,4 0 0 1 0.77,0.069 q 0.344,0.068 0.672,0.216 v 0.656 a 3.2,3.2 0 0 0 -1.315,-0.29 q -0.537,0 -0.823,0.194 a 0.63,0.63 0 0 0 -0.285,0.554 q -0.001,0.247 0.124,0.414 0.125,0.167 0.365,0.3 c 0.161,0.09 0.402,0.195 0.721,0.325 q 0.528,0.218 0.839,0.412 0.305,0.195 0.467,0.473 0.161,0.28 0.16,0.7 10e-4,0.677 -0.485,1.055 c -0.325,0.247 -0.801,0.374 -1.436,0.374 q -0.45,0 -0.885,-0.077 z m 4.341,-0.151 a 1.7,1.7 0 0 1 -0.718,-0.656 q -0.258,-0.432 -0.256,-1.012 c 0,-0.387 0.083,-0.72 0.253,-1.009 q 0.255,-0.43 0.718,-0.668 0.464,-0.236 1.067,-0.235 0.604,-0.001 1.068,0.235 0.463,0.236 0.72,0.668 0.257,0.432 0.258,1.01 c 0,0.383 -0.087,0.726 -0.257,1.01 a 1.7,1.7 0 0 1 -0.721,0.657 q -0.464,0.228 -1.068,0.229 -0.604,-0.001 -1.064,-0.23 z m 1.99,-0.727 q 0.343,-0.36 0.343,-0.94 c 0,-0.388 -0.114,-0.722 -0.343,-0.957 q -0.345,-0.353 -0.926,-0.353 -0.58,0 -0.925,0.353 -0.343,0.353 -0.343,0.956 c 0,0.402 0.114,0.702 0.343,0.94 q 0.345,0.36 0.925,0.36 0.582,0 0.926,-0.36 z m 1.927,-2.16 h -0.544 v -0.582 h 0.544 v -0.702 q 10e-4,-0.62 0.35,-0.944 0.352,-0.324 0.94,-0.324 0.306,0 0.576,0.09 v 0.627 a 1,1 0 0 0 -0.433,-0.096 q -0.352,0 -0.517,0.168 -0.163,0.166 -0.164,0.526 v 0.655 h 0.897 v 0.582 h -0.897 v 3.004 h -0.755 v -3.004 z m 2.673,2.803 q -0.296,-0.314 -0.294,-0.888 v -1.912 h -0.544 v -0.581 h 0.544 v -1.077 h 0.761 v 1.077 h 0.882 v 0.581 h -0.882 v 1.86 q 0,0.358 0.14,0.507 0.138,0.148 0.504,0.148 0.216,0.001 0.433,-0.095 v 0.597 a 2.2,2.2 0 0 1 -0.702,0.096 q -0.544,-0.001 -0.842,-0.313 z m 1.915,-3.385 h 0.77 l 0.808,2.661 0.798,-2.66 h 0.681 l 0.798,2.66 0.808,-2.66 h 0.776 l -1.166,3.585 h -0.724 l -0.83,-2.673 -0.828,2.673 h -0.734 z m 6.092,3.367 q -0.394,-0.335 -0.393,-0.9 0,-0.599 0.378,-0.923 0.377,-0.325 1.073,-0.325 0.74,0 1.256,0.3 v -0.185 q 0,-0.427 -0.256,-0.631 -0.257,-0.204 -0.811,-0.204 -0.33,0 -0.637,0.064 a 2.7,2.7 0 0 0 -0.557,0.177 v -0.613 c 0.148,-0.068 0.343,-0.127 0.581,-0.167 0.239,-0.04 0.47,-0.065 0.697,-0.065 q 0.89,0 1.318,0.393 c 0.284,0.26 0.43,0.625 0.43,1.086 v 2.218 h -0.709 v -0.402 a 1.5,1.5 0 0 1 -0.55,0.384 q -0.32,0.13 -0.774,0.13 -0.649,-0.001 -1.043,-0.331 z m 1.881,-0.387 a 0.97,0.97 0 0 0 0.433,-0.396 v -0.486 a 1.94,1.94 0 0 0 -1.082,-0.312 q -0.433,0 -0.647,0.167 -0.213,0.166 -0.214,0.51 c 0,0.44 0.285,0.656 0.86,0.656 q 0.358,0.001 0.65,-0.142 z m 2.129,-2.98 h 0.733 v 0.644 q 0.223,-0.329 0.631,-0.486 0.41,-0.158 0.944,-0.158 v 0.591 q -0.575,0 -0.987,0.186 a 1.03,1.03 0 0 0 -0.566,0.59 v 2.22 h -0.755 z m 3.171,3.203 q -0.562,-0.497 -0.563,-1.402 c 0,-0.603 0.167,-1.052 0.504,-1.395 q 0.507,-0.517 1.439,-0.517 0.62,-0.001 1.055,0.235 0.433,0.237 0.653,0.65 0.219,0.413 0.22,0.944 v 0.374 h -3.153 q 0.036,0.506 0.43,0.758 0.393,0.25 1.064,0.25 0.344,0 0.696,-0.064 0.351,-0.066 0.62,-0.168 v 0.607 a 3,3 0 0 1 -0.632,0.16 q -0.391,0.066 -0.774,0.066 -0.993,0 -1.559,-0.498 z m 2.596,-1.643 q -0.014,-0.506 -0.334,-0.79 -0.315,-0.279 -0.9,-0.28 c -0.39,0 -0.672,0.095 -0.882,0.29 q -0.315,0.291 -0.328,0.777 h 2.444 z m 4.857,2.06 a 2.8,2.8 0 0 1 -0.714,-0.213 V 224 q 0.715,0.336 1.547,0.337 1.165,0.002 1.166,-0.786 a 0.7,0.7 0 0 0 -0.127,-0.433 1.1,1.1 0 0 0 -0.365,-0.288 10,10 0 0 0 -0.776,-0.34 c -0.492,-0.198 -0.851,-0.418 -1.068,-0.656 q -0.329,-0.358 -0.328,-0.903 0,-0.41 0.223,-0.727 c 0.148,-0.21 0.359,-0.378 0.628,-0.492 0.27,-0.115 0.579,-0.177 0.925,-0.177 a 4,4 0 0 1 0.77,0.069 q 0.344,0.068 0.672,0.216 v 0.656 a 3.2,3.2 0 0 0 -1.315,-0.29 q -0.537,0 -0.823,0.194 a 0.63,0.63 0 0 0 -0.285,0.554 q -0.001,0.247 0.124,0.414 0.125,0.167 0.365,0.3 c 0.161,0.09 0.402,0.195 0.721,0.325 q 0.529,0.218 0.838,0.412 0.307,0.195 0.468,0.473 0.161,0.28 0.16,0.7 10e-4,0.677 -0.485,1.055 -0.486,0.372 -1.436,0.374 -0.45,0 -0.885,-0.077 z m 3.908,-0.235 q -0.295,-0.314 -0.294,-0.888 v -1.912 h -0.544 v -0.581 h 0.544 v -1.077 h 0.761 v 1.077 h 0.882 v 0.581 h -0.882 v 1.86 q 0,0.358 0.14,0.507 0.138,0.148 0.504,0.148 0.216,0.001 0.433,-0.095 v 0.597 a 2.2,2.2 0 0 1 -0.703,0.096 q -0.543,-0.001 -0.841,-0.313 z m 2.386,-0.018 q -0.395,-0.335 -0.394,-0.9 0,-0.599 0.378,-0.923 0.377,-0.325 1.073,-0.325 0.74,0 1.257,0.3 v -0.185 q -0.001,-0.427 -0.257,-0.631 c -0.17,-0.136 -0.443,-0.204 -0.81,-0.204 q -0.331,0 -0.638,0.064 a 2.7,2.7 0 0 0 -0.557,0.177 v -0.613 c 0.148,-0.068 0.343,-0.127 0.582,-0.167 0.239,-0.04 0.47,-0.065 0.696,-0.065 q 0.89,0 1.318,0.393 c 0.284,0.26 0.43,0.625 0.43,1.086 v 2.218 h -0.709 v -0.402 a 1.5,1.5 0 0 1 -0.55,0.384 q -0.32,0.13 -0.774,0.13 -0.649,-0.001 -1.043,-0.331 z m 1.877,-0.387 a 0.97,0.97 0 0 0 0.433,-0.396 v -0.486 a 1.94,1.94 0 0 0 -1.082,-0.312 q -0.433,0 -0.647,0.167 -0.213,0.166 -0.213,0.51 c 0,0.44 0.284,0.656 0.86,0.656 q 0.356,0.001 0.65,-0.142 z m 2.81,0.495 a 1.66,1.66 0 0 1 -0.721,-0.653 c -0.174,-0.288 -0.257,-0.625 -0.257,-1.02 0,-0.397 0.087,-0.734 0.257,-1.022 q 0.257,-0.428 0.724,-0.662 a 2.4,2.4 0 0 1 1.07,-0.232 q 0.823,0 1.315,0.322 v 0.618 q -0.486,-0.335 -1.24,-0.337 -0.614,0 -0.99,0.334 -0.377,0.335 -0.378,0.975 0,0.642 0.374,0.971 0.375,0.329 0.978,0.328 0.756,0 1.3,-0.358 v 0.612 q -0.26,0.18 -0.595,0.263 a 3.2,3.2 0 0 1 -0.78,0.084 q -0.597,0 -1.06,-0.223 z m 3.254,-5.408 h 0.755 v 5.52 h -0.755 z m 0.765,3.703 1.652,-1.77 h 0.919 l -1.659,1.77 1.832,1.816 h -0.919 l -1.822,-1.816 z"
         class="cls-5"
         id="path12" />
    </g>
  </g>
  <path
     fill="#3070b3"
     d="m 239.862,49.392432 a 124.6,124.6 0 0 0 -37.246,-5.686 c -22.954,0 -45.33,6.296 -64.014,17.87 v 6.28 c 18.383,-12.201 40.873,-18.887 64.014,-18.887 12.803,0 25.42,2.05 37.246,5.938 z m 0.14,33.935 c -11.867,3.92 -24.524,5.987 -37.384,5.987 -23.14,0 -45.632,-6.678 -64.014,-18.887 v 6.279 c 18.676,11.575 41.052,17.87 64.014,17.87 13.185,0 26.167,-2.082 38.376,-6.044 -0.496,-1.634 -0.821,-3.375 -0.992,-5.205 z"
     class="st0"
     id="path13" />
  <path
     fill="#3c3c3c"
     d="m 265.192,98.415432 c -2.774,0 -5.287,-0.431 -7.548,-1.285 -2.261,-0.854 -4.197,-2.066 -5.792,-3.628 -1.602,-1.562 -2.838,-3.449 -3.717,-5.677 q -1.317,-3.334 -1.317,-7.435 v -25.516 h 8.19 v 25.476 c 0,2.14 0.35,3.912 1.058,5.32 0.7,1.399 1.57,2.513 2.603,3.326 1.033,0.822 2.147,1.383 3.335,1.692 1.187,0.31 2.253,0.472 3.188,0.472 0.936,0 2.001,-0.154 3.189,-0.472 1.187,-0.309 2.302,-0.878 3.335,-1.692 1.033,-0.813 1.903,-1.927 2.602,-3.326 0.7,-1.4 1.058,-3.173 1.058,-5.32 v -25.476 h 8.19 v 25.516 c 0,2.733 -0.43,5.206 -1.284,7.435 -0.855,2.22 -2.09,4.115 -3.685,5.677 -1.603,1.562 -3.53,2.774 -5.792,3.628 -2.269,0.854 -4.799,1.285 -7.613,1.285 z m 168.48,0.06 c -2.774,0 -5.287,-0.431 -7.548,-1.285 -2.261,-0.854 -4.197,-2.066 -5.792,-3.628 -1.602,-1.562 -2.838,-3.457 -3.717,-5.677 q -1.317,-3.334 -1.317,-7.435 v -25.516 h 8.19 v 25.476 q -0.002,3.209 1.058,5.32 c 0.7,1.399 1.57,2.513 2.603,3.326 1.033,0.822 2.147,1.383 3.335,1.692 1.187,0.31 2.253,0.464 3.188,0.464 q 1.405,0 3.189,-0.464 c 1.187,-0.309 2.302,-0.878 3.335,-1.692 q 1.551,-1.23 2.603,-3.326 c 0.7,-1.4 1.057,-3.173 1.057,-5.32 v -25.476 h 8.19 v 25.516 c 0,2.733 -0.43,5.206 -1.284,7.435 q -1.293,3.332 -3.685,5.677 -2.401,2.345 -5.791,3.628 c -2.262,0.854 -4.808,1.285 -7.614,1.285 m -149.13,-0.79 22.028,-42.874 h 0.846 l 21.84,42.817 h -8.915 l -13.365,-26.777 -13.405,26.81 c 0.01,0 -9.028,-0.081 -9.028,0.024 z"
     class="st1"
     id="path14" />
  <path
     fill="#3c3c3c"
     d="m 254.682,103.23543 a 22,22 0 0 1 -2.058,-0.895 c -10.89,16.732 -29.746,27.834 -51.163,27.834 -33.65,0 -61.02,-27.379 -61.02,-61.019998 0,-33.643 27.378,-61.022 61.02,-61.022 26.248,0 48.657,16.675 57.247,39.98 h 8.606 c -8.931,-27.869 -35.057,-48.11499997 -65.853,-48.11499997 -38.132,0 -69.155,31.02299997 -69.155,69.15499997 0,38.131998 31.023,69.154998 69.155,69.154998 25.11,0 47.128,-13.454 59.248,-33.52 -0.252,-0.049 -0.496,-0.114 -0.74,-0.17 -1.863,-0.293 -3.628,-0.749 -5.287,-1.383 z m 86.65,-5.607998 v -25.436 l 28.119,25.435 h 0.91 v -42.752 h -8.19 v 25.867 l -28.152,-25.866 h -0.878 v 42.753 z m 35.635,-42.753 v 7.256 h 12.29 v 35.497 h 8.191 v -35.497 h 12.234 v -7.256 z m 104.823,24.752 -21.01,-24.695 h -0.53 v 42.696 h 8.192 v -21.572 l 13.347,16.097 13.397,-16.097 v 21.572 h 8.2 v -42.696 h -0.53 z"
     class="st1"
     id="path15" />
  <path
     fill="#3c3c3c"
     d="m 283.562,123.93543 c -1.7,0.211 -3.432,0.366 -5.149,0.464 -20.498,1.179 -40.23,-5.702 -55.555,-19.367 -15.324,-13.664998 -24.418,-32.479998 -25.59,-52.984998 -0.878,-15.381 2.798,-30.478 10.647,-43.663 l -6.987,-4.165 c -8.679,14.584 -12.754,31.275 -11.778,48.284 1.302,22.669 11.347,43.476 28.298,58.588998 15.707,14.007 35.594,21.563 56.466,21.563 q 2.478,0 4.97,-0.146 a 90,90 0 0 0 4.677,-0.407 z"
     class="st1"
     id="path16" />
  <path
     fill="#3070b3"
     d="M 323.312,118.00543 H 311.07 v 35.611 h -8.199 v -35.611 h -12.299 v -7.264 h 32.739 z m 134.64,28.34 v 7.264 h -30.86 v -42.866 h 8.2 v 35.61 h 22.66 z m 32.51,7.27 -17.976,-19.505 v 19.505 h -8.199 v -42.866 h 8.2 v 21.783 l 17.04,-21.726 h 10.07 l -17.626,22.141 19.326,20.677 h -10.834 z m 26.23,0 h -8.199 v -42.809 h 8.2 z m 38.95,-35.61 H 543.4 v 35.611 h -8.199 v -35.611 h -12.299 v -7.264 h 32.739 z m -187.12,5.54 c -1.171,-2.709 -2.765,-5.076 -4.775,-7.085 q -3.012,-3.016 -7.06,-4.774 c -2.692,-1.172 -5.588,-1.757 -8.67,-1.757 -2.124,0 -4.165,0.293 -6.117,0.862 l 3.465,7.085 a 13,13 0 0 1 2.676,-0.277 q 2.916,-0.002 5.466,1.204 a 14.9,14.9 0 0 1 4.44,3.188 c 1.27,1.326 2.27,2.88 3.01,4.653 a 14.2,14.2 0 0 1 1.115,5.531 c 0,1.952 -0.374,3.807 -1.114,5.564 a 15.4,15.4 0 0 1 -3.01,4.652 14.6,14.6 0 0 1 -4.441,3.221 c -1.692,0.798 -3.514,1.204 -5.466,1.204 -1.952,0 -3.766,-0.398 -5.466,-1.204 a 14.5,14.5 0 0 1 -4.441,-3.22 15.5,15.5 0 0 1 -3.01,-4.653 14.2,14.2 0 0 1 -1.114,-5.564 c 0,-1.911 0.374,-3.758 1.114,-5.53 0.74,-1.774 1.74,-3.328 3.01,-4.654 0.13,-0.138 0.268,-0.26 0.406,-0.39 l -3.595,-7.345 c -0.919,0.675 -1.79,1.39 -2.603,2.196 -2.009,2.01 -3.603,4.376 -4.774,7.085 q -1.758,4.075 -1.757,8.638 c 0,3.083 0.585,5.97 1.757,8.671 q 1.759,4.036 4.774,7.06 c 2.01,2.01 4.36,3.604 7.06,4.775 q 4.041,1.757 8.606,1.757 c 3.083,0 5.97,-0.586 8.671,-1.757 2.693,-1.171 5.043,-2.766 7.06,-4.775 q 3.017,-3.012 4.775,-7.06 1.757,-4.037 1.757,-8.67 c 0.009,-3.043 -0.578,-5.922 -1.749,-8.631 m 49.47,0 c -1.171,-2.709 -2.765,-5.076 -4.775,-7.085 q -3.012,-3.016 -7.06,-4.774 c -2.692,-1.172 -5.588,-1.757 -8.67,-1.757 -2.124,0 -4.165,0.293 -6.117,0.862 l 3.465,7.085 a 13,13 0 0 1 2.676,-0.277 q 2.916,-0.002 5.466,1.204 a 14.9,14.9 0 0 1 4.44,3.188 c 1.27,1.326 2.27,2.88 3.01,4.653 a 14.2,14.2 0 0 1 1.115,5.531 q -0.002,2.928 -1.115,5.564 a 15.4,15.4 0 0 1 -3.01,4.652 14.6,14.6 0 0 1 -4.44,3.221 c -1.692,0.798 -3.514,1.204 -5.466,1.204 -1.952,0 -3.766,-0.398 -5.466,-1.204 a 14.5,14.5 0 0 1 -4.441,-3.22 15.5,15.5 0 0 1 -3.01,-4.653 14.2,14.2 0 0 1 -1.114,-5.564 c 0,-1.911 0.374,-3.758 1.114,-5.53 0.74,-1.774 1.74,-3.328 3.01,-4.654 0.13,-0.138 0.268,-0.26 0.406,-0.39 l -3.595,-7.345 c -0.92,0.675 -1.79,1.39 -2.603,2.196 -2.009,2.01 -3.603,4.376 -4.774,7.085 q -1.757,4.075 -1.757,8.638 c 0,3.083 0.585,5.97 1.757,8.671 1.17,2.692 2.765,5.043 4.774,7.06 2.01,2.01 4.36,3.604 7.06,4.775 q 4.041,1.757 8.606,1.757 c 3.083,0 5.97,-0.586 8.671,-1.757 2.692,-1.171 5.043,-2.766 7.06,-4.775 q 3.017,-3.012 4.775,-7.06 1.757,-4.037 1.757,-8.67 c 0.009,-3.043 -0.578,-5.922 -1.749,-8.631 z"
     class="st0"
     id="path17" />
  <g
     fill="#3070b3"
     id="g18"
     transform="translate(0,0.00143203)">
    <path
       d="M 356.14,41.733 339.28,26.518 v 15.215 h -4.862 V 16.165 h 0.525 l 16.823,15.46 v -15.46 h 4.897 v 25.568 z m -38.299,0.455 q -2.483,0 -4.512,-0.77 -2.029,-0.77 -3.462,-2.168 -1.433,-1.398 -2.239,-3.393 -0.77,-1.994 -0.77,-4.442 v -15.25 h 4.898 v 15.25 q 0,1.924 0.63,3.183 0.629,1.259 1.538,1.994 0.944,0.734 1.994,1.014 1.084,0.28 1.923,0.28 0.84,0 1.89,-0.28 1.083,-0.28 1.993,-1.014 0.944,-0.735 1.574,-1.994 0.63,-1.26 0.63,-3.183 v -15.25 h 4.896 v 15.25 q 0,2.448 -0.77,4.442 -0.769,1.994 -2.203,3.393 -1.434,1.399 -3.463,2.168 -2.029,0.769 -4.547,0.77 M 301.228,16.165 v 25.568 h -4.897 V 28.792 l -8.01,9.618 -7.974,-9.618 V 41.733 H 275.45 V 16.165 h 0.315 l 12.556,14.76 12.592,-14.76 z m 66.632,25.568 h -4.896 V 16.165 h 4.897 z M 423.05,16.13 v 25.603 h -4.862 V 31.555 h -12.661 v 10.178 h -4.862 V 16.13 h 4.862 v 11.053 h 12.661 V 16.13 Z m -26.16,19.307 q -0.839,1.54 -2.063,2.798 -1.224,1.225 -2.728,2.134 -1.469,0.874 -3.218,1.364 -1.714,0.49 -3.567,0.49 -2.728,0 -5.142,-1.05 -2.413,-1.049 -4.232,-2.833 -1.784,-1.818 -2.833,-4.232 -1.05,-2.413 -1.05,-5.141 0,-2.728 1.05,-5.142 1.05,-2.413 2.833,-4.197 1.819,-1.819 4.232,-2.868 2.414,-1.05 5.142,-1.05 1.853,0 3.567,0.49 1.75,0.49 3.218,1.4 1.504,0.874 2.728,2.133 1.224,1.224 2.064,2.728 l -4.582,1.854 q -0.56,-0.84 -1.33,-1.574 -0.734,-0.735 -1.643,-1.294 -0.91,-0.56 -1.924,-0.875 -1.014,-0.315 -2.098,-0.314 -1.75,0 -3.288,0.734 -1.504,0.7 -2.623,1.889 -1.119,1.189 -1.784,2.798 -0.665,1.574 -0.665,3.288 0,1.749 0.665,3.322 0.665,1.574 1.784,2.764 1.119,1.19 2.623,1.923 1.539,0.7 3.288,0.7 1.084,0 2.098,-0.315 1.015,-0.315 1.924,-0.874 0.91,-0.56 1.644,-1.295 0.77,-0.769 1.329,-1.608 z"
       class="st0"
       id="path18" />
  </g>
  <path
     d="m 262.01215,163.06513 a 40.509617,40.509617 0 0 0 -33.18856,17.28133 h -17.95625 a 23.169689,23.169689 0 0 0 -23.16942,23.16943 23.169689,23.169689 0 0 0 23.16942,23.16995 h 17.8746 a 40.509617,40.509617 0 0 0 33.27021,17.39812 40.509617,40.509617 0 0 0 33.27024,-17.39812 h 34.82725 5.2e-4 a 23.169689,23.169689 0 0 0 23.16942,-23.16995 23.169689,23.169689 0 0 0 -23.16994,-23.16943 h -34.9089 a 40.509617,40.509617 0 0 0 -33.18859,-17.28133 z"
     fill="#ffffff"
     fill-opacity="1"
     opacity="1"
     id="contour"
     style="stroke-width:1.00001" />
  <path
     d="m 262.09233,166.31861 c -11.94895,0 -22.58955,5.64788 -29.39549,14.41928 h 3.28756 c 6.34527,-7.27348 15.68637,-11.86546 26.10793,-11.86546 10.42157,0 19.76267,4.59198 26.10794,11.86546 h 3.28658 c -6.80496,-8.7714 -17.44557,-14.41928 -29.39452,-14.41928 m 0,7.10552 a 29.95832,29.95832 0 0 0 -19.64872,7.31376 h 4.1588 a 27.404496,27.404496 0 0 1 15.48992,-4.75993 c 5.74611,0 11.07967,1.75526 15.48993,4.75993 h 4.15979 a 29.95832,29.95832 0 0 0 -19.64972,-7.31376 m -50.23568,9.86661 v 0.002 a 20.165387,20.165387 0 0 0 -17.38958,10.07778 20.165387,20.165387 0 0 0 0,20.15557 20.165387,20.165387 0 0 0 17.3886,10.0768 h 31.43463 a 27.99384,27.99384 0 0 1 -3.88673,-4.51831 h -27.48111 a 15.627438,15.627438 0 0 1 -13.54214,-7.81764 15.627438,15.627438 0 0 1 0,-15.63727 15.627438,15.627438 0 0 1 13.54214,-7.81863 v -0.002 h 27.52924 a 27.895616,27.895616 0 0 1 3.91718,-4.5183 h -31.44642 z m 68.90217,0 a 27.895616,27.895616 0 0 1 3.9879,4.5183 h 44.16642 v 0.002 a 15.627438,15.627438 0 0 1 13.54214,7.81863 15.627438,15.627438 0 0 1 0,15.63727 15.627438,15.627438 0 0 1 -13.54214,7.81863 h -41.71966 v 4.51732 h 41.78645 a 20.165387,20.165387 0 0 0 17.3886,-10.07779 20.165387,20.165387 0 0 0 0,-20.15556 20.165387,20.165387 0 0 0 -17.3886,-10.0768 v -0.002 z m -20.04752,11.68178 q -0.85454,0.0295 -1.70811,0.0933 -0.003,0.17091 -0.003,0.3428 0,1.1502 0.10805,2.2729 a 40.27184,40.27184 0 0 1 3.02628,-0.12278 c 3.19425,0.006 6.39831,0.40665 9.40004,1.17083 a 37.914464,37.914464 0 0 1 9.12599,3.63822 18.66256,18.66256 0 0 0 -0.46853,-3.19621 40.76296,40.76296 0 0 0 -19.47978,-4.19907 z m -6.22838,0.69935 a 40.861184,40.861184 0 0 0 -10.40388,3.50169 18.66256,18.66256 0 0 0 -0.46853,3.18933 38.30736,38.30736 0 0 1 11.01778,-4.06549 q -0.1326,-1.29656 -0.14537,-2.62553 m -10.87241,8.94821 q 0.0982,1.64427 0.47049,3.19915 a 40.861184,40.861184 0 0 0 15.7954,4.15488 q -0.96652,-1.32701 -1.77785,-2.76304 a 37.32512,37.32512 0 0 1 -2.87698,-0.41254 38.012688,38.012688 0 0 1 -11.61106,-4.17845 m 37.05009,0.004 a 38.30736,38.30736 0 0 1 -11.59338,4.17353 c -1.80929,0.332 -3.65786,0.53041 -5.51037,0.59721 a 23.57376,23.57376 0 0 0 2.102,2.49489 q 1.46157,-0.1277 2.90841,-0.36343 a 40.27184,40.27184 0 0 0 11.62579,-3.71582 c 0.24458,-1.03135 0.40272,-2.0961 0.46853,-3.18638 m -48.05314,21.53266 c 6.80103,8.83623 17.48387,14.53519 29.48488,14.53519 12.001,0 22.68286,-5.69896 29.48488,-14.53519 h -3.27479 c -6.34822,7.34028 -15.73254,11.98235 -26.21009,11.98235 -10.47756,0 -19.8609,-4.64207 -26.20911,-11.98333 z m 9.70158,0 a 29.95832,29.95832 0 0 0 19.7833,7.42966 29.95832,29.95832 0 0 0 19.78231,-7.42966 h -4.12246 a 27.404496,27.404496 0 0 1 -15.65985,4.87584 27.404496,27.404496 0 0 1 -15.65986,-4.87584 z"
     fill="#3070b3"
     fill-opacity="1"
     stroke-width="1.57167"
     stroke-miterlimit="10"
     opacity="1"
     id="path19" />
  <path
     d="m 262.13555,180.41572 q -1.78178,0.002 -3.49186,0.26422 c -11.06985,1.68945 -19.58587,11.28103 -19.58587,22.81253 0,12.71902 10.35969,23.07871 23.07773,23.07871 4.80414,0 9.27235,-1.47729 12.97146,-4.00263 a 28.092064,28.092064 0 0 0 7.56718,1.03135 v -4.5183 q -1.69731,-9.9e-4 -3.33176,-0.23083 a 22.984416,22.984416 0 0 0 5.87085,-15.3583 c 0,-12.00494 -9.23305,-21.8961 -20.96493,-22.9687 l 0.008,-0.0108 a 23.57376,23.57376 0 0 0 -2.11967,-0.0972 z m 0,4.5183 a 18.525046,18.525046 0 0 1 18.55943,18.55845 18.505402,18.505402 0 0 1 -6.42385,14.06174 23.642517,23.642517 0 0 1 -15.2699,-22.14558 c 0,-3.75903 0.86928,-7.30983 2.42023,-10.46086 q 0.35558,-0.0137 0.71409,-0.0137 m -6.01131,0.98912 a 28.092064,28.092064 0 0 0 -1.6423,9.48549 c 0,10.87733 6.194,20.33728 15.24043,25.03632 a 18.564336,18.564336 0 0 1 -7.58682,1.60694 18.525046,18.525046 0 0 1 -18.55844,-18.55942 18.525046,18.525046 0 0 1 12.54615,-17.56933 m 66.83652,4.93379 q -2.59409,0 -4.88959,0.99796 a 12.965568,12.965568 0 0 0 -4.02522,2.72768 12.76912,12.76912 0 0 0 -2.69526,3.99182 12.130664,12.130664 0 0 0 -0.99796,4.88959 q 0,2.5941 0.99796,4.89057 a 13.26024,13.26024 0 0 0 2.69526,4.02522 13.26024,13.26024 0 0 0 4.02522,2.69429 12.130664,12.130664 0 0 0 4.88959,0.99795 q 1.76214,0 3.39266,-0.46558 a 12.572672,12.572672 0 0 0 3.06066,-1.29754 13.75136,13.75136 0 0 0 2.59508,-2.02931 12.179776,12.179776 0 0 0 1.96251,-2.66187 l -4.35721,-1.76213 a 10.018848,10.018848 0 0 1 -1.26513,1.52934 8.545488,8.545488 0 0 1 -1.56274,1.23075 8.054368,8.054368 0 0 1 -1.82992,0.83196 6.679232,6.679232 0 0 1 -1.99591,0.29958 7.465024,7.465024 0 0 1 -3.12745,-0.66498 8.545488,8.545488 0 0 1 -2.49489,-1.82991 8.741936,8.741936 0 0 1 -1.69633,-2.62749 8.054368,8.054368 0 0 1 -0.63158,-3.16085 q 0,-1.62954 0.63158,-3.12647 a 8.643712,8.643712 0 0 1 1.69731,-2.66187 8.054368,8.054368 0 0 1 2.49489,-1.79553 7.170352,7.170352 0 0 1 3.12647,-0.69838 q 1.03135,-9.8e-4 1.99591,0.2986 a 8.054368,8.054368 0 0 1 1.82992,0.83196 8.545488,8.545488 0 0 1 1.56274,1.23075 q 0.73177,0.69837 1.26513,1.49693 l 4.35721,-1.76312 a 11.78688,11.78688 0 0 0 -1.96251,-2.59508 12.081552,12.081552 0 0 0 -2.59508,-2.02832 11.78688,11.78688 0 0 0 -3.06066,-1.33094 12.278,12.278 0 0 0 -3.39266,-0.46558 m -112.48612,0.0324 v 25.18267 h 4.65778 v -13.1738 l 7.58388,9.14858 7.61825,-9.14858 v 13.1738 h 4.6568 v -25.18267 h -0.29958 l -11.97547,14.03818 -11.9411,-14.03818 z m 87.10504,0 q -1.53229,0 -3.19326,0.33397 a 9.233056,9.233056 0 0 0 -2.99387,1.16297 q -1.33093,0.79856 -2.19629,2.22968 -0.86437,1.39675 -0.86437,3.52624 0,1.46354 0.46558,2.56169 a 6.581008,6.581008 0 0 0 1.29656,1.86232 q 0.79954,0.76615 1.7975,1.29656 0.99697,0.50094 2.02832,0.83196 1.03136,0.30056 1.9969,0.49898 0.96358,0.16698 1.69633,0.29958 1.09814,0.20038 2.09512,0.43218 1.03135,0.23378 1.76312,0.56577 0.76614,0.33397 1.19833,0.86438 0.4646,0.50094 0.4646,1.23172 0,0.56577 -0.2986,1.16396 -0.29959,0.56577 -0.89875,1.03135 -0.59917,0.43219 -1.46354,0.73177 -0.86437,0.2652 -1.99591,0.26619 a 9.724176,9.724176 0 0 1 -4.09103,-0.89777 28.092064,28.092064 0 0 1 -3.76002,-2.19629 l -2.5273,3.72564 a 47.14752,47.14752 0 0 0 2.19531,1.46353 q 1.06376,0.66596 2.2621,1.16494 1.19735,0.46558 2.62749,0.73177 1.46452,0.29958 3.35926,0.29958 2.0627,0 3.76001,-0.46558 1.69633,-0.46656 2.92708,-1.36433 a 6.2470464,6.2470464 0 0 0 1.89572,-2.32791 q 0.66596,-1.39773 0.66596,-3.29345 0,-1.63052 -0.49898,-2.76108 -0.46558,-1.16395 -1.26414,-1.92912 a 6.38456,6.38456 0 0 0 -1.76312,-1.29753 12.081552,12.081552 0 0 0 -2.02931,-0.79857 16.69808,16.69808 0 0 0 -1.96251,-0.46558 29.4672,29.4672 0 0 1 -1.63052,-0.33298 126.70896,126.70896 0 0 0 -1.92912,-0.46558 12.76912,12.76912 0 0 1 -1.82992,-0.56577 q -0.83097,-0.33298 -1.36334,-0.83097 a 1.620696,1.620696 0 0 1 -0.53238,-1.23173 q 0,-0.73079 0.43219,-1.23075 0.46558,-0.53237 1.13154,-0.86437 0.69739,-0.33298 1.46354,-0.46558 a 6.482784,6.482784 0 0 1 1.36334,-0.16698 q 1.76312,0 3.35926,0.63256 1.59811,0.63256 3.32783,1.82991 l 2.5941,-3.65982 a 25.53824,25.53824 0 0 0 -2.12851,-1.36335 10.31352,10.31352 0 0 0 -1.99592,-0.96554 q -1.03135,-0.39781 -2.22968,-0.59819 a 16.69808,16.69808 0 0 0 -2.72768,-0.20038"
     fill="#3c3c3c"
     fill-opacity="1"
     stroke-width="1.57167"
     stroke-miterlimit="10"
     opacity="1"
     id="path20" />
</svg>
