<svg xmlns="http://www.w3.org/2000/svg" width="2602.731" height="281.092" viewBox="0 0 688.648 74.371"><g fill="#1a8ab9"><path d="M569.658 19.434h2.777l2.593 7.09h.043l2.565-7.09h2.79v9.98h-1.761v-8.021h-.028l-3.03 8.02h-1.241l-2.988-8.02h-.029v8.02h-1.691ZM588.716 29.413h-1.607v-1.085h-.028q-.226.508-.783.895-.555.387-1.318.387-.662 0-1.134-.232a2.2 2.2 0 0 1-.775-.613 2.5 2.5 0 0 1-.444-.874 3.7 3.7 0 0 1-.141-1.015v-4.229h1.691v3.75q0 .296.042.62t.184.585.387.43.656.169a1.45 1.45 0 0 0 1.19-.578q.19-.254.29-.585.098-.33.098-.67v-3.72h1.692zM590.745 22.647h1.607v1.086h.029q.224-.508.782-.896.555-.387 1.318-.387.662 0 1.134.233.472.231.776.613.303.38.444.874.14.493.14 1.014v4.23h-1.69v-3.75a5 5 0 0 0-.043-.62 1.7 1.7 0 0 0-.183-.585 1.2 1.2 0 0 0-.388-.43q-.247-.17-.655-.17-.41 0-.705.163-.296.162-.487.415-.19.255-.288.586-.1.33-.1.669v3.721h-1.69zM598.977 22.647h1.692v6.766h-1.692zm-.24-2.297q0-.41.303-.712.303-.303.769-.303.464 0 .782.289a.94.94 0 0 1 .317.726.94.94 0 0 1-.317.726q-.317.288-.782.289-.466 0-.769-.303a.97.97 0 0 1-.302-.712M607.35 24.524q-.198-.282-.592-.472a1.8 1.8 0 0 0-.804-.19 1.7 1.7 0 0 0-1.402.69q-.232.31-.345.698-.114.387-.113.782 0 .395.12.782.12.388.359.698.24.31.6.5.358.19.838.19.394.001.79-.155.394-.155.634-.45l1.057 1.07a2.8 2.8 0 0 1-1.079.698q-.655.247-1.416.247-.747 0-1.417-.24a3.35 3.35 0 0 1-1.17-.704 3.3 3.3 0 0 1-.79-1.128q-.288-.662-.288-1.508 0-.818.289-1.48.288-.663.782-1.128.493-.465 1.149-.719.655-.253 1.402-.253t1.445.281 1.107.776zM560.975 35.183q-.719 0-1.346.268a3.3 3.3 0 0 0-1.078.733q-.45.465-.712 1.113-.26.648-.26 1.41 0 .803.246 1.458.247.656.69 1.121.445.465 1.065.726t1.367.26q.733 0 1.36-.26a3.2 3.2 0 0 0 1.079-.726q.45-.465.705-1.12a4 4 0 0 0 .253-1.46q0-.76-.24-1.409a3.2 3.2 0 0 0-.683-1.113 3.2 3.2 0 0 0-1.064-.733 3.5 3.5 0 0 0-1.382-.268m5.991 8.64h-6.019q-1.199 0-2.177-.345a4.7 4.7 0 0 1-1.678-1 4.4 4.4 0 0 1-1.078-1.608q-.38-.951-.38-2.163 0-1.142.4-2.08a4.8 4.8 0 0 1 1.122-1.613q.718-.677 1.698-1.05a5.9 5.9 0 0 1 2.121-.374q1.142 0 2.115.373.973.375 1.684 1.05.712.678 1.107 1.614.394.938.394 2.08a4.7 4.7 0 0 1-.557 2.262 4 4 0 0 1-.563.804q-.317.345-.656.584v.029h2.467zM574.31 43.823h-1.607v-1.086h-.029q-.225.508-.782.895-.556.388-1.318.388-.663 0-1.135-.232a2.2 2.2 0 0 1-.775-.614 2.5 2.5 0 0 1-.444-.874 3.7 3.7 0 0 1-.14-1.015v-4.228h1.69v3.75q0 .295.043.62.043.323.183.584t.388.43q.246.17.655.17a1.46 1.46 0 0 0 1.191-.579q.19-.253.29-.585.098-.33.098-.67v-3.72h1.691zM580.512 40.735h-.38q-.41 0-.86.035t-.832.156q-.38.12-.634.338-.255.218-.254.599 0 .24.106.402.105.162.275.26.17.1.38.141.212.043.423.043.875 0 1.325-.465t.451-1.269zm.028 2.227h-.042q-.254.452-.817.74-.564.29-1.283.29-.41 0-.853-.106a2.5 2.5 0 0 1-.817-.353 2.05 2.05 0 0 1-.62-.648q-.247-.403-.247-.994 0-.76.43-1.212.43-.45 1.106-.69t1.502-.318 1.613-.077v-.17q0-.633-.458-.937-.458-.303-1.092-.303-.535 0-1.03.226-.492.225-.817.55l-.874-1.03q.579-.535 1.333-.803a4.6 4.6 0 0 1 1.529-.268q.901 0 1.487.254.585.255.923.662.339.409.472.917.135.507.134 1.014v4.116h-1.579zM584.092 37.056h1.607v1.085h.029q.224-.507.782-.895.555-.387 1.318-.387.662 0 1.134.232.472.233.776.613.303.382.444.874.14.495.14 1.015v4.229h-1.69v-3.75a5 5 0 0 0-.043-.62 1.7 1.7 0 0 0-.183-.585 1.2 1.2 0 0 0-.388-.43q-.247-.17-.655-.169-.41 0-.705.162-.296.162-.487.416-.19.254-.288.585-.1.331-.1.67v3.721h-1.69zM603.262 43.823h-1.607v-1.086h-.028q-.225.508-.782.895-.557.388-1.318.388-.663 0-1.135-.232a2.2 2.2 0 0 1-.775-.614 2.5 2.5 0 0 1-.444-.874 3.7 3.7 0 0 1-.141-1.015v-4.228h1.691v3.75q0 .295.043.62.042.323.183.584t.387.43q.247.17.656.17a1.46 1.46 0 0 0 1.19-.579q.192-.253.29-.585.099-.33.099-.67v-3.72h1.691zM613.367 36.859q.662 0 1.134.232.473.233.776.613t.444.874q.14.495.14 1.015v4.229h-1.69v-3.75q0-.296-.043-.62a1.7 1.7 0 0 0-.183-.585 1.2 1.2 0 0 0-.388-.43q-.246-.17-.655-.169-.395 0-.677.17a1.5 1.5 0 0 0-.465.436 1.9 1.9 0 0 0-.268.6 2.6 2.6 0 0 0-.084.655v3.693h-1.692v-4.088q0-.635-.303-1.05t-.951-.416q-.381 0-.663.162t-.458.416q-.175.254-.268.585-.09.33-.091.67v3.72h-1.692v-6.765h1.607v1.085h.028q.113-.254.303-.479t.452-.409q.26-.183.599-.289.337-.105.747-.105.79 0 1.31.352.522.352.804.93a2.4 2.4 0 0 1 .902-.951q.564-.33 1.325-.331M577.44 48.251h1.987l2.749 7.682h.056l2.777-7.682h1.917l-4.003 9.98h-1.537ZM591.378 55.144h-.38q-.41 0-.86.035a3.8 3.8 0 0 0-.832.155q-.38.12-.634.338-.255.219-.254.6 0 .24.106.401.105.163.275.261.17.099.38.141.212.042.423.042.874 0 1.325-.465t.451-1.268zm.028 2.227h-.042q-.254.451-.817.74-.564.29-1.283.29-.41 0-.853-.107a2.5 2.5 0 0 1-.818-.352 2.05 2.05 0 0 1-.62-.649q-.246-.401-.246-.993 0-.762.43-1.212.43-.451 1.106-.691t1.501-.317 1.614-.078v-.169q0-.634-.458-.937t-1.092-.303q-.535 0-1.03.225-.492.225-.817.55l-.874-1.029a3.8 3.8 0 0 1 1.332-.803 4.6 4.6 0 0 1 1.53-.268q.901 0 1.487.254.584.254.923.662.339.41.472.916.135.508.134 1.015v4.116h-1.579zM607.278 54.172q0-.324-.092-.62a1.4 1.4 0 0 0-.289-.522 1.4 1.4 0 0 0-.5-.36 1.8 1.8 0 0 0-.712-.134q-.76 0-1.29.459a1.67 1.67 0 0 0-.585 1.177zm1.691.76v.226q0 .113-.014.226h-5.145a1.67 1.67 0 0 0 .62 1.19q.268.22.607.346.338.127.704.127.634 0 1.072-.232.435-.234.718-.642l1.128.902q-1 1.354-2.904 1.354a4.1 4.1 0 0 1-1.451-.247 3.4 3.4 0 0 1-1.15-.698q-.485-.45-.76-1.107a3.8 3.8 0 0 1-.275-1.486q0-.817.275-1.488.274-.67.754-1.141a3.4 3.4 0 0 1 1.134-.733q.657-.261 1.417-.261.705 0 1.304.233.6.232 1.036.69.436.459.683 1.142.247.684.247 1.6M609.59 51.465h1.874l1.889 4.92h.028l1.677-4.92h1.762l-3.2 8.218q-.183.465-.394.824-.21.36-.507.607-.297.246-.698.373-.402.127-.966.127-.21 0-.43-.021a3 3 0 0 1-.444-.078l.141-1.466q.17.056.331.078.163.021.304.021.267 0 .45-.063a.8.8 0 0 0 .31-.198q.127-.134.226-.331a8 8 0 0 0 .211-.465l.339-.86zM594.987 58.231h1.691v-9.987h-1.691zM598.764 58.231h1.692v-9.987h-1.692zM615.72 24.17a2.5 2.5 0 0 0-.445-.874 2.24 2.24 0 0 0-.775-.613q-.472-.233-1.135-.233-.38 0-.704.099a2.28 2.28 0 0 0-1.022.627 1.6 1.6 0 0 0-.29.416h-.027v-4.257h-1.692v10.078h1.692V25.72q0-.338.098-.662.099-.324.297-.585a1.5 1.5 0 0 1 .493-.416q.296-.155.704-.155.409 0 .656.169.245.17.38.43.134.26.177.578t.042.613v3.721h1.691v-4.229a3.7 3.7 0 0 0-.14-1.014M595.86 38.41v-1.354h-1.69v-1.96h-.003v-.383h-1.662v2.343h-1.183v1.353h1.184v3.157q0 .494.092.924.09.43.338.761.246.331.67.521.422.19 1.099.19.282 0 .592-.049.31-.05.535-.133l-.056-1.326q-.155.071-.352.106a2 2 0 0 1-.367.035q-.564 0-.726-.296t-.162-.747V38.41zM679.023 48.978c-8.438 3.577-13.583-3.178-19.856-12.131 11.752-5.864 22.93-6.815 26.05.542 1.357 3.201-.836 9.318-6.194 11.59m-21.898-15.043c-7.297-10.435-19.15-18.238-31.602-12.96a41 41 0 0 0-3.439 1.656v10.25c1.905-1.24 3.7-2.241 5.308-2.923 7.917-3.356 16.593 2.932 22.21 8.182-8.132 5.502-18.082 13.215-27.518 20.058v.032h6.246c8.365-5.95 16.71-12.085 23.88-17.165 8.277 8.243 15.065 17.555 27.008 12.492 8.386-3.555 11.088-11.736 8.469-17.914-2.225-5.249-13.241-9.885-30.563-1.708"/></g><path fill="#3070b3" d="M61.08 13.62h71.21v44.6H61.08zM0 13.62h56.773v44.6H0z" class="st0"/><path fill="#fff" d="M108.025 26.471v24.19h5.292v-24.19h6.047v24.19h5.292V21.18h-27.97v24.19h-6.048V21.18H68.716v5.291h5.291v24.19H79.3v-24.19h6.048v24.19h16.63v-24.19zM9.898 21.933H7.66v-.756h5.375v.756h-2.237v5.972h-.892v-5.972zM16.79 26.356c-.107.537-.341.952-.711 1.232-.363.28-.824.424-1.376.424-.393 0-.726-.069-1.013-.197a1.96 1.96 0 0 1-.718-.53 2.3 2.3 0 0 1-.439-.808 4 4 0 0 1-.166-1.028q-.002-.546.166-1.013.17-.467.476-.809a2.154 2.154 0 0 1 1.64-.718q.65 0 1.082.272.429.272.688.68c.174.28.295.575.355.908.068.325.09.634.083.93h-3.644c-.007.211.015.415.076.604.053.19.151.363.272.507.129.15.287.264.484.355.196.09.423.128.688.128.332 0 .612-.075.831-.234.22-.159.363-.393.431-.718h.794zm-.787-1.353a1.6 1.6 0 0 0-.129-.537 1.4 1.4 0 0 0-.294-.438 1.5 1.5 0 0 0-.439-.295 1.3 1.3 0 0 0-.544-.106q-.308.002-.56.106-.25.113-.43.295a1.4 1.4 0 0 0-.28.438c-.068.166-.114.34-.121.53h2.797zM21.049 24.596a1.2 1.2 0 0 0-.4-.719c-.205-.166-.47-.257-.81-.257q-.43 0-.725.16c-.197.105-.348.249-.469.423a1.9 1.9 0 0 0-.25.604 3.2 3.2 0 0 0-.075.71q.002.341.083.659.08.316.25.567c.113.166.257.302.438.4q.272.149.658.151.58 0 .922-.317c.227-.212.363-.5.416-.87h.816q-.135.895-.68 1.391-.546.5-1.467.5-.553 0-.982-.182a2 2 0 0 1-.718-.514 2.3 2.3 0 0 1-.431-.786 3.2 3.2 0 0 1-.144-1.006c0-.363.045-.703.144-1.02.09-.318.234-.59.43-.832.19-.234.431-.423.719-.552.287-.136.62-.204 1.013-.204.28 0 .536.03.778.099.242.068.454.166.643.302q.284.204.453.522c.114.211.19.46.22.748h-.832zM22.866 21.178h.801v2.57h.015a1 1 0 0 1 .272-.377c.114-.106.242-.197.378-.257.136-.069.287-.114.439-.144a2.3 2.3 0 0 1 .446-.045c.317 0 .59.045.801.128q.317.134.522.37c.128.16.226.34.28.56.052.22.082.453.082.718v3.205h-.8V24.61c0-.302-.092-.536-.265-.718q-.261-.262-.726-.264-.363 0-.635.113a1.2 1.2 0 0 0-.446.318 1.4 1.4 0 0 0-.272.483 2 2 0 0 0-.091.605V27.9h-.801zM28.128 23.03h.756v.77h.015q.25-.451.658-.665a1.9 1.9 0 0 1 .93-.219c.317 0 .59.045.8.129q.318.133.522.37c.129.159.227.34.28.56.053.219.083.453.083.718v3.205h-.801v-3.296c0-.302-.09-.537-.265-.718-.173-.174-.415-.265-.725-.265q-.363 0-.635.114a1.2 1.2 0 0 0-.446.317 1.4 1.4 0 0 0-.272.484 2 2 0 0 0-.091.605v2.751h-.801v-4.86zM34.267 22.162h-.801v-.983h.801zm-.801.87h.801v4.867h-.801zM38.84 24.596a1.2 1.2 0 0 0-.4-.719c-.204-.166-.469-.257-.809-.257q-.431 0-.726.16c-.196.105-.347.249-.468.423a1.9 1.9 0 0 0-.25.604 3.2 3.2 0 0 0-.075.71q.002.341.083.659.08.316.25.567c.113.166.256.302.438.4q.271.149.657.151.58 0 .923-.317.337-.316.415-.87h.817q-.137.895-.68 1.391c-.363.333-.855.5-1.467.5q-.554 0-.983-.182a2 2 0 0 1-.718-.514 2.3 2.3 0 0 1-.43-.786 3.2 3.2 0 0 1-.145-1.006q-.002-.544.144-1.02c.09-.318.234-.59.431-.832.189-.234.43-.423.718-.552.287-.136.62-.204 1.013-.204.28 0 .537.03.779.099.242.068.453.166.642.302q.284.204.454.522c.113.211.189.46.219.748h-.831zM44.98 27.885c-.144.09-.333.128-.575.128a.67.67 0 0 1-.491-.181q-.181-.18-.181-.575-.33.395-.772.575a2.45 2.45 0 0 1-.944.181q-.331.002-.628-.076a1.4 1.4 0 0 1-.514-.241 1.2 1.2 0 0 1-.34-.424 1.4 1.4 0 0 1-.129-.627c0-.28.046-.5.144-.68.09-.174.22-.318.37-.424a1.9 1.9 0 0 1 .53-.25q.296-.088.604-.143.331-.066.628-.098a4 4 0 0 0 .521-.09.75.75 0 0 0 .356-.182c.09-.076.128-.197.128-.34 0-.174-.03-.318-.098-.424a.66.66 0 0 0-.257-.242 1.3 1.3 0 0 0-.348-.113 3 3 0 0 0-.378-.03c-.34 0-.62.068-.846.196-.227.129-.348.37-.37.733h-.802c.015-.302.075-.559.189-.763.113-.204.264-.378.453-.507q.287-.19.65-.28c.242-.052.5-.082.772-.082q.329 0 .657.045.33.047.59.196.262.148.423.409c.106.174.159.408.159.688v2.502c0 .189.007.325.03.416s.099.128.22.128a.7.7 0 0 0 .241-.045v.62zm-1.3-2.495a.9.9 0 0 1-.28.128 5 5 0 0 1-.355.084 6 6 0 0 1-.401.053q-.216.024-.408.06a3 3 0 0 0-.378.09 1 1 0 0 0-.31.16.75.75 0 0 0-.212.249.8.8 0 0 0-.083.378c0 .128.03.242.083.333.053.09.121.166.204.219a.9.9 0 0 0 .295.12 2.01 2.01 0 0 0 1.036-.068q.282-.113.46-.271c.122-.114.205-.227.265-.356a1 1 0 0 0 .084-.363zM45.794 21.178h.801v6.72h-.8zM13.594 36.834c0 .854-.234 1.496-.695 1.935q-.692.657-1.95.657a4.2 4.2 0 0 1-1.165-.15 2.25 2.25 0 0 1-.87-.47 2.1 2.1 0 0 1-.543-.808q-.192-.487-.19-1.157v-4.294h.893v4.294c0 .597.158 1.05.483 1.368s.787.469 1.376.469c.575 0 1.006-.159 1.308-.469.295-.317.446-.77.446-1.368v-4.294h.892v4.287zM14.784 34.393h.756v.772h.023c.166-.303.385-.522.658-.666a1.9 1.9 0 0 1 .93-.219c.317 0 .59.045.8.129q.318.133.522.37c.129.159.227.34.28.56.053.219.083.453.083.718v3.205h-.801v-3.296c0-.302-.09-.537-.265-.718q-.26-.263-.725-.265-.363 0-.635.114a1.2 1.2 0 0 0-.446.317c-.121.136-.212.303-.273.484a2 2 0 0 0-.09.605v2.751h-.802v-4.86zM20.767 33.516h-.801v-.982h.801zm-.801.877h.801v4.869h-.801zM24.213 39.261h-.855l-1.806-4.868h.892l1.368 4.06h.015l1.33-4.06h.84zM30.884 37.717c-.105.537-.34.952-.71 1.232q-.546.422-1.376.423c-.393 0-.726-.068-1.013-.196a1.96 1.96 0 0 1-.718-.53 2.3 2.3 0 0 1-.439-.808 4 4 0 0 1-.166-1.028q-.002-.546.166-1.013.171-.466.477-.81.306-.337.725-.528.418-.192.915-.19.649 0 1.081.273.429.272.688.68c.174.28.295.575.355.907.068.325.091.635.084.93h-3.644q-.014.32.076.605c.053.189.15.363.272.506.128.152.287.265.484.356.196.09.423.128.687.128.333 0 .613-.075.832-.234.22-.159.363-.393.43-.718h.795zm-.786-1.353a1.6 1.6 0 0 0-.128-.537 1.4 1.4 0 0 0-.295-.438 1.5 1.5 0 0 0-.438-.295 1.3 1.3 0 0 0-.545-.106q-.308.002-.56.106-.249.113-.43.295a1.4 1.4 0 0 0-.28.438c-.068.166-.113.34-.12.53h2.796zM31.855 34.393h.756v1.029h.015c.197-.394.431-.688.719-.877.28-.19.642-.28 1.073-.265v.847q-.476.002-.816.128a1.3 1.3 0 0 0-.545.386 1.6 1.6 0 0 0-.302.62q-.09.364-.09.831v2.17h-.802v-4.868zM35.583 37.726a.9.9 0 0 0 .12.454.9.9 0 0 0 .296.287c.12.076.257.121.415.159q.227.045.477.045c.128 0 .257-.007.393-.03q.206-.025.378-.106a.75.75 0 0 0 .287-.22.6.6 0 0 0 .113-.37.52.52 0 0 0-.136-.378 1.1 1.1 0 0 0-.355-.241 4 4 0 0 0-.506-.16q-.284-.057-.59-.128a7 7 0 0 1-.582-.158 2 2 0 0 1-.507-.242 1.1 1.1 0 0 1-.362-.386 1.14 1.14 0 0 1-.137-.582c0-.242.053-.453.167-.627.113-.174.25-.318.423-.431.174-.114.37-.19.582-.242.22-.053.431-.083.643-.083.272 0 .521.022.756.068.234.045.446.128.62.242.181.113.325.272.43.468q.157.297.19.741h-.802a.78.78 0 0 0-.393-.642 1.3 1.3 0 0 0-.348-.136 1.96 1.96 0 0 0-.756-.015c-.12.022-.234.052-.332.098a.6.6 0 0 0-.242.196.5.5 0 0 0-.09.303c0 .143.044.264.143.347q.145.139.37.22c.151.06.318.113.507.15q.284.06.567.13.306.068.59.158c.188.06.362.144.506.25.15.105.264.234.355.393.09.158.136.347.136.582q0 .43-.181.725a1.4 1.4 0 0 1-.484.477 2.1 2.1 0 0 1-.665.257 3.5 3.5 0 0 1-1.52-.016 2 2 0 0 1-.642-.28 1.4 1.4 0 0 1-.454-.506 1.8 1.8 0 0 1-.189-.77zM40.563 33.516h-.801v-.982h.801zm-.801.877h.801v4.869h-.801zM42.819 34.393h.967v.703h-.967v3.024q0 .137.022.227a.23.23 0 0 0 .09.129q.07.047.182.06c.076.008.182.015.303.015h.37v.703h-.612c-.204 0-.386-.015-.53-.045a.8.8 0 0 1-.355-.159.7.7 0 0 1-.204-.317 1.8 1.8 0 0 1-.068-.545V35.09h-.831v-.703h.831v-1.459h.801zM46.703 39.91c-.091.243-.19.44-.28.605-.09.167-.19.295-.295.401a.9.9 0 0 1-.37.227 1.5 1.5 0 0 1-.469.068c-.09 0-.189-.008-.28-.015a1.6 1.6 0 0 1-.272-.068v-.733c.076.022.151.052.234.075a.9.9 0 0 0 .242.038.62.62 0 0 0 .393-.113c.099-.076.19-.19.265-.333l.333-.832-1.928-4.838h.907l1.421 3.984h.015l1.369-3.984h.846zM8.27 48.196c0-.356.052-.696.15-1.006a2.18 2.18 0 0 1 1.195-1.353 2.5 2.5 0 0 1 1.02-.196c.386 0 .719.068 1.02.196q.445.193.742.544c.204.227.355.5.453.81s.151.642.151 1.005q-.002.533-.15.997c-.099.31-.25.575-.454.81a2.2 2.2 0 0 1-.741.544 2.5 2.5 0 0 1-1.02.196c-.386 0-.734-.068-1.021-.196a2.05 2.05 0 0 1-.741-.545 2.2 2.2 0 0 1-.454-.809 3.3 3.3 0 0 1-.15-.997m.853 0c0 .294.038.559.121.786.076.227.19.423.325.574a1.396 1.396 0 0 0 1.073.476c.205 0 .402-.037.59-.12.182-.084.348-.197.484-.356a1.6 1.6 0 0 0 .325-.574c.076-.227.121-.492.121-.786s-.037-.56-.12-.787a1.7 1.7 0 0 0-.326-.582 1.3 1.3 0 0 0-.483-.355 1.4 1.4 0 0 0-.59-.12 1.41 1.41 0 0 0-1.073.476c-.137.158-.25.347-.326.581a2.3 2.3 0 0 0-.12.787M14.158 46.457h-.816v-.703h.816v-.726q0-.591.34-.9c.227-.203.567-.301 1.006-.301.075 0 .158.007.257.015.098.015.181.03.257.053v.695a1 1 0 0 0-.227-.053c-.083-.007-.159-.015-.227-.015q-.295 0-.454.113-.158.114-.158.431v.68h.945v.704h-.945v4.165h-.802v-4.158zM19.201 43.902h1.225l2.116 5.647 2.132-5.647H25.9v6.72h-.847v-5.594h-.023l-2.101 5.594h-.764l-2.101-5.594h-.015v5.594H19.2zM31.198 50.622h-.756v-.77h-.015a1.6 1.6 0 0 1-.658.664 1.9 1.9 0 0 1-.93.22c-.317 0-.59-.046-.801-.129a1.4 1.4 0 0 1-.522-.37 1.4 1.4 0 0 1-.28-.56 3 3 0 0 1-.083-.718v-3.205h.802v3.296c0 .302.09.536.264.718q.261.262.726.264.363 0 .635-.113a1.2 1.2 0 0 0 .446-.317c.121-.137.212-.303.272-.484q.09-.275.09-.605V45.76h.802v4.861zM32.294 45.754h.756v.771h.022q.25-.451.658-.665a1.9 1.9 0 0 1 .93-.22c.317 0 .59.046.801.13.212.09.386.21.522.37.128.158.227.34.28.559s.083.454.083.718v3.205h-.802v-3.295c0-.303-.09-.537-.264-.719-.174-.173-.416-.264-.726-.264q-.362 0-.635.113a1.2 1.2 0 0 0-.446.318c-.12.136-.212.302-.272.484a2 2 0 0 0-.09.604v2.752h-.802v-4.86zM38.308 44.877h-.801v-.982h.801zm-.801.877h.801v4.868h-.801zM42.756 47.319a1.2 1.2 0 0 0-.4-.718c-.205-.167-.47-.257-.81-.257q-.43 0-.725.158c-.197.106-.348.25-.469.424a1.9 1.9 0 0 0-.25.605 3.2 3.2 0 0 0-.075.71q.002.34.083.658.08.316.25.567.168.251.438.4.271.15.658.152c.385 0 .695-.106.922-.318s.363-.499.416-.87h.816q-.135.896-.68 1.392-.546.498-1.467.499-.553 0-.983-.182a2 2 0 0 1-.718-.514 2.3 2.3 0 0 1-.43-.786 3.2 3.2 0 0 1-.144-1.005c0-.363.045-.703.143-1.021.091-.317.235-.59.431-.831.19-.235.431-.424.718-.552.288-.136.62-.204 1.013-.204.28 0 .537.03.78.098.241.068.453.166.642.302q.284.204.453.522c.114.211.19.46.22.748h-.832zM44.416 43.902h.801v2.57h.015a1 1 0 0 1 .272-.378c.114-.106.242-.196.378-.257.137-.068.288-.113.439-.144a2.3 2.3 0 0 1 .446-.045c.317 0 .59.045.801.129q.318.133.522.37c.128.159.227.34.28.56.052.219.083.453.083.718v3.205h-.802v-3.296c0-.302-.09-.537-.264-.718q-.261-.263-.726-.265-.363 0-.635.114a1.2 1.2 0 0 0-.446.317 1.4 1.4 0 0 0-.272.484 2 2 0 0 0-.09.605v2.751h-.802z" class="st1"/><path d="M-171.19 291.544c-12.165 0-22.998 5.75-29.927 14.68h3.347c6.46-7.405 15.97-12.08 26.58-12.08s20.12 4.675 26.58 12.08h3.346c-6.928-8.93-17.761-14.68-29.926-14.68m0 7.234a30.5 30.5 0 0 0-20.004 7.446h4.234a27.9 27.9 0 0 1 15.77-4.846c5.85 0 11.28 1.787 15.77 4.846h4.235a30.5 30.5 0 0 0-20.005-7.446m-51.144 10.045v.002a20.53 20.53 0 0 0-17.704 10.26 20.53 20.53 0 0 0 0 20.52 20.53 20.53 0 0 0 17.703 10.259h32.003a28.5 28.5 0 0 1-3.957-4.6h-27.978a15.91 15.91 0 0 1-13.787-7.959 15.91 15.91 0 0 1 0-15.92 15.91 15.91 0 0 1 13.787-7.96v-.002h28.027a28.4 28.4 0 0 1 3.988-4.6h-32.015zm70.148 0a28.4 28.4 0 0 1 4.06 4.6h44.965v.002a15.91 15.91 0 0 1 13.787 7.96 15.91 15.91 0 0 1 0 15.92 15.91 15.91 0 0 1-13.787 7.96h-42.474v4.599h42.542a20.53 20.53 0 0 0 17.703-10.26 20.53 20.53 0 0 0 0-20.52 20.53 20.53 0 0 0-17.703-10.259v-.002zm-20.41 11.893q-.87.03-1.739.095-.003.174-.003.349 0 1.171.11 2.314a41 41 0 0 1 3.081-.125c3.252.006 6.514.414 9.57 1.192a38.6 38.6 0 0 1 9.291 3.704 19 19 0 0 0-.477-3.254 41.5 41.5 0 0 0-19.832-4.275zm-6.341.712a41.6 41.6 0 0 0-10.592 3.565 19 19 0 0 0-.477 3.247 39 39 0 0 1 11.217-4.139q-.135-1.32-.148-2.673m-11.069 9.11q.1 1.674.479 3.257a41.6 41.6 0 0 0 16.081 4.23q-.984-1.351-1.81-2.813a38 38 0 0 1-2.929-.42 38.7 38.7 0 0 1-11.821-4.254m37.72.004a39 39 0 0 1-11.803 4.249c-1.842.338-3.724.54-5.61.608a24 24 0 0 0 2.14 2.54q1.488-.13 2.961-.37a41 41 0 0 0 11.836-3.783c.249-1.05.41-2.134.477-3.244m-48.922 21.922c6.924 8.996 17.8 14.798 30.018 14.798s23.093-5.802 30.018-14.798h-3.334c-6.463 7.473-16.017 12.199-26.684 12.199s-20.22-4.726-26.683-12.2zm9.877 0a30.5 30.5 0 0 0 20.141 7.564 30.5 30.5 0 0 0 20.14-7.564h-4.197a27.9 27.9 0 0 1-15.943 4.964 27.9 27.9 0 0 1-15.943-4.964z" style="baseline-shift:baseline;display:inline;overflow:visible;vector-effect:none;fill:#3070b3;fill-opacity:1;stroke-width:1.60009;stroke-miterlimit:10;paint-order:markers fill stroke;stop-color:#000" transform="translate(426.327 -286.366)scale(.98224)"/><path d="M-171.146 305.896q-1.814.002-3.555.269c-11.27 1.72-19.94 11.485-19.94 23.225 0 12.949 10.547 23.496 23.495 23.496 4.891 0 9.44-1.504 13.206-4.075a28.6 28.6 0 0 0 7.704 1.05v-4.6q-1.728-.001-3.392-.235a23.4 23.4 0 0 0 5.977-15.636c0-12.222-9.4-22.292-21.344-23.384l.008-.011a24 24 0 0 0-2.158-.099zm0 4.6a18.86 18.86 0 0 1 18.895 18.894 18.84 18.84 0 0 1-6.54 14.316 24.07 24.07 0 0 1-15.546-22.546c0-3.827.885-7.442 2.464-10.65q.362-.014.727-.014m-6.12 1.007a28.6 28.6 0 0 0-1.672 9.657c0 11.074 6.306 20.705 15.516 25.489a18.9 18.9 0 0 1-7.724 1.636 18.86 18.86 0 0 1-18.894-18.895 18.86 18.86 0 0 1 12.773-17.887m68.045 5.023q-2.641 0-4.978 1.016a13.2 13.2 0 0 0-4.098 2.777 13 13 0 0 0-2.744 4.064 12.35 12.35 0 0 0-1.016 4.978q0 2.641 1.016 4.979a13.5 13.5 0 0 0 2.744 4.098 13.5 13.5 0 0 0 4.098 2.743 12.35 12.35 0 0 0 4.978 1.016q1.794 0 3.454-.474a12.8 12.8 0 0 0 3.116-1.321 14 14 0 0 0 2.642-2.066 12.4 12.4 0 0 0 1.998-2.71l-4.436-1.794a10.2 10.2 0 0 1-1.288 1.557 8.7 8.7 0 0 1-1.591 1.253 8.2 8.2 0 0 1-1.863.847 6.8 6.8 0 0 1-2.032.305 7.6 7.6 0 0 1-3.184-.677 8.7 8.7 0 0 1-2.54-1.863 8.9 8.9 0 0 1-1.727-2.675 8.2 8.2 0 0 1-.643-3.218q0-1.659.643-3.183a8.8 8.8 0 0 1 1.728-2.71 8.2 8.2 0 0 1 2.54-1.828 7.3 7.3 0 0 1 3.183-.711q1.05-.001 2.032.304a8.2 8.2 0 0 1 1.863.847 8.7 8.7 0 0 1 1.591 1.253q.745.711 1.288 1.524l4.436-1.795a12 12 0 0 0-1.998-2.642 12.3 12.3 0 0 0-2.642-2.065 12 12 0 0 0-3.116-1.355 12.5 12.5 0 0 0-3.454-.474m-114.52.033v25.638h4.742v-13.412l7.721 9.314 7.756-9.314v13.412h4.741v-25.638h-.305l-12.192 14.292-12.157-14.292zm88.68 0q-1.56 0-3.251.34a9.4 9.4 0 0 0-3.048 1.184q-1.355.813-2.236 2.27-.88 1.422-.88 3.59 0 1.49.474 2.608a6.7 6.7 0 0 0 1.32 1.896q.814.78 1.83 1.32 1.015.51 2.065.847 1.05.306 2.033.508.981.17 1.727.305 1.118.204 2.133.44 1.05.238 1.795.576.78.34 1.22.88.473.51.473 1.254 0 .576-.304 1.185-.305.576-.915 1.05-.61.44-1.49.745-.88.27-2.032.271a9.9 9.9 0 0 1-4.165-.914 28.6 28.6 0 0 1-3.828-2.236l-2.573 3.793a48 48 0 0 0 2.235 1.49q1.083.678 2.303 1.186 1.219.474 2.675.745 1.491.305 3.42.305 2.1 0 3.828-.474 1.727-.475 2.98-1.389a6.36 6.36 0 0 0 1.93-2.37q.678-1.423.678-3.353 0-1.66-.508-2.811-.474-1.185-1.287-1.964a6.5 6.5 0 0 0-1.795-1.321 12.3 12.3 0 0 0-2.066-.813 17 17 0 0 0-1.998-.474 30 30 0 0 1-1.66-.339 129 129 0 0 0-1.964-.474 13 13 0 0 1-1.863-.576q-.846-.339-1.388-.846a1.65 1.65 0 0 1-.542-1.254q0-.744.44-1.253.474-.542 1.152-.88.71-.339 1.49-.474a6.6 6.6 0 0 1 1.388-.17q1.795 0 3.42.644 1.627.644 3.388 1.863l2.641-3.726a26 26 0 0 0-2.167-1.388 10.5 10.5 0 0 0-2.032-.983q-1.05-.405-2.27-.609a17 17 0 0 0-2.777-.204" style="baseline-shift:baseline;display:inline;overflow:visible;vector-effect:none;fill:#3c3c3c;fill-opacity:1;stroke-width:1.60009;stroke-miterlimit:10;paint-order:markers fill stroke;stop-color:#000" transform="translate(426.327 -286.366)scale(.98224)"/><g data-name="Layer 1"><g stroke-width="0"><path fill="#333" d="m413.488 57.244-5.588-.635-.03-5.507 5.667.554zM434.842 40.766h-37.95v-4.542h37.984z" class="cls-3"/><path fill="#231f20" d="M399.933 35.224h31.902l3.04 1h-37.983zM416.507 42.418l4.029.294-6.999 8.944-5.668-.554z" class="cls-1" opacity=".3"/><path fill="#333" d="m405.122 22.09-4.146-.163-.21-5.87 4.173-.033z" class="cls-3"/><path fill="#231f20" d="m427.983 16.943-.12 4.056-22.741 1.092-.18-6.055z" class="cls-4" opacity=".4"/><path fill="#333" d="m426.315 33.566-20.79-4.966-.1-4.09 21.088 3.168z" class="cls-3"/><path fill="#231f20" d="m426.513 27.678-21.088-3.168 3.598-.145 21.834 2.973z" class="cls-1" opacity=".3"/><path fill="#231f20" d="m479.174 38.569-3.013.028.85-.508 2.962.003z" class="cls-4" opacity=".4"/><path fill="#1a1a1a" d="M450.234 28.248h2.704l3.89 8.43 3.882-8.443h2.686l.015 12.599h-2.614l-.01-7.157-3.326 7.163H456.2l-3.326-7.153.01 7.16h-2.633zM468.807 40.057c-1.07-.51-1.9-1.24-2.482-2.197q-.877-1.433-.878-3.363t.878-3.418a6.1 6.1 0 0 1 2.423-2.312q1.54-.821 3.434-.826 1.893-.002 3.419.817a6.1 6.1 0 0 1 2.41 2.305q.885 1.485.888 3.416 0 1.188-.548 2.308-.55 1.119-1.376 1.788h2.2v2.234l-6.637.01c-1.417 0-2.664-.251-3.734-.762zm5.405-2.098a3.32 3.32 0 0 0 1.386-1.355c.334-.597.504-1.296.501-2.1q0-1.209-.517-2.12a3.55 3.55 0 0 0-1.407-1.395 4.05 4.05 0 0 0-1.993-.483q-1.117 0-2.01.49a3.6 3.6 0 0 0-1.415 1.398q-.52.91-.52 2.119 0 1.838 1.096 2.874 1.09 1.034 2.858 1.033 1.136 0 2.02-.464zM483.534 40.858q-1.136-.213-1.86-.575v-2.416a9 9 0 0 0 1.98.699q1.029.232 1.965.232 1.044 0 1.587-.362t.539-1.012q0-.467-.273-.792-.27-.324-.786-.585-.515-.26-1.577-.693c-1.18-.48-2.033-1.014-2.562-1.612-.53-.597-.795-1.33-.795-2.209 0-.708.188-1.336.575-1.884q.577-.82 1.621-1.274 1.043-.45 2.417-.455 1.118 0 1.983.176.865.18 1.695.557v2.345q-1.583-.789-3.171-.789c-.674 0-1.2.118-1.587.353q-.576.353-.576 1.002 0 .469.273.774.27.305.758.541.487.233 1.587.684 1.281.54 2.002 1.033.72.496 1.064 1.17.343.676.343 1.667.002 1.714-1.231 2.67-1.234.958-3.685.96-1.155 0-2.29-.214zM494.149 40.846q-1.136-.213-1.86-.575v-2.417a9 9 0 0 0 1.98.7q1.029.232 1.965.232 1.044 0 1.587-.362.542-.363.539-1.012 0-.471-.273-.792-.27-.326-.785-.585-.516-.26-1.578-.693-1.77-.719-2.562-1.609-.795-.89-.795-2.209c0-.708.189-1.336.575-1.884q.577-.821 1.621-1.275 1.044-.45 2.417-.455 1.119 0 1.983.177a7.8 7.8 0 0 1 1.695.557v2.345q-1.584-.79-3.17-.79c-.675 0-1.201.119-1.588.354q-.575.352-.575 1.002 0 .47.272.774.27.305.758.541.488.233 1.587.684 1.281.54 2.002 1.033.72.496 1.064 1.17.343.675.343 1.667.001 1.714-1.23 2.67-1.236.958-3.686.96-1.155 0-2.29-.214z" class="cls-2"/></g><g fill="#1a1a1a" stroke="#414042" stroke-miterlimit="10" stroke-width=".2"><path stroke-width=".061878" d="M450.293 45.072h.76l1.86 4.072 1.86-4.072h.76v5.223h-.739v-3.713l-1.695 3.713h-.374l-1.705-3.713v3.713h-.733v-5.223ZM456.84 50.02q-.37-.39-.369-1.04v-2.271h.755v2.24q.001.859.86.86.757 0 1.182-.68v-2.42h.755v3.586h-.733v-.508q-.256.322-.6.47a1.9 1.9 0 0 1-.752.15q-.725 0-1.095-.39zM460.988 46.709h.734v.517q.254-.321.625-.474.37-.154.773-.154.72 0 1.068.38.351.38.35 1.024v2.293h-.756v-2.218q.001-.874-.838-.876a1.4 1.4 0 0 0-.668.167 1.5 1.5 0 0 0-.536.51v2.414h-.755v-3.586ZM465.598 45.88a.43.43 0 0 1-.126-.313q0-.186.126-.312a.43.43 0 0 1 .313-.127c.124 0 .238.043.325.127q.13.126.13.312a.42.42 0 0 1-.13.313.45.45 0 0 1-.325.127.42.42 0 0 1-.313-.127zm-.068.829h.77v3.586h-.77zM468.17 50.183a1.66 1.66 0 0 1-.721-.652c-.174-.288-.257-.625-.257-1.021q0-.592.257-1.021c.17-.285.414-.508.723-.662a2.4 2.4 0 0 1 1.071-.232q.822 0 1.315.321v.62q-.486-.337-1.24-.338-.615 0-.99.334-.377.334-.378.975-.001.64.374.971.375.329.978.328.756 0 1.3-.359v.613q-.26.18-.595.263a3.2 3.2 0 0 1-.78.083q-.597 0-1.06-.223zM471.424 44.775h.755v2.429q.515-.605 1.374-.606.72 0 1.067.38.351.38.35 1.024v2.293h-.755v-2.218q0-.875-.839-.876a1.4 1.4 0 0 0-.668.167 1.5 1.5 0 0 0-.535.51v2.414h-.755v-5.52ZM479.901 49.973a2.4 2.4 0 0 1-1.014-.916q-.363-.593-.362-1.386c0-.529.12-1.005.359-1.417q.356-.617.987-.956.627-.34 1.404-.34t1.405.34c.417.226.749.545.987.956q.358.616.359 1.417 0 .636-.288 1.16a2.07 2.07 0 0 1-.758.805h1.13v.656h-2.699q-.85-.001-1.506-.322zm2.395-.597q.449-.225.7-.662.25-.435.25-1.043c0-.405-.087-.752-.26-1.058a1.8 1.8 0 0 0-.708-.705 2.04 2.04 0 0 0-1.003-.248c-.371 0-.702.084-1.005.248-.304.164-.539.399-.715.702a2.1 2.1 0 0 0-.263 1.061c0 .406.084.758.25 1.046q.251.432.7.656.45.223 1.03.223c.387 0 .724-.075 1.024-.223zM485.109 50.02q-.37-.39-.369-1.04v-2.271h.755v2.24q.001.859.86.86.757 0 1.182-.68v-2.42h.755v3.586h-.733v-.508q-.256.322-.6.47a1.9 1.9 0 0 1-.752.15q-.724 0-1.095-.39zM489.387 50.075q-.394-.335-.393-.9 0-.599.378-.922.377-.325 1.073-.325.74 0 1.257.3v-.186q-.001-.427-.257-.63c-.17-.137-.443-.205-.81-.205q-.331 0-.638.065a2.7 2.7 0 0 0-.557.176v-.612c.148-.068.343-.127.582-.167s.47-.065.696-.065q.89 0 1.318.393c.284.26.43.625.43 1.086V50.3h-.709v-.402a1.5 1.5 0 0 1-.55.383q-.32.13-.774.13-.649 0-1.043-.33zm1.881-.383a.97.97 0 0 0 .434-.396v-.486a1.94 1.94 0 0 0-1.083-.313q-.433 0-.647.167-.213.168-.213.51c0 .44.284.657.86.657q.357 0 .65-.143zM493.397 46.709h.733v.517q.255-.321.625-.474.371-.154.774-.154.72 0 1.067.38.351.38.35 1.024v2.293h-.755v-2.218q0-.874-.839-.876a1.4 1.4 0 0 0-.668.167 1.5 1.5 0 0 0-.535.51v2.414h-.755v-3.586ZM498.422 50.094q-.296-.314-.294-.888v-1.912h-.545v-.582h.545v-1.077h.76v1.077h.882v.582h-.881v1.86q0 .357.139.507.139.148.504.148.217.001.433-.096v.597a2.2 2.2 0 0 1-.702.096q-.543 0-.841-.312zM500.968 50.02q-.37-.39-.368-1.04v-2.271h.755v2.24q0 .859.86.86.755 0 1.182-.68v-2.42h.754v3.586h-.733v-.508q-.256.322-.6.47a1.9 1.9 0 0 1-.752.15q-.724 0-1.095-.39zM505.117 46.709h.718v.517q.255-.314.575-.47a1.5 1.5 0 0 1 .665-.158q.432.001.687.145.254.144.374.446.24-.291.588-.44.347-.148.7-.148.657 0 .95.33c.194.224.29.548.29.982v2.382h-.733v-2.287q-.001-.438-.164-.625-.164-.181-.56-.182-.567 0-.925.492.015.113.015.365v2.234h-.733v-2.287q0-.44-.148-.625-.15-.181-.539-.182c-.377 0-.718.213-1.015.643v2.45h-.74v-3.585ZM451.004 58.24a2.8 2.8 0 0 1-.714-.214v-.686c.476.222.993.337 1.547.337q1.165.002 1.166-.786a.7.7 0 0 0-.127-.433 1.1 1.1 0 0 0-.365-.288 10 10 0 0 0-.776-.34c-.492-.198-.851-.418-1.068-.656q-.329-.359-.328-.904 0-.41.223-.727c.149-.21.359-.377.628-.492.27-.114.579-.176.925-.176a4 4 0 0 1 .77.068q.344.07.672.217v.656a3.2 3.2 0 0 0-1.315-.291q-.537 0-.823.195a.63.63 0 0 0-.285.554q-.001.247.124.414t.365.3c.161.09.402.195.721.325q.528.218.839.412.305.194.467.473.161.28.16.7.001.677-.485 1.054c-.325.248-.801.375-1.436.375q-.45 0-.885-.078zM455.345 58.088a1.7 1.7 0 0 1-.718-.656q-.258-.431-.256-1.011-.001-.579.253-1.009.255-.431.718-.668.464-.236 1.067-.235.604-.001 1.068.235.463.237.72.668t.258 1.009c0 .383-.087.727-.257 1.011a1.7 1.7 0 0 1-.721.656q-.464.229-1.068.23-.604-.001-1.064-.23zm1.99-.727q.343-.359.343-.94c0-.387-.114-.721-.343-.956q-.345-.353-.926-.353-.58 0-.925.353-.343.353-.343.956c0 .402.114.702.343.94q.345.36.925.36.582 0 .926-.36zM459.262 55.202h-.544v-.582h.544v-.702c0-.415.118-.727.35-.944q.352-.325.94-.325.306 0 .576.09v.628a1 1 0 0 0-.433-.096q-.352 0-.517.167-.163.169-.164.526v.656h.897v.582h-.897v3.004h-.755v-3.004zM461.935 58.005q-.296-.313-.294-.888v-1.912h-.544v-.582h.544v-1.076h.761v1.076h.882v.582h-.882v1.86q0 .358.14.507.138.148.504.148.216.002.433-.096v.597a2.2 2.2 0 0 1-.702.096q-.544 0-.842-.312zM463.85 54.62h.77l.808 2.66.798-2.66h.681l.798 2.66.808-2.66h.776l-1.166 3.586h-.724l-.83-2.673-.828 2.673h-.734zM469.942 57.986q-.394-.334-.393-.9 0-.598.378-.922.377-.325 1.073-.325.74 0 1.256.3v-.185q0-.427-.256-.632-.257-.204-.811-.204-.33 0-.637.065a2.7 2.7 0 0 0-.557.177v-.613c.148-.068.343-.127.581-.167.239-.04.47-.065.697-.065q.89 0 1.318.393c.284.26.43.625.43 1.086v2.218h-.709v-.402a1.5 1.5 0 0 1-.55.384q-.32.13-.774.13-.649-.001-1.043-.332zm1.881-.386a.97.97 0 0 0 .433-.396v-.486a1.94 1.94 0 0 0-1.082-.313q-.433 0-.647.167-.213.168-.214.51-.001.659.86.657.358 0 .65-.143zM473.952 54.62h.733v.644q.223-.329.631-.486.41-.158.944-.158v.591q-.575 0-.987.186a1.03 1.03 0 0 0-.566.59v2.219h-.755zM477.123 57.822q-.562-.496-.563-1.401c0-.604.167-1.052.504-1.396q.507-.515 1.439-.516.62-.001 1.055.235.433.236.653.65.219.413.22.943v.375h-3.153q.036.506.43.758.393.25 1.064.25.344 0 .696-.065.351-.065.62-.167v.607a3 3 0 0 1-.632.16q-.391.066-.774.065-.993 0-1.559-.498zm2.596-1.643q-.014-.505-.334-.789-.315-.28-.9-.281c-.39 0-.672.096-.882.29-.21.196-.319.452-.328.777h2.444zM484.576 58.24a2.8 2.8 0 0 1-.714-.214v-.686c.476.222.993.337 1.547.337q1.165.002 1.166-.786a.7.7 0 0 0-.127-.433 1.1 1.1 0 0 0-.365-.288 10 10 0 0 0-.776-.34c-.492-.198-.851-.418-1.068-.656q-.329-.359-.328-.904 0-.41.223-.727c.148-.21.359-.377.628-.492.27-.114.579-.176.925-.176a4 4 0 0 1 .77.068q.344.07.672.217v.656a3.2 3.2 0 0 0-1.315-.291q-.537 0-.823.195a.63.63 0 0 0-.285.554q-.001.247.124.414t.365.3c.161.09.402.195.721.325q.529.218.838.412.307.194.468.473.161.28.16.7.001.677-.485 1.054-.486.373-1.436.375-.45 0-.885-.078zM488.484 58.005q-.295-.313-.294-.888v-1.912h-.544v-.582h.544v-1.076h.761v1.076h.882v.582h-.882v1.86q0 .358.14.507.138.148.504.148.216.002.433-.096v.597a2.2 2.2 0 0 1-.703.096q-.543 0-.841-.312zM490.87 57.986q-.395-.334-.394-.9 0-.598.378-.922.377-.325 1.073-.325.74 0 1.257.3v-.185q-.001-.427-.257-.632c-.17-.136-.443-.204-.81-.204q-.331 0-.638.065a2.7 2.7 0 0 0-.557.177v-.613c.148-.068.343-.127.582-.167s.47-.065.696-.065q.89 0 1.318.393c.284.26.43.625.43 1.086v2.218h-.709v-.402a1.5 1.5 0 0 1-.55.384q-.32.13-.774.13-.649-.001-1.043-.332zm1.877-.386a.97.97 0 0 0 .433-.396v-.486a1.94 1.94 0 0 0-1.082-.313q-.433 0-.647.167-.213.168-.213.51c0 .44.284.657.86.657q.356 0 .65-.143zM495.557 58.095a1.66 1.66 0 0 1-.721-.653c-.174-.288-.257-.625-.257-1.021q.001-.592.257-1.021.257-.43.724-.662a2.4 2.4 0 0 1 1.07-.232q.823 0 1.315.321v.62q-.486-.337-1.24-.338-.614 0-.99.334-.377.334-.378.975 0 .64.374.971.375.329.978.328.756 0 1.3-.359v.613q-.26.18-.595.263a3.2 3.2 0 0 1-.78.083q-.597 0-1.06-.222zM498.811 52.686h.755v5.52h-.755zm.765 3.704 1.652-1.77h.919l-1.659 1.77 1.832 1.816h-.919l-1.822-1.816z" class="cls-5"/></g></g></svg>
