<?xml version="1.0" encoding="UTF-8" standalone="no"?>
<svg
   width="2602.7327"
   height="306.20898"
   viewBox="0 0 688.64845 81.01642"
   version="1.1"
   id="svg15"
   xmlns="http://www.w3.org/2000/svg">
  <defs
     id="defs15" />
  <path
     d="m 258.18202,-0.001104 a 40.509617,40.509617 0 0 0 -33.18856,17.281331 h -17.95625 a 23.169689,23.169689 0 0 0 -23.16942,23.169424 23.169689,23.169689 0 0 0 23.16942,23.16995 h 17.8746 a 40.509617,40.509617 0 0 0 33.27021,17.39812 40.509617,40.509617 0 0 0 33.27024,-17.39812 h 34.82725 5.2e-4 a 23.169689,23.169689 0 0 0 23.16942,-23.16995 23.169689,23.169689 0 0 0 -23.16994,-23.169424 h -34.9089 A 40.509617,40.509617 0 0 0 258.18202,-0.001104 Z"
     fill="#e3e3e3"
     fill-opacity="1"
     opacity="1"
     id="contour"
     style="stroke-width:1.00001" />
  <g
     fill="#1a8ab9"
     id="g1"
     transform="translate(0,3.2825598)">
    <path
       d="m 569.658,19.434 h 2.777 l 2.593,7.09 h 0.043 l 2.565,-7.09 h 2.79 v 9.98 h -1.761 v -8.021 h -0.028 l -3.03,8.02 h -1.241 l -2.988,-8.02 h -0.029 v 8.02 h -1.691 z m 19.058,9.979 h -1.607 v -1.085 h -0.028 q -0.226,0.508 -0.783,0.895 -0.555,0.387 -1.318,0.387 -0.662,0 -1.134,-0.232 a 2.2,2.2 0 0 1 -0.775,-0.613 2.5,2.5 0 0 1 -0.444,-0.874 3.7,3.7 0 0 1 -0.141,-1.015 v -4.229 h 1.691 v 3.75 q 0,0.296 0.042,0.62 0.042,0.324 0.184,0.585 0.142,0.261 0.387,0.43 0.245,0.169 0.656,0.169 a 1.45,1.45 0 0 0 1.19,-0.578 q 0.19,-0.254 0.29,-0.585 0.098,-0.33 0.098,-0.67 v -3.72 h 1.692 z m 2.029,-6.766 h 1.607 v 1.086 h 0.029 q 0.224,-0.508 0.782,-0.896 0.555,-0.387 1.318,-0.387 0.662,0 1.134,0.233 0.472,0.231 0.776,0.613 0.303,0.38 0.444,0.874 0.14,0.493 0.14,1.014 v 4.23 h -1.69 v -3.75 a 5,5 0 0 0 -0.043,-0.62 1.7,1.7 0 0 0 -0.183,-0.585 1.2,1.2 0 0 0 -0.388,-0.43 q -0.247,-0.17 -0.655,-0.17 -0.41,0 -0.705,0.163 -0.296,0.162 -0.487,0.415 -0.19,0.255 -0.288,0.586 -0.1,0.33 -0.1,0.669 v 3.721 h -1.69 z m 8.232,0 h 1.692 v 6.766 h -1.692 z m -0.24,-2.297 q 0,-0.41 0.303,-0.712 0.303,-0.303 0.769,-0.303 0.464,0 0.782,0.289 a 0.94,0.94 0 0 1 0.317,0.726 0.94,0.94 0 0 1 -0.317,0.726 q -0.317,0.288 -0.782,0.289 -0.466,0 -0.769,-0.303 a 0.97,0.97 0 0 1 -0.302,-0.712 m 8.612,4.174 q -0.198,-0.282 -0.592,-0.472 a 1.8,1.8 0 0 0 -0.804,-0.19 1.7,1.7 0 0 0 -1.402,0.69 q -0.232,0.31 -0.345,0.698 -0.114,0.387 -0.113,0.782 0,0.395 0.12,0.782 0.12,0.388 0.359,0.698 0.24,0.31 0.6,0.5 0.358,0.19 0.838,0.19 0.394,10e-4 0.79,-0.155 0.394,-0.155 0.634,-0.45 l 1.057,1.07 a 2.8,2.8 0 0 1 -1.079,0.698 q -0.655,0.247 -1.416,0.247 -0.747,0 -1.417,-0.24 a 3.35,3.35 0 0 1 -1.17,-0.704 3.3,3.3 0 0 1 -0.79,-1.128 q -0.288,-0.662 -0.288,-1.508 0,-0.818 0.289,-1.48 0.288,-0.663 0.782,-1.128 0.493,-0.465 1.149,-0.719 0.655,-0.253 1.402,-0.253 0.747,0 1.445,0.281 0.698,0.281 1.107,0.776 z m -46.375,10.659 q -0.719,0 -1.346,0.268 a 3.3,3.3 0 0 0 -1.078,0.733 q -0.45,0.465 -0.712,1.113 -0.26,0.648 -0.26,1.41 0,0.803 0.246,1.458 0.247,0.656 0.69,1.121 0.445,0.465 1.065,0.726 0.62,0.261 1.367,0.26 0.733,0 1.36,-0.26 a 3.2,3.2 0 0 0 1.079,-0.726 q 0.45,-0.465 0.705,-1.12 a 4,4 0 0 0 0.253,-1.46 q 0,-0.76 -0.24,-1.409 a 3.2,3.2 0 0 0 -0.683,-1.113 3.2,3.2 0 0 0 -1.064,-0.733 3.5,3.5 0 0 0 -1.382,-0.268 m 5.991,8.64 h -6.019 q -1.199,0 -2.177,-0.345 a 4.7,4.7 0 0 1 -1.678,-1 4.4,4.4 0 0 1 -1.078,-1.608 q -0.38,-0.951 -0.38,-2.163 0,-1.142 0.4,-2.08 a 4.8,4.8 0 0 1 1.122,-1.613 q 0.718,-0.677 1.698,-1.05 a 5.9,5.9 0 0 1 2.121,-0.374 q 1.142,0 2.115,0.373 0.973,0.375 1.684,1.05 0.712,0.678 1.107,1.614 0.394,0.938 0.394,2.08 a 4.7,4.7 0 0 1 -0.557,2.262 4,4 0 0 1 -0.563,0.804 q -0.317,0.345 -0.656,0.584 v 0.029 h 2.467 z m 7.344,0 h -1.607 v -1.086 h -0.029 q -0.225,0.508 -0.782,0.895 -0.556,0.388 -1.318,0.388 -0.663,0 -1.135,-0.232 a 2.2,2.2 0 0 1 -0.775,-0.614 2.5,2.5 0 0 1 -0.444,-0.874 3.7,3.7 0 0 1 -0.14,-1.015 v -4.228 h 1.69 v 3.75 q 0,0.295 0.043,0.62 0.043,0.323 0.183,0.584 0.14,0.261 0.388,0.43 0.246,0.17 0.655,0.17 a 1.46,1.46 0 0 0 1.191,-0.579 q 0.19,-0.253 0.29,-0.585 0.098,-0.33 0.098,-0.67 v -3.72 h 1.691 z m 6.202,-3.088 h -0.38 q -0.41,0 -0.86,0.035 -0.45,0.035 -0.832,0.156 -0.38,0.12 -0.634,0.338 -0.255,0.218 -0.254,0.599 0,0.24 0.106,0.402 0.105,0.162 0.275,0.26 0.17,0.1 0.38,0.141 0.212,0.043 0.423,0.043 0.875,0 1.325,-0.465 0.45,-0.465 0.451,-1.269 z m 0.028,2.227 h -0.042 q -0.254,0.452 -0.817,0.74 -0.564,0.29 -1.283,0.29 -0.41,0 -0.853,-0.106 a 2.5,2.5 0 0 1 -0.817,-0.353 2.05,2.05 0 0 1 -0.62,-0.648 q -0.247,-0.403 -0.247,-0.994 0,-0.76 0.43,-1.212 0.43,-0.45 1.106,-0.69 0.676,-0.24 1.502,-0.318 0.826,-0.078 1.613,-0.077 v -0.17 q 0,-0.633 -0.458,-0.937 -0.458,-0.303 -1.092,-0.303 -0.535,0 -1.03,0.226 -0.492,0.225 -0.817,0.55 l -0.874,-1.03 q 0.579,-0.535 1.333,-0.803 a 4.6,4.6 0 0 1 1.529,-0.268 q 0.901,0 1.487,0.254 0.585,0.255 0.923,0.662 0.339,0.409 0.472,0.917 0.135,0.507 0.134,1.014 v 4.116 h -1.579 z m 3.552,-5.906 h 1.607 v 1.085 h 0.029 q 0.224,-0.507 0.782,-0.895 0.555,-0.387 1.318,-0.387 0.662,0 1.134,0.232 0.472,0.233 0.776,0.613 0.303,0.382 0.444,0.874 0.14,0.495 0.14,1.015 v 4.229 h -1.69 v -3.75 a 5,5 0 0 0 -0.043,-0.62 1.7,1.7 0 0 0 -0.183,-0.585 1.2,1.2 0 0 0 -0.388,-0.43 q -0.247,-0.17 -0.655,-0.169 -0.41,0 -0.705,0.162 -0.296,0.162 -0.487,0.416 -0.19,0.254 -0.288,0.585 -0.1,0.331 -0.1,0.67 v 3.721 h -1.69 z m 19.17,6.767 h -1.607 v -1.086 h -0.028 q -0.225,0.508 -0.782,0.895 -0.557,0.388 -1.318,0.388 -0.663,0 -1.135,-0.232 a 2.2,2.2 0 0 1 -0.775,-0.614 2.5,2.5 0 0 1 -0.444,-0.874 3.7,3.7 0 0 1 -0.141,-1.015 v -4.228 h 1.691 v 3.75 q 0,0.295 0.043,0.62 0.042,0.323 0.183,0.584 0.141,0.261 0.387,0.43 0.247,0.17 0.656,0.17 a 1.46,1.46 0 0 0 1.19,-0.579 q 0.192,-0.253 0.29,-0.585 0.099,-0.33 0.099,-0.67 v -3.72 h 1.691 z m 10.105,-6.964 q 0.662,0 1.134,0.232 0.473,0.233 0.776,0.613 0.303,0.38 0.444,0.874 0.14,0.495 0.14,1.015 v 4.229 h -1.69 v -3.75 q 0,-0.296 -0.043,-0.62 a 1.7,1.7 0 0 0 -0.183,-0.585 1.2,1.2 0 0 0 -0.388,-0.43 q -0.246,-0.17 -0.655,-0.169 -0.395,0 -0.677,0.17 a 1.5,1.5 0 0 0 -0.465,0.436 1.9,1.9 0 0 0 -0.268,0.6 2.6,2.6 0 0 0 -0.084,0.655 v 3.693 h -1.692 v -4.088 q 0,-0.635 -0.303,-1.05 -0.303,-0.415 -0.951,-0.416 -0.381,0 -0.663,0.162 -0.282,0.162 -0.458,0.416 -0.175,0.254 -0.268,0.585 -0.09,0.33 -0.091,0.67 v 3.72 h -1.692 v -6.765 h 1.607 v 1.085 h 0.028 q 0.113,-0.254 0.303,-0.479 0.19,-0.225 0.452,-0.409 0.26,-0.183 0.599,-0.289 0.337,-0.105 0.747,-0.105 0.79,0 1.31,0.352 0.522,0.352 0.804,0.93 a 2.4,2.4 0 0 1 0.902,-0.951 q 0.564,-0.33 1.325,-0.331 M 577.44,48.251 h 1.987 l 2.749,7.682 h 0.056 l 2.777,-7.682 h 1.917 l -4.003,9.98 h -1.537 z m 13.938,6.893 h -0.38 q -0.41,0 -0.86,0.035 a 3.8,3.8 0 0 0 -0.832,0.155 q -0.38,0.12 -0.634,0.338 -0.255,0.219 -0.254,0.6 0,0.24 0.106,0.401 0.105,0.163 0.275,0.261 0.17,0.099 0.38,0.141 0.212,0.042 0.423,0.042 0.874,0 1.325,-0.465 0.451,-0.465 0.451,-1.268 z m 0.028,2.227 h -0.042 q -0.254,0.451 -0.817,0.74 -0.564,0.29 -1.283,0.29 -0.41,0 -0.853,-0.107 a 2.5,2.5 0 0 1 -0.818,-0.352 2.05,2.05 0 0 1 -0.62,-0.649 q -0.246,-0.401 -0.246,-0.993 0,-0.762 0.43,-1.212 0.43,-0.451 1.106,-0.691 0.676,-0.24 1.501,-0.317 0.825,-0.077 1.614,-0.078 v -0.169 q 0,-0.634 -0.458,-0.937 -0.458,-0.303 -1.092,-0.303 -0.535,0 -1.03,0.225 -0.492,0.225 -0.817,0.55 l -0.874,-1.029 a 3.8,3.8 0 0 1 1.332,-0.803 4.6,4.6 0 0 1 1.53,-0.268 q 0.901,0 1.487,0.254 0.584,0.254 0.923,0.662 0.339,0.41 0.472,0.916 0.135,0.508 0.134,1.015 v 4.116 h -1.579 z m 15.872,-3.199 q 0,-0.324 -0.092,-0.62 a 1.4,1.4 0 0 0 -0.289,-0.522 1.4,1.4 0 0 0 -0.5,-0.36 1.8,1.8 0 0 0 -0.712,-0.134 q -0.76,0 -1.29,0.459 a 1.67,1.67 0 0 0 -0.585,1.177 z m 1.691,0.76 v 0.226 q 0,0.113 -0.014,0.226 h -5.145 a 1.67,1.67 0 0 0 0.62,1.19 q 0.268,0.22 0.607,0.346 0.338,0.127 0.704,0.127 0.634,0 1.072,-0.232 0.435,-0.234 0.718,-0.642 l 1.128,0.902 q -1,1.354 -2.904,1.354 a 4.1,4.1 0 0 1 -1.451,-0.247 3.4,3.4 0 0 1 -1.15,-0.698 q -0.485,-0.45 -0.76,-1.107 a 3.8,3.8 0 0 1 -0.275,-1.486 q 0,-0.817 0.275,-1.488 0.274,-0.67 0.754,-1.141 a 3.4,3.4 0 0 1 1.134,-0.733 q 0.657,-0.261 1.417,-0.261 0.705,0 1.304,0.233 0.6,0.232 1.036,0.69 0.436,0.459 0.683,1.142 0.247,0.684 0.247,1.6 m 0.621,-3.468 h 1.874 l 1.889,4.92 h 0.028 l 1.677,-4.92 h 1.762 l -3.2,8.218 q -0.183,0.465 -0.394,0.824 -0.21,0.36 -0.507,0.607 -0.297,0.246 -0.698,0.373 -0.402,0.127 -0.966,0.127 -0.21,0 -0.43,-0.021 a 3,3 0 0 1 -0.444,-0.078 l 0.141,-1.466 q 0.17,0.056 0.331,0.078 0.163,0.021 0.304,0.021 0.267,0 0.45,-0.063 a 0.8,0.8 0 0 0 0.31,-0.198 q 0.127,-0.134 0.226,-0.331 a 8,8 0 0 0 0.211,-0.465 l 0.339,-0.86 z m -14.603,6.766 h 1.691 v -9.987 h -1.691 z m 3.777,0 h 1.692 v -9.987 h -1.692 z M 615.72,24.17 a 2.5,2.5 0 0 0 -0.445,-0.874 2.24,2.24 0 0 0 -0.775,-0.613 q -0.472,-0.233 -1.135,-0.233 -0.38,0 -0.704,0.099 a 2.28,2.28 0 0 0 -1.022,0.627 1.6,1.6 0 0 0 -0.29,0.416 h -0.027 v -4.257 h -1.692 v 10.078 h 1.692 V 25.72 q 0,-0.338 0.098,-0.662 0.099,-0.324 0.297,-0.585 a 1.5,1.5 0 0 1 0.493,-0.416 q 0.296,-0.155 0.704,-0.155 0.409,0 0.656,0.169 0.245,0.17 0.38,0.43 0.134,0.26 0.177,0.578 0.043,0.318 0.042,0.613 v 3.721 h 1.691 v -4.229 a 3.7,3.7 0 0 0 -0.14,-1.014 m -19.86,14.24 v -1.354 h -1.69 v -1.96 h -0.003 v -0.383 h -1.662 v 2.343 h -1.183 v 1.353 h 1.184 v 3.157 q 0,0.494 0.092,0.924 0.09,0.43 0.338,0.761 0.246,0.331 0.67,0.521 0.422,0.19 1.099,0.19 0.282,0 0.592,-0.049 0.31,-0.05 0.535,-0.133 l -0.056,-1.326 q -0.155,0.071 -0.352,0.106 a 2,2 0 0 1 -0.367,0.035 q -0.564,0 -0.726,-0.296 -0.162,-0.296 -0.162,-0.747 V 38.41 Z m 83.163,10.568 c -8.438,3.577 -13.583,-3.178 -19.856,-12.131 11.752,-5.864 22.93,-6.815 26.05,0.542 1.357,3.201 -0.836,9.318 -6.194,11.59 M 657.125,33.936 c -7.297,-10.435 -19.15,-18.238 -31.602,-12.96 a 41,41 0 0 0 -3.439,1.656 v 10.25 c 1.905,-1.24 3.7,-2.241 5.308,-2.923 7.917,-3.356 16.593,2.932 22.21,8.182 -8.132,5.502 -18.082,13.215 -27.518,20.058 v 0.032 h 6.246 c 8.365,-5.95 16.71,-12.085 23.88,-17.165 8.277,8.243 15.065,17.555 27.008,12.492 8.386,-3.555 11.088,-11.736 8.469,-17.914 -2.225,-5.249 -13.241,-9.885 -30.563,-1.708"
       id="path1" />
  </g>
  <path
     fill="#3070b3"
     d="m 61.08,16.90256 h 71.21 v 44.6 H 61.08 Z m -61.08,0 h 56.773 v 44.6 H 0 Z"
     class="st0"
     id="path2" />
  <path
     fill="#ffffff"
     d="m 108.025,29.75356 v 24.19 h 5.292 v -24.19 h 6.047 v 24.19 h 5.292 v -29.481 h -27.97 v 24.19 h -6.048 v -24.19 H 68.716 v 5.291 h 5.291 v 24.19 H 79.3 v -24.19 h 6.048 v 24.19 h 16.63 v -24.19 z M 9.898,25.21556 H 7.66 v -0.756 h 5.375 v 0.756 h -2.237 v 5.972 H 9.906 v -5.972 z m 6.892,4.423 c -0.107,0.537 -0.341,0.952 -0.711,1.232 -0.363,0.28 -0.824,0.424 -1.376,0.424 -0.393,0 -0.726,-0.069 -1.013,-0.197 a 1.96,1.96 0 0 1 -0.718,-0.53 2.3,2.3 0 0 1 -0.439,-0.808 4,4 0 0 1 -0.166,-1.028 q -0.002,-0.546 0.166,-1.013 0.17,-0.467 0.476,-0.809 a 2.154,2.154 0 0 1 1.64,-0.718 q 0.65,0 1.082,0.272 0.429,0.272 0.688,0.68 c 0.174,0.28 0.295,0.575 0.355,0.908 0.068,0.325 0.09,0.634 0.083,0.93 h -3.644 c -0.007,0.211 0.015,0.415 0.076,0.604 0.053,0.19 0.151,0.363 0.272,0.507 0.129,0.15 0.287,0.264 0.484,0.355 0.196,0.09 0.423,0.128 0.688,0.128 0.332,0 0.612,-0.075 0.831,-0.234 0.22,-0.159 0.363,-0.393 0.431,-0.718 h 0.794 z m -0.787,-1.353 a 1.6,1.6 0 0 0 -0.129,-0.537 1.4,1.4 0 0 0 -0.294,-0.438 1.5,1.5 0 0 0 -0.439,-0.295 1.3,1.3 0 0 0 -0.544,-0.106 q -0.308,0.002 -0.56,0.106 -0.25,0.113 -0.43,0.295 a 1.4,1.4 0 0 0 -0.28,0.438 c -0.068,0.166 -0.114,0.34 -0.121,0.53 h 2.797 z m 5.046,-0.407 a 1.2,1.2 0 0 0 -0.4,-0.719 c -0.205,-0.166 -0.47,-0.257 -0.81,-0.257 q -0.43,0 -0.725,0.16 c -0.197,0.105 -0.348,0.249 -0.469,0.423 a 1.9,1.9 0 0 0 -0.25,0.604 3.2,3.2 0 0 0 -0.075,0.71 q 0.002,0.341 0.083,0.659 0.08,0.316 0.25,0.567 c 0.113,0.166 0.257,0.302 0.438,0.4 q 0.272,0.149 0.658,0.151 0.58,0 0.922,-0.317 c 0.227,-0.212 0.363,-0.5 0.416,-0.87 h 0.816 q -0.135,0.895 -0.68,1.391 -0.546,0.5 -1.467,0.5 -0.553,0 -0.982,-0.182 a 2,2 0 0 1 -0.718,-0.514 2.3,2.3 0 0 1 -0.431,-0.786 3.2,3.2 0 0 1 -0.144,-1.006 c 0,-0.363 0.045,-0.703 0.144,-1.02 0.09,-0.318 0.234,-0.59 0.43,-0.832 0.19,-0.234 0.431,-0.423 0.719,-0.552 0.287,-0.136 0.62,-0.204 1.013,-0.204 0.28,0 0.536,0.03 0.778,0.099 0.242,0.068 0.454,0.166 0.643,0.302 q 0.284,0.204 0.453,0.522 c 0.114,0.211 0.19,0.46 0.22,0.748 h -0.832 z m 1.817,-3.418 h 0.801 v 2.57 h 0.015 a 1,1 0 0 1 0.272,-0.377 c 0.114,-0.106 0.242,-0.197 0.378,-0.257 0.136,-0.069 0.287,-0.114 0.439,-0.144 a 2.3,2.3 0 0 1 0.446,-0.045 c 0.317,0 0.59,0.045 0.801,0.128 q 0.317,0.134 0.522,0.37 c 0.128,0.16 0.226,0.34 0.28,0.56 0.052,0.22 0.082,0.453 0.082,0.718 v 3.205 h -0.8 v -3.296 c 0,-0.302 -0.092,-0.536 -0.265,-0.718 q -0.261,-0.262 -0.726,-0.264 -0.363,0 -0.635,0.113 a 1.2,1.2 0 0 0 -0.446,0.318 1.4,1.4 0 0 0 -0.272,0.483 2,2 0 0 0 -0.091,0.605 v 2.753 h -0.801 z m 5.262,1.852 h 0.756 v 0.77 h 0.015 q 0.25,-0.451 0.658,-0.665 a 1.9,1.9 0 0 1 0.93,-0.219 c 0.317,0 0.59,0.045 0.8,0.129 q 0.318,0.133 0.522,0.37 c 0.129,0.159 0.227,0.34 0.28,0.56 0.053,0.219 0.083,0.453 0.083,0.718 v 3.205 h -0.801 v -3.296 c 0,-0.302 -0.09,-0.537 -0.265,-0.718 -0.173,-0.174 -0.415,-0.265 -0.725,-0.265 q -0.363,0 -0.635,0.114 a 1.2,1.2 0 0 0 -0.446,0.317 1.4,1.4 0 0 0 -0.272,0.484 2,2 0 0 0 -0.091,0.605 v 2.751 h -0.801 v -4.86 z m 6.139,-0.868 h -0.801 v -0.983 h 0.801 z m -0.801,0.87 h 0.801 v 4.867 h -0.801 z m 5.374,1.564 a 1.2,1.2 0 0 0 -0.4,-0.719 c -0.204,-0.166 -0.469,-0.257 -0.809,-0.257 q -0.431,0 -0.726,0.16 c -0.196,0.105 -0.347,0.249 -0.468,0.423 a 1.9,1.9 0 0 0 -0.25,0.604 3.2,3.2 0 0 0 -0.075,0.71 q 0.002,0.341 0.083,0.659 0.08,0.316 0.25,0.567 c 0.113,0.166 0.256,0.302 0.438,0.4 q 0.271,0.149 0.657,0.151 0.58,0 0.923,-0.317 0.337,-0.316 0.415,-0.87 h 0.817 q -0.137,0.895 -0.68,1.391 c -0.363,0.333 -0.855,0.5 -1.467,0.5 q -0.554,0 -0.983,-0.182 a 2,2 0 0 1 -0.718,-0.514 2.3,2.3 0 0 1 -0.43,-0.786 3.2,3.2 0 0 1 -0.145,-1.006 q -0.002,-0.544 0.144,-1.02 c 0.09,-0.318 0.234,-0.59 0.431,-0.832 0.189,-0.234 0.43,-0.423 0.718,-0.552 0.287,-0.136 0.62,-0.204 1.013,-0.204 0.28,0 0.537,0.03 0.779,0.099 0.242,0.068 0.453,0.166 0.642,0.302 q 0.284,0.204 0.454,0.522 c 0.113,0.211 0.189,0.46 0.219,0.748 h -0.831 z m 6.14,3.289 c -0.144,0.09 -0.333,0.128 -0.575,0.128 a 0.67,0.67 0 0 1 -0.491,-0.181 q -0.181,-0.18 -0.181,-0.575 -0.33,0.395 -0.772,0.575 a 2.45,2.45 0 0 1 -0.944,0.181 q -0.331,0.002 -0.628,-0.076 a 1.4,1.4 0 0 1 -0.514,-0.241 1.2,1.2 0 0 1 -0.34,-0.424 1.4,1.4 0 0 1 -0.129,-0.627 c 0,-0.28 0.046,-0.5 0.144,-0.68 0.09,-0.174 0.22,-0.318 0.37,-0.424 a 1.9,1.9 0 0 1 0.53,-0.25 q 0.296,-0.088 0.604,-0.143 0.331,-0.066 0.628,-0.098 a 4,4 0 0 0 0.521,-0.09 0.75,0.75 0 0 0 0.356,-0.182 c 0.09,-0.076 0.128,-0.197 0.128,-0.34 0,-0.174 -0.03,-0.318 -0.098,-0.424 a 0.66,0.66 0 0 0 -0.257,-0.242 1.3,1.3 0 0 0 -0.348,-0.113 3,3 0 0 0 -0.378,-0.03 c -0.34,0 -0.62,0.068 -0.846,0.196 -0.227,0.129 -0.348,0.37 -0.37,0.733 h -0.802 c 0.015,-0.302 0.075,-0.559 0.189,-0.763 0.113,-0.204 0.264,-0.378 0.453,-0.507 q 0.287,-0.19 0.65,-0.28 c 0.242,-0.052 0.5,-0.082 0.772,-0.082 q 0.329,0 0.657,0.045 0.33,0.047 0.59,0.196 0.262,0.148 0.423,0.409 c 0.106,0.174 0.159,0.408 0.159,0.688 v 2.502 c 0,0.189 0.007,0.325 0.03,0.416 0.023,0.091 0.099,0.128 0.22,0.128 a 0.7,0.7 0 0 0 0.241,-0.045 v 0.62 z m -1.3,-2.495 a 0.9,0.9 0 0 1 -0.28,0.128 5,5 0 0 1 -0.355,0.084 6,6 0 0 1 -0.401,0.053 q -0.216,0.024 -0.408,0.06 a 3,3 0 0 0 -0.378,0.09 1,1 0 0 0 -0.31,0.16 0.75,0.75 0 0 0 -0.212,0.249 0.8,0.8 0 0 0 -0.083,0.378 c 0,0.128 0.03,0.242 0.083,0.333 0.053,0.09 0.121,0.166 0.204,0.219 a 0.9,0.9 0 0 0 0.295,0.12 2.01,2.01 0 0 0 1.036,-0.068 q 0.282,-0.113 0.46,-0.271 c 0.122,-0.114 0.205,-0.227 0.265,-0.356 a 1,1 0 0 0 0.084,-0.363 z m 2.114,-4.212 h 0.801 v 6.72 h -0.8 z m -32.2,15.656 c 0,0.854 -0.234,1.496 -0.695,1.935 q -0.692,0.657 -1.95,0.657 a 4.2,4.2 0 0 1 -1.165,-0.15 2.25,2.25 0 0 1 -0.87,-0.47 2.1,2.1 0 0 1 -0.543,-0.808 q -0.192,-0.487 -0.19,-1.157 v -4.294 h 0.893 v 4.294 c 0,0.597 0.158,1.05 0.483,1.368 0.325,0.318 0.787,0.469 1.376,0.469 0.575,0 1.006,-0.159 1.308,-0.469 0.295,-0.317 0.446,-0.77 0.446,-1.368 v -4.294 h 0.892 v 4.287 z m 1.19,-2.441 h 0.756 v 0.772 h 0.023 c 0.166,-0.303 0.385,-0.522 0.658,-0.666 a 1.9,1.9 0 0 1 0.93,-0.219 c 0.317,0 0.59,0.045 0.8,0.129 q 0.318,0.133 0.522,0.37 c 0.129,0.159 0.227,0.34 0.28,0.56 0.053,0.219 0.083,0.453 0.083,0.718 v 3.205 h -0.801 v -3.296 c 0,-0.302 -0.09,-0.537 -0.265,-0.718 q -0.26,-0.263 -0.725,-0.265 -0.363,0 -0.635,0.114 a 1.2,1.2 0 0 0 -0.446,0.317 c -0.121,0.136 -0.212,0.303 -0.273,0.484 a 2,2 0 0 0 -0.09,0.605 v 2.751 h -0.802 v -4.86 z m 5.983,-0.877 h -0.801 v -0.982 h 0.801 z m -0.801,0.877 h 0.801 v 4.869 h -0.801 z m 4.247,4.868 h -0.855 l -1.806,-4.868 h 0.892 l 1.368,4.06 h 0.015 l 1.33,-4.06 h 0.84 z m 6.671,-1.544 c -0.105,0.537 -0.34,0.952 -0.71,1.232 q -0.546,0.422 -1.376,0.423 c -0.393,0 -0.726,-0.068 -1.013,-0.196 a 1.96,1.96 0 0 1 -0.718,-0.53 2.3,2.3 0 0 1 -0.439,-0.808 4,4 0 0 1 -0.166,-1.028 q -0.002,-0.546 0.166,-1.013 0.171,-0.466 0.477,-0.81 0.306,-0.337 0.725,-0.528 0.418,-0.192 0.915,-0.19 0.649,0 1.081,0.273 0.429,0.272 0.688,0.68 c 0.174,0.28 0.295,0.575 0.355,0.907 0.068,0.325 0.091,0.635 0.084,0.93 h -3.644 q -0.014,0.32 0.076,0.605 c 0.053,0.189 0.15,0.363 0.272,0.506 0.128,0.152 0.287,0.265 0.484,0.356 0.196,0.09 0.423,0.128 0.687,0.128 0.333,0 0.613,-0.075 0.832,-0.234 0.22,-0.159 0.363,-0.393 0.43,-0.718 h 0.795 z m -0.786,-1.353 a 1.6,1.6 0 0 0 -0.128,-0.537 1.4,1.4 0 0 0 -0.295,-0.438 1.5,1.5 0 0 0 -0.438,-0.295 1.3,1.3 0 0 0 -0.545,-0.106 q -0.308,0.002 -0.56,0.106 -0.249,0.113 -0.43,0.295 a 1.4,1.4 0 0 0 -0.28,0.438 c -0.068,0.166 -0.113,0.34 -0.12,0.53 h 2.796 z m 1.757,-1.971 h 0.756 v 1.029 h 0.015 c 0.197,-0.394 0.431,-0.688 0.719,-0.877 0.28,-0.19 0.642,-0.28 1.073,-0.265 v 0.847 q -0.476,0.002 -0.816,0.128 a 1.3,1.3 0 0 0 -0.545,0.386 1.6,1.6 0 0 0 -0.302,0.62 q -0.09,0.364 -0.09,0.831 v 2.17 h -0.802 v -4.868 z m 3.728,3.333 a 0.9,0.9 0 0 0 0.12,0.454 0.9,0.9 0 0 0 0.296,0.287 c 0.12,0.076 0.257,0.121 0.415,0.159 q 0.227,0.045 0.477,0.045 c 0.128,0 0.257,-0.007 0.393,-0.03 q 0.206,-0.025 0.378,-0.106 a 0.75,0.75 0 0 0 0.287,-0.22 0.6,0.6 0 0 0 0.113,-0.37 0.52,0.52 0 0 0 -0.136,-0.378 1.1,1.1 0 0 0 -0.355,-0.241 4,4 0 0 0 -0.506,-0.16 q -0.284,-0.057 -0.59,-0.128 a 7,7 0 0 1 -0.582,-0.158 2,2 0 0 1 -0.507,-0.242 1.1,1.1 0 0 1 -0.362,-0.386 1.14,1.14 0 0 1 -0.137,-0.582 c 0,-0.242 0.053,-0.453 0.167,-0.627 0.113,-0.174 0.25,-0.318 0.423,-0.431 0.174,-0.114 0.37,-0.19 0.582,-0.242 0.22,-0.053 0.431,-0.083 0.643,-0.083 0.272,0 0.521,0.022 0.756,0.068 0.234,0.045 0.446,0.128 0.62,0.242 0.181,0.113 0.325,0.272 0.43,0.468 q 0.157,0.297 0.19,0.741 h -0.802 a 0.78,0.78 0 0 0 -0.393,-0.642 1.3,1.3 0 0 0 -0.348,-0.136 1.96,1.96 0 0 0 -0.756,-0.015 c -0.12,0.022 -0.234,0.052 -0.332,0.098 a 0.6,0.6 0 0 0 -0.242,0.196 0.5,0.5 0 0 0 -0.09,0.303 c 0,0.143 0.044,0.264 0.143,0.347 q 0.145,0.139 0.37,0.22 c 0.151,0.06 0.318,0.113 0.507,0.15 q 0.284,0.06 0.567,0.13 0.306,0.068 0.59,0.158 c 0.188,0.06 0.362,0.144 0.506,0.25 0.15,0.105 0.264,0.234 0.355,0.393 0.09,0.158 0.136,0.347 0.136,0.582 q 0,0.43 -0.181,0.725 a 1.4,1.4 0 0 1 -0.484,0.477 2.1,2.1 0 0 1 -0.665,0.257 3.5,3.5 0 0 1 -1.52,-0.016 2,2 0 0 1 -0.642,-0.28 1.4,1.4 0 0 1 -0.454,-0.506 1.8,1.8 0 0 1 -0.189,-0.77 z m 4.98,-4.21 h -0.801 v -0.982 h 0.801 z m -0.801,0.877 h 0.801 v 4.869 h -0.801 z m 3.057,0 h 0.967 v 0.703 h -0.967 v 3.024 q 0,0.137 0.022,0.227 a 0.23,0.23 0 0 0 0.09,0.129 q 0.07,0.047 0.182,0.06 c 0.076,0.008 0.182,0.015 0.303,0.015 h 0.37 v 0.703 h -0.612 c -0.204,0 -0.386,-0.015 -0.53,-0.045 a 0.8,0.8 0 0 1 -0.355,-0.159 0.7,0.7 0 0 1 -0.204,-0.317 1.8,1.8 0 0 1 -0.068,-0.545 v -3.098 h -0.831 v -0.703 h 0.831 v -1.459 h 0.801 z m 3.884,5.517 c -0.091,0.243 -0.19,0.44 -0.28,0.605 -0.09,0.167 -0.19,0.295 -0.295,0.401 a 0.9,0.9 0 0 1 -0.37,0.227 1.5,1.5 0 0 1 -0.469,0.068 c -0.09,0 -0.189,-0.008 -0.28,-0.015 a 1.6,1.6 0 0 1 -0.272,-0.068 v -0.733 c 0.076,0.022 0.151,0.052 0.234,0.075 a 0.9,0.9 0 0 0 0.242,0.038 0.62,0.62 0 0 0 0.393,-0.113 c 0.099,-0.076 0.19,-0.19 0.265,-0.333 l 0.333,-0.832 -1.928,-4.838 h 0.907 l 1.421,3.984 h 0.015 l 1.369,-3.984 h 0.846 z m -38.433,8.286 c 0,-0.356 0.052,-0.696 0.15,-1.006 a 2.18,2.18 0 0 1 1.195,-1.353 2.5,2.5 0 0 1 1.02,-0.196 c 0.386,0 0.719,0.068 1.02,0.196 q 0.445,0.193 0.742,0.544 c 0.204,0.227 0.355,0.5 0.453,0.81 0.098,0.31 0.151,0.642 0.151,1.005 q -0.002,0.533 -0.15,0.997 c -0.099,0.31 -0.25,0.575 -0.454,0.81 a 2.2,2.2 0 0 1 -0.741,0.544 2.5,2.5 0 0 1 -1.02,0.196 c -0.386,0 -0.734,-0.068 -1.021,-0.196 a 2.05,2.05 0 0 1 -0.741,-0.545 2.2,2.2 0 0 1 -0.454,-0.809 3.3,3.3 0 0 1 -0.15,-0.997 m 0.853,0 c 0,0.294 0.038,0.559 0.121,0.786 0.076,0.227 0.19,0.423 0.325,0.574 a 1.396,1.396 0 0 0 1.073,0.476 c 0.205,0 0.402,-0.037 0.59,-0.12 0.182,-0.084 0.348,-0.197 0.484,-0.356 a 1.6,1.6 0 0 0 0.325,-0.574 c 0.076,-0.227 0.121,-0.492 0.121,-0.786 0,-0.294 -0.037,-0.56 -0.12,-0.787 a 1.7,1.7 0 0 0 -0.326,-0.582 1.3,1.3 0 0 0 -0.483,-0.355 1.4,1.4 0 0 0 -0.59,-0.12 1.41,1.41 0 0 0 -1.073,0.476 c -0.137,0.158 -0.25,0.347 -0.326,0.581 a 2.3,2.3 0 0 0 -0.12,0.787 m 5.034,-1.739 h -0.816 v -0.703 h 0.816 v -0.726 q 0,-0.591 0.34,-0.9 c 0.227,-0.203 0.567,-0.301 1.006,-0.301 0.075,0 0.158,0.007 0.257,0.015 0.098,0.015 0.181,0.03 0.257,0.053 v 0.695 a 1,1 0 0 0 -0.227,-0.053 c -0.083,-0.007 -0.159,-0.015 -0.227,-0.015 q -0.295,0 -0.454,0.113 -0.158,0.114 -0.158,0.431 v 0.68 h 0.945 v 0.704 h -0.945 v 4.165 H 14.15 v -4.158 z m 5.043,-2.555 h 1.225 l 2.116,5.647 2.132,-5.647 H 25.9 v 6.72 h -0.847 v -5.594 H 25.03 l -2.101,5.594 h -0.764 l -2.101,-5.594 h -0.015 v 5.594 H 19.2 Z m 11.997,6.72 h -0.756 v -0.77 h -0.015 a 1.6,1.6 0 0 1 -0.658,0.664 1.9,1.9 0 0 1 -0.93,0.22 c -0.317,0 -0.59,-0.046 -0.801,-0.129 a 1.4,1.4 0 0 1 -0.522,-0.37 1.4,1.4 0 0 1 -0.28,-0.56 3,3 0 0 1 -0.083,-0.718 v -3.205 h 0.802 v 3.296 c 0,0.302 0.09,0.536 0.264,0.718 q 0.261,0.262 0.726,0.264 0.363,0 0.635,-0.113 a 1.2,1.2 0 0 0 0.446,-0.317 c 0.121,-0.137 0.212,-0.303 0.272,-0.484 q 0.09,-0.275 0.09,-0.605 v -2.753 h 0.802 v 4.861 z m 1.096,-4.868 h 0.756 v 0.771 h 0.022 q 0.25,-0.451 0.658,-0.665 a 1.9,1.9 0 0 1 0.93,-0.22 c 0.317,0 0.59,0.046 0.801,0.13 0.212,0.09 0.386,0.21 0.522,0.37 0.128,0.158 0.227,0.34 0.28,0.559 0.053,0.219 0.083,0.454 0.083,0.718 v 3.205 h -0.802 v -3.295 c 0,-0.303 -0.09,-0.537 -0.264,-0.719 -0.174,-0.173 -0.416,-0.264 -0.726,-0.264 q -0.362,0 -0.635,0.113 a 1.2,1.2 0 0 0 -0.446,0.318 c -0.12,0.136 -0.212,0.302 -0.272,0.484 a 2,2 0 0 0 -0.09,0.604 v 2.752 h -0.802 v -4.86 z m 6.014,-0.877 h -0.801 v -0.982 h 0.801 z m -0.801,0.877 h 0.801 v 4.868 h -0.801 z m 5.249,1.565 a 1.2,1.2 0 0 0 -0.4,-0.718 c -0.205,-0.167 -0.47,-0.257 -0.81,-0.257 q -0.43,0 -0.725,0.158 c -0.197,0.106 -0.348,0.25 -0.469,0.424 a 1.9,1.9 0 0 0 -0.25,0.605 3.2,3.2 0 0 0 -0.075,0.71 q 0.002,0.34 0.083,0.658 0.08,0.316 0.25,0.567 0.168,0.251 0.438,0.4 0.271,0.15 0.658,0.152 c 0.385,0 0.695,-0.106 0.922,-0.318 0.227,-0.212 0.363,-0.499 0.416,-0.87 h 0.816 q -0.135,0.896 -0.68,1.392 -0.546,0.498 -1.467,0.499 -0.553,0 -0.983,-0.182 a 2,2 0 0 1 -0.718,-0.514 2.3,2.3 0 0 1 -0.43,-0.786 3.2,3.2 0 0 1 -0.144,-1.005 c 0,-0.363 0.045,-0.703 0.143,-1.021 0.091,-0.317 0.235,-0.59 0.431,-0.831 0.19,-0.235 0.431,-0.424 0.718,-0.552 0.288,-0.136 0.62,-0.204 1.013,-0.204 0.28,0 0.537,0.03 0.78,0.098 0.241,0.068 0.453,0.166 0.642,0.302 q 0.284,0.204 0.453,0.522 c 0.114,0.211 0.19,0.46 0.22,0.748 h -0.832 z m 1.66,-3.417 h 0.801 v 2.57 h 0.015 a 1,1 0 0 1 0.272,-0.378 c 0.114,-0.106 0.242,-0.196 0.378,-0.257 0.137,-0.068 0.288,-0.113 0.439,-0.144 a 2.3,2.3 0 0 1 0.446,-0.045 c 0.317,0 0.59,0.045 0.801,0.129 q 0.318,0.133 0.522,0.37 c 0.128,0.159 0.227,0.34 0.28,0.56 0.052,0.219 0.083,0.453 0.083,0.718 v 3.205 h -0.802 v -3.296 c 0,-0.302 -0.09,-0.537 -0.264,-0.718 q -0.261,-0.263 -0.726,-0.265 -0.363,0 -0.635,0.114 a 1.2,1.2 0 0 0 -0.446,0.317 1.4,1.4 0 0 0 -0.272,0.484 2,2 0 0 0 -0.09,0.605 v 2.751 h -0.802 z"
     class="st1"
     id="path3" />
  <path
     d="m 258.17733,3.2827384 c -11.94895,0 -22.58955,5.64788 -29.39549,14.4192836 h 3.28756 c 6.34527,-7.273488 15.68637,-11.8654596 26.10793,-11.8654596 10.42157,0 19.76267,4.5919716 26.10794,11.8654596 h 3.28658 C 280.76689,8.9306184 270.12628,3.2827384 258.17733,3.2827384 m 0,7.1055246 a 29.95832,29.95832 0 0 0 -19.64872,7.313759 h 4.1588 a 27.404496,27.404496 0 0 1 15.48992,-4.759935 c 5.74611,0 11.07967,1.755262 15.48993,4.759935 h 4.15979 a 29.95832,29.95832 0 0 0 -19.64972,-7.313759 m -50.23568,9.8666 v 0.002 a 20.165387,20.165387 0 0 0 -17.38958,10.077782 20.165387,20.165387 0 0 0 0,20.155565 20.165387,20.165387 0 0 0 17.3886,10.0768 h 31.43463 a 27.99384,27.99384 0 0 1 -3.88673,-4.518304 h -27.48111 a 15.627438,15.627438 0 0 1 -13.54214,-7.817648 15.627438,15.627438 0 0 1 0,-15.637261 15.627438,15.627438 0 0 1 13.54214,-7.81863 v -0.002 h 27.52924 a 27.895616,27.895616 0 0 1 3.91718,-4.518304 h -31.44642 z m 68.90217,0 a 27.895616,27.895616 0 0 1 3.9879,4.518304 h 44.16642 v 0.002 a 15.627438,15.627438 0 0 1 13.54214,7.81863 15.627438,15.627438 0 0 1 0,15.637261 15.627438,15.627438 0 0 1 -13.54214,7.81863 h -41.71966 v 4.517322 h 41.78645 a 20.165387,20.165387 0 0 0 17.3886,-10.077782 20.165387,20.165387 0 0 0 0,-20.155565 20.165387,20.165387 0 0 0 -17.3886,-10.0768 v -0.002 z M 256.7963,31.936644 q -0.85454,0.02947 -1.70811,0.09331 -0.003,0.17091 -0.003,0.342802 0,1.150203 0.10805,2.272904 a 40.27184,40.27184 0 0 1 3.02628,-0.12278 c 3.19425,0.0059 6.39831,0.406647 9.40004,1.17083 a 37.914464,37.914464 0 0 1 9.12599,3.638217 18.66256,18.66256 0 0 0 -0.46853,-3.196209 40.76296,40.76296 0 0 0 -19.47978,-4.199076 z m -6.22838,0.699355 a 40.861184,40.861184 0 0 0 -10.40388,3.501685 18.66256,18.66256 0 0 0 -0.46853,3.189333 38.30736,38.30736 0 0 1 11.01778,-4.065491 q -0.1326,-1.296557 -0.14537,-2.625527 m -10.87241,8.948206 q 0.0982,1.64427 0.47049,3.199156 a 40.861184,40.861184 0 0 0 15.7954,4.154875 q -0.96652,-1.327006 -1.77785,-2.763041 a 37.32512,37.32512 0 0 1 -2.87698,-0.412541 38.012688,38.012688 0 0 1 -11.61106,-4.178449 m 37.05009,0.0039 a 38.30736,38.30736 0 0 1 -11.59338,4.173538 c -1.80929,0.331997 -3.65786,0.530409 -5.51037,0.597202 a 23.57376,23.57376 0 0 0 2.102,2.494889 q 1.46157,-0.127691 2.90841,-0.363429 a 40.27184,40.27184 0 0 0 11.62579,-3.715814 c 0.24458,-1.031352 0.40272,-2.0961 0.46853,-3.186386 M 228.69344,63.12077 c 6.80103,8.836231 17.48387,14.535188 29.48488,14.535188 12.001,0 22.68286,-5.698957 29.48488,-14.535188 h -3.27479 c -6.34822,7.34028 -15.73254,11.982346 -26.21009,11.982346 -10.47756,0 -19.8609,-4.642066 -26.20911,-11.983328 z m 9.70158,0 a 29.95832,29.95832 0 0 0 19.7833,7.429664 29.95832,29.95832 0 0 0 19.78231,-7.429664 h -4.12246 a 27.404496,27.404496 0 0 1 -15.65985,4.87584 27.404496,27.404496 0 0 1 -15.65986,-4.87584 z"
     fill="#3070b3"
     fill-opacity="1"
     stroke-width="1.57167"
     stroke-miterlimit="10"
     opacity="1"
     id="path4" />
  <path
     d="m 258.22055,17.379847 q -1.78178,0.002 -3.49186,0.264222 c -11.06985,1.689453 -19.58587,11.281027 -19.58587,22.812524 0,12.719026 10.35969,23.078711 23.07773,23.078711 4.80414,0 9.27235,-1.477289 12.97146,-4.002628 a 28.092064,28.092064 0 0 0 7.56718,1.031352 v -4.518304 q -1.69731,-9.82e-4 -3.33176,-0.230826 a 22.984416,22.984416 0 0 0 5.87085,-15.358305 c 0,-12.004937 -9.23305,-21.896094 -20.96493,-22.9687 l 0.008,-0.0108 a 23.57376,23.57376 0 0 0 -2.11967,-0.09724 z m 0,4.518304 a 18.525046,18.525046 0 0 1 18.55943,18.558442 18.505402,18.505402 0 0 1 -6.42385,14.061748 23.642517,23.642517 0 0 1 -15.2699,-22.145583 c 0,-3.759032 0.86928,-7.30983 2.42023,-10.460856 q 0.35558,-0.01375 0.71409,-0.01375 m -6.01131,0.989116 a 28.092064,28.092064 0 0 0 -1.6423,9.485491 c 0,10.877326 6.194,20.337279 15.24043,25.036316 a 18.564336,18.564336 0 0 1 -7.58682,1.606944 18.525046,18.525046 0 0 1 -18.55844,-18.559425 18.525046,18.525046 0 0 1 12.54615,-17.569326 m 66.83652,4.933791 q -2.59409,0 -4.88959,0.997956 a 12.965568,12.965568 0 0 0 -4.02522,2.72768 12.76912,12.76912 0 0 0 -2.69526,3.991824 12.130664,12.130664 0 0 0 -0.99796,4.88959 q 0,2.594096 0.99796,4.890573 a 13.26024,13.26024 0 0 0 2.69526,4.02522 13.26024,13.26024 0 0 0 4.02522,2.694284 12.130664,12.130664 0 0 0 4.88959,0.997956 q 1.76214,0 3.39266,-0.465582 a 12.572672,12.572672 0 0 0 3.06066,-1.297539 13.75136,13.75136 0 0 0 2.59508,-2.029308 12.179776,12.179776 0 0 0 1.96251,-2.66187 l -4.35721,-1.762139 a 10.018848,10.018848 0 0 1 -1.26513,1.529348 8.545488,8.545488 0 0 1 -1.56274,1.230747 8.054368,8.054368 0 0 1 -1.82992,0.831957 6.679232,6.679232 0 0 1 -1.99591,0.299583 7.465024,7.465024 0 0 1 -3.12745,-0.664976 8.545488,8.545488 0 0 1 -2.49489,-1.829913 8.741936,8.741936 0 0 1 -1.69633,-2.627492 8.054368,8.054368 0 0 1 -0.63158,-3.160849 q 0,-1.629536 0.63158,-3.126469 a 8.643712,8.643712 0 0 1 1.69731,-2.661871 8.054368,8.054368 0 0 1 2.49489,-1.795535 7.170352,7.170352 0 0 1 3.12647,-0.698372 q 1.03135,-9.82e-4 1.99591,0.298601 a 8.054368,8.054368 0 0 1 1.82992,0.831957 8.545488,8.545488 0 0 1 1.56274,1.230747 q 0.73177,0.698372 1.26513,1.496933 l 4.35721,-1.76312 a 11.78688,11.78688 0 0 0 -1.96251,-2.595078 12.081552,12.081552 0 0 0 -2.59508,-2.028326 11.78688,11.78688 0 0 0 -3.06066,-1.330935 12.278,12.278 0 0 0 -3.39266,-0.465582 m -112.48612,0.03241 v 25.182669 h 4.65778 v -13.1738 l 7.58388,9.148584 7.61825,-9.148584 v 13.173803 h 4.6568 V 27.853472 h -0.29958 l -11.97547,14.038174 -11.9411,-14.038174 z m 87.10504,0 q -1.53229,0 -3.19326,0.333962 a 9.233056,9.233056 0 0 0 -2.99387,1.162972 q -1.33093,0.798561 -2.19629,2.229685 -0.86437,1.396745 -0.86437,3.526241 0,1.463538 0.46558,2.561682 a 6.581008,6.581008 0 0 0 1.29656,1.862327 q 0.79954,0.766147 1.7975,1.296557 0.99697,0.500942 2.02832,0.831957 1.03136,0.300566 1.9969,0.498978 0.96358,0.166981 1.69633,0.299583 1.09814,0.200377 2.09512,0.432186 1.03135,0.233773 1.76312,0.56577 0.76614,0.333962 1.19833,0.864371 0.4646,0.500943 0.4646,1.231729 0,0.565771 -0.2986,1.163955 -0.29959,0.56577 -0.89875,1.031352 -0.59917,0.432185 -1.46354,0.731768 -0.86437,0.265205 -1.99591,0.266188 a 9.724176,9.724176 0 0 1 -4.09103,-0.897768 28.092064,28.092064 0 0 1 -3.76002,-2.196288 l -2.5273,3.725636 a 47.14752,47.14752 0 0 0 2.19531,1.463537 q 1.06376,0.665959 2.2621,1.164937 1.19735,0.465582 2.62749,0.731769 1.46452,0.299583 3.35926,0.299583 2.0627,0 3.76001,-0.465582 1.69633,-0.466564 2.92708,-1.364331 a 6.2470464,6.2470464 0 0 0 1.89572,-2.327909 q 0.66596,-1.397727 0.66596,-3.293451 0,-1.630518 -0.49898,-2.761076 -0.46558,-1.163955 -1.26414,-1.92912 a 6.38456,6.38456 0 0 0 -1.76312,-1.297539 12.081552,12.081552 0 0 0 -2.02931,-0.798561 16.69808,16.69808 0 0 0 -1.96251,-0.465581 29.4672,29.4672 0 0 1 -1.63052,-0.33298 126.70896,126.70896 0 0 0 -1.92912,-0.465582 12.76912,12.76912 0 0 1 -1.82992,-0.56577 q -0.83097,-0.332979 -1.36334,-0.830975 a 1.620696,1.620696 0 0 1 -0.53238,-1.231729 q 0,-0.730786 0.43219,-1.230747 0.46558,-0.532374 1.13154,-0.864371 0.69739,-0.332979 1.46354,-0.465582 a 6.482784,6.482784 0 0 1 1.36334,-0.16698 q 1.76312,0 3.35926,0.632562 1.59811,0.632563 3.32783,1.829913 l 2.5941,-3.659826 A 25.53824,25.53824 0 0 0 300.616,29.617572 10.31352,10.31352 0 0 0 298.62008,28.65203 q -1.03135,-0.397807 -2.22968,-0.598184 a 16.69808,16.69808 0 0 0 -2.72768,-0.200377"
     fill="#3c3c3c"
     fill-opacity="1"
     stroke-width="1.57167"
     stroke-miterlimit="10"
     opacity="1"
     id="path5" />
  <g
     stroke-width="0"
     id="g15"
     transform="translate(0,3.2825598)">
    <path
       fill="#333333"
       d="m 413.488,57.244 -5.588,-0.635 -0.03,-5.507 5.667,0.554 z m 21.354,-16.478 h -37.95 v -4.542 h 37.984 z"
       class="cls-3"
       id="path6" />
    <path
       fill="#231f20"
       d="m 399.933,35.224 h 31.902 l 3.04,1 h -37.983 z m 16.574,7.194 4.029,0.294 -6.999,8.944 -5.668,-0.554 z"
       class="cls-1"
       opacity="0.3"
       id="path7" />
    <path
       fill="#333333"
       d="m 405.122,22.09 -4.146,-0.163 -0.21,-5.87 4.173,-0.033 z"
       class="cls-3"
       id="path8" />
    <path
       fill="#231f20"
       d="m 427.983,16.943 -0.12,4.056 -22.741,1.092 -0.18,-6.055 z"
       class="cls-4"
       opacity="0.4"
       id="path9" />
    <path
       fill="#333333"
       d="m 426.315,33.566 -20.79,-4.966 -0.1,-4.09 21.088,3.168 z"
       class="cls-3"
       id="path10" />
    <path
       fill="#231f20"
       d="m 426.513,27.678 -21.088,-3.168 3.598,-0.145 21.834,2.973 z"
       class="cls-1"
       opacity="0.3"
       id="path11" />
    <path
       fill="#231f20"
       d="m 479.174,38.569 -3.013,0.028 0.85,-0.508 2.962,0.003 z"
       class="cls-4"
       opacity="0.4"
       id="path12" />
    <path
       fill="#1a1a1a"
       d="m 450.234,28.248 h 2.704 l 3.89,8.43 3.882,-8.443 h 2.686 l 0.015,12.599 h -2.614 l -0.01,-7.157 -3.326,7.163 H 456.2 l -3.326,-7.153 0.01,7.16 h -2.633 z m 18.573,11.809 c -1.07,-0.51 -1.9,-1.24 -2.482,-2.197 q -0.877,-1.433 -0.878,-3.363 -10e-4,-1.93 0.878,-3.418 a 6.1,6.1 0 0 1 2.423,-2.312 q 1.54,-0.821 3.434,-0.826 1.893,-0.002 3.419,0.817 a 6.1,6.1 0 0 1 2.41,2.305 q 0.885,1.485 0.888,3.416 0,1.188 -0.548,2.308 -0.55,1.119 -1.376,1.788 h 2.2 v 2.234 l -6.637,0.01 c -1.417,0 -2.664,-0.251 -3.734,-0.762 z m 5.405,-2.098 a 3.32,3.32 0 0 0 1.386,-1.355 c 0.334,-0.597 0.504,-1.296 0.501,-2.1 q 0,-1.209 -0.517,-2.12 a 3.55,3.55 0 0 0 -1.407,-1.395 4.05,4.05 0 0 0 -1.993,-0.483 q -1.117,0 -2.01,0.49 a 3.6,3.6 0 0 0 -1.415,1.398 q -0.52,0.91 -0.52,2.119 0,1.838 1.096,2.874 1.09,1.034 2.858,1.033 1.136,0 2.02,-0.464 z m 9.322,2.899 q -1.136,-0.213 -1.86,-0.575 v -2.416 a 9,9 0 0 0 1.98,0.699 q 1.029,0.232 1.965,0.232 1.044,0 1.587,-0.362 0.543,-0.362 0.539,-1.012 0,-0.467 -0.273,-0.792 -0.27,-0.324 -0.786,-0.585 -0.515,-0.26 -1.577,-0.693 c -1.18,-0.48 -2.033,-1.014 -2.562,-1.612 -0.53,-0.597 -0.795,-1.33 -0.795,-2.209 0,-0.708 0.188,-1.336 0.575,-1.884 q 0.577,-0.82 1.621,-1.274 1.043,-0.45 2.417,-0.455 1.118,0 1.983,0.176 0.865,0.18 1.695,0.557 v 2.345 q -1.583,-0.789 -3.171,-0.789 c -0.674,0 -1.2,0.118 -1.587,0.353 q -0.576,0.353 -0.576,1.002 0,0.469 0.273,0.774 0.27,0.305 0.758,0.541 0.487,0.233 1.587,0.684 1.281,0.54 2.002,1.033 0.72,0.496 1.064,1.17 0.343,0.676 0.343,1.667 0.002,1.714 -1.231,2.67 -1.234,0.958 -3.685,0.96 -1.155,0 -2.29,-0.214 z m 10.615,-0.012 q -1.136,-0.213 -1.86,-0.575 v -2.417 a 9,9 0 0 0 1.98,0.7 q 1.029,0.232 1.965,0.232 1.044,0 1.587,-0.362 0.542,-0.363 0.539,-1.012 0,-0.471 -0.273,-0.792 -0.27,-0.326 -0.785,-0.585 -0.516,-0.26 -1.578,-0.693 -1.77,-0.719 -2.562,-1.609 -0.795,-0.89 -0.795,-2.209 c 0,-0.708 0.189,-1.336 0.575,-1.884 q 0.577,-0.821 1.621,-1.275 1.044,-0.45 2.417,-0.455 1.119,0 1.983,0.177 a 7.8,7.8 0 0 1 1.695,0.557 v 2.345 q -1.584,-0.79 -3.17,-0.79 c -0.675,0 -1.201,0.119 -1.588,0.354 q -0.575,0.352 -0.575,1.002 0,0.47 0.272,0.774 0.27,0.305 0.758,0.541 0.488,0.233 1.587,0.684 1.281,0.54 2.002,1.033 0.72,0.496 1.064,1.17 0.343,0.675 0.343,1.667 10e-4,1.714 -1.23,2.67 -1.236,0.958 -3.686,0.96 -1.155,0 -2.29,-0.214 z"
       class="cls-2"
       id="path13" />
    <g
       fill="#1a1a1a"
       stroke="#414042"
       stroke-miterlimit="10"
       stroke-width="0.2"
       id="g14">
      <path
         stroke-width="0.061878"
         d="m 450.293,45.072 h 0.76 l 1.86,4.072 1.86,-4.072 h 0.76 v 5.223 h -0.739 v -3.713 l -1.695,3.713 h -0.374 l -1.705,-3.713 v 3.713 h -0.733 v -5.223 z m 6.547,4.948 q -0.37,-0.39 -0.369,-1.04 v -2.271 h 0.755 v 2.24 q 10e-4,0.859 0.86,0.86 0.757,0 1.182,-0.68 v -2.42 h 0.755 v 3.586 h -0.733 v -0.508 q -0.256,0.322 -0.6,0.47 a 1.9,1.9 0 0 1 -0.752,0.15 q -0.725,0 -1.095,-0.39 z m 4.148,-3.311 h 0.734 v 0.517 q 0.254,-0.321 0.625,-0.474 0.37,-0.154 0.773,-0.154 0.72,0 1.068,0.38 0.351,0.38 0.35,1.024 v 2.293 h -0.756 v -2.218 q 0.001,-0.874 -0.838,-0.876 a 1.4,1.4 0 0 0 -0.668,0.167 1.5,1.5 0 0 0 -0.536,0.51 v 2.414 h -0.755 v -3.586 z m 4.61,-0.829 a 0.43,0.43 0 0 1 -0.126,-0.313 q 0,-0.186 0.126,-0.312 a 0.43,0.43 0 0 1 0.313,-0.127 c 0.124,0 0.238,0.043 0.325,0.127 q 0.13,0.126 0.13,0.312 a 0.42,0.42 0 0 1 -0.13,0.313 0.45,0.45 0 0 1 -0.325,0.127 0.42,0.42 0 0 1 -0.313,-0.127 z m -0.068,0.829 h 0.77 v 3.586 h -0.77 z m 2.64,3.474 a 1.66,1.66 0 0 1 -0.721,-0.652 c -0.174,-0.288 -0.257,-0.625 -0.257,-1.021 q 0,-0.592 0.257,-1.021 c 0.17,-0.285 0.414,-0.508 0.723,-0.662 a 2.4,2.4 0 0 1 1.071,-0.232 q 0.822,0 1.315,0.321 v 0.62 q -0.486,-0.337 -1.24,-0.338 -0.615,0 -0.99,0.334 -0.377,0.334 -0.378,0.975 -10e-4,0.64 0.374,0.971 0.375,0.329 0.978,0.328 0.756,0 1.3,-0.359 v 0.613 q -0.26,0.18 -0.595,0.263 a 3.2,3.2 0 0 1 -0.78,0.083 q -0.597,0 -1.06,-0.223 z m 3.254,-5.408 h 0.755 v 2.429 q 0.515,-0.605 1.374,-0.606 0.72,0 1.067,0.38 0.351,0.38 0.35,1.024 v 2.293 h -0.755 v -2.218 q 0,-0.875 -0.839,-0.876 a 1.4,1.4 0 0 0 -0.668,0.167 1.5,1.5 0 0 0 -0.535,0.51 v 2.414 h -0.755 v -5.52 z m 8.477,5.198 a 2.4,2.4 0 0 1 -1.014,-0.916 q -0.363,-0.593 -0.362,-1.386 c 0,-0.529 0.12,-1.005 0.359,-1.417 q 0.356,-0.617 0.987,-0.956 0.627,-0.34 1.404,-0.34 0.777,0 1.405,0.34 c 0.417,0.226 0.749,0.545 0.987,0.956 q 0.358,0.616 0.359,1.417 0,0.636 -0.288,1.16 a 2.07,2.07 0 0 1 -0.758,0.805 h 1.13 v 0.656 h -2.699 q -0.85,-0.001 -1.506,-0.322 z m 2.395,-0.597 q 0.449,-0.225 0.7,-0.662 0.25,-0.435 0.25,-1.043 c 0,-0.405 -0.087,-0.752 -0.26,-1.058 a 1.8,1.8 0 0 0 -0.708,-0.705 2.04,2.04 0 0 0 -1.003,-0.248 c -0.371,0 -0.702,0.084 -1.005,0.248 -0.304,0.164 -0.539,0.399 -0.715,0.702 a 2.1,2.1 0 0 0 -0.263,1.061 c 0,0.406 0.084,0.758 0.25,1.046 q 0.251,0.432 0.7,0.656 0.45,0.223 1.03,0.223 c 0.387,0 0.724,-0.075 1.024,-0.223 z m 2.813,0.644 q -0.37,-0.39 -0.369,-1.04 v -2.271 h 0.755 v 2.24 q 10e-4,0.859 0.86,0.86 0.757,0 1.182,-0.68 v -2.42 h 0.755 v 3.586 h -0.733 v -0.508 q -0.256,0.322 -0.6,0.47 a 1.9,1.9 0 0 1 -0.752,0.15 q -0.724,0 -1.095,-0.39 z m 4.278,0.055 q -0.394,-0.335 -0.393,-0.9 0,-0.599 0.378,-0.922 0.377,-0.325 1.073,-0.325 0.74,0 1.257,0.3 v -0.186 q -10e-4,-0.427 -0.257,-0.63 c -0.17,-0.137 -0.443,-0.205 -0.81,-0.205 q -0.331,0 -0.638,0.065 a 2.7,2.7 0 0 0 -0.557,0.176 v -0.612 c 0.148,-0.068 0.343,-0.127 0.582,-0.167 0.239,-0.04 0.47,-0.065 0.696,-0.065 q 0.89,0 1.318,0.393 c 0.284,0.26 0.43,0.625 0.43,1.086 V 50.3 h -0.709 v -0.402 a 1.5,1.5 0 0 1 -0.55,0.383 q -0.32,0.13 -0.774,0.13 -0.649,0 -1.043,-0.33 z m 1.881,-0.383 a 0.97,0.97 0 0 0 0.434,-0.396 V 48.81 a 1.94,1.94 0 0 0 -1.083,-0.313 q -0.433,0 -0.647,0.167 -0.213,0.168 -0.213,0.51 c 0,0.44 0.284,0.657 0.86,0.657 q 0.357,0 0.65,-0.143 z m 2.129,-2.983 h 0.733 v 0.517 q 0.255,-0.321 0.625,-0.474 0.371,-0.154 0.774,-0.154 0.72,0 1.067,0.38 0.351,0.38 0.35,1.024 v 2.293 h -0.755 v -2.218 q 0,-0.874 -0.839,-0.876 a 1.4,1.4 0 0 0 -0.668,0.167 1.5,1.5 0 0 0 -0.535,0.51 v 2.414 h -0.755 v -3.586 z m 5.025,3.385 q -0.296,-0.314 -0.294,-0.888 v -1.912 h -0.545 v -0.582 h 0.545 v -1.077 h 0.76 v 1.077 h 0.882 v 0.582 h -0.881 v 1.86 q 0,0.357 0.139,0.507 0.139,0.148 0.504,0.148 0.217,0.001 0.433,-0.096 v 0.597 a 2.2,2.2 0 0 1 -0.702,0.096 q -0.543,0 -0.841,-0.312 z m 2.546,-0.074 q -0.37,-0.39 -0.368,-1.04 v -2.271 h 0.755 v 2.24 q 0,0.859 0.86,0.86 0.755,0 1.182,-0.68 v -2.42 h 0.754 v 3.586 h -0.733 v -0.508 q -0.256,0.322 -0.6,0.47 a 1.9,1.9 0 0 1 -0.752,0.15 q -0.724,0 -1.095,-0.39 z m 4.149,-3.311 h 0.718 v 0.517 q 0.255,-0.314 0.575,-0.47 a 1.5,1.5 0 0 1 0.665,-0.158 q 0.432,10e-4 0.687,0.145 0.254,0.144 0.374,0.446 0.24,-0.291 0.588,-0.44 0.347,-0.148 0.7,-0.148 0.657,0 0.95,0.33 c 0.194,0.224 0.29,0.548 0.29,0.982 v 2.382 h -0.733 v -2.287 q -10e-4,-0.438 -0.164,-0.625 -0.164,-0.181 -0.56,-0.182 -0.567,0 -0.925,0.492 0.015,0.113 0.015,0.365 v 2.234 h -0.733 v -2.287 q 0,-0.44 -0.148,-0.625 -0.15,-0.181 -0.539,-0.182 c -0.377,0 -0.718,0.213 -1.015,0.643 v 2.45 h -0.74 V 46.706 Z M 451.004,58.24 A 2.8,2.8 0 0 1 450.29,58.026 V 57.34 c 0.476,0.222 0.993,0.337 1.547,0.337 q 1.165,0.002 1.166,-0.786 a 0.7,0.7 0 0 0 -0.127,-0.433 1.1,1.1 0 0 0 -0.365,-0.288 10,10 0 0 0 -0.776,-0.34 c -0.492,-0.198 -0.851,-0.418 -1.068,-0.656 q -0.329,-0.359 -0.328,-0.904 0,-0.41 0.223,-0.727 c 0.149,-0.21 0.359,-0.377 0.628,-0.492 0.27,-0.114 0.579,-0.176 0.925,-0.176 a 4,4 0 0 1 0.77,0.068 q 0.344,0.07 0.672,0.217 v 0.656 a 3.2,3.2 0 0 0 -1.315,-0.291 q -0.537,0 -0.823,0.195 a 0.63,0.63 0 0 0 -0.285,0.554 q -0.001,0.247 0.124,0.414 0.125,0.167 0.365,0.3 c 0.161,0.09 0.402,0.195 0.721,0.325 q 0.528,0.218 0.839,0.412 0.305,0.194 0.467,0.473 0.161,0.28 0.16,0.7 10e-4,0.677 -0.485,1.054 c -0.325,0.248 -0.801,0.375 -1.436,0.375 q -0.45,0 -0.885,-0.078 z m 4.341,-0.152 a 1.7,1.7 0 0 1 -0.718,-0.656 q -0.258,-0.431 -0.256,-1.011 -10e-4,-0.579 0.253,-1.009 0.255,-0.431 0.718,-0.668 0.464,-0.236 1.067,-0.235 0.604,-10e-4 1.068,0.235 0.463,0.237 0.72,0.668 0.257,0.431 0.258,1.009 c 0,0.383 -0.087,0.727 -0.257,1.011 a 1.7,1.7 0 0 1 -0.721,0.656 q -0.464,0.229 -1.068,0.23 -0.604,-10e-4 -1.064,-0.23 z m 1.99,-0.727 q 0.343,-0.359 0.343,-0.94 c 0,-0.387 -0.114,-0.721 -0.343,-0.956 q -0.345,-0.353 -0.926,-0.353 -0.58,0 -0.925,0.353 -0.343,0.353 -0.343,0.956 c 0,0.402 0.114,0.702 0.343,0.94 q 0.345,0.36 0.925,0.36 0.582,0 0.926,-0.36 z m 1.927,-2.159 h -0.544 V 54.62 h 0.544 v -0.702 c 0,-0.415 0.118,-0.727 0.35,-0.944 q 0.352,-0.325 0.94,-0.325 0.306,0 0.576,0.09 v 0.628 a 1,1 0 0 0 -0.433,-0.096 q -0.352,0 -0.517,0.167 -0.163,0.169 -0.164,0.526 v 0.656 h 0.897 v 0.582 h -0.897 v 3.004 h -0.755 v -3.004 z m 2.673,2.803 q -0.296,-0.313 -0.294,-0.888 v -1.912 h -0.544 v -0.582 h 0.544 v -1.076 h 0.761 v 1.076 h 0.882 v 0.582 h -0.882 v 1.86 q 0,0.358 0.14,0.507 0.138,0.148 0.504,0.148 0.216,0.002 0.433,-0.096 v 0.597 a 2.2,2.2 0 0 1 -0.702,0.096 q -0.544,0 -0.842,-0.312 z m 1.915,-3.385 h 0.77 l 0.808,2.66 0.798,-2.66 h 0.681 l 0.798,2.66 0.808,-2.66 h 0.776 l -1.166,3.586 h -0.724 l -0.83,-2.673 -0.828,2.673 h -0.734 z m 6.092,3.366 q -0.394,-0.334 -0.393,-0.9 0,-0.598 0.378,-0.922 0.377,-0.325 1.073,-0.325 0.74,0 1.256,0.3 v -0.185 q 0,-0.427 -0.256,-0.632 -0.257,-0.204 -0.811,-0.204 -0.33,0 -0.637,0.065 a 2.7,2.7 0 0 0 -0.557,0.177 v -0.613 c 0.148,-0.068 0.343,-0.127 0.581,-0.167 0.239,-0.04 0.47,-0.065 0.697,-0.065 q 0.89,0 1.318,0.393 c 0.284,0.26 0.43,0.625 0.43,1.086 v 2.218 h -0.709 V 57.81 a 1.5,1.5 0 0 1 -0.55,0.384 q -0.32,0.13 -0.774,0.13 -0.649,-10e-4 -1.043,-0.332 z m 1.881,-0.386 a 0.97,0.97 0 0 0 0.433,-0.396 v -0.486 a 1.94,1.94 0 0 0 -1.082,-0.313 q -0.433,0 -0.647,0.167 -0.213,0.168 -0.214,0.51 -10e-4,0.659 0.86,0.657 0.358,0 0.65,-0.143 z m 2.129,-2.98 h 0.733 v 0.644 q 0.223,-0.329 0.631,-0.486 0.41,-0.158 0.944,-0.158 v 0.591 q -0.575,0 -0.987,0.186 a 1.03,1.03 0 0 0 -0.566,0.59 v 2.219 h -0.755 z m 3.171,3.202 q -0.562,-0.496 -0.563,-1.401 c 0,-0.604 0.167,-1.052 0.504,-1.396 q 0.507,-0.515 1.439,-0.516 0.62,-10e-4 1.055,0.235 0.433,0.236 0.653,0.65 0.219,0.413 0.22,0.943 v 0.375 h -3.153 q 0.036,0.506 0.43,0.758 0.393,0.25 1.064,0.25 0.344,0 0.696,-0.065 0.351,-0.065 0.62,-0.167 v 0.607 a 3,3 0 0 1 -0.632,0.16 q -0.391,0.066 -0.774,0.065 -0.993,0 -1.559,-0.498 z m 2.596,-1.643 q -0.014,-0.505 -0.334,-0.789 -0.315,-0.28 -0.9,-0.281 c -0.39,0 -0.672,0.096 -0.882,0.29 -0.21,0.196 -0.319,0.452 -0.328,0.777 h 2.444 z m 4.857,2.061 a 2.8,2.8 0 0 1 -0.714,-0.214 V 57.34 c 0.476,0.222 0.993,0.337 1.547,0.337 q 1.165,0.002 1.166,-0.786 a 0.7,0.7 0 0 0 -0.127,-0.433 1.1,1.1 0 0 0 -0.365,-0.288 10,10 0 0 0 -0.776,-0.34 c -0.492,-0.198 -0.851,-0.418 -1.068,-0.656 q -0.329,-0.359 -0.328,-0.904 0,-0.41 0.223,-0.727 c 0.148,-0.21 0.359,-0.377 0.628,-0.492 0.27,-0.114 0.579,-0.176 0.925,-0.176 a 4,4 0 0 1 0.77,0.068 q 0.344,0.07 0.672,0.217 v 0.656 a 3.2,3.2 0 0 0 -1.315,-0.291 q -0.537,0 -0.823,0.195 a 0.63,0.63 0 0 0 -0.285,0.554 q -0.001,0.247 0.124,0.414 0.125,0.167 0.365,0.3 c 0.161,0.09 0.402,0.195 0.721,0.325 q 0.529,0.218 0.838,0.412 0.307,0.194 0.468,0.473 0.161,0.28 0.16,0.7 10e-4,0.677 -0.485,1.054 -0.486,0.373 -1.436,0.375 -0.45,0 -0.885,-0.078 z m 3.908,-0.235 q -0.295,-0.313 -0.294,-0.888 v -1.912 h -0.544 v -0.582 h 0.544 v -1.076 h 0.761 v 1.076 h 0.882 v 0.582 h -0.882 v 1.86 q 0,0.358 0.14,0.507 0.138,0.148 0.504,0.148 0.216,0.002 0.433,-0.096 v 0.597 a 2.2,2.2 0 0 1 -0.703,0.096 q -0.543,0 -0.841,-0.312 z m 2.386,-0.019 q -0.395,-0.334 -0.394,-0.9 0,-0.598 0.378,-0.922 0.377,-0.325 1.073,-0.325 0.74,0 1.257,0.3 v -0.185 q -0.001,-0.427 -0.257,-0.632 c -0.17,-0.136 -0.443,-0.204 -0.81,-0.204 q -0.331,0 -0.638,0.065 a 2.7,2.7 0 0 0 -0.557,0.177 v -0.613 c 0.148,-0.068 0.343,-0.127 0.582,-0.167 0.239,-0.04 0.47,-0.065 0.696,-0.065 q 0.89,0 1.318,0.393 c 0.284,0.26 0.43,0.625 0.43,1.086 v 2.218 h -0.709 V 57.81 a 1.5,1.5 0 0 1 -0.55,0.384 q -0.32,0.13 -0.774,0.13 -0.649,-10e-4 -1.043,-0.332 z m 1.877,-0.386 a 0.97,0.97 0 0 0 0.433,-0.396 v -0.486 a 1.94,1.94 0 0 0 -1.082,-0.313 q -0.433,0 -0.647,0.167 -0.213,0.168 -0.213,0.51 c 0,0.44 0.284,0.657 0.86,0.657 q 0.356,0 0.65,-0.143 z m 2.81,0.495 a 1.66,1.66 0 0 1 -0.721,-0.653 c -0.174,-0.288 -0.257,-0.625 -0.257,-1.021 q 10e-4,-0.592 0.257,-1.021 0.257,-0.43 0.724,-0.662 a 2.4,2.4 0 0 1 1.07,-0.232 q 0.823,0 1.315,0.321 v 0.62 q -0.486,-0.337 -1.24,-0.338 -0.614,0 -0.99,0.334 -0.377,0.334 -0.378,0.975 0,0.64 0.374,0.971 0.375,0.329 0.978,0.328 0.756,0 1.3,-0.359 v 0.613 q -0.26,0.18 -0.595,0.263 a 3.2,3.2 0 0 1 -0.78,0.083 q -0.597,0 -1.06,-0.222 z m 3.254,-5.409 h 0.755 v 5.52 h -0.755 z m 0.765,3.704 1.652,-1.77 h 0.919 l -1.659,1.77 1.832,1.816 h -0.919 l -1.822,-1.816 z"
         class="cls-5"
         id="path14" />
    </g>
  </g>
</svg>
